<svg width="530" height="252" viewBox="0 0 530 252" fill="none" xmlns="http://www.w3.org/2000/svg">
<rect x="0.5" y="0.5" width="529" height="251" rx="19.5" fill="white" fill-opacity="0.25"/>
<rect x="0.5" y="0.5" width="529" height="251" rx="19.5" stroke="white"/>
<path d="M322.041 110.239C321.104 104.344 314.943 100.254 308.306 101.114C296.019 102.713 280.908 111.656 279.912 112.25C278.594 111.357 277.004 110.832 275.294 110.832H254.85C253.141 110.832 251.553 111.356 250.233 112.25C249.237 111.654 234.124 102.713 221.838 101.114C215.199 100.254 209.041 104.344 208.104 110.237C207.965 111.103 207.965 146.444 208.104 147.305C208.955 152.672 214.137 156.545 220.068 156.545C220.652 156.545 221.244 156.509 221.838 156.43C225.326 155.976 229.036 154.92 232.594 153.641C229.667 158.339 225.855 163.946 224.41 166.054C223.833 166.897 223.837 167.982 224.42 168.82C225.004 169.659 226.025 170.039 227.019 169.793L238.889 166.825L241.482 178.169C241.663 178.967 242.23 179.618 242.998 179.911C243.282 180.021 243.58 180.074 243.874 180.074C244.372 180.074 244.862 179.922 245.277 179.629C256.759 171.521 261.987 152.481 263.344 146.713H267.207C268.564 152.482 273.793 171.523 285.273 179.629C285.689 179.923 286.18 180.076 286.677 180.076C286.972 180.076 287.269 180.023 287.554 179.914C288.321 179.621 288.888 178.969 289.072 178.169L291.665 166.825L303.533 169.791C304.529 170.043 305.548 169.661 306.134 168.82C306.717 167.982 306.721 166.896 306.144 166.052C304.719 163.973 300.988 158.488 298.077 153.832C301.472 155.026 304.991 155.999 308.305 156.43C308.901 156.509 309.491 156.546 310.075 156.546C316.004 156.546 321.187 152.673 322.037 147.308C322.175 146.442 322.175 111.101 322.037 110.239L322.041 110.239ZM254.85 114.957H275.294C277.569 114.957 279.419 116.808 279.419 119.082V138.462C279.419 140.737 277.569 142.587 275.294 142.587H254.85C252.576 142.587 250.725 140.737 250.725 138.462V124.668V124.666V119.083C250.725 116.808 252.576 114.958 254.85 114.958V114.957ZM221.306 152.34C216.863 152.915 212.765 150.368 212.196 146.817C212.111 145.299 212.111 112.247 212.177 110.886C212.765 107.174 216.861 104.622 221.306 105.206C231.505 106.532 244.446 113.681 247.491 115.43C246.939 116.536 246.6 117.767 246.6 119.085V121.525L235.26 116.649C234.213 116.196 233 116.684 232.55 117.728C232.101 118.774 232.586 119.988 233.631 120.438L246.6 126.013V131.532L233.631 137.107C232.585 137.556 232.1 138.771 232.55 139.817C232.886 140.596 233.648 141.065 234.446 141.065C234.718 141.065 234.994 141.011 235.26 140.895L246.6 136.022V138.462C246.6 139.779 246.941 141.009 247.491 142.117C244.445 143.865 231.505 151.012 221.306 152.341L221.306 152.34ZM244.906 174.646L242.524 164.226C242.378 163.591 241.976 163.032 241.419 162.691C240.862 162.349 240.181 162.246 239.554 162.405L230.296 164.721C233.054 160.616 236.922 154.707 238.857 151.116C245.006 148.381 249.69 145.615 250.23 145.294C251.548 146.187 253.138 146.711 254.848 146.711H259.089C257.622 152.511 253.247 167.121 244.906 174.645L244.906 174.646ZM300.254 164.721L290.998 162.406C290.363 162.241 289.686 162.351 289.131 162.691C288.574 163.031 288.172 163.59 288.026 164.23L285.643 174.645C277.303 167.123 272.931 152.51 271.461 146.711H275.291C277.001 146.711 278.589 146.187 279.909 145.294C280.466 145.626 285.406 148.548 291.82 151.36C293.796 154.971 297.558 160.709 300.253 164.72L300.254 164.721ZM317.965 146.659C317.377 150.369 313.279 152.921 308.836 152.339C298.637 151.013 285.697 143.864 282.651 142.115C283.204 141.009 283.542 139.778 283.542 138.46V136.02L294.882 140.894C295.148 141.007 295.424 141.063 295.697 141.063C296.497 141.063 297.256 140.595 297.592 139.815C298.042 138.769 297.557 137.554 296.511 137.105L283.542 131.53V126.011L296.511 120.436C297.557 119.987 298.042 118.771 297.592 117.726C297.14 116.678 295.927 116.192 294.882 116.647L283.542 121.523V119.083C283.542 117.765 283.202 116.536 282.651 115.428C285.697 113.68 298.637 106.533 308.836 105.204C313.279 104.627 317.377 107.176 317.947 110.728C318.031 112.246 318.031 145.297 317.965 146.658L317.965 146.659Z" fill="#DA78AC"/>
<rect x="251" y="1" width="30" height="84" fill="#DA78AC"/>
<rect x="251" y="195" width="30" height="56" fill="#DA78AC"/>
<rect x="193" y="115" width="30" height="192" transform="rotate(90 193 115)" fill="#DA78AC"/>
<rect x="529" y="115" width="30" height="191" transform="rotate(90 529 115)" fill="#DA78AC"/>
</svg>
