<svg width="255" height="521" viewBox="0 0 255 521" fill="none" xmlns="http://www.w3.org/2000/svg">
<rect x="0.5" y="0.5" width="254" height="520" rx="19.5" fill="white" fill-opacity="0.25"/>
<rect x="0.5" y="0.5" width="254" height="520" rx="19.5" stroke="white"/>
<path d="M184.041 230.239C183.104 224.344 176.943 220.254 170.306 221.114C158.019 222.713 142.908 231.656 141.912 232.25C140.594 231.357 139.004 230.832 137.294 230.832H116.85C115.141 230.832 113.553 231.356 112.233 232.25C111.237 231.654 96.1243 222.713 83.8384 221.114C77.1993 220.254 71.041 224.344 70.1038 230.237C69.9654 231.103 69.9654 266.444 70.1038 267.305C70.9554 272.672 76.1366 276.545 82.0685 276.545C82.652 276.545 83.2442 276.509 83.8379 276.43C87.3257 275.976 91.0361 274.92 94.5938 273.641C91.6673 278.339 87.8555 283.946 86.4101 286.054C85.8326 286.897 85.8369 287.982 86.4204 288.82C87.0039 289.659 88.0248 290.039 89.0191 289.793L100.889 286.825L103.482 298.169C103.663 298.967 104.23 299.618 104.998 299.911C105.282 300.021 105.58 300.074 105.874 300.074C106.372 300.074 106.862 299.922 107.277 299.629C118.759 291.521 123.987 272.481 125.344 266.713H129.207C130.564 272.482 135.793 291.523 147.273 299.629C147.689 299.923 148.18 300.076 148.677 300.076C148.972 300.076 149.269 300.023 149.554 299.914C150.321 299.621 150.888 298.969 151.072 298.169L153.665 286.825L165.533 289.791C166.529 290.043 167.548 289.661 168.134 288.82C168.717 287.982 168.721 286.896 168.144 286.052C166.719 283.973 162.988 278.488 160.077 273.832C163.472 275.026 166.991 275.999 170.305 276.43C170.901 276.509 171.491 276.546 172.075 276.546C178.004 276.546 183.187 272.673 184.037 267.308C184.175 266.442 184.175 231.101 184.037 230.239L184.041 230.239ZM116.85 234.957H137.294C139.569 234.957 141.419 236.808 141.419 239.082V258.462C141.419 260.737 139.569 262.587 137.294 262.587H116.85C114.576 262.587 112.725 260.737 112.725 258.462V244.668V244.666V239.083C112.725 236.808 114.576 234.958 116.85 234.958V234.957ZM83.306 272.34C78.8634 272.915 74.765 270.368 74.1958 266.817C74.1111 265.299 74.1111 232.247 74.1773 230.886C74.7651 227.174 78.8613 224.622 83.306 225.206C93.5051 226.532 106.446 233.681 109.491 235.43C108.939 236.536 108.6 237.767 108.6 239.085V241.525L97.2604 236.649C96.2128 236.196 94.9998 236.684 94.5503 237.728C94.1009 238.774 94.5856 239.988 95.631 240.438L108.6 246.013V251.532L95.631 257.107C94.5851 257.556 94.1005 258.771 94.5503 259.817C94.8863 260.596 95.6478 261.065 96.4456 261.065C96.7181 261.065 96.9943 261.011 97.2603 260.895L108.6 256.022V258.462C108.6 259.779 108.941 261.009 109.491 262.117C106.445 263.865 93.5051 271.012 83.3059 272.341L83.306 272.34ZM106.906 294.646L104.524 284.226C104.378 283.591 103.976 283.032 103.419 282.691C102.862 282.349 102.181 282.246 101.554 282.405L92.2958 284.721C95.0535 280.616 98.9224 274.707 100.857 271.116C107.006 268.381 111.69 265.615 112.23 265.294C113.548 266.187 115.138 266.711 116.848 266.711H121.089C119.622 272.511 115.247 287.121 106.906 294.645L106.906 294.646ZM162.254 284.721L152.998 282.406C152.363 282.241 151.686 282.351 151.131 282.691C150.574 283.031 150.172 283.59 150.026 284.23L147.643 294.645C139.303 287.123 134.931 272.51 133.461 266.711H137.291C139.001 266.711 140.589 266.187 141.909 265.294C142.466 265.626 147.406 268.548 153.82 271.36C155.796 274.971 159.558 280.709 162.253 284.72L162.254 284.721ZM179.965 266.659C179.377 270.369 175.279 272.921 170.836 272.339C160.637 271.013 147.697 263.864 144.651 262.115C145.204 261.009 145.542 259.778 145.542 258.46V256.02L156.882 260.894C157.148 261.007 157.424 261.063 157.697 261.063C158.497 261.063 159.256 260.595 159.592 259.815C160.042 258.769 159.557 257.554 158.511 257.105L145.542 251.53V246.011L158.511 240.436C159.557 239.987 160.042 238.771 159.592 237.726C159.14 236.678 157.927 236.192 156.882 236.647L145.542 241.523V239.083C145.542 237.765 145.202 236.536 144.651 235.428C147.697 233.68 160.637 226.533 170.836 225.204C175.279 224.627 179.377 227.176 179.947 230.728C180.031 232.246 180.031 265.297 179.965 266.658L179.965 266.659Z" fill="#DA78AC"/>
<rect x="113" y="1" width="30" height="203" fill="#DA78AC"/>
<rect x="113" y="316" width="30" height="204" fill="#DA78AC"/>
<rect x="55" y="235" width="30" height="54" transform="rotate(90 55 235)" fill="#DA78AC"/>
<rect x="254" y="235" width="30" height="54" transform="rotate(90 254 235)" fill="#DA78AC"/>
</svg>
