<svg width="255" height="254" viewBox="0 0 255 254" fill="none" xmlns="http://www.w3.org/2000/svg">
<rect width="255" height="254" rx="20" fill="#F0583B"/>
<path d="M158.667 72.6666C165.433 72.6666 170.933 67.1658 170.933 60.4C170.933 53.6341 165.433 48.1333 158.667 48.1333C151.901 48.1333 146.4 53.6341 146.4 60.4C146.4 67.1658 151.901 72.6666 158.667 72.6666ZM158.667 54.2666C162.048 54.2666 164.8 57.019 164.8 60.4C164.8 63.781 162.048 66.5333 158.667 66.5333C155.286 66.5333 152.533 63.781 152.533 60.4C152.533 57.019 155.286 54.2666 158.667 54.2666Z" fill="black" fill-opacity="0.08"/>
<path d="M97.3333 195.333C90.5675 195.333 85.0667 200.834 85.0667 207.6C85.0667 214.366 90.5675 219.867 97.3333 219.867C104.099 219.867 109.6 214.366 109.6 207.6C109.6 200.834 104.099 195.333 97.3333 195.333ZM97.3333 213.733C93.9523 213.733 91.2 210.981 91.2 207.6C91.2 204.219 93.9523 201.467 97.3333 201.467C100.714 201.467 103.467 204.219 103.467 207.6C103.467 210.981 100.714 213.733 97.3333 213.733Z" fill="black" fill-opacity="0.08"/>
<path d="M155.6 115.6C160.672 115.6 164.8 111.472 164.8 106.4C164.8 101.329 160.672 97.2 155.6 97.2C150.529 97.2 146.4 101.329 146.4 106.4C146.4 111.472 150.529 115.6 155.6 115.6ZM155.6 103.333C157.291 103.333 158.667 104.71 158.667 106.4C158.667 108.091 157.291 109.467 155.6 109.467C153.91 109.467 152.533 108.091 152.533 106.4C152.533 104.71 153.91 103.333 155.6 103.333Z" fill="black" fill-opacity="0.08"/>
<path d="M103.467 149.333C98.3952 149.333 94.2667 153.462 94.2667 158.533C94.2667 163.605 98.3952 167.733 103.467 167.733C108.538 167.733 112.667 163.605 112.667 158.533C112.667 153.462 108.538 149.333 103.467 149.333ZM103.467 161.6C101.776 161.6 100.4 160.224 100.4 158.533C100.4 156.843 101.776 155.467 103.467 155.467C105.157 155.467 106.533 156.843 106.533 158.533C106.533 160.224 105.157 161.6 103.467 161.6Z" fill="black" fill-opacity="0.08"/>
<path d="M57.4667 170.8C52.3952 170.8 48.2667 174.929 48.2667 180C48.2667 185.072 52.3952 189.2 57.4667 189.2C62.5382 189.2 66.6667 185.072 66.6667 180C66.6667 174.929 62.5382 170.8 57.4667 170.8ZM57.4667 183.067C55.7762 183.067 54.4 181.691 54.4 180C54.4 178.31 55.7762 176.933 57.4667 176.933C59.1572 176.933 60.5333 178.31 60.5333 180C60.5333 181.691 59.1572 183.067 57.4667 183.067Z" fill="black" fill-opacity="0.08"/>
<path d="M198.533 97.2C203.605 97.2 207.733 93.0715 207.733 88C207.733 82.9285 203.605 78.8 198.533 78.8C193.462 78.8 189.333 82.9285 189.333 88C189.333 93.0715 193.462 97.2 198.533 97.2ZM198.533 84.9333C200.224 84.9333 201.6 86.3095 201.6 88C201.6 89.6905 200.224 91.0667 198.533 91.0667C196.843 91.0667 195.467 89.6905 195.467 88C195.467 86.3095 196.843 84.9333 198.533 84.9333Z" fill="black" fill-opacity="0.08"/>
<path d="M120.659 130.995C121.855 132.191 123.799 132.191 124.995 130.995C126.191 129.799 126.191 127.855 124.995 126.659L119.39 121.055H124.998C125.784 121.055 126.566 120.756 127.168 120.158C128.364 118.962 128.364 117.018 127.168 115.822C126.57 115.224 125.784 114.925 124.998 114.925H113.261L106.403 108.068L113.414 106.316C114.242 106.109 114.948 105.564 115.358 104.817C115.768 104.069 115.848 103.18 115.58 102.371L113.859 97.2077H120.602L128.901 105.507C129.457 106.063 130.223 106.408 131.07 106.408C132.765 106.408 134.137 105.035 134.137 103.341C134.137 102.494 133.792 101.727 133.236 101.171L129.273 97.2077H137.204C138.898 97.2077 140.271 95.8353 140.271 94.141C140.271 92.4467 138.898 91.0743 137.204 91.0743H129.273L133.236 87.1107C133.792 86.5548 134.137 85.7882 134.137 84.941C134.137 83.2467 132.765 81.8743 131.07 81.8743C130.223 81.8743 129.457 82.2193 128.901 82.7752L120.602 91.0743H113.859L115.58 85.9108C115.848 85.102 115.772 84.2127 115.358 83.4652C114.948 82.7177 114.242 82.1733 113.414 81.9663L106.403 80.2145L113.261 73.3567H124.998C125.784 73.3567 126.57 73.0577 127.168 72.4597C128.364 71.2637 128.364 69.3202 127.168 68.1242C126.57 67.5262 125.784 67.2272 124.998 67.2272H119.39L124.995 61.6228C126.191 60.4268 126.191 58.4833 124.995 57.2873C123.799 56.0913 121.855 56.0913 120.659 57.2873L115.051 62.8955V57.2873C115.051 56.5015 114.752 55.7195 114.154 55.1177C112.958 53.9217 111.015 53.9217 109.819 55.1177C109.221 55.7157 108.921 56.5015 108.921 57.2873V69.025L102.064 75.8828L100.312 68.8717C100.105 68.0437 99.5605 67.3383 98.813 66.9282C98.0655 66.518 97.18 66.4375 96.3673 66.7058L91.2038 68.427V61.6842L99.503 53.385C100.059 52.8292 100.404 52.0625 100.404 51.2153C100.404 49.521 99.0315 48.1487 97.3372 48.1487C96.49 48.1487 95.7233 48.4937 95.1675 49.0495L91.2038 53.0132V45.0667C91.2038 43.3723 89.8315 42 88.1372 42C86.4428 42 85.0705 43.3723 85.0705 45.0667V52.9978L81.1068 49.0342C80.551 48.4783 79.7843 48.1333 78.9372 48.1333C77.2428 48.1333 75.8705 49.5057 75.8705 51.2C75.8705 52.0472 76.2155 52.8138 76.7713 53.3697L85.0705 61.6688V68.4117L79.907 66.6905C79.0982 66.4183 78.2088 66.4988 77.4613 66.9128C76.7138 67.323 76.1695 68.0283 75.9625 68.8563L74.2107 75.8675L67.3528 69.0097V57.272C67.3528 56.4862 67.0538 55.7003 66.4558 55.1023C65.2598 53.9063 63.3163 53.9063 62.1203 55.1023C61.5223 55.7003 61.2233 56.4862 61.2233 57.272V62.8802L55.619 57.2758C54.423 56.0798 52.4795 56.0798 51.2835 57.2758C50.0875 58.4718 50.0875 60.4153 51.2835 61.6113L56.8917 67.2195H51.2835C50.4977 67.2195 49.7157 67.5185 49.1138 68.1165C47.9178 69.3125 47.9178 71.256 49.1138 72.452C49.7118 73.05 50.4977 73.349 51.2835 73.349H63.0212L69.879 80.2068L62.8678 81.9587C62.0398 82.1657 61.3345 82.71 60.9243 83.4575C60.5142 84.205 60.4337 85.0943 60.702 85.9032L62.4232 91.0667H55.6803L47.3812 82.7675C46.8253 82.2117 46.0587 81.8667 45.2115 81.8667C43.5172 81.8667 42.1448 83.239 42.1448 84.9333C42.1448 85.7805 42.4898 86.5472 43.0457 87.103L47.0093 91.0667H39.0667C37.3723 91.0667 36 92.439 36 94.1333C36 95.8277 37.3723 97.2 39.0667 97.2H46.9978L43.0342 101.164C42.4783 101.72 42.1333 102.486 42.1333 103.333C42.1333 105.028 43.5057 106.4 45.2 106.4C46.0472 106.4 46.8138 106.055 47.3697 105.499L55.6688 97.2H62.4117L60.6905 102.364C60.4222 103.172 60.4988 104.062 60.9128 104.809C61.323 105.557 62.0283 106.101 62.8563 106.308L69.8675 108.06L63.0097 114.918H51.272C50.4862 114.918 49.7003 115.217 49.1023 115.815C47.9063 117.011 47.9063 118.954 49.1023 120.15C49.7003 120.748 50.4862 121.047 51.272 121.047H56.8802L51.272 126.655C50.076 127.851 50.076 129.795 51.272 130.991C52.468 132.187 54.4115 132.187 55.6075 130.991L61.2118 125.387V130.995C61.2118 131.781 61.5108 132.563 62.1088 133.164C63.3048 134.36 65.2483 134.36 66.4443 133.164C67.0423 132.566 67.3413 131.781 67.3413 130.995V119.257L74.1992 112.399L75.951 119.41C76.158 120.238 76.7023 120.944 77.4498 121.354C78.1973 121.764 79.0867 121.845 79.8955 121.576L85.059 119.855V126.598L76.7598 134.897C76.204 135.453 75.859 136.22 75.859 137.067C75.859 138.761 77.2313 140.133 78.9257 140.133C79.7728 140.133 80.5395 139.788 81.0953 139.233L85.059 135.269V143.2C85.059 144.894 86.4313 146.267 88.1257 146.267C89.82 146.267 91.1923 144.894 91.1923 143.2V135.269L95.156 139.233C95.7118 139.788 96.4785 140.133 97.3257 140.133C99.02 140.133 100.392 138.761 100.392 137.067C100.392 136.22 100.047 135.453 99.4915 134.897L91.1923 126.598V119.855L96.3558 121.576C96.6702 121.68 96.9998 121.733 97.3257 121.733C97.8355 121.733 98.3453 121.607 98.8015 121.354C99.549 120.944 100.093 120.238 100.3 119.41L102.052 112.399L108.91 119.257V130.995C108.91 131.781 109.209 132.566 109.807 133.164C111.003 134.36 112.947 134.36 114.143 133.164C114.741 132.566 115.039 131.781 115.039 130.995V125.387L120.648 130.995H120.659ZM101.339 103.004L96.9692 98.6337C97.1992 98.2005 97.3333 97.7098 97.3333 97.2H107.388L108.707 101.16L101.339 103.004ZM85.0667 95.3063V92.9642L88.1333 91.4308L91.2 92.9642V95.3063L88.1333 96.8397L85.0667 95.3063ZM108.711 87.1068L107.392 91.0667H97.3372C97.3372 90.5568 97.203 90.07 96.973 89.633L101.343 85.263L108.711 87.1068ZM97.0037 80.9275L91.6178 86.3133L91.2 86.1063V74.8785L95.1598 73.5598L97.0037 80.9313V80.9275ZM81.1068 73.556L85.0667 74.8747V86.1025L84.6488 86.3095L79.263 80.9237L81.1068 73.5522V73.556ZM74.9275 85.263L79.2975 89.633C79.0675 90.0662 78.9333 90.5568 78.9333 91.0667H68.8785L67.5598 87.1068L74.9275 85.263ZM67.556 101.16L68.8747 97.2H78.9295C78.9295 97.7098 79.0637 98.1967 79.2937 98.6337L74.9237 103.004L67.556 101.16ZM81.1068 114.711L79.263 107.339L84.6488 101.953L85.0667 102.16V113.388L81.1068 114.707V114.711ZM95.1598 114.711L91.2 113.392V102.164L91.6178 101.957L97.0037 107.343L95.1598 114.715V114.711Z" fill="black" fill-opacity="0.08"/>
<path d="M216.933 170.8H209.002L212.966 166.836C213.522 166.281 213.867 165.514 213.867 164.667C213.867 162.972 212.494 161.6 210.8 161.6C209.953 161.6 209.186 161.945 208.63 162.501L200.331 170.8H193.588L195.31 165.637C195.578 164.828 195.501 163.938 195.087 163.191C194.677 162.443 193.972 161.899 193.144 161.692L186.132 159.94L192.99 153.082H204.728C205.514 153.082 206.3 152.783 206.898 152.185C208.094 150.989 208.094 149.046 206.898 147.85C206.3 147.252 205.514 146.953 204.728 146.953H199.12L204.724 141.349C205.92 140.153 205.92 138.209 204.724 137.013C203.528 135.817 201.585 135.817 200.389 137.013L194.78 142.621V137.013C194.78 136.227 194.481 135.445 193.883 134.843C192.688 133.647 190.744 133.647 189.548 134.843C188.95 135.441 188.651 136.227 188.651 137.013V148.751L181.793 155.609L180.041 148.597C179.834 147.769 179.29 147.064 178.543 146.654C177.795 146.244 176.906 146.163 176.097 146.432L170.933 148.153V141.41L179.232 133.111C179.788 132.555 180.133 131.788 180.133 130.941C180.133 129.247 178.761 127.874 177.067 127.874C176.219 127.874 175.453 128.219 174.897 128.775L170.933 132.739V124.808C170.933 123.113 169.561 121.741 167.867 121.741C166.172 121.741 164.8 123.113 164.8 124.808V132.739L160.836 128.775C160.28 128.219 159.514 127.874 158.667 127.874C156.972 127.874 155.6 129.247 155.6 130.941C155.6 131.788 155.945 132.555 156.501 133.111L164.8 141.41V148.153L159.636 146.432C158.828 146.159 157.938 146.24 157.191 146.654C156.443 147.064 155.899 147.769 155.692 148.597L153.94 155.609L147.082 148.751V137.013C147.082 136.227 146.783 135.441 146.185 134.843C144.989 133.647 143.046 133.647 141.85 134.843C141.252 135.441 140.953 136.227 140.953 137.013V142.621L135.349 137.017C134.153 135.821 132.209 135.821 131.013 137.017C129.817 138.213 129.817 140.156 131.013 141.352L136.621 146.961H131.013C130.227 146.961 129.445 147.26 128.843 147.858C127.647 149.054 127.647 150.997 128.843 152.193C129.441 152.791 130.227 153.09 131.013 153.09H142.751L149.608 159.948L142.597 161.7C141.769 161.907 141.064 162.451 140.654 163.199C140.244 163.946 140.163 164.835 140.431 165.644L142.153 170.808H135.41L127.111 162.509C126.555 161.953 125.788 161.608 124.941 161.608C123.247 161.608 121.874 162.98 121.874 164.674C121.874 165.522 122.219 166.288 122.775 166.844L126.739 170.808H118.808C117.113 170.808 115.741 172.18 115.741 173.874C115.741 175.569 117.113 176.941 118.808 176.941H126.739L122.775 180.905C122.219 181.461 121.874 182.227 121.874 183.074C121.874 184.769 123.247 186.141 124.941 186.141C125.788 186.141 126.555 185.796 127.111 185.24L135.41 176.941H142.153L140.431 182.105C140.163 182.913 140.24 183.803 140.654 184.55C141.064 185.298 141.769 185.842 142.597 186.049L149.608 187.801L142.751 194.659H131.013C130.227 194.659 129.441 194.958 128.843 195.556C127.647 196.752 127.647 198.695 128.843 199.891C129.441 200.489 130.227 200.788 131.013 200.788H136.621L131.013 206.396C129.817 207.592 129.817 209.536 131.013 210.732C132.209 211.928 134.153 211.928 135.349 210.732L140.953 205.128V210.736C140.953 211.522 141.252 212.304 141.85 212.905C143.046 214.101 144.989 214.101 146.185 212.905C146.783 212.307 147.082 211.522 147.082 210.736V198.998L153.94 192.14L155.692 199.151C155.899 199.979 156.443 200.685 157.191 201.095C157.938 201.505 158.828 201.586 159.636 201.317L164.8 199.596V206.339L156.501 214.638C155.945 215.194 155.6 215.961 155.6 216.808C155.6 218.502 156.972 219.874 158.667 219.874C159.514 219.874 160.28 219.529 160.836 218.974L164.8 215.01V222.941C164.8 224.635 166.172 226.008 167.867 226.008C169.561 226.008 170.933 224.635 170.933 222.941V215.01L174.897 218.974C175.453 219.529 176.219 219.874 177.067 219.874C178.761 219.874 180.133 218.502 180.133 216.808C180.133 215.961 179.788 215.194 179.232 214.638L170.933 206.339V199.596L176.097 201.317C176.411 201.421 176.741 201.474 177.067 201.474C177.576 201.474 178.086 201.348 178.543 201.095C179.29 200.685 179.834 199.979 180.041 199.151L181.793 192.14L188.651 198.998V210.736C188.651 211.522 188.95 212.307 189.548 212.905C190.744 214.101 192.688 214.101 193.883 212.905C194.481 212.307 194.78 211.522 194.78 210.736V205.128L200.389 210.736C201.585 211.932 203.528 211.932 204.724 210.736C205.92 209.54 205.92 207.596 204.724 206.4L199.12 200.796H204.728C205.514 200.796 206.296 200.497 206.898 199.899C208.094 198.703 208.094 196.759 206.898 195.563C206.3 194.965 205.514 194.666 204.728 194.666H192.99L186.132 187.809L193.144 186.057C193.972 185.85 194.677 185.305 195.087 184.558C195.497 183.81 195.578 182.921 195.31 182.112L193.588 176.949H200.331L208.63 185.248C209.186 185.804 209.953 186.149 210.8 186.149C212.494 186.149 213.867 184.776 213.867 183.082C213.867 182.235 213.522 181.468 212.966 180.912L209.002 176.949H216.933C218.628 176.949 220 175.576 220 173.882C220 172.188 218.628 170.815 216.933 170.815V170.8ZM188.444 166.84L187.125 170.8H177.071C177.071 170.29 176.936 169.803 176.706 169.366L181.076 164.996L188.444 166.84ZM164.8 175.04V172.698L167.867 171.164L170.933 172.698V175.04L167.867 176.573L164.8 175.04ZM176.737 160.661L171.351 166.047L170.933 165.84V154.612L174.893 153.293L176.737 160.665V160.661ZM160.84 153.289L164.8 154.608V165.836L164.382 166.043L158.996 160.657L160.84 153.286V153.289ZM154.661 164.996L159.031 169.366C158.801 169.8 158.667 170.29 158.667 170.8H148.612L147.293 166.84L154.661 164.996ZM147.289 180.893L148.608 176.933H158.663C158.663 177.443 158.797 177.93 159.027 178.367L154.657 182.737L147.289 180.893ZM160.84 194.444L158.996 187.073L164.382 181.687L164.8 181.894V193.122L160.84 194.44V194.444ZM174.893 194.444L170.933 193.125V181.898L171.351 181.691L176.737 187.076L174.893 194.448V194.444ZM181.073 182.737L176.702 178.367C176.932 177.934 177.067 177.443 177.067 176.933H187.122L188.44 180.893L181.073 182.737Z" fill="black" fill-opacity="0.08"/>
<rect x="120.5" y="208.5" width="119" height="29" rx="11.5" fill="#F0583B"/>
<rect x="120.5" y="208.5" width="119" height="29" rx="11.5" stroke="white"/>
<path d="M131.23 219.264V218.211C131.23 218.163 131.251 218.143 131.299 218.143H138.176C138.224 218.143 138.244 218.163 138.244 218.211V219.264C138.244 219.312 138.224 219.332 138.176 219.332H135.476C135.428 219.332 135.407 219.359 135.407 219.407V227.932C135.407 227.979 135.38 228 135.332 228H134.143C134.095 228 134.074 227.979 134.074 227.932V219.387C134.054 219.353 134.033 219.332 134.006 219.332H131.299C131.251 219.332 131.23 219.312 131.23 219.264ZM144.04 223.618L140.732 218.211C140.705 218.163 140.718 218.143 140.78 218.143H142.188C142.236 218.143 142.27 218.163 142.304 218.211L144.697 222.203C144.745 222.265 144.786 222.265 144.833 222.203L147.247 218.211C147.281 218.163 147.329 218.143 147.383 218.143H148.771C148.826 218.143 148.839 218.163 148.812 218.211L145.483 223.618C145.449 223.693 145.442 223.721 145.442 223.755V227.932C145.442 227.979 145.414 228 145.367 228H144.177C144.129 228 144.109 227.979 144.109 227.932V223.755C144.109 223.734 144.088 223.693 144.04 223.618ZM151.58 227.932V218.211C151.58 218.163 151.6 218.143 151.648 218.143H155.599C157.124 218.143 158.457 219.469 158.457 221.137C158.457 222.798 157.124 224.083 155.599 224.083H152.981C152.933 224.083 152.913 224.104 152.913 224.151V227.932C152.913 227.979 152.892 228 152.845 228H151.648C151.6 228 151.58 227.979 151.58 227.932ZM152.913 219.407V222.818C152.913 222.866 152.933 222.887 152.981 222.887H155.429C156.317 222.887 157.124 222.107 157.124 221.137C157.124 220.173 156.317 219.332 155.429 219.332H152.981C152.933 219.332 152.913 219.359 152.913 219.407ZM160.849 223.071C160.849 220.118 162.045 218.006 164.848 218.006C167.651 218.006 168.84 220.118 168.84 223.071C168.84 226.059 167.651 228.137 164.848 228.137C162.038 228.137 160.849 226.059 160.849 223.071ZM162.243 223.071C162.243 225.505 163.036 226.947 164.848 226.947C165.757 226.947 166.413 226.605 166.83 225.915C167.247 225.231 167.452 224.281 167.452 223.071C167.452 220.645 166.789 219.195 164.848 219.195C163.036 219.195 162.243 220.645 162.243 223.071ZM170.631 223.071C170.631 220.118 171.82 218.006 174.773 218.006C177.002 218.006 178.075 219.428 178.499 220.843C178.506 220.891 178.485 220.911 178.424 220.918H177.125C177.077 220.918 177.05 220.891 177.043 220.843C176.612 219.742 175.819 219.195 174.773 219.195C172.811 219.195 172.025 220.788 172.025 223.071C172.025 225.354 172.811 226.947 174.773 226.947C176.175 226.947 177.234 225.86 177.234 223.728C177.234 223.68 177.214 223.659 177.166 223.659H174.842C174.794 223.659 174.773 223.639 174.773 223.591V222.538C174.773 222.49 174.794 222.47 174.842 222.47H178.499C178.547 222.47 178.567 222.49 178.567 222.538V227.932C178.567 227.979 178.547 228 178.499 228H177.473C177.419 228 177.385 227.973 177.378 227.918L177.234 226.934C177.234 226.879 177.145 226.852 177.111 226.906C176.66 227.494 175.785 228.137 174.493 228.137C171.841 228.137 170.631 226.059 170.631 223.071ZM181.629 227.932V218.211C181.629 218.163 181.65 218.143 181.697 218.143H185.649C187.173 218.143 188.506 219.469 188.506 221.137C188.506 221.752 188.349 222.292 188.034 222.764C187.72 223.235 187.323 223.591 186.838 223.816C186.804 223.837 186.79 223.864 186.811 223.912L188.602 227.932C188.622 227.979 188.595 228 188.533 228H187.371C187.337 228 187.262 228.007 187.228 227.932L185.546 224.151C185.526 224.104 185.498 224.083 185.45 224.083H183.03C182.983 224.083 182.962 224.104 182.962 224.151V227.932C182.962 227.979 182.935 228 182.887 228H181.697C181.65 228 181.629 227.979 181.629 227.932ZM182.962 219.407V222.818C182.962 222.866 182.983 222.887 183.03 222.887H185.532C186.394 222.853 187.173 222.101 187.173 221.137C187.173 220.173 186.353 219.332 185.478 219.332H183.03C182.983 219.332 182.962 219.359 182.962 219.407ZM190.714 227.918L194.015 218.211C194.036 218.163 194.063 218.143 194.097 218.143H195.82C195.854 218.143 195.888 218.163 195.909 218.211L199.17 227.918C199.19 227.973 199.163 228 199.094 228H197.782C197.755 228 197.734 227.979 197.714 227.932L197.071 225.929C197.064 225.881 197.03 225.86 196.968 225.86H192.908C192.874 225.86 192.846 225.881 192.826 225.929L192.17 227.932C192.149 227.979 192.129 228 192.094 228H190.782C190.72 228 190.693 227.973 190.714 227.918ZM194.883 219.544L193.229 224.657C193.209 224.712 193.236 224.739 193.304 224.739H196.592C196.654 224.739 196.681 224.712 196.661 224.657L195.027 219.544C194.993 219.455 194.918 219.455 194.883 219.544ZM201.753 227.932V218.211C201.753 218.163 201.774 218.143 201.821 218.143H205.773C207.297 218.143 208.63 219.469 208.63 221.137C208.63 222.798 207.297 224.083 205.773 224.083H203.154C203.107 224.083 203.086 224.104 203.086 224.151V227.932C203.086 227.979 203.066 228 203.018 228H201.821C201.774 228 201.753 227.979 201.753 227.932ZM203.086 219.407V222.818C203.086 222.866 203.107 222.887 203.154 222.887H205.602C206.49 222.887 207.297 222.107 207.297 221.137C207.297 220.173 206.49 219.332 205.602 219.332H203.154C203.107 219.332 203.086 219.359 203.086 219.407ZM211.466 227.932V218.211C211.466 218.163 211.487 218.143 211.535 218.143H212.724C212.772 218.143 212.793 218.163 212.799 218.211V222.258C212.799 222.306 212.82 222.326 212.868 222.333H217.168C217.215 222.333 217.236 222.306 217.236 222.258V218.211C217.236 218.163 217.256 218.143 217.304 218.143H218.494C218.542 218.143 218.562 218.163 218.562 218.211V227.932C218.562 227.979 218.542 228 218.494 228H217.304C217.256 228 217.236 227.979 217.236 227.932V223.591C217.236 223.543 217.215 223.522 217.168 223.522H212.868C212.82 223.522 212.799 223.543 212.799 223.577V227.932C212.799 227.979 212.772 228 212.724 228H211.535C211.487 228 211.466 227.979 211.466 227.932ZM224.317 223.618L221.009 218.211C220.981 218.163 220.995 218.143 221.057 218.143H222.465C222.513 218.143 222.547 218.163 222.581 218.211L224.974 222.203C225.021 222.265 225.062 222.265 225.11 222.203L227.523 218.211C227.558 218.163 227.605 218.143 227.66 218.143H229.048C229.103 218.143 229.116 218.163 229.089 218.211L225.76 223.618C225.726 223.693 225.719 223.721 225.719 223.755V227.932C225.719 227.979 225.691 228 225.644 228H224.454C224.406 228 224.386 227.979 224.386 227.932V223.755C224.386 223.734 224.365 223.693 224.317 223.618Z" fill="white"/>
<path d="M73.7869 133.907L71.1614 120.733C71.1336 120.659 71.1707 120.622 71.2542 120.622H73.2952C73.3323 120.622 73.3602 120.65 73.388 120.715L75.4197 131.894C75.4476 132.015 75.5774 131.996 75.6053 131.894L77.8875 120.715C77.9153 120.65 77.9524 120.622 77.9988 120.622H81.4036C81.45 120.622 81.4871 120.65 81.5149 120.715L83.8157 131.894C83.8436 132.015 83.9827 132.015 84.0105 131.894L86.0237 120.715C86.0516 120.65 86.0794 120.622 86.1165 120.622H88.1482C88.2317 120.622 88.2688 120.659 88.241 120.733L85.6248 133.907C85.597 133.972 85.5599 134 85.5042 134H82.2571C82.1922 134 82.1551 133.972 82.1458 133.907L79.8079 122.756C79.7801 122.635 79.6316 122.617 79.6038 122.756L77.2659 133.907C77.2381 133.972 77.1917 134 77.1268 134H73.9168C73.8426 134 73.7962 133.972 73.7869 133.907ZM89.4185 129.194C89.4185 126.198 91.1534 124.194 94.1221 124.194C97.0909 124.194 98.8536 126.235 98.8536 129.194C98.8536 132.163 97.0909 134.186 94.1221 134.186C91.1441 134.186 89.4185 132.163 89.4185 129.194ZM91.4688 129.194C91.4688 130.15 91.7007 130.911 92.1646 131.486C92.6192 132.061 93.2779 132.349 94.1221 132.349C94.9942 132.349 95.6621 132.061 96.1167 131.486C96.5713 130.911 96.8033 130.15 96.8033 129.194C96.8033 128.239 96.5806 127.478 96.126 126.912C95.6714 126.346 95.0035 126.059 94.1221 126.059C93.2779 126.059 92.6192 126.346 92.1646 126.912C91.7007 127.478 91.4688 128.239 91.4688 129.194ZM101.543 133.907V124.481C101.543 124.417 101.571 124.389 101.617 124.389H103.26C103.324 124.389 103.362 124.426 103.389 124.5L103.575 125.205C103.621 125.307 103.723 125.289 103.77 125.242C104.373 124.639 105.069 124.194 105.969 124.194H106.98C107.045 124.194 107.073 124.222 107.073 124.287V126.003C107.073 126.068 107.045 126.096 106.98 126.096H105.876C104.345 126.096 103.575 127.292 103.575 128.601V133.907C103.575 133.972 103.547 134 103.482 134H101.617C101.571 134 101.543 133.972 101.543 133.907ZM108.25 129.194C108.25 126.235 110.05 124.194 112.694 124.194C114.28 124.194 115.217 125.112 115.31 125.205C115.356 125.251 115.468 125.196 115.468 125.149V120.715C115.468 120.65 115.496 120.622 115.561 120.622H117.407C117.472 120.622 117.5 120.65 117.5 120.715V133.907C117.5 133.972 117.472 134 117.407 134H115.792C115.718 134 115.672 133.972 115.653 133.907L115.468 133.221C115.421 133.109 115.356 133.1 115.254 133.202C114.772 133.685 113.64 134.186 112.694 134.186C109.948 134.186 108.25 132.163 108.25 129.194ZM110.3 129.194C110.3 130.122 110.532 130.883 110.987 131.467C111.441 132.052 112.1 132.349 112.981 132.349C113.789 132.349 114.41 132.052 114.837 131.458C115.254 130.874 115.468 130.113 115.468 129.194C115.468 127.237 114.605 126.059 112.981 126.059C112.109 126.059 111.441 126.346 110.987 126.931C110.532 127.515 110.3 128.267 110.3 129.194ZM120.839 133.907V124.481C120.839 124.417 120.876 124.389 120.941 124.389H122.555C122.62 124.389 122.657 124.426 122.685 124.5L122.87 125.205C122.917 125.307 123.01 125.298 123.084 125.224C123.483 124.732 124.457 124.194 125.366 124.194C126.581 124.194 127.286 124.583 127.964 125.335C128.01 125.381 128.084 125.409 128.158 125.335C128.817 124.658 129.791 124.194 130.858 124.194C133.317 124.194 134.634 125.697 134.634 128.601V133.907C134.634 133.972 134.606 134 134.541 134H132.695C132.63 134 132.602 133.972 132.602 133.907V128.666C132.602 127.376 132.25 126.059 130.663 126.059C129.142 126.059 128.761 127.265 128.761 128.666V133.907C128.761 133.972 128.734 134 128.669 134H126.804C126.739 134 126.711 133.972 126.711 133.907V128.666C126.711 127.348 126.359 126.059 124.791 126.059C123.353 126.059 122.87 127.265 122.87 128.666V133.907C122.87 133.972 122.843 134 122.778 134H120.941C120.876 134 120.848 133.972 120.839 133.907ZM137.055 131.152C137.055 129.482 138.437 128.165 141.22 128.165H143.178C143.586 128.165 143.781 127.858 143.781 127.636C143.781 127.051 143.614 126.059 141.563 126.059C140.793 126.059 140.246 126.207 139.921 126.495C139.597 126.782 139.42 127.135 139.411 127.543C139.411 127.608 139.383 127.636 139.318 127.636H137.472C137.407 127.636 137.379 127.608 137.379 127.543C137.379 125.307 139.355 124.194 141.563 124.194C142.881 124.194 143.92 124.481 144.681 125.066C145.441 125.65 145.822 126.541 145.822 127.729V131.625C145.822 131.987 146.072 132.256 146.48 132.256H146.898C146.963 132.256 146.991 132.284 146.991 132.349V133.907C146.991 133.972 146.963 134 146.898 134H146.137C145.07 134 144.532 133.694 144.198 133.109C144.152 133.035 144.096 133.026 144.031 133.091C143.79 133.341 143.4 133.592 142.862 133.824C142.324 134.065 141.647 134.186 140.84 134.186C139.56 134.186 138.613 133.898 137.992 133.332C137.37 132.766 137.055 132.033 137.055 131.152ZM139.096 131.152C139.096 131.681 139.504 132.349 140.84 132.349C142.974 132.349 143.781 131.115 143.781 130.048V129.918C143.781 129.853 143.753 129.825 143.688 129.816H141.276C139.402 129.816 139.096 130.567 139.096 131.152ZM149.189 133.907V124.481C149.189 124.417 149.217 124.389 149.263 124.389H150.905C150.97 124.389 151.007 124.426 151.035 124.5L151.22 125.205C151.267 125.307 151.369 125.289 151.415 125.242C152.018 124.639 152.714 124.194 153.614 124.194H154.625C154.69 124.194 154.718 124.222 154.718 124.287V126.003C154.718 126.068 154.69 126.096 154.625 126.096H153.521C151.99 126.096 151.22 127.292 151.22 128.601V133.907C151.22 133.972 151.193 134 151.128 134H149.263C149.217 134 149.189 133.972 149.189 133.907ZM156.907 133.907V120.715C156.907 120.65 156.944 120.622 157.009 120.622H158.846C158.911 120.622 158.938 120.65 158.938 120.715V127.923C158.938 127.97 159.031 128.007 159.078 127.96L163.123 124.481C163.197 124.417 163.28 124.389 163.373 124.389H166.063C166.138 124.389 166.175 124.472 166.128 124.519L162.557 127.58C162.52 127.617 162.52 127.664 162.557 127.71L166.166 133.889C166.166 133.898 166.175 133.917 166.184 133.926C166.184 133.972 166.147 134 166.082 134H164.013L163.958 133.944L161.054 128.962C161.026 128.935 161.007 128.925 160.979 128.925C160.961 128.925 160.942 128.935 160.915 128.962C160.172 129.565 158.938 130.614 158.938 130.753V133.907C158.938 133.972 158.911 134 158.846 134H157.009C156.944 134 156.916 133.972 156.907 133.907ZM168.336 133.907V131.3C168.336 131.235 168.363 131.208 168.428 131.208H170.998C171.063 131.208 171.091 131.235 171.091 131.3V133.907C171.091 133.972 171.063 134 170.998 134H168.428C168.363 134 168.336 133.972 168.336 133.907ZM174.272 123.173V121.04C174.272 120.975 174.3 120.947 174.365 120.947H176.462C176.527 120.947 176.555 120.975 176.555 121.04V123.173C176.555 123.238 176.527 123.266 176.462 123.266H174.365C174.3 123.266 174.272 123.238 174.272 123.173ZM174.365 133.907V124.481C174.365 124.417 174.402 124.389 174.467 124.389H176.304C176.369 124.389 176.397 124.417 176.397 124.481V133.907C176.397 133.972 176.369 134 176.304 134H174.467C174.402 134 174.374 133.972 174.365 133.907ZM178.326 126.003V124.481C178.326 124.417 178.354 124.389 178.419 124.389H180.033C180.098 124.389 180.126 124.352 180.126 124.287V121.726C180.126 121.661 180.154 121.633 180.218 121.633H182.083C182.148 121.633 182.176 121.661 182.176 121.726V124.287C182.176 124.352 182.213 124.379 182.278 124.389H184.273C184.338 124.389 184.365 124.417 184.365 124.481V126.003C184.365 126.068 184.338 126.096 184.273 126.096H182.278C182.213 126.096 182.185 126.124 182.176 126.188V131.375C182.176 131.857 182.445 132.154 183.039 132.154H184.273C184.338 132.154 184.365 132.191 184.365 132.256V133.907C184.365 133.972 184.338 134 184.273 134H182.788C181.823 134 181.137 133.787 180.738 133.369C180.33 132.952 180.126 132.274 180.126 131.319V126.188C180.126 126.124 180.098 126.096 180.033 126.096H178.419C178.354 126.096 178.326 126.068 178.326 126.003Z" fill="white"/>
</svg>
