<svg width="255" height="252" viewBox="0 0 255 252" fill="none" xmlns="http://www.w3.org/2000/svg">
<rect width="255" height="252" rx="20" fill="#FAD9D5"/>
<g clip-path="url(#clip0_2_84)">
<path d="M192 93.6667C192 90.1387 189.128 87.2667 185.6 87.2667H179.197C177.197 84.608 174.032 83 170.667 83C167.301 83 164.136 84.608 162.136 87.2667H162.131C160.131 84.608 156.965 83 153.6 83C150.235 83 147.069 84.608 145.069 87.2667H145.064C143.064 84.608 139.899 83 136.533 83C133.168 83 130.003 84.608 128.003 87.2667H127.997C125.997 84.608 122.832 83 119.467 83C116.101 83 112.936 84.608 110.936 87.2667H110.931C108.931 84.608 105.765 83 102.4 83C99.0347 83 95.8693 84.608 93.8693 87.2667H93.864C91.864 84.608 88.6987 83 85.3333 83C81.968 83 78.8027 84.608 76.8027 87.2667H70.4C66.872 87.2667 64 90.1387 64 93.6667C64 95.304 64.6187 96.8 65.6347 97.9333C64.6187 99.0667 64 100.563 64 102.2V115C64 116.179 64.9547 117.133 66.1333 117.133H70.4C72.1307 117.133 73.536 116.859 74.6667 116.411V193.933H70.4C66.872 193.933 64 196.805 64 200.333V204.6C64 208.128 66.872 211 70.4 211H185.6C189.128 211 192 208.128 192 204.6V200.333C192 196.805 189.128 193.933 185.6 193.933H181.333V116.411C182.464 116.859 183.869 117.133 185.6 117.133H189.867C191.045 117.133 192 116.179 192 115V102.2C192 100.563 191.381 99.0667 190.365 97.9333C191.381 96.8 192 95.304 192 93.6667ZM70.4 91.5333H77.944C78.7067 91.5333 79.408 91.128 79.7893 90.4693C80.9333 88.4933 83.056 87.2667 85.3307 87.2667C87.6053 87.2667 89.7307 88.4933 90.872 90.4693C91.2533 91.128 91.9573 91.5333 92.7173 91.5333H95.0053C95.768 91.5333 96.4693 91.128 96.8507 90.4693C97.9947 88.4933 100.117 87.2667 102.392 87.2667C104.667 87.2667 106.792 88.4933 107.933 90.4693C108.315 91.128 109.019 91.5333 109.779 91.5333H112.067C112.829 91.5333 113.531 91.128 113.912 90.4693C115.056 88.4933 117.179 87.2667 119.453 87.2667C121.728 87.2667 123.853 88.4933 124.995 90.4693C125.376 91.128 126.08 91.5333 126.84 91.5333H129.128C129.891 91.5333 130.592 91.128 130.973 90.4693C132.117 88.4933 134.24 87.2667 136.515 87.2667C138.789 87.2667 140.915 88.4933 142.056 90.4693C142.437 91.128 143.141 91.5333 143.901 91.5333H146.189C146.952 91.5333 147.653 91.128 148.035 90.4693C149.179 88.4933 151.301 87.2667 153.576 87.2667C155.851 87.2667 157.976 88.4933 159.117 90.4693C159.499 91.128 160.203 91.5333 160.963 91.5333H163.251C164.013 91.5333 164.715 91.128 165.096 90.4693C166.24 88.4933 168.363 87.2667 170.637 87.2667C172.912 87.2667 175.037 88.4933 176.179 90.4693C176.56 91.128 177.264 91.5333 178.024 91.5333H185.568C186.744 91.5333 187.701 92.4907 187.701 93.6667C187.701 94.8427 186.744 95.8 185.568 95.8H70.4C69.224 95.8 68.2667 94.8427 68.2667 93.6667C68.2667 92.4907 69.224 91.5333 70.4 91.5333ZM89.6 115.139C90.9147 116.28 92.952 117.133 96 117.133C99.048 117.133 101.085 116.28 102.4 115.139C103.715 116.28 105.752 117.133 108.8 117.133C111.848 117.133 113.885 116.28 115.2 115.139C116.515 116.28 118.552 117.133 121.6 117.133C124.648 117.133 126.685 116.28 128 115.139C129.315 116.28 131.352 117.133 134.4 117.133C137.448 117.133 139.485 116.28 140.8 115.139C142.115 116.28 144.152 117.133 147.2 117.133C150.248 117.133 152.285 116.28 153.6 115.139C154.915 116.28 156.952 117.133 160 117.133C163.048 117.133 165.085 116.28 166.4 115.139C167.715 116.28 169.752 117.133 172.8 117.133C174.531 117.133 175.936 116.859 177.067 116.411V121.4H78.9333V116.411C80.064 116.859 81.4693 117.133 83.2 117.133C86.248 117.133 88.2853 116.28 89.6 115.139ZM87.4667 110.683C87.4667 110.699 87.4667 110.715 87.4667 110.733C87.4667 110.733 87.4667 110.717 87.4667 110.683ZM91.7333 110.683C91.7333 110.715 91.7333 110.733 91.7333 110.733C91.7333 110.717 91.7333 110.701 91.7333 110.683ZM100.267 110.683C100.267 110.699 100.267 110.715 100.267 110.733C100.267 110.733 100.267 110.717 100.267 110.683ZM104.533 110.683C104.533 110.715 104.533 110.733 104.533 110.733C104.533 110.717 104.533 110.701 104.533 110.683ZM113.067 110.683C113.067 110.699 113.067 110.715 113.067 110.733C113.067 110.733 113.067 110.717 113.067 110.683ZM117.333 110.683C117.333 110.715 117.333 110.733 117.333 110.733C117.333 110.717 117.333 110.701 117.333 110.683ZM125.867 110.683C125.867 110.699 125.867 110.715 125.867 110.733C125.867 110.733 125.867 110.717 125.867 110.683ZM130.133 110.683C130.133 110.715 130.133 110.733 130.133 110.733C130.133 110.717 130.133 110.701 130.133 110.683ZM138.667 110.683C138.667 110.699 138.667 110.715 138.667 110.733C138.667 110.733 138.667 110.717 138.667 110.683ZM142.933 110.683C142.933 110.715 142.933 110.733 142.933 110.733C142.933 110.717 142.933 110.701 142.933 110.683ZM151.467 110.683C151.467 110.699 151.467 110.715 151.467 110.733C151.467 110.733 151.467 110.717 151.467 110.683ZM155.733 110.683C155.733 110.715 155.733 110.733 155.733 110.733C155.733 110.717 155.733 110.701 155.733 110.683ZM164.267 110.683C164.267 110.699 164.267 110.715 164.267 110.733C164.267 110.733 164.267 110.717 164.267 110.683ZM168.533 110.683C168.533 110.715 168.533 110.733 168.533 110.733C168.533 110.717 168.533 110.701 168.533 110.683ZM177.067 185.4H166.4V176.867H177.067V185.4ZM115.2 193.933C115.2 184.056 118.712 179.216 128 167.499C137.288 179.216 140.8 184.056 140.8 193.933H115.2ZM130.088 163.264L129.672 162.741C129.267 162.232 128.653 161.933 128 161.933C127.347 161.933 126.733 162.229 126.328 162.741L125.912 163.264C115.317 176.611 110.933 182.136 110.933 193.933H105.485C103.464 190.144 102.4 185.747 102.4 181.133C102.4 171.517 105.408 164.965 107.429 161.648C110.173 165.248 114.211 166.544 114.424 166.611C115.072 166.811 115.776 166.693 116.323 166.291C116.869 165.888 117.192 165.251 117.192 164.573C117.192 149.805 125.397 144.32 128 142.952C130.613 144.325 138.811 149.813 138.811 164.573C138.811 165.251 139.133 165.891 139.68 166.291C140.227 166.693 140.931 166.811 141.579 166.611C141.792 166.544 145.829 165.248 148.573 161.648C150.597 164.968 153.603 171.517 153.603 181.133C153.603 185.747 152.536 190.144 150.517 193.933H145.069C145.069 182.136 140.685 176.611 130.091 163.264H130.088ZM149.899 156.211C149.389 155.667 148.635 155.427 147.907 155.576C147.179 155.728 146.579 156.248 146.331 156.949C145.629 158.912 144.219 160.277 142.939 161.165C142.224 152.661 138.901 147.213 136.064 144.04C132.525 140.083 128.92 138.667 128.768 138.608C128.275 138.419 127.728 138.419 127.237 138.608C127.085 138.667 123.48 140.083 119.941 144.04C117.104 147.213 113.784 152.659 113.067 161.163C111.784 160.272 110.373 158.907 109.672 156.949C109.421 156.248 108.824 155.728 108.096 155.576C107.368 155.427 106.613 155.664 106.104 156.211C105.779 156.56 98.136 164.936 98.136 181.133C98.136 185.659 99.0347 190.019 100.752 193.933H93.8693V159.8C93.8693 140.979 109.181 125.667 128.003 125.667C146.824 125.667 162.136 140.979 162.136 159.8V193.933H155.253C156.971 190.019 157.869 185.659 157.869 181.133C157.869 164.936 150.224 156.56 149.901 156.211H149.899ZM78.9333 125.667H110.421C106.245 127.827 102.515 130.731 99.4053 134.2H78.9333V125.667ZM78.9333 138.467H96.088C94.288 141.152 92.8187 144.075 91.7333 147.179V147H78.9333V138.467ZM78.9333 151.267H90.5573C89.9307 154.013 89.6 156.867 89.6 159.8H78.9333V151.267ZM78.9333 164.067H89.6V172.6H78.9333V164.067ZM78.9333 176.867H89.6V185.4H78.9333V176.867ZM177.067 172.6H166.4V164.067H177.067V172.6ZM177.067 159.8H166.4C166.4 156.867 166.069 154.013 165.443 151.267H177.067V159.8ZM177.067 147H164.267V147.179C163.184 144.075 161.715 141.152 159.912 138.467H177.067V147ZM177.067 134.2H156.595C153.485 130.731 149.755 127.827 145.579 125.667H177.067V134.2ZM177.067 110.733C177.067 110.733 177.067 110.717 177.067 110.683C177.067 110.699 177.067 110.715 177.067 110.733ZM78.9333 110.733C78.9333 110.717 78.9333 110.701 78.9333 110.683C78.9333 110.715 78.9333 110.733 78.9333 110.733ZM74.6667 110.733C74.6667 110.733 74.6667 110.717 74.6667 110.683C74.6667 110.699 74.6667 110.715 74.6667 110.733ZM78.9333 189.667H89.6V193.933H78.9333V189.667ZM187.733 200.333V204.6C187.733 205.776 186.776 206.733 185.6 206.733H70.4C69.224 206.733 68.2667 205.776 68.2667 204.6V200.333C68.2667 199.157 69.224 198.2 70.4 198.2H185.6C186.776 198.2 187.733 199.157 187.733 200.333ZM166.4 193.933V189.667H177.067V193.933H166.4ZM181.333 110.733C181.333 110.717 181.333 110.701 181.333 110.683C181.333 110.715 181.333 110.733 181.333 110.733ZM187.733 112.867H185.6C181.704 112.867 181.36 111.067 181.333 110.68C181.307 109.525 180.36 108.6 179.2 108.6C178.04 108.6 177.096 109.528 177.067 110.68C177.037 111.067 176.696 112.867 172.8 112.867C168.904 112.867 168.56 111.067 168.533 110.68C168.507 109.525 167.56 108.6 166.4 108.6C165.24 108.6 164.296 109.528 164.267 110.68C164.237 111.067 163.896 112.867 160 112.867C156.104 112.867 155.76 111.067 155.733 110.68C155.707 109.525 154.76 108.6 153.6 108.6C152.44 108.6 151.496 109.528 151.467 110.68C151.437 111.067 151.096 112.867 147.2 112.867C143.304 112.867 142.96 111.067 142.933 110.68C142.907 109.525 141.96 108.6 140.8 108.6C139.64 108.6 138.696 109.528 138.667 110.68C138.637 111.067 138.296 112.867 134.4 112.867C130.504 112.867 130.16 111.067 130.133 110.68C130.107 109.525 129.16 108.6 128 108.6C126.84 108.6 125.896 109.528 125.867 110.68C125.837 111.067 125.493 112.867 121.6 112.867C117.707 112.867 117.36 111.067 117.333 110.68C117.307 109.525 116.36 108.6 115.2 108.6C114.04 108.6 113.096 109.528 113.067 110.68C113.037 111.067 112.693 112.867 108.8 112.867C104.907 112.867 104.56 111.067 104.533 110.68C104.507 109.525 103.56 108.6 102.4 108.6C101.24 108.6 100.296 109.528 100.267 110.68C100.237 111.067 99.8933 112.867 96 112.867C92.1067 112.867 91.76 111.067 91.7333 110.68C91.7067 109.525 90.76 108.6 89.6 108.6C88.44 108.6 87.496 109.528 87.4667 110.68C87.4373 111.067 87.0933 112.867 83.2 112.867C79.3067 112.867 78.96 111.067 78.9333 110.68C78.9067 109.525 77.96 108.6 76.8 108.6C75.64 108.6 74.696 109.528 74.6667 110.68C74.6373 111.067 74.2933 112.867 70.4 112.867H68.2667V102.2C68.2667 101.024 69.224 100.067 70.4 100.067H185.6C186.776 100.067 187.733 101.024 187.733 102.2V112.867Z" fill="#DA78AC" fill-opacity="0.2"/>
</g>
<path d="M102.554 133.907V120.715C102.554 120.65 102.591 120.622 102.656 120.622H105.467C105.513 120.622 105.56 120.65 105.597 120.715L111.07 131.412C111.117 131.532 111.256 131.523 111.256 131.412V120.715C111.256 120.65 111.293 120.622 111.358 120.622H113.213C113.278 120.622 113.306 120.65 113.306 120.715V133.907C113.306 133.972 113.278 134 113.213 134H110.402C110.328 134 110.282 133.972 110.254 133.907L104.78 123.21C104.734 123.09 104.585 123.108 104.585 123.229V133.907C104.585 133.972 104.558 134 104.493 134H102.637C102.591 134 102.563 133.972 102.554 133.907ZM116.014 129.194C116.014 126.198 117.777 124.194 120.644 124.194C123.511 124.194 125.282 126.235 125.282 129.194C125.282 129.482 125.255 129.686 125.208 129.862C125.18 129.927 125.153 129.955 125.115 129.955H118.25C118.185 129.955 118.157 129.983 118.157 130.048C118.157 131.263 119.141 132.349 120.644 132.349C121.729 132.349 122.416 131.95 122.778 131.245C122.805 131.18 122.843 131.152 122.907 131.152H124.865C124.93 131.152 124.958 131.18 124.958 131.226V131.245C124.726 132.182 124.225 132.905 123.436 133.416C122.648 133.926 121.72 134.186 120.644 134.186C117.814 134.186 116.014 132.163 116.014 129.194ZM118.157 128.202C118.157 128.267 118.185 128.294 118.25 128.304H122.982C123.047 128.304 123.074 128.267 123.074 128.202C123.074 127.292 122.36 126.059 120.644 126.059C118.946 126.059 118.157 127.404 118.157 128.202ZM129.688 133.907L126.497 124.5C126.469 124.426 126.506 124.389 126.608 124.389H128.566C128.612 124.389 128.659 124.426 128.687 124.5L131.08 131.987C131.126 132.089 131.219 132.089 131.266 131.987L133.659 124.5C133.687 124.426 133.724 124.389 133.789 124.389H135.728C135.802 124.389 135.839 124.426 135.83 124.5L132.657 133.907C132.629 133.972 132.592 134 132.537 134H129.8C129.753 134 129.716 133.972 129.688 133.907ZM137.165 129.194C137.165 126.198 138.928 124.194 141.795 124.194C144.661 124.194 146.433 126.235 146.433 129.194C146.433 129.482 146.406 129.686 146.359 129.862C146.331 129.927 146.303 129.955 146.266 129.955H139.401C139.336 129.955 139.308 129.983 139.308 130.048C139.308 131.263 140.292 132.349 141.795 132.349C142.88 132.349 143.567 131.95 143.928 131.245C143.956 131.18 143.993 131.152 144.058 131.152H146.016C146.081 131.152 146.109 131.18 146.109 131.226V131.245C145.877 132.182 145.376 132.905 144.587 133.416C143.799 133.926 142.871 134.186 141.795 134.186C138.965 134.186 137.165 132.163 137.165 129.194ZM139.308 128.202C139.308 128.267 139.336 128.294 139.401 128.304H144.133C144.197 128.304 144.225 128.267 144.225 128.202C144.225 127.292 143.511 126.059 141.795 126.059C140.097 126.059 139.308 127.404 139.308 128.202ZM149.086 133.907V124.481C149.086 124.417 149.114 124.389 149.16 124.389H150.802C150.867 124.389 150.904 124.426 150.932 124.5L151.118 125.205C151.164 125.307 151.266 125.289 151.312 125.242C151.916 124.639 152.611 124.194 153.511 124.194H154.522C154.587 124.194 154.615 124.222 154.615 124.287V126.003C154.615 126.068 154.587 126.096 154.522 126.096H153.418C151.888 126.096 151.118 127.292 151.118 128.601V133.907C151.118 133.972 151.09 134 151.025 134H149.16C149.114 134 149.086 133.972 149.086 133.907Z" fill="#28225C"/>
<rect x="110.5" y="206.5" width="129" height="29" rx="11.5" fill="#FAD9D5"/>
<rect x="110.5" y="206.5" width="129" height="29" rx="11.5" stroke="#28225C"/>
<path d="M121.668 225.932V224.879C121.668 224.831 121.688 224.811 121.736 224.811H124.006C124.054 224.811 124.074 224.79 124.074 224.742V217.407C124.074 217.359 124.054 217.339 124.006 217.332H121.736C121.688 217.332 121.668 217.312 121.668 217.264V216.211C121.668 216.163 121.688 216.143 121.736 216.143H127.854C127.902 216.143 127.923 216.163 127.923 216.211V217.264C127.923 217.312 127.902 217.332 127.854 217.332H125.476C125.428 217.332 125.407 217.359 125.407 217.407V224.742C125.407 224.79 125.428 224.811 125.476 224.811H127.854C127.902 224.811 127.923 224.831 127.923 224.879V225.932C127.923 225.979 127.902 226 127.854 226H121.736C121.688 226 121.668 225.979 121.668 225.932ZM131.142 225.932V216.211C131.142 216.163 131.163 216.143 131.21 216.143H133.001C133.036 216.143 133.07 216.163 133.104 216.211L136.925 224.052C136.959 224.141 137.062 224.141 137.062 224.038V216.211C137.062 216.163 137.082 216.143 137.13 216.143H138.32C138.368 216.143 138.388 216.163 138.395 216.211V225.932C138.395 225.979 138.368 226 138.32 226H136.542C136.495 226 136.46 225.979 136.433 225.932L132.612 218.091C132.578 218.002 132.468 218.016 132.468 218.104V225.932C132.468 225.979 132.448 226 132.4 226H131.21C131.163 226 131.142 225.979 131.142 225.932ZM141.06 223.3C141.06 223.252 141.088 223.231 141.136 223.225H142.38C142.434 223.225 142.462 223.252 142.462 223.313C142.462 224.024 143.221 224.947 144.8 224.947C146.297 224.947 147.138 224.154 147.138 223.225C147.138 221.98 146.023 221.7 144.8 221.591C143.241 221.434 141.224 220.982 141.231 218.815C141.231 217.018 142.94 216.006 144.649 216.006C146.406 216.006 148.088 216.922 148.163 218.843C148.163 218.891 148.142 218.911 148.095 218.918H146.83C146.782 218.911 146.762 218.891 146.762 218.843C146.762 217.913 145.893 217.195 144.649 217.195C143.542 217.195 142.633 217.872 142.633 218.815C142.633 219.964 143.829 220.148 144.8 220.258C146.632 220.477 148.539 220.914 148.539 223.225C148.539 224.64 147.52 226.137 144.8 226.137C142.373 226.137 141.06 224.817 141.06 223.3ZM151.615 225.932V216.211C151.615 216.163 151.635 216.143 151.683 216.143H155.634C157.159 216.143 158.492 217.469 158.492 219.137C158.492 220.798 157.159 222.083 155.634 222.083H153.016C152.968 222.083 152.948 222.104 152.948 222.151V225.932C152.948 225.979 152.927 226 152.879 226H151.683C151.635 226 151.615 225.979 151.615 225.932ZM152.948 217.407V220.818C152.948 220.866 152.968 220.887 153.016 220.887H155.463C156.352 220.887 157.159 220.107 157.159 219.137C157.159 218.173 156.352 217.332 155.463 217.332H153.016C152.968 217.332 152.948 217.359 152.948 217.407ZM161.806 225.932V224.879C161.806 224.831 161.827 224.811 161.875 224.811H164.144C164.192 224.811 164.213 224.79 164.213 224.742V217.407C164.213 217.359 164.192 217.339 164.144 217.332H161.875C161.827 217.332 161.806 217.312 161.806 217.264V216.211C161.806 216.163 161.827 216.143 161.875 216.143H167.993C168.041 216.143 168.061 216.163 168.061 216.211V217.264C168.061 217.312 168.041 217.332 167.993 217.332H165.614C165.566 217.332 165.546 217.359 165.546 217.407V224.742C165.546 224.79 165.566 224.811 165.614 224.811H167.993C168.041 224.811 168.061 224.831 168.061 224.879V225.932C168.061 225.979 168.041 226 167.993 226H161.875C161.827 226 161.806 225.979 161.806 225.932ZM171.629 225.932V216.211C171.629 216.163 171.65 216.143 171.697 216.143H175.649C177.173 216.143 178.506 217.469 178.506 219.137C178.506 219.752 178.349 220.292 178.034 220.764C177.72 221.235 177.323 221.591 176.838 221.816C176.804 221.837 176.79 221.864 176.811 221.912L178.602 225.932C178.622 225.979 178.595 226 178.533 226H177.371C177.337 226 177.262 226.007 177.228 225.932L175.546 222.151C175.526 222.104 175.498 222.083 175.45 222.083H173.03C172.983 222.083 172.962 222.104 172.962 222.151V225.932C172.962 225.979 172.935 226 172.887 226H171.697C171.65 226 171.629 225.979 171.629 225.932ZM172.962 217.407V220.818C172.962 220.866 172.983 220.887 173.03 220.887H175.532C176.394 220.853 177.173 220.101 177.173 219.137C177.173 218.173 176.353 217.332 175.478 217.332H173.03C172.983 217.332 172.962 217.359 172.962 217.407ZM180.714 225.918L184.015 216.211C184.036 216.163 184.063 216.143 184.097 216.143H185.82C185.854 216.143 185.888 216.163 185.909 216.211L189.17 225.918C189.19 225.973 189.163 226 189.094 226H187.782C187.755 226 187.734 225.979 187.714 225.932L187.071 223.929C187.064 223.881 187.03 223.86 186.968 223.86H182.908C182.874 223.86 182.846 223.881 182.826 223.929L182.17 225.932C182.149 225.979 182.129 226 182.094 226H180.782C180.72 226 180.693 225.973 180.714 225.918ZM184.883 217.544L183.229 222.657C183.209 222.712 183.236 222.739 183.304 222.739H186.592C186.654 222.739 186.681 222.712 186.661 222.657L185.027 217.544C184.993 217.455 184.918 217.455 184.883 217.544ZM191.473 217.264V216.211C191.473 216.163 191.493 216.143 191.541 216.143H198.418C198.466 216.143 198.486 216.163 198.486 216.211V217.264C198.486 217.312 198.466 217.332 198.418 217.332H195.718C195.67 217.332 195.649 217.359 195.649 217.407V225.932C195.649 225.979 195.622 226 195.574 226H194.385C194.337 226 194.316 225.979 194.316 225.932V217.387C194.296 217.353 194.275 217.332 194.248 217.332H191.541C191.493 217.332 191.473 217.312 191.473 217.264ZM201.945 225.932V224.879C201.945 224.831 201.965 224.811 202.013 224.811H204.283C204.331 224.811 204.351 224.79 204.351 224.742V217.407C204.351 217.359 204.331 217.339 204.283 217.332H202.013C201.965 217.332 201.945 217.312 201.945 217.264V216.211C201.945 216.163 201.965 216.143 202.013 216.143H208.131C208.179 216.143 208.2 216.163 208.2 216.211V217.264C208.2 217.312 208.179 217.332 208.131 217.332H205.752C205.705 217.332 205.684 217.359 205.684 217.407V224.742C205.684 224.79 205.705 224.811 205.752 224.811H208.131C208.179 224.811 208.2 224.831 208.2 224.879V225.932C208.2 225.979 208.179 226 208.131 226H202.013C201.965 226 201.945 225.979 201.945 225.932ZM211.057 221.071C211.057 218.118 212.253 216.006 215.056 216.006C217.858 216.006 219.048 218.118 219.048 221.071C219.048 224.059 217.858 226.137 215.056 226.137C212.246 226.137 211.057 224.059 211.057 221.071ZM212.451 221.071C212.451 223.505 213.244 224.947 215.056 224.947C215.965 224.947 216.621 224.605 217.038 223.915C217.455 223.231 217.66 222.281 217.66 221.071C217.66 218.645 216.997 217.195 215.056 217.195C213.244 217.195 212.451 218.645 212.451 221.071ZM221.454 225.932V216.211C221.454 216.163 221.474 216.143 221.522 216.143H223.313C223.347 216.143 223.381 216.163 223.415 216.211L227.237 224.052C227.271 224.141 227.373 224.141 227.373 224.038V216.211C227.373 216.163 227.394 216.143 227.442 216.143H228.631C228.679 216.143 228.7 216.163 228.706 216.211V225.932C228.706 225.979 228.679 226 228.631 226H226.854C226.806 226 226.772 225.979 226.745 225.932L222.923 218.091C222.889 218.002 222.78 218.016 222.78 218.104V225.932C222.78 225.979 222.759 226 222.711 226H221.522C221.474 226 221.454 225.979 221.454 225.932Z" fill="#28225C"/>
<defs>
<clipPath id="clip0_2_84">
<rect width="128" height="128" fill="white" transform="translate(64 83)"/>
</clipPath>
</defs>
</svg>
