<svg width="532" height="252" viewBox="0 0 532 252" fill="none" xmlns="http://www.w3.org/2000/svg">
<g filter="url(#filter0_i_2_75)">
<rect width="532" height="252" rx="20" fill="#E3087E"/>
<rect x="397.5" y="207.5" width="119" height="29" rx="11.5" fill="#E3087E"/>
<rect x="397.5" y="207.5" width="119" height="29" rx="11.5" stroke="#FAD9D5"/>
<path d="M408.23 218.264V217.211C408.23 217.163 408.251 217.143 408.299 217.143H415.176C415.224 217.143 415.244 217.163 415.244 217.211V218.264C415.244 218.312 415.224 218.332 415.176 218.332H412.476C412.428 218.332 412.407 218.359 412.407 218.407V226.932C412.407 226.979 412.38 227 412.332 227H411.143C411.095 227 411.074 226.979 411.074 226.932V218.387C411.054 218.353 411.033 218.332 411.006 218.332H408.299C408.251 218.332 408.23 218.312 408.23 218.264ZM421.04 222.618L417.732 217.211C417.705 217.163 417.718 217.143 417.78 217.143H419.188C419.236 217.143 419.27 217.163 419.304 217.211L421.697 221.203C421.745 221.265 421.786 221.265 421.833 221.203L424.247 217.211C424.281 217.163 424.329 217.143 424.383 217.143H425.771C425.826 217.143 425.839 217.163 425.812 217.211L422.483 222.618C422.449 222.693 422.442 222.721 422.442 222.755V226.932C422.442 226.979 422.414 227 422.367 227H421.177C421.129 227 421.109 226.979 421.109 226.932V222.755C421.109 222.734 421.088 222.693 421.04 222.618ZM428.58 226.932V217.211C428.58 217.163 428.6 217.143 428.648 217.143H432.599C434.124 217.143 435.457 218.469 435.457 220.137C435.457 221.798 434.124 223.083 432.599 223.083H429.981C429.933 223.083 429.913 223.104 429.913 223.151V226.932C429.913 226.979 429.892 227 429.845 227H428.648C428.6 227 428.58 226.979 428.58 226.932ZM429.913 218.407V221.818C429.913 221.866 429.933 221.887 429.981 221.887H432.429C433.317 221.887 434.124 221.107 434.124 220.137C434.124 219.173 433.317 218.332 432.429 218.332H429.981C429.933 218.332 429.913 218.359 429.913 218.407ZM437.849 222.071C437.849 219.118 439.045 217.006 441.848 217.006C444.651 217.006 445.84 219.118 445.84 222.071C445.84 225.059 444.651 227.137 441.848 227.137C439.038 227.137 437.849 225.059 437.849 222.071ZM439.243 222.071C439.243 224.505 440.036 225.947 441.848 225.947C442.757 225.947 443.413 225.605 443.83 224.915C444.247 224.231 444.452 223.281 444.452 222.071C444.452 219.645 443.789 218.195 441.848 218.195C440.036 218.195 439.243 219.645 439.243 222.071ZM447.631 222.071C447.631 219.118 448.82 217.006 451.773 217.006C454.002 217.006 455.075 218.428 455.499 219.843C455.506 219.891 455.485 219.911 455.424 219.918H454.125C454.077 219.918 454.05 219.891 454.043 219.843C453.612 218.742 452.819 218.195 451.773 218.195C449.811 218.195 449.025 219.788 449.025 222.071C449.025 224.354 449.811 225.947 451.773 225.947C453.175 225.947 454.234 224.86 454.234 222.728C454.234 222.68 454.214 222.659 454.166 222.659H451.842C451.794 222.659 451.773 222.639 451.773 222.591V221.538C451.773 221.49 451.794 221.47 451.842 221.47H455.499C455.547 221.47 455.567 221.49 455.567 221.538V226.932C455.567 226.979 455.547 227 455.499 227H454.473C454.419 227 454.385 226.973 454.378 226.918L454.234 225.934C454.234 225.879 454.145 225.852 454.111 225.906C453.66 226.494 452.785 227.137 451.493 227.137C448.841 227.137 447.631 225.059 447.631 222.071ZM458.629 226.932V217.211C458.629 217.163 458.65 217.143 458.697 217.143H462.649C464.173 217.143 465.506 218.469 465.506 220.137C465.506 220.752 465.349 221.292 465.034 221.764C464.72 222.235 464.323 222.591 463.838 222.816C463.804 222.837 463.79 222.864 463.811 222.912L465.602 226.932C465.622 226.979 465.595 227 465.533 227H464.371C464.337 227 464.262 227.007 464.228 226.932L462.546 223.151C462.526 223.104 462.498 223.083 462.45 223.083H460.03C459.983 223.083 459.962 223.104 459.962 223.151V226.932C459.962 226.979 459.935 227 459.887 227H458.697C458.65 227 458.629 226.979 458.629 226.932ZM459.962 218.407V221.818C459.962 221.866 459.983 221.887 460.03 221.887H462.532C463.394 221.853 464.173 221.101 464.173 220.137C464.173 219.173 463.353 218.332 462.478 218.332H460.03C459.983 218.332 459.962 218.359 459.962 218.407ZM467.714 226.918L471.015 217.211C471.036 217.163 471.063 217.143 471.097 217.143H472.82C472.854 217.143 472.888 217.163 472.909 217.211L476.17 226.918C476.19 226.973 476.163 227 476.094 227H474.782C474.755 227 474.734 226.979 474.714 226.932L474.071 224.929C474.064 224.881 474.03 224.86 473.968 224.86H469.908C469.874 224.86 469.846 224.881 469.826 224.929L469.17 226.932C469.149 226.979 469.129 227 469.094 227H467.782C467.72 227 467.693 226.973 467.714 226.918ZM471.883 218.544L470.229 223.657C470.209 223.712 470.236 223.739 470.304 223.739H473.592C473.654 223.739 473.681 223.712 473.661 223.657L472.027 218.544C471.993 218.455 471.918 218.455 471.883 218.544ZM478.753 226.932V217.211C478.753 217.163 478.774 217.143 478.821 217.143H482.773C484.297 217.143 485.63 218.469 485.63 220.137C485.63 221.798 484.297 223.083 482.773 223.083H480.154C480.107 223.083 480.086 223.104 480.086 223.151V226.932C480.086 226.979 480.066 227 480.018 227H478.821C478.774 227 478.753 226.979 478.753 226.932ZM480.086 218.407V221.818C480.086 221.866 480.107 221.887 480.154 221.887H482.602C483.49 221.887 484.297 221.107 484.297 220.137C484.297 219.173 483.49 218.332 482.602 218.332H480.154C480.107 218.332 480.086 218.359 480.086 218.407ZM488.466 226.932V217.211C488.466 217.163 488.487 217.143 488.535 217.143H489.724C489.772 217.143 489.793 217.163 489.799 217.211V221.258C489.799 221.306 489.82 221.326 489.868 221.333H494.168C494.215 221.333 494.236 221.306 494.236 221.258V217.211C494.236 217.163 494.256 217.143 494.304 217.143H495.494C495.542 217.143 495.562 217.163 495.562 217.211V226.932C495.562 226.979 495.542 227 495.494 227H494.304C494.256 227 494.236 226.979 494.236 226.932V222.591C494.236 222.543 494.215 222.522 494.168 222.522H489.868C489.82 222.522 489.799 222.543 489.799 222.577V226.932C489.799 226.979 489.772 227 489.724 227H488.535C488.487 227 488.466 226.979 488.466 226.932ZM501.317 222.618L498.009 217.211C497.981 217.163 497.995 217.143 498.057 217.143H499.465C499.513 217.143 499.547 217.163 499.581 217.211L501.974 221.203C502.021 221.265 502.062 221.265 502.11 221.203L504.523 217.211C504.558 217.163 504.605 217.143 504.66 217.143H506.048C506.103 217.143 506.116 217.163 506.089 217.211L502.76 222.618C502.726 222.693 502.719 222.721 502.719 222.755V226.932C502.719 226.979 502.691 227 502.644 227H501.454C501.406 227 501.386 226.979 501.386 226.932V222.755C501.386 222.734 501.365 222.693 501.317 222.618Z" fill="#FAD9D5"/>
<path d="M131.283 121.394V119.715C131.283 119.65 131.311 119.622 131.376 119.622H140.783C140.848 119.622 140.876 119.65 140.876 119.715V121.394C140.876 121.459 140.848 121.487 140.783 121.487H137.193C137.128 121.487 137.1 121.515 137.091 121.58V132.907C137.091 132.972 137.063 133 136.998 133H135.133C135.068 133 135.04 132.972 135.04 132.907V121.58C135.04 121.515 135.013 121.487 134.948 121.487H131.376C131.311 121.487 131.283 121.459 131.283 121.394ZM142.777 132.907V119.715C142.777 119.65 142.814 119.622 142.879 119.622H144.716C144.781 119.622 144.809 119.65 144.809 119.715V124.187C144.809 124.307 144.976 124.298 145.022 124.224C145.198 123.982 145.505 123.75 145.941 123.528C146.367 123.305 146.85 123.194 147.397 123.194C150.273 123.194 151.479 125.263 151.479 127.703V132.907C151.479 132.972 151.451 133 151.386 133H149.522C149.457 133 149.429 132.972 149.429 132.907V127.703C149.429 126.413 148.798 125.096 147.109 125.096C145.579 125.096 144.809 126.292 144.809 127.601V132.907C144.809 132.972 144.781 133 144.716 133H142.879C142.814 133 142.786 132.972 142.777 132.907ZM153.993 128.194C153.993 125.198 155.755 123.194 158.622 123.194C161.489 123.194 163.261 125.235 163.261 128.194C163.261 128.482 163.233 128.686 163.186 128.862C163.159 128.927 163.131 128.955 163.094 128.955H156.228C156.163 128.955 156.136 128.983 156.136 129.048C156.136 130.263 157.119 131.349 158.622 131.349C159.707 131.349 160.394 130.95 160.756 130.245C160.784 130.18 160.821 130.152 160.886 130.152H162.843C162.908 130.152 162.936 130.18 162.936 130.226V130.245C162.704 131.182 162.203 131.905 161.414 132.416C160.626 132.926 159.698 133.186 158.622 133.186C155.792 133.186 153.993 131.163 153.993 128.194ZM156.136 127.202C156.136 127.267 156.163 127.294 156.228 127.304H160.96C161.025 127.304 161.053 127.267 161.053 127.202C161.053 126.292 160.338 125.059 158.622 125.059C156.924 125.059 156.136 126.404 156.136 127.202ZM170.681 132.907V119.715C170.681 119.65 170.718 119.622 170.783 119.622H172.62C172.685 119.622 172.713 119.65 172.713 119.715V131.061C172.713 131.126 172.75 131.154 172.815 131.154H179.365C179.43 131.154 179.457 131.191 179.457 131.256V132.907C179.457 132.972 179.43 133 179.365 133H170.783C170.718 133 170.69 132.972 170.681 132.907ZM180.95 128.194C180.95 125.198 182.713 123.194 185.58 123.194C188.446 123.194 190.218 125.235 190.218 128.194C190.218 128.482 190.191 128.686 190.144 128.862C190.116 128.927 190.088 128.955 190.051 128.955H183.186C183.121 128.955 183.093 128.983 183.093 129.048C183.093 130.263 184.077 131.349 185.58 131.349C186.665 131.349 187.352 130.95 187.713 130.245C187.741 130.18 187.778 130.152 187.843 130.152H189.801C189.866 130.152 189.894 130.18 189.894 130.226V130.245C189.662 131.182 189.161 131.905 188.372 132.416C187.584 132.926 186.656 133.186 185.58 133.186C182.75 133.186 180.95 131.163 180.95 128.194ZM183.093 127.202C183.093 127.267 183.121 127.294 183.186 127.304H187.918C187.982 127.304 188.01 127.267 188.01 127.202C188.01 126.292 187.296 125.059 185.58 125.059C183.882 125.059 183.093 126.404 183.093 127.202ZM192.129 130.152C192.129 128.482 193.511 127.165 196.294 127.165H198.252C198.66 127.165 198.855 126.858 198.855 126.636C198.855 126.051 198.688 125.059 196.638 125.059C195.867 125.059 195.32 125.207 194.995 125.495C194.671 125.782 194.494 126.135 194.485 126.543C194.485 126.608 194.457 126.636 194.392 126.636H192.546C192.481 126.636 192.453 126.608 192.453 126.543C192.453 124.307 194.43 123.194 196.638 123.194C197.955 123.194 198.994 123.481 199.755 124.066C200.515 124.65 200.896 125.541 200.896 126.729V130.625C200.896 130.987 201.146 131.256 201.555 131.256H201.972C202.037 131.256 202.065 131.284 202.065 131.349V132.907C202.065 132.972 202.037 133 201.972 133H201.211C200.144 133 199.606 132.694 199.272 132.109C199.226 132.035 199.17 132.026 199.105 132.091C198.864 132.341 198.474 132.592 197.936 132.824C197.398 133.065 196.721 133.186 195.914 133.186C194.634 133.186 193.687 132.898 193.066 132.332C192.444 131.766 192.129 131.033 192.129 130.152ZM194.17 130.152C194.17 130.681 194.578 131.349 195.914 131.349C198.048 131.349 198.855 130.115 198.855 129.048V128.918C198.855 128.853 198.827 128.825 198.762 128.816H196.35C194.476 128.816 194.17 129.567 194.17 130.152ZM203.604 128.194C203.604 125.235 205.432 123.194 208.029 123.194C208.549 123.194 209.05 123.287 209.542 123.472C210.024 123.658 210.404 123.899 210.683 124.187C210.757 124.261 210.813 124.261 210.859 124.187L211.044 123.5C211.054 123.426 211.1 123.389 211.184 123.389H212.798C212.863 123.389 212.891 123.417 212.891 123.481V132.675C212.891 135.254 210.961 136.952 208.336 136.952C205.97 136.952 204.105 135.579 204.059 133.965C204.059 133.9 204.086 133.872 204.151 133.872H205.933C205.998 133.872 206.044 133.9 206.09 133.965C206.285 134.262 206.749 135.087 208.336 135.087C210.21 135.087 210.813 133.9 210.859 132.675V132.221C210.859 132.174 210.831 132.146 210.766 132.146C210.711 132.146 209.551 133.186 208.029 133.186C205.534 133.186 203.604 131.163 203.604 128.194ZM205.654 128.194C205.654 129.122 205.886 129.883 206.341 130.467C206.795 131.052 207.445 131.349 208.308 131.349C209.978 131.349 210.859 130.152 210.859 128.194C210.859 127.267 210.646 126.515 210.219 125.931C209.783 125.346 209.152 125.059 208.308 125.059C207.445 125.059 206.795 125.346 206.341 125.931C205.886 126.515 205.654 127.267 205.654 128.194ZM216.063 128.686V123.481C216.063 123.417 216.091 123.389 216.156 123.389H218.02C218.085 123.389 218.113 123.417 218.113 123.481V128.686C218.113 129.985 218.744 131.33 220.432 131.33C221.972 131.33 222.733 130.105 222.733 128.779V123.481C222.733 123.417 222.761 123.389 222.826 123.389H224.672C224.737 123.389 224.765 123.417 224.765 123.481V132.907C224.765 132.972 224.737 133 224.672 133H223.049C222.984 133 222.947 132.972 222.919 132.907L222.733 132.184C222.687 132.063 222.566 132.119 222.52 132.165C222.112 132.675 221.202 133.186 220.145 133.186C217.278 133.186 216.063 131.126 216.063 128.686ZM227.371 128.194C227.371 125.198 229.134 123.194 232.001 123.194C234.867 123.194 236.639 125.235 236.639 128.194C236.639 128.482 236.611 128.686 236.565 128.862C236.537 128.927 236.509 128.955 236.472 128.955H229.607C229.542 128.955 229.514 128.983 229.514 129.048C229.514 130.263 230.498 131.349 232.001 131.349C233.086 131.349 233.772 130.95 234.134 130.245C234.162 130.18 234.199 130.152 234.264 130.152H236.222C236.287 130.152 236.314 130.18 236.314 130.226V130.245C236.083 131.182 235.582 131.905 234.793 132.416C234.004 132.926 233.077 133.186 232.001 133.186C229.171 133.186 227.371 131.163 227.371 128.194ZM229.514 127.202C229.514 127.267 229.542 127.294 229.607 127.304H234.338C234.403 127.304 234.431 127.267 234.431 127.202C234.431 126.292 233.717 125.059 232.001 125.059C230.303 125.059 229.514 126.404 229.514 127.202ZM243.382 128.194C243.382 125.198 245.117 123.194 248.086 123.194C251.055 123.194 252.817 125.235 252.817 128.194C252.817 131.163 251.055 133.186 248.086 133.186C245.108 133.186 243.382 131.163 243.382 128.194ZM245.433 128.194C245.433 129.15 245.665 129.911 246.128 130.486C246.583 131.061 247.242 131.349 248.086 131.349C248.958 131.349 249.626 131.061 250.081 130.486C250.535 129.911 250.767 129.15 250.767 128.194C250.767 127.239 250.544 126.478 250.09 125.912C249.635 125.346 248.967 125.059 248.086 125.059C247.242 125.059 246.583 125.346 246.128 125.912C245.665 126.478 245.433 127.239 245.433 128.194ZM254.143 125.003V123.481C254.143 123.417 254.171 123.389 254.236 123.389H255.86C255.925 123.389 255.952 123.361 255.952 123.314V122.09C255.952 120.374 257.001 119.622 258.708 119.622H260.09C260.155 119.622 260.183 119.65 260.183 119.715V121.394C260.183 121.459 260.155 121.487 260.09 121.487H258.782C258.3 121.487 258.003 121.756 258.003 122.266V123.314C258.003 123.361 258.031 123.389 258.095 123.389H260.09C260.155 123.389 260.183 123.417 260.183 123.481V125.003C260.183 125.068 260.155 125.096 260.09 125.096H258.095C258.031 125.096 258.003 125.124 258.003 125.188V132.907C258.003 132.972 257.975 133 257.91 133H256.045C255.98 133 255.952 132.972 255.952 132.907V125.188C255.952 125.124 255.925 125.096 255.86 125.096H254.236C254.171 125.096 254.143 125.068 254.143 125.003ZM267.288 132.907V119.715C267.288 119.65 267.325 119.622 267.39 119.622H270.897C270.962 119.622 271.008 119.65 271.036 119.715L273.977 130.894C274.005 130.996 274.144 130.996 274.172 130.894L277.131 119.715C277.14 119.65 277.177 119.622 277.242 119.622H280.777C280.842 119.622 280.87 119.65 280.879 119.715V132.907C280.879 132.972 280.842 133 280.777 133H278.922C278.857 133 278.829 132.972 278.82 132.907V121.774C278.82 121.654 278.68 121.626 278.634 121.737L275.73 132.926C275.721 132.972 275.675 133 275.591 133H272.557C272.483 133 272.437 132.972 272.418 132.926L269.514 121.737C269.487 121.663 269.32 121.635 269.32 121.774V132.907C269.32 132.972 269.292 133 269.227 133H267.39C267.325 133 267.297 132.972 267.288 132.907ZM283.569 128.194C283.569 125.198 285.304 123.194 288.272 123.194C291.241 123.194 293.004 125.235 293.004 128.194C293.004 131.163 291.241 133.186 288.272 133.186C285.294 133.186 283.569 131.163 283.569 128.194ZM285.619 128.194C285.619 129.15 285.851 129.911 286.315 130.486C286.77 131.061 287.428 131.349 288.272 131.349C289.145 131.349 289.812 131.061 290.267 130.486C290.722 129.911 290.954 129.15 290.954 128.194C290.954 127.239 290.731 126.478 290.276 125.912C289.822 125.346 289.154 125.059 288.272 125.059C287.428 125.059 286.77 125.346 286.315 125.912C285.851 126.478 285.619 127.239 285.619 128.194ZM297.447 132.907L294.256 123.5C294.228 123.426 294.265 123.389 294.367 123.389H296.324C296.371 123.389 296.417 123.426 296.445 123.5L298.839 130.987C298.885 131.089 298.978 131.089 299.024 130.987L301.418 123.5C301.446 123.426 301.483 123.389 301.548 123.389H303.487C303.561 123.389 303.598 123.426 303.589 123.5L300.416 132.907C300.388 132.972 300.351 133 300.295 133H297.558C297.512 133 297.475 132.972 297.447 132.907ZM304.924 128.194C304.924 125.198 306.686 123.194 309.553 123.194C312.42 123.194 314.192 125.235 314.192 128.194C314.192 128.482 314.164 128.686 314.118 128.862C314.09 128.927 314.062 128.955 314.025 128.955H307.16C307.095 128.955 307.067 128.983 307.067 129.048C307.067 130.263 308.05 131.349 309.553 131.349C310.639 131.349 311.325 130.95 311.687 130.245C311.715 130.18 311.752 130.152 311.817 130.152H313.774C313.839 130.152 313.867 130.18 313.867 130.226V130.245C313.635 131.182 313.134 131.905 312.346 132.416C311.557 132.926 310.629 133.186 309.553 133.186C306.724 133.186 304.924 131.163 304.924 128.194ZM307.067 127.202C307.067 127.267 307.095 127.294 307.16 127.304H311.891C311.956 127.304 311.984 127.267 311.984 127.202C311.984 126.292 311.269 125.059 309.553 125.059C307.855 125.059 307.067 126.404 307.067 127.202ZM316.102 130.152C316.102 128.482 317.485 127.165 320.268 127.165H322.225C322.633 127.165 322.828 126.858 322.828 126.636C322.828 126.051 322.661 125.059 320.611 125.059C319.841 125.059 319.294 125.207 318.969 125.495C318.644 125.782 318.468 126.135 318.459 126.543C318.459 126.608 318.431 126.636 318.366 126.636H316.52C316.455 126.636 316.427 126.608 316.427 126.543C316.427 124.307 318.403 123.194 320.611 123.194C321.928 123.194 322.967 123.481 323.728 124.066C324.489 124.65 324.869 125.541 324.869 126.729V130.625C324.869 130.987 325.12 131.256 325.528 131.256H325.945C326.01 131.256 326.038 131.284 326.038 131.349V132.907C326.038 132.972 326.01 133 325.945 133H325.185C324.118 133 323.58 132.694 323.246 132.109C323.199 132.035 323.144 132.026 323.079 132.091C322.838 132.341 322.448 132.592 321.91 132.824C321.372 133.065 320.695 133.186 319.887 133.186C318.607 133.186 317.661 132.898 317.039 132.332C316.418 131.766 316.102 131.033 316.102 130.152ZM318.143 130.152C318.143 130.681 318.551 131.349 319.887 131.349C322.021 131.349 322.828 130.115 322.828 129.048V128.918C322.828 128.853 322.8 128.825 322.736 128.816H320.323C318.449 128.816 318.143 129.567 318.143 130.152ZM328.236 132.907V119.715C328.236 119.65 328.273 119.622 328.338 119.622H330.175C330.24 119.622 330.268 119.65 330.268 119.715V124.149C330.268 124.196 330.379 124.251 330.426 124.205C330.528 124.103 331.456 123.194 333.042 123.194C335.677 123.194 337.495 125.235 337.495 128.194C337.495 131.163 335.779 133.186 333.042 133.186C332.105 133.186 330.964 132.685 330.481 132.202C330.407 132.128 330.314 132.119 330.268 132.221L330.082 132.907C330.073 132.972 330.027 133 329.953 133H328.338C328.273 133 328.246 132.972 328.236 132.907ZM330.268 128.194C330.268 129.122 330.481 129.883 330.908 130.467C331.335 131.052 331.956 131.349 332.764 131.349C333.636 131.349 334.304 131.052 334.758 130.467C335.213 129.883 335.435 129.122 335.435 128.194C335.435 127.267 335.213 126.515 334.758 125.931C334.304 125.346 333.636 125.059 332.764 125.059C331.14 125.059 330.268 126.237 330.268 128.194ZM340.166 132.907V119.715C340.166 119.65 340.203 119.622 340.268 119.622H342.105C342.17 119.622 342.198 119.65 342.198 119.715V132.907C342.198 132.972 342.17 133 342.105 133H340.268C340.203 133 340.175 132.972 340.166 132.907ZM344.888 128.194C344.888 125.198 346.65 123.194 349.517 123.194C352.384 123.194 354.156 125.235 354.156 128.194C354.156 128.482 354.128 128.686 354.081 128.862C354.054 128.927 354.026 128.955 353.989 128.955H347.123C347.059 128.955 347.031 128.983 347.031 129.048C347.031 130.263 348.014 131.349 349.517 131.349C350.602 131.349 351.289 130.95 351.651 130.245C351.679 130.18 351.716 130.152 351.781 130.152H353.738C353.803 130.152 353.831 130.18 353.831 130.226V130.245C353.599 131.182 353.098 131.905 352.309 132.416C351.521 132.926 350.593 133.186 349.517 133.186C346.687 133.186 344.888 131.163 344.888 128.194ZM347.031 127.202C347.031 127.267 347.059 127.294 347.123 127.304H351.855C351.92 127.304 351.948 127.267 351.948 127.202C351.948 126.292 351.233 125.059 349.517 125.059C347.819 125.059 347.031 126.404 347.031 127.202ZM360.138 121.394V119.715C360.138 119.65 360.166 119.622 360.231 119.622H369.638C369.703 119.622 369.731 119.65 369.731 119.715V121.394C369.731 121.459 369.703 121.487 369.638 121.487H366.048C365.983 121.487 365.955 121.515 365.946 121.58V132.907C365.946 132.972 365.918 133 365.853 133H363.988C363.923 133 363.895 132.972 363.895 132.907V121.58C363.895 121.515 363.868 121.487 363.803 121.487H360.231C360.166 121.487 360.138 121.459 360.138 121.394ZM372.235 132.712L369.118 123.481C369.09 123.417 369.118 123.389 369.192 123.389H371.187C371.233 123.389 371.27 123.417 371.298 123.481L373.692 130.987C373.738 131.089 373.84 131.089 373.886 130.987L376.28 123.481C376.308 123.417 376.345 123.389 376.391 123.389H378.349C378.423 123.389 378.451 123.417 378.442 123.481L374.888 134.048C374.23 135.997 373.627 136.767 371.855 136.767H369.229C369.164 136.767 369.136 136.729 369.136 136.665V135.05C369.136 134.985 369.164 134.958 369.229 134.958H371.456C372.272 134.958 372.55 134.586 372.55 134.03C372.55 133.649 372.383 133.195 372.235 132.712ZM380.445 136.665V123.481C380.445 123.417 380.482 123.389 380.547 123.389H382.161C382.235 123.389 382.282 123.417 382.291 123.481L382.476 124.168C382.523 124.27 382.616 124.261 382.69 124.187C383.172 123.704 384.313 123.194 385.25 123.194C387.987 123.194 389.703 125.235 389.703 128.194C389.703 131.163 387.885 133.186 385.25 133.186C383.645 133.186 382.745 132.295 382.634 132.184C382.588 132.137 382.476 132.193 382.476 132.239V136.665C382.476 136.729 382.449 136.757 382.384 136.767H380.547C380.482 136.767 380.454 136.729 380.445 136.665ZM382.476 128.194C382.476 130.152 383.349 131.33 384.972 131.33C385.844 131.33 386.512 131.042 386.967 130.458C387.421 129.874 387.644 129.122 387.644 128.194C387.644 127.267 387.421 126.506 386.967 125.921C386.512 125.337 385.844 125.04 384.972 125.04C384.165 125.04 383.543 125.337 383.117 125.921C382.69 126.506 382.476 127.267 382.476 128.194ZM391.716 128.194C391.716 125.198 393.479 123.194 396.345 123.194C399.212 123.194 400.984 125.235 400.984 128.194C400.984 128.482 400.956 128.686 400.91 128.862C400.882 128.927 400.854 128.955 400.817 128.955H393.952C393.887 128.955 393.859 128.983 393.859 129.048C393.859 130.263 394.842 131.349 396.345 131.349C397.431 131.349 398.117 130.95 398.479 130.245C398.507 130.18 398.544 130.152 398.609 130.152H400.567C400.631 130.152 400.659 130.18 400.659 130.226V130.245C400.427 131.182 399.926 131.905 399.138 132.416C398.349 132.926 397.422 133.186 396.345 133.186C393.516 133.186 391.716 131.163 391.716 128.194ZM393.859 127.202C393.859 127.267 393.887 127.294 393.952 127.304H398.683C398.748 127.304 398.776 127.267 398.776 127.202C398.776 126.292 398.062 125.059 396.345 125.059C394.648 125.059 393.859 126.404 393.859 127.202Z" fill="white"/>
<g clip-path="url(#clip0_2_75)">
<path d="M178.96 174.53L168.414 83.7169C167.738 78.1652 164.308 73.4416 159.24 71.0755L131.673 58.2156C131.377 58.0805 131.05 58 130.702 58H121.501C120.231 58 119.201 59.0292 119.201 60.3C119.201 64.6671 115.073 68.2235 110.001 68.2235C104.93 68.2235 100.801 64.67 100.801 60.3C100.801 59.0292 99.7718 58 98.501 58H89.3008C88.9529 58 88.6252 58.0805 88.329 58.2185L60.7658 71.0813C55.7 73.4445 52.27 78.171 51.5915 83.7341L41.0401 174.544C40.8244 176.49 41.4512 178.445 42.7593 179.903C44.0675 181.363 45.9392 182.2 47.9 182.2H68.6004V189.1C68.6004 192.904 71.6968 196 75.5005 196H144.502C148.306 196 151.402 192.904 151.402 189.1V182.2H172.103C174.06 182.2 175.935 181.363 177.243 179.903C178.551 178.442 179.178 176.49 178.96 174.53ZM128.215 62.6C127.786 65.2162 126.631 67.6312 124.94 69.684L121.898 66.6423C122.698 65.4117 123.273 64.049 123.569 62.6H128.215ZM118.733 69.9859L121.562 72.8149C118.963 74.6577 115.78 75.8911 112.301 76.2706V72.6452C114.716 72.2772 116.916 71.3371 118.736 69.9859H118.733ZM107.701 72.6452V76.2706C104.22 75.8883 101.04 74.6549 98.4406 72.8149L101.27 69.9859C103.087 71.3371 105.289 72.2772 107.704 72.6452H107.701ZM96.4338 62.6C96.7328 64.049 97.305 65.4146 98.1043 66.6423L95.0624 69.684C93.3719 67.6284 92.2161 65.2162 91.7877 62.6H96.4338ZM56.1571 84.2775C56.6401 80.3129 59.0897 76.9376 62.7094 75.2471L87.3285 63.7586C89.1628 73.5308 98.6304 81 110.001 81C121.372 81 130.84 73.5308 132.674 63.7586L157.293 75.2471C160.913 76.9376 163.362 80.3129 163.845 84.2631L173.083 163.8H152.541C153.121 154.836 153.702 144.376 153.702 138.5C153.702 127.029 151.485 102.528 151.393 101.493C151.287 100.32 150.304 99.4 149.105 99.4C147.834 99.4 146.805 100.429 146.805 101.7C146.805 101.769 146.811 101.841 146.816 101.907C146.816 101.907 146.816 101.921 146.816 101.933C146.816 101.933 146.816 101.933 146.816 101.936C146.903 102.896 149.105 127.402 149.105 138.5C149.105 148.01 147.492 170.576 146.972 177.6H73.0337C72.5133 170.576 70.9004 148.01 70.9004 138.5C70.9004 127.402 73.1027 102.896 73.189 101.936C73.189 101.936 73.189 101.936 73.189 101.933C73.189 101.921 73.189 101.913 73.189 101.907C73.1947 101.838 73.2005 101.769 73.2005 101.7C73.2005 100.429 72.1712 99.4 70.9004 99.4C69.7015 99.4 68.7154 100.32 68.6119 101.493C68.517 102.531 66.3032 127.029 66.3032 138.5C66.3032 144.376 66.884 154.836 67.4647 163.8H46.9196L56.1571 84.2775ZM152.236 168.4H156.002V177.6H151.58C151.736 175.495 151.974 172.227 152.233 168.4H152.236ZM160.602 168.4H165.202V177.6H160.602V168.4ZM93.9009 182.2V191.4H84.7007V182.2H93.9009ZM98.501 182.2H107.701V191.4H98.501V182.2ZM112.301 182.2H121.501V191.4H112.301V182.2ZM126.102 182.2H135.302V191.4H126.102V182.2ZM59.4002 168.4V177.6H54.8001V168.4H59.4002ZM64.0003 168.4H67.7666C68.0254 172.227 68.264 175.495 68.4193 177.6H63.9974V168.4H64.0003ZM46.1864 176.835C45.7437 176.341 45.5395 175.708 45.6114 175.061L46.3848 168.4H50.1971V177.6H47.8971C47.2358 177.6 46.6263 177.327 46.1835 176.835H46.1864ZM73.2005 189.1V182.2H80.1006V191.4H75.5005C74.2326 191.4 73.2005 190.368 73.2005 189.1ZM146.802 189.1C146.802 190.368 145.77 191.4 144.502 191.4H139.902V182.2H146.802V189.1ZM173.813 176.835C173.37 177.33 172.764 177.6 172.1 177.6H169.8V168.4H173.612L174.385 175.047C174.457 175.705 174.256 176.341 173.813 176.832V176.835Z" fill="black" fill-opacity="0.08"/>
<path d="M110.001 159.2C127.758 159.2 142.202 144.756 142.202 127C142.202 109.244 127.758 94.8 110.001 94.8C92.2451 94.8 77.8008 109.244 77.8008 127C77.8008 144.756 92.2451 159.2 110.001 159.2ZM110.001 110.9C118.88 110.9 126.102 118.122 126.102 127C126.102 135.878 118.88 143.1 110.001 143.1C101.123 143.1 93.9011 135.878 93.9011 127C93.9011 118.122 101.123 110.9 110.001 110.9ZM96.9889 143.264C97.0234 143.229 97.0522 143.195 97.0838 143.16C97.932 143.839 98.8347 144.454 99.7864 144.995C99.7662 145.035 99.7432 145.075 99.726 145.118H99.7202L97.0378 151.363C95.3041 150.437 93.6797 149.33 92.1876 148.068L96.9889 143.267V143.264ZM103.889 147.062C103.912 147.019 103.935 146.975 103.955 146.93C103.972 146.889 103.984 146.849 104.001 146.809C105.194 147.171 106.436 147.427 107.71 147.568C107.71 147.611 107.704 147.654 107.704 147.697V154.499C105.473 154.315 103.317 153.864 101.264 153.177L103.892 147.059L103.889 147.062ZM112.302 147.7C112.302 147.657 112.299 147.614 112.296 147.571C113.394 147.45 114.466 147.24 115.504 146.952C115.519 146.993 115.53 147.036 115.547 147.076H115.542L118.066 153.398C116.22 153.965 114.291 154.338 112.304 154.505V147.703L112.302 147.7ZM119.866 145.509C119.851 145.463 119.837 145.414 119.817 145.368C119.8 145.328 119.78 145.288 119.762 145.248C120.881 144.647 121.933 143.945 122.916 143.158C122.948 143.192 122.977 143.229 123.011 143.261L127.812 148.062C126.142 149.477 124.305 150.696 122.333 151.685L119.866 145.506V145.509ZM126.266 140.009C126.231 139.975 126.197 139.946 126.162 139.915C126.973 138.903 127.692 137.81 128.304 136.654C128.344 136.674 128.385 136.694 128.428 136.709C128.448 136.717 128.468 136.723 128.488 136.729L134.759 139.193C133.758 141.217 132.516 143.1 131.07 144.808L126.269 140.006L126.266 140.009ZM130.11 132.428C130.069 132.417 130.029 132.402 129.986 132.391C130.256 131.387 130.455 130.352 130.573 129.294C130.616 129.294 130.659 129.3 130.702 129.3H137.504C137.343 131.235 136.984 133.115 136.443 134.918L130.11 132.428ZM130.702 124.7C130.659 124.7 130.616 124.703 130.573 124.706C130.426 123.392 130.161 122.115 129.782 120.888C129.822 120.873 129.862 120.859 129.9 120.842C129.937 120.825 129.974 120.804 130.012 120.787L136.136 118.116C136.849 120.209 137.317 122.414 137.504 124.7H130.702ZM128.057 116.621V116.627C128.017 116.644 127.976 116.667 127.936 116.687C127.41 115.773 126.815 114.905 126.159 114.086C126.194 114.054 126.231 114.025 126.263 113.991L131.064 109.189C132.295 110.641 133.376 112.22 134.29 113.904L128.057 116.621ZM123.011 110.736C122.977 110.771 122.948 110.805 122.916 110.84C122.068 110.161 121.165 109.546 120.214 109.005C120.234 108.965 120.257 108.925 120.274 108.882H120.28L122.962 102.637C124.696 103.563 126.32 104.67 127.812 105.932L123.011 110.733V110.736ZM116.114 106.935C116.091 106.979 116.068 107.022 116.048 107.068C116.03 107.108 116.019 107.148 116.002 107.188C114.809 106.826 113.567 106.57 112.293 106.429C112.293 106.386 112.299 106.343 112.299 106.3V99.4978C114.53 99.6818 116.686 100.133 118.739 100.82L116.111 106.938L116.114 106.935ZM107.701 106.3C107.701 106.343 107.704 106.386 107.707 106.429C106.609 106.55 105.536 106.76 104.499 107.048C104.484 107.007 104.473 106.964 104.455 106.924H104.461L101.937 100.602C103.783 100.035 105.712 99.6616 107.699 99.4949V106.297L107.701 106.3ZM100.134 108.491C100.149 108.537 100.163 108.586 100.183 108.632C100.2 108.672 100.22 108.712 100.238 108.752C99.1194 109.353 98.0671 110.055 97.0838 110.843C97.0522 110.808 97.0234 110.771 96.9889 110.739L92.1876 105.938C93.858 104.523 95.6952 103.304 97.6674 102.315L100.134 108.494V108.491ZM93.7372 113.991C93.7717 114.025 93.8062 114.054 93.8407 114.086C93.03 115.098 92.3112 116.19 91.6988 117.346C91.6586 117.326 91.6183 117.305 91.5752 117.291C91.5551 117.282 91.5349 117.277 91.5148 117.271L85.2443 114.807C86.2448 112.783 87.4869 110.9 88.933 109.192L93.7344 113.993L93.7372 113.991ZM89.8933 121.572C89.9335 121.583 89.9738 121.598 90.0169 121.609C89.7467 122.613 89.5483 123.648 89.4304 124.706C89.3873 124.706 89.3441 124.7 89.301 124.7H82.4986C82.6596 122.765 83.019 120.885 83.5595 119.082L89.8933 121.572ZM89.301 129.3C89.3441 129.3 89.3873 129.297 89.4304 129.294C89.577 130.608 89.8415 131.885 90.221 133.112C90.1808 133.127 90.1405 133.141 90.1032 133.158C90.0658 133.176 90.0284 133.196 89.991 133.213L83.8672 135.884C83.1541 133.791 82.6855 131.586 82.4958 129.3H89.2981H89.301ZM91.9432 137.379V137.373C91.9835 137.356 92.0237 137.333 92.064 137.313C92.5901 138.227 93.1852 139.095 93.8407 139.915C93.8062 139.946 93.7689 139.975 93.7372 140.009L88.9359 144.811C87.7054 143.359 86.6243 141.78 85.7101 140.096L91.9432 137.379Z" fill="black" fill-opacity="0.08"/>
</g>
</g>
<defs>
<filter id="filter0_i_2_75" x="-4" y="0" width="536" height="256" filterUnits="userSpaceOnUse" color-interpolation-filters="sRGB">
<feFlood flood-opacity="0" result="BackgroundImageFix"/>
<feBlend mode="normal" in="SourceGraphic" in2="BackgroundImageFix" result="shape"/>
<feColorMatrix in="SourceAlpha" type="matrix" values="0 0 0 0 0 0 0 0 0 0 0 0 0 0 0 0 0 0 127 0" result="hardAlpha"/>
<feOffset dx="-4" dy="4"/>
<feGaussianBlur stdDeviation="6"/>
<feComposite in2="hardAlpha" operator="arithmetic" k2="-1" k3="1"/>
<feColorMatrix type="matrix" values="0 0 0 0 0.156863 0 0 0 0 0.133333 0 0 0 0 0.360784 0 0 0 0.3 0"/>
<feBlend mode="normal" in2="shape" result="effect1_innerShadow_2_75"/>
</filter>
<clipPath id="clip0_2_75">
<rect width="138" height="138" fill="white" transform="translate(41 58)"/>
</clipPath>
</defs>
</svg>
