<svg width="255" height="253" viewBox="0 0 255 253" fill="none" xmlns="http://www.w3.org/2000/svg">
<rect width="255" height="253" rx="20" fill="#FAD9D5"/>
<g clip-path="url(#clip0_2_76)">
<path d="M186.036 60.6667H179.071C179.071 58.0942 176.988 56 174.429 56H169.786C167.226 56 165.143 58.0942 165.143 60.6667V74.6667C165.143 77.2392 167.226 79.3333 169.786 79.3333V172.909C165.639 173.784 162.261 176.96 161.202 181.224L160.57 183.767C160.395 184.465 160.552 185.202 160.993 185.768C161.434 186.334 162.108 186.667 162.824 186.667H169.789V193.667C169.789 194.956 170.827 196 172.11 196C173.393 196 174.431 194.956 174.431 193.667V186.667H181.396C182.11 186.667 182.786 186.337 183.227 185.768C183.668 185.2 183.822 184.465 183.65 183.767L183.018 181.224C181.956 176.96 178.581 173.784 174.434 172.909V79.3333C176.994 79.3333 179.077 77.2392 179.077 74.6667H186.041C189.881 74.6667 193.006 71.5254 193.006 67.6667C193.006 63.8079 189.881 60.6667 186.041 60.6667H186.036ZM178.41 182H165.804C166.655 179.235 169.197 177.333 172.107 177.333C175.018 177.333 177.557 179.235 178.41 182ZM174.429 74.6667H169.786V60.6667H174.429V74.6667ZM186.036 70H179.071V65.3333H186.036C187.315 65.3333 188.357 66.3804 188.357 67.6667C188.357 68.9529 187.315 70 186.036 70Z" fill="#DA78AC" fill-opacity="0.2"/>
<path d="M94.7978 181.224C93.7357 176.96 90.3609 173.784 86.2143 172.909V79.3333C88.7737 79.3333 90.8571 77.2392 90.8571 74.6667V60.6667C90.8571 58.0942 88.7737 56 86.2143 56H81.5714C79.0121 56 76.9286 58.0942 76.9286 60.6667H69.9643C66.1252 60.6667 63 63.8079 63 67.6667C63 71.5254 66.1252 74.6667 69.9643 74.6667H76.9286C76.9286 77.2392 79.0121 79.3333 81.5714 79.3333V172.909C77.4248 173.784 74.0471 176.96 72.9879 181.224L72.3554 183.767C72.1813 184.465 72.3379 185.202 72.779 185.768C73.2201 186.334 73.8933 186.667 74.61 186.667H81.5743V193.667C81.5743 194.956 82.6132 196 83.8958 196C85.1784 196 86.2172 194.956 86.2172 193.667V186.667H93.1815C93.8953 186.667 94.5714 186.337 95.0125 185.768C95.4536 185.2 95.6074 184.465 95.4362 183.767L94.8036 181.224H94.7978ZM76.9286 70H69.9643C68.6846 70 67.6429 68.9529 67.6429 67.6667C67.6429 66.3804 68.6846 65.3333 69.9643 65.3333H76.9286V70ZM81.5714 60.6667H86.2143V74.6667H81.5714V60.6667ZM77.5902 182C78.4404 179.235 80.9824 177.333 83.8929 177.333C86.8034 177.333 89.3424 179.235 90.1955 182H77.5902Z" fill="#DA78AC" fill-opacity="0.2"/>
<path d="M162.702 143.929C162.412 143.054 159.708 135.43 153.646 135.336C153.576 132.466 153.536 129.377 153.536 126C153.536 119.843 153.669 114.514 153.872 109.658C155.747 109.565 158.347 108.663 160.689 105.128C162.006 103.142 162.673 101.156 162.7 101.071C162.778 100.838 162.819 100.59 162.819 100.333C162.819 99.0442 161.78 98 160.497 98C159.473 98 158.608 98.6679 158.298 99.5896C157.862 100.882 156.226 104.376 154.096 104.924C154.302 101.074 154.54 97.475 154.775 93.9283C155.329 85.5925 155.854 77.7204 155.854 67.6667C155.854 61.2325 150.648 56 144.247 56C137.846 56 132.64 61.2325 132.64 67.6667C132.64 77.7175 133.165 85.5925 133.719 93.9283C133.954 97.4779 134.195 101.074 134.398 104.924C132.269 104.376 130.632 100.882 130.197 99.5896C129.889 98.665 129.021 98 127.997 98C126.973 98 126.108 98.6679 125.798 99.5896C125.362 100.882 123.726 104.376 121.596 104.924C121.802 101.074 122.04 97.475 122.275 93.9283C122.829 85.5925 123.354 77.7204 123.354 67.6667C123.354 61.2325 118.148 56 111.747 56C105.346 56 100.14 61.2325 100.14 67.6667C100.14 77.7175 100.665 85.5925 101.219 93.9283C101.454 97.4779 101.695 101.074 101.898 104.924C99.7685 104.376 98.1319 100.882 97.6996 99.5954C97.392 98.6679 96.5244 98 95.4971 98C94.2145 98 93.1757 99.0442 93.1757 100.333C93.1757 100.59 93.2192 100.838 93.2947 101.071C93.3237 101.156 93.9882 103.142 95.3056 105.128C97.6502 108.663 100.25 109.567 102.122 109.658C102.325 114.514 102.459 119.843 102.459 126C102.459 129.38 102.418 132.469 102.348 135.336C96.2893 135.43 93.5819 143.054 93.2918 143.929C93.2134 144.162 93.1728 144.41 93.1728 144.667C93.1728 145.956 94.2116 147 95.4942 147C96.5185 147 97.3891 146.332 97.6967 145.405C98.0623 144.302 99.8614 140.295 102.203 140.017C101.962 146.347 101.585 151.632 101.217 156.809C100.662 164.593 100.137 171.943 100.137 182.003V184.336C100.137 190.77 105.343 196.003 111.744 196.003C118.146 196.003 123.351 190.77 123.351 184.336V182.003C123.351 171.946 122.826 164.593 122.272 156.809C121.903 151.632 121.526 146.347 121.285 140.017C123.563 140.286 125.336 144.057 125.792 145.405C126.099 146.332 126.967 147 127.994 147C129.021 147 129.889 146.332 130.197 145.405C130.562 144.302 132.361 140.295 134.703 140.017C134.462 146.347 134.085 151.632 133.717 156.809C133.162 164.593 132.637 171.943 132.637 182.003V184.336C132.637 190.77 137.843 196.003 144.244 196.003C150.646 196.003 155.851 190.77 155.851 184.336V182.003C155.851 171.946 155.326 164.593 154.772 156.809C154.403 151.632 154.026 146.347 153.785 140.017C156.063 140.286 157.836 144.057 158.292 145.41C158.599 146.335 159.467 147 160.491 147C161.774 147 162.813 145.956 162.813 144.667C162.813 144.41 162.769 144.162 162.694 143.929H162.702ZM150.146 157.141C150.271 158.894 150.396 160.627 150.512 162.371L138.235 158.845C138.275 158.279 138.316 157.71 138.356 157.141C138.734 151.865 139.117 146.478 139.358 140H149.145C149.386 146.478 149.772 151.865 150.146 157.141ZM148.893 126H139.607C139.607 123.541 139.587 121.217 139.549 119H148.954C148.916 121.217 148.896 123.541 148.896 126H148.893ZM149.061 114.333H139.442C139.395 112.723 139.34 111.175 139.276 109.667H149.227C149.166 111.175 149.108 112.723 149.061 114.333ZM150.576 79.2429C150.704 79.2779 150.834 79.3042 150.971 79.3187C150.843 82.425 150.675 85.4 150.489 88.3633L137.794 84.7175C137.625 81.7337 137.486 78.6829 137.396 75.4571L150.576 79.2429ZM150.178 93.1292C150.167 93.2925 150.158 93.4529 150.146 93.6162C149.903 97.2854 149.656 101.004 149.444 105H139.056C138.847 101.004 138.597 97.2854 138.354 93.6162C138.267 92.2892 138.177 90.9738 138.092 89.6583L150.178 93.1292ZM137.924 172.757C137.77 172.716 137.614 172.687 137.448 172.675C137.561 169.482 137.721 166.512 137.91 163.607L150.814 167.312C150.971 170.22 151.095 173.253 151.162 176.557L137.927 172.757H137.924ZM139.5 135.333C139.535 133.84 139.564 132.288 139.581 130.667H148.919C148.936 132.288 148.965 133.84 149 135.333H139.497H139.5ZM144.25 60.6667C148.089 60.6667 151.214 63.8079 151.214 67.6667C151.214 70.0729 151.182 72.3537 151.13 74.55L137.303 70.5804C137.294 69.6267 137.286 68.6612 137.286 67.6696C137.286 63.8108 140.411 60.6696 144.25 60.6696V60.6667ZM105.189 167.312L118.093 163.607C118.279 166.512 118.442 169.485 118.555 172.675C118.392 172.687 118.233 172.713 118.079 172.757L104.844 176.557C104.911 173.253 105.035 170.22 105.192 167.312H105.189ZM117.646 157.141C117.687 157.71 117.728 158.279 117.768 158.845L105.491 162.371C105.607 160.627 105.729 158.894 105.856 157.141C106.234 151.865 106.617 146.478 106.858 140H116.645C116.886 146.478 117.272 151.865 117.646 157.141ZM107 135.333C107.035 133.84 107.064 132.288 107.081 130.667H116.419C116.436 132.288 116.465 133.84 116.5 135.333H106.997H107ZM117.646 93.6162C117.403 97.2854 117.156 101.004 116.944 105H106.556C106.347 101.004 106.097 97.2854 105.854 93.6162C105.842 93.4529 105.833 93.2925 105.822 93.1292L117.908 89.6583C117.823 90.9738 117.736 92.2892 117.646 93.6162ZM116.393 126H107.107C107.107 123.541 107.087 121.217 107.049 119H116.454C116.416 121.217 116.396 123.541 116.396 126H116.393ZM116.561 114.333H106.942C106.895 112.723 106.84 111.175 106.776 109.667H116.727C116.666 111.175 116.608 112.723 116.561 114.333ZM118.206 84.7204L105.511 88.3662C105.325 85.4029 105.157 82.4279 105.029 79.3217C105.166 79.3071 105.296 79.2808 105.424 79.2429L118.604 75.46C118.514 78.6858 118.375 81.7367 118.206 84.7204ZM111.75 60.6667C115.589 60.6667 118.714 63.8079 118.714 67.6667C118.714 68.6583 118.709 69.6237 118.697 70.5775L104.87 74.5471C104.815 72.3508 104.786 70.0729 104.786 67.6637C104.786 63.805 107.911 60.6637 111.75 60.6637V60.6667ZM118.714 184.333C118.714 188.192 115.589 191.333 111.75 191.333C107.911 191.333 104.786 188.192 104.786 184.333V182C104.786 181.805 104.786 181.618 104.786 181.425L118.674 177.438C118.697 178.902 118.714 180.413 118.714 182V184.333ZM128 139.568C126.532 137.46 124.292 135.386 121.146 135.339C121.076 132.469 121.036 129.38 121.036 126.003C121.036 119.846 121.169 114.517 121.372 109.661C123.195 109.57 125.705 108.713 128 105.408C130.292 108.71 132.802 109.57 134.628 109.661C134.831 114.517 134.964 119.846 134.964 126.003C134.964 129.383 134.924 132.472 134.854 135.339C131.708 135.389 129.468 137.46 128 139.568ZM151.214 184.333C151.214 188.192 148.089 191.333 144.25 191.333C140.411 191.333 137.286 188.192 137.286 184.333V182C137.286 180.413 137.3 178.902 137.326 177.438L151.214 181.425C151.214 181.618 151.214 181.805 151.214 182V184.333Z" fill="#DA78AC" fill-opacity="0.2"/>
</g>
<rect x="110.5" y="206.5" width="129" height="29" rx="11.5" stroke="#28225C"/>
<path d="M121.668 225.932V224.879C121.668 224.831 121.688 224.811 121.736 224.811H124.006C124.054 224.811 124.074 224.79 124.074 224.742V217.407C124.074 217.359 124.054 217.339 124.006 217.332H121.736C121.688 217.332 121.668 217.312 121.668 217.264V216.211C121.668 216.163 121.688 216.143 121.736 216.143H127.854C127.902 216.143 127.923 216.163 127.923 216.211V217.264C127.923 217.312 127.902 217.332 127.854 217.332H125.476C125.428 217.332 125.407 217.359 125.407 217.407V224.742C125.407 224.79 125.428 224.811 125.476 224.811H127.854C127.902 224.811 127.923 224.831 127.923 224.879V225.932C127.923 225.979 127.902 226 127.854 226H121.736C121.688 226 121.668 225.979 121.668 225.932ZM131.142 225.932V216.211C131.142 216.163 131.163 216.143 131.21 216.143H133.001C133.036 216.143 133.07 216.163 133.104 216.211L136.925 224.052C136.959 224.141 137.062 224.141 137.062 224.038V216.211C137.062 216.163 137.082 216.143 137.13 216.143H138.32C138.368 216.143 138.388 216.163 138.395 216.211V225.932C138.395 225.979 138.368 226 138.32 226H136.542C136.495 226 136.46 225.979 136.433 225.932L132.612 218.091C132.578 218.002 132.468 218.016 132.468 218.104V225.932C132.468 225.979 132.448 226 132.4 226H131.21C131.163 226 131.142 225.979 131.142 225.932ZM141.06 223.3C141.06 223.252 141.088 223.231 141.136 223.225H142.38C142.434 223.225 142.462 223.252 142.462 223.313C142.462 224.024 143.221 224.947 144.8 224.947C146.297 224.947 147.138 224.154 147.138 223.225C147.138 221.98 146.023 221.7 144.8 221.591C143.241 221.434 141.224 220.982 141.231 218.815C141.231 217.018 142.94 216.006 144.649 216.006C146.406 216.006 148.088 216.922 148.163 218.843C148.163 218.891 148.142 218.911 148.095 218.918H146.83C146.782 218.911 146.762 218.891 146.762 218.843C146.762 217.913 145.893 217.195 144.649 217.195C143.542 217.195 142.633 217.872 142.633 218.815C142.633 219.964 143.829 220.148 144.8 220.258C146.632 220.477 148.539 220.914 148.539 223.225C148.539 224.64 147.52 226.137 144.8 226.137C142.373 226.137 141.06 224.817 141.06 223.3ZM151.615 225.932V216.211C151.615 216.163 151.635 216.143 151.683 216.143H155.634C157.159 216.143 158.492 217.469 158.492 219.137C158.492 220.798 157.159 222.083 155.634 222.083H153.016C152.968 222.083 152.948 222.104 152.948 222.151V225.932C152.948 225.979 152.927 226 152.879 226H151.683C151.635 226 151.615 225.979 151.615 225.932ZM152.948 217.407V220.818C152.948 220.866 152.968 220.887 153.016 220.887H155.463C156.352 220.887 157.159 220.107 157.159 219.137C157.159 218.173 156.352 217.332 155.463 217.332H153.016C152.968 217.332 152.948 217.359 152.948 217.407ZM161.806 225.932V224.879C161.806 224.831 161.827 224.811 161.875 224.811H164.144C164.192 224.811 164.213 224.79 164.213 224.742V217.407C164.213 217.359 164.192 217.339 164.144 217.332H161.875C161.827 217.332 161.806 217.312 161.806 217.264V216.211C161.806 216.163 161.827 216.143 161.875 216.143H167.993C168.041 216.143 168.061 216.163 168.061 216.211V217.264C168.061 217.312 168.041 217.332 167.993 217.332H165.614C165.566 217.332 165.546 217.359 165.546 217.407V224.742C165.546 224.79 165.566 224.811 165.614 224.811H167.993C168.041 224.811 168.061 224.831 168.061 224.879V225.932C168.061 225.979 168.041 226 167.993 226H161.875C161.827 226 161.806 225.979 161.806 225.932ZM171.629 225.932V216.211C171.629 216.163 171.65 216.143 171.697 216.143H175.649C177.173 216.143 178.506 217.469 178.506 219.137C178.506 219.752 178.349 220.292 178.034 220.764C177.72 221.235 177.323 221.591 176.838 221.816C176.804 221.837 176.79 221.864 176.811 221.912L178.602 225.932C178.622 225.979 178.595 226 178.533 226H177.371C177.337 226 177.262 226.007 177.228 225.932L175.546 222.151C175.526 222.104 175.498 222.083 175.45 222.083H173.03C172.983 222.083 172.962 222.104 172.962 222.151V225.932C172.962 225.979 172.935 226 172.887 226H171.697C171.65 226 171.629 225.979 171.629 225.932ZM172.962 217.407V220.818C172.962 220.866 172.983 220.887 173.03 220.887H175.532C176.394 220.853 177.173 220.101 177.173 219.137C177.173 218.173 176.353 217.332 175.478 217.332H173.03C172.983 217.332 172.962 217.359 172.962 217.407ZM180.714 225.918L184.015 216.211C184.036 216.163 184.063 216.143 184.097 216.143H185.82C185.854 216.143 185.888 216.163 185.909 216.211L189.17 225.918C189.19 225.973 189.163 226 189.094 226H187.782C187.755 226 187.734 225.979 187.714 225.932L187.071 223.929C187.064 223.881 187.03 223.86 186.968 223.86H182.908C182.874 223.86 182.846 223.881 182.826 223.929L182.17 225.932C182.149 225.979 182.129 226 182.094 226H180.782C180.72 226 180.693 225.973 180.714 225.918ZM184.883 217.544L183.229 222.657C183.209 222.712 183.236 222.739 183.304 222.739H186.592C186.654 222.739 186.681 222.712 186.661 222.657L185.027 217.544C184.993 217.455 184.918 217.455 184.883 217.544ZM191.473 217.264V216.211C191.473 216.163 191.493 216.143 191.541 216.143H198.418C198.466 216.143 198.486 216.163 198.486 216.211V217.264C198.486 217.312 198.466 217.332 198.418 217.332H195.718C195.67 217.332 195.649 217.359 195.649 217.407V225.932C195.649 225.979 195.622 226 195.574 226H194.385C194.337 226 194.316 225.979 194.316 225.932V217.387C194.296 217.353 194.275 217.332 194.248 217.332H191.541C191.493 217.332 191.473 217.312 191.473 217.264ZM201.945 225.932V224.879C201.945 224.831 201.965 224.811 202.013 224.811H204.283C204.331 224.811 204.351 224.79 204.351 224.742V217.407C204.351 217.359 204.331 217.339 204.283 217.332H202.013C201.965 217.332 201.945 217.312 201.945 217.264V216.211C201.945 216.163 201.965 216.143 202.013 216.143H208.131C208.179 216.143 208.2 216.163 208.2 216.211V217.264C208.2 217.312 208.179 217.332 208.131 217.332H205.752C205.705 217.332 205.684 217.359 205.684 217.407V224.742C205.684 224.79 205.705 224.811 205.752 224.811H208.131C208.179 224.811 208.2 224.831 208.2 224.879V225.932C208.2 225.979 208.179 226 208.131 226H202.013C201.965 226 201.945 225.979 201.945 225.932ZM211.057 221.071C211.057 218.118 212.253 216.006 215.056 216.006C217.858 216.006 219.048 218.118 219.048 221.071C219.048 224.059 217.858 226.137 215.056 226.137C212.246 226.137 211.057 224.059 211.057 221.071ZM212.451 221.071C212.451 223.505 213.244 224.947 215.056 224.947C215.965 224.947 216.621 224.605 217.038 223.915C217.455 223.231 217.66 222.281 217.66 221.071C217.66 218.645 216.997 217.195 215.056 217.195C213.244 217.195 212.451 218.645 212.451 221.071ZM221.454 225.932V216.211C221.454 216.163 221.474 216.143 221.522 216.143H223.313C223.347 216.143 223.381 216.163 223.415 216.211L227.237 224.052C227.271 224.141 227.373 224.141 227.373 224.038V216.211C227.373 216.163 227.394 216.143 227.442 216.143H228.631C228.679 216.143 228.7 216.163 228.706 216.211V225.932C228.706 225.979 228.679 226 228.631 226H226.854C226.806 226 226.772 225.979 226.745 225.932L222.923 218.091C222.889 218.002 222.78 218.016 222.78 218.104V225.932C222.78 225.979 222.759 226 222.711 226H221.522C221.474 226 221.454 225.979 221.454 225.932Z" fill="#28225C"/>
<path d="M90.5393 133.907V120.715C90.5393 120.65 90.5764 120.622 90.6414 120.622H92.4783C92.5432 120.622 92.5711 120.65 92.5711 120.715V132.061C92.5711 132.126 92.6082 132.154 92.6731 132.154H99.2229C99.2879 132.154 99.3157 132.191 99.3157 132.256V133.907C99.3157 133.972 99.2879 134 99.2229 134H90.6414C90.5764 134 90.5486 133.972 90.5393 133.907ZM100.809 129.194C100.809 126.198 102.543 124.194 105.512 124.194C108.481 124.194 110.244 126.235 110.244 129.194C110.244 132.163 108.481 134.186 105.512 134.186C102.534 134.186 100.809 132.163 100.809 129.194ZM102.859 129.194C102.859 130.15 103.091 130.911 103.555 131.486C104.009 132.061 104.668 132.349 105.512 132.349C106.384 132.349 107.052 132.061 107.507 131.486C107.961 130.911 108.193 130.15 108.193 129.194C108.193 128.239 107.971 127.478 107.516 126.912C107.062 126.346 106.394 126.059 105.512 126.059C104.668 126.059 104.009 126.346 103.555 126.912C103.091 127.478 102.859 128.239 102.859 129.194ZM112.275 129.194C112.275 126.235 114.102 124.194 116.7 124.194C117.219 124.194 117.72 124.287 118.212 124.472C118.695 124.658 119.075 124.899 119.353 125.187C119.428 125.261 119.483 125.261 119.53 125.187L119.715 124.5C119.724 124.426 119.771 124.389 119.854 124.389H121.469C121.533 124.389 121.561 124.417 121.561 124.481V133.675C121.561 136.254 119.632 137.952 117.006 137.952C114.64 137.952 112.776 136.579 112.729 134.965C112.729 134.9 112.757 134.872 112.822 134.872H114.603C114.668 134.872 114.715 134.9 114.761 134.965C114.956 135.262 115.42 136.087 117.006 136.087C118.88 136.087 119.483 134.9 119.53 133.675V133.221C119.53 133.174 119.502 133.146 119.437 133.146C119.381 133.146 118.221 134.186 116.7 134.186C114.204 134.186 112.275 132.163 112.275 129.194ZM114.325 129.194C114.325 130.122 114.557 130.883 115.011 131.467C115.466 132.052 116.115 132.349 116.978 132.349C118.648 132.349 119.53 131.152 119.53 129.194C119.53 128.267 119.316 127.515 118.889 126.931C118.453 126.346 117.823 126.059 116.978 126.059C116.115 126.059 115.466 126.346 115.011 126.931C114.557 127.515 114.325 128.267 114.325 129.194ZM123.926 129.194C123.926 126.235 125.754 124.194 128.352 124.194C128.871 124.194 129.372 124.287 129.864 124.472C130.346 124.658 130.727 124.899 131.005 125.187C131.079 125.261 131.135 125.261 131.181 125.187L131.367 124.5C131.376 124.426 131.422 124.389 131.506 124.389H133.12C133.185 124.389 133.213 124.417 133.213 124.481V133.675C133.213 136.254 131.283 137.952 128.658 137.952C126.292 137.952 124.427 136.579 124.381 134.965C124.381 134.9 124.409 134.872 124.474 134.872H126.255C126.32 134.872 126.366 134.9 126.413 134.965C126.607 135.262 127.071 136.087 128.658 136.087C130.532 136.087 131.135 134.9 131.181 133.675V133.221C131.181 133.174 131.153 133.146 131.088 133.146C131.033 133.146 129.873 134.186 128.352 134.186C125.856 134.186 123.926 132.163 123.926 129.194ZM125.977 129.194C125.977 130.122 126.208 130.883 126.663 131.467C127.118 132.052 127.767 132.349 128.63 132.349C130.3 132.349 131.181 131.152 131.181 129.194C131.181 128.267 130.968 127.515 130.541 126.931C130.105 126.346 129.474 126.059 128.63 126.059C127.767 126.059 127.118 126.346 126.663 126.931C126.208 127.515 125.977 128.267 125.977 129.194ZM135.578 129.194C135.578 126.235 137.406 124.194 140.003 124.194C140.523 124.194 141.024 124.287 141.515 124.472C141.998 124.658 142.378 124.899 142.656 125.187C142.731 125.261 142.786 125.261 142.833 125.187L143.018 124.5C143.028 124.426 143.074 124.389 143.157 124.389H144.772C144.837 124.389 144.864 124.417 144.864 124.481V133.675C144.864 136.254 142.935 137.952 140.309 137.952C137.944 137.952 136.079 136.579 136.032 134.965C136.032 134.9 136.06 134.872 136.125 134.872H137.906C137.971 134.872 138.018 134.9 138.064 134.965C138.259 135.262 138.723 136.087 140.309 136.087C142.183 136.087 142.786 134.9 142.833 133.675V133.221C142.833 133.174 142.805 133.146 142.74 133.146C142.684 133.146 141.525 134.186 140.003 134.186C137.508 134.186 135.578 132.163 135.578 129.194ZM137.628 129.194C137.628 130.122 137.86 130.883 138.315 131.467C138.769 132.052 139.419 132.349 140.281 132.349C141.951 132.349 142.833 131.152 142.833 129.194C142.833 128.267 142.619 127.515 142.193 126.931C141.757 126.346 141.126 126.059 140.281 126.059C139.419 126.059 138.769 126.346 138.315 126.931C137.86 127.515 137.628 128.267 137.628 129.194ZM147.211 129.194C147.211 126.198 148.946 124.194 151.915 124.194C154.883 124.194 156.646 126.235 156.646 129.194C156.646 132.163 154.883 134.186 151.915 134.186C148.937 134.186 147.211 132.163 147.211 129.194ZM149.261 129.194C149.261 130.15 149.493 130.911 149.957 131.486C150.412 132.061 151.07 132.349 151.915 132.349C152.787 132.349 153.455 132.061 153.909 131.486C154.364 130.911 154.596 130.15 154.596 129.194C154.596 128.239 154.373 127.478 153.918 126.912C153.464 126.346 152.796 126.059 151.915 126.059C151.07 126.059 150.412 126.346 149.957 126.912C149.493 127.478 149.261 128.239 149.261 129.194ZM158.612 130.846C158.612 130.781 158.649 130.753 158.714 130.753H160.588C160.662 130.753 160.699 130.781 160.709 130.846C160.709 131.235 160.904 131.579 161.284 131.885C161.664 132.191 162.212 132.349 162.926 132.349C163.807 132.349 165.078 132.163 165.078 131.078C165.078 130.734 164.921 130.493 164.614 130.345C164.299 130.196 163.909 130.094 163.446 130.029C162.972 129.964 162.471 129.909 161.933 129.844C160.857 129.732 159.874 129.389 159.252 128.666C158.946 128.304 158.788 127.784 158.788 127.107C158.788 125.511 160.319 124.194 162.703 124.194C165.088 124.194 166.86 125.307 166.86 127.543C166.86 127.608 166.832 127.636 166.785 127.636H164.902C164.837 127.636 164.809 127.608 164.809 127.543C164.809 127.153 164.642 126.81 164.308 126.504C163.965 126.207 163.436 126.059 162.703 126.059C161.414 126.059 160.82 126.55 160.82 127.107C160.82 127.432 160.978 127.664 161.284 127.793C161.59 127.933 161.98 128.025 162.453 128.09C162.926 128.155 163.427 128.211 163.974 128.276C165.06 128.406 166.043 128.74 166.665 129.482C166.971 129.862 167.129 130.391 167.129 131.078C167.129 133.193 165.403 134.186 162.926 134.186C160.041 134.186 158.612 132.627 158.612 130.846Z" fill="#28225C"/>
<defs>
<clipPath id="clip0_2_76">
<rect width="130" height="140" fill="white" transform="translate(63 56)"/>
</clipPath>
</defs>
</svg>
