<svg width="1393" height="1278" viewBox="0 0 1393 1278" fill="none" xmlns="http://www.w3.org/2000/svg">
<path d="M172.423 57.2969C173.852 57.2969 175.002 56.1169 175.002 54.6504C175.002 53.1838 173.852 52.0039 172.423 52.0039H150.587L141.844 60.9783L136.656 60.9466L133.255 60.93L137.79 55.9086C137.8 55.8975 137.811 55.887 137.82 55.877C137.851 55.8453 137.882 55.797 137.913 55.7653C137.929 55.7336 137.96 55.702 137.975 55.6853C138.006 55.6536 138.022 55.6053 138.053 55.557C138.067 55.5253 138.1 55.4936 138.114 55.462C138.145 55.4137 138.161 55.382 138.176 55.3337C138.192 55.302 138.207 55.2703 138.223 55.2387C138.239 55.1903 138.254 55.1587 138.27 55.1103C138.286 55.0787 138.301 55.047 138.317 54.9987C138.333 54.9504 138.348 54.9187 138.348 54.8704C138.364 54.8387 138.379 54.7904 138.379 54.7587C138.395 54.7104 138.395 54.6787 138.41 54.6304C138.426 54.582 138.426 54.5504 138.441 54.5021C138.441 54.4704 138.457 54.4221 138.457 54.3904C138.457 54.3421 138.473 54.2954 138.473 54.2471V53.9754C138.473 53.9271 138.473 53.8954 138.457 53.8471C138.457 53.7988 138.457 53.7671 138.441 53.7188C138.441 53.6704 138.424 53.6238 138.41 53.5754C138.41 53.5438 138.394 53.4954 138.379 53.4638C138.363 53.4155 138.348 53.3688 138.348 53.3355C138.333 53.3038 138.333 53.2555 138.317 53.2238C138.301 53.1755 138.286 53.1438 138.27 53.0955C138.254 53.0471 138.239 53.0155 138.223 52.9838C138.207 52.9521 138.192 52.9038 138.176 52.8722C138.16 52.8238 138.129 52.7922 138.114 52.7438C138.098 52.7122 138.067 52.6805 138.053 52.6488C138.022 52.6172 138.006 52.5688 137.975 52.5372C137.944 52.5055 137.928 52.4738 137.897 52.4422C137.866 52.4105 137.85 52.3789 137.819 52.3472C137.788 52.3155 137.757 52.2839 137.71 52.2355C137.694 52.2189 137.663 52.1872 137.648 52.1722L137.632 52.1555C137.585 52.1239 137.554 52.0922 137.507 52.0439C137.476 52.0272 137.46 51.9955 137.429 51.9805C137.382 51.9489 137.351 51.9172 137.304 51.8856C137.273 51.8689 137.242 51.8539 137.226 51.8222C137.179 51.7906 137.148 51.7739 137.103 51.7589C137.072 51.7422 137.041 51.7272 137.01 51.7106C136.963 51.6939 136.932 51.6789 136.885 51.6622C136.854 51.6456 136.807 51.6306 136.776 51.6139C136.746 51.5972 136.698 51.5822 136.651 51.5822C136.604 51.5656 136.573 51.5506 136.528 51.5506C136.497 51.5339 136.45 51.5339 136.419 51.5339C136.372 51.5172 136.327 51.5172 136.28 51.5022C136.249 51.5022 136.218 51.5022 136.171 51.4856C136.124 51.4856 136.062 51.4689 136.015 51.4689H135.999L129.212 51.1973L135.377 44.9327H163.394C164.823 44.9327 165.973 43.7528 165.973 42.2862C165.973 40.8196 164.823 39.6397 163.394 39.6397H152.912L163.193 29.087C164.203 28.0504 164.203 26.3772 163.193 25.3406C162.183 24.304 160.553 24.304 159.543 25.3406L145.581 39.623H140.55L145.861 34.2184C146.871 33.1818 146.885 31.5085 145.877 30.4719C144.883 29.4354 143.237 29.4204 142.227 30.4553L136.854 35.9233V30.6619L150.785 16.3629C151.795 15.3263 151.795 13.653 150.785 12.6164C149.775 11.5798 148.145 11.5798 147.135 12.6164L136.854 23.1691V12.7281C136.854 11.2615 135.705 10.0816 134.276 10.0816C132.847 10.0816 131.698 11.2615 131.698 12.7281V41.1663L128.001 44.9127L125.609 47.3842L125.344 40.5296V40.513C125.344 40.4646 125.328 40.4013 125.328 40.353C125.328 40.3213 125.328 40.2896 125.312 40.258C125.312 40.2096 125.296 40.1463 125.281 40.098C125.281 40.0663 125.265 40.0347 125.265 40.003C125.249 39.9547 125.234 39.8913 125.218 39.843C125.202 39.8113 125.202 39.7797 125.187 39.763C125.171 39.6997 125.14 39.6514 125.125 39.588C125.109 39.5714 125.109 39.5397 125.094 39.5247C125.064 39.4614 125.033 39.413 125.002 39.3497C124.986 39.333 124.986 39.318 124.971 39.2864C124.94 39.238 124.909 39.1914 124.878 39.1431C124.862 39.1264 124.848 39.0947 124.831 39.0797C124.8 39.0314 124.77 38.9847 124.723 38.9514C124.706 38.9347 124.692 38.9031 124.661 38.8881C124.65 38.877 124.645 38.8664 124.645 38.8564C124.614 38.8247 124.583 38.7931 124.552 38.7614C124.536 38.7447 124.521 38.7297 124.49 38.6981C124.443 38.6497 124.398 38.6181 124.351 38.5698C124.335 38.5531 124.32 38.5381 124.304 38.5214C124.257 38.4898 124.195 38.4414 124.148 38.4098C124.132 38.3931 124.117 38.3931 124.101 38.3781C124.054 38.3464 123.992 38.3148 123.93 38.2831C123.914 38.2664 123.899 38.2664 123.869 38.2514C123.821 38.2198 123.76 38.2031 123.713 38.1714C123.682 38.1548 123.666 38.1548 123.635 38.1398C123.588 38.1231 123.526 38.1081 123.479 38.0915C123.448 38.0748 123.417 38.0748 123.386 38.0598C123.339 38.0431 123.294 38.0431 123.247 38.0281C123.216 38.0281 123.169 38.0115 123.138 38.0115C123.091 38.0115 123.045 37.9948 122.998 37.9948C122.967 37.9948 122.92 37.9948 122.889 37.9781H122.625C122.578 37.9781 122.532 37.9948 122.485 37.9948C122.454 37.9948 122.407 37.9948 122.376 38.0115C122.329 38.0115 122.284 38.0281 122.237 38.0431C122.206 38.0598 122.159 38.0598 122.128 38.0748C122.081 38.0915 122.05 38.1065 122.003 38.1065C121.956 38.1231 121.925 38.1381 121.88 38.1381C121.849 38.1548 121.802 38.1698 121.771 38.1864C121.724 38.2031 121.693 38.2181 121.647 38.2348C121.617 38.2514 121.586 38.2664 121.555 38.2831C121.508 38.2998 121.477 38.3314 121.43 38.3464C121.399 38.3631 121.368 38.3781 121.337 38.4098C121.29 38.4414 121.259 38.4731 121.212 38.4898C121.181 38.5064 121.165 38.5381 121.134 38.5531C121.087 38.5848 121.056 38.6164 121.011 38.6481L120.995 38.6647L116.01 43.3994L116.057 34.505L124.817 25.5139V3.1454C124.817 1.67882 123.667 0.498901 122.238 0.498901C120.81 0.498901 119.66 1.67882 119.66 3.1454V23.3741L116.104 27.0238L116.135 19.356C116.135 17.8894 115.002 16.7095 113.573 16.6945H113.557C112.143 16.6945 110.978 17.8744 110.978 19.3243L110.948 27.0872L107.329 23.3724V3.1454C107.329 1.67882 106.179 0.498901 104.75 0.498901C103.321 0.498901 102.172 1.67882 102.172 3.1454V25.5589L110.915 34.5334L110.884 39.858L110.868 43.3494L105.976 38.6947L105.96 38.6781C105.929 38.6464 105.882 38.6148 105.836 38.5831C105.806 38.5664 105.789 38.5348 105.759 38.5198C105.711 38.4881 105.681 38.4564 105.633 38.4248C105.603 38.4081 105.572 38.3931 105.556 38.3614C105.508 38.3298 105.478 38.3131 105.431 38.2981C105.4 38.2814 105.369 38.2664 105.338 38.2498C105.291 38.2331 105.26 38.2181 105.215 38.2014C105.184 38.1848 105.137 38.1698 105.106 38.1531C105.059 38.1364 105.028 38.1214 104.982 38.1214C104.935 38.1048 104.904 38.0898 104.857 38.0898C104.827 38.0731 104.779 38.0731 104.749 38.0731C104.702 38.0565 104.656 38.0565 104.609 38.0415C104.578 38.0415 104.531 38.0415 104.5 38.0248C104.453 38.0248 104.408 38.0081 104.344 38.0081H104.08C104.049 38.0081 104.002 38.0081 103.971 38.0248C103.924 38.0248 103.878 38.0415 103.815 38.0415C103.784 38.0415 103.753 38.0581 103.706 38.0581C103.659 38.0748 103.614 38.0748 103.567 38.0898C103.536 38.1064 103.505 38.1065 103.474 38.1214C103.427 38.1381 103.382 38.1531 103.334 38.1698C103.304 38.1864 103.273 38.1864 103.256 38.2014C103.209 38.2181 103.164 38.2498 103.101 38.2648C103.07 38.2814 103.054 38.2964 103.023 38.2964C102.976 38.3281 102.93 38.3448 102.883 38.3764C102.852 38.3931 102.836 38.4081 102.805 38.4248C102.758 38.4564 102.713 38.4881 102.665 38.5198C102.635 38.5364 102.618 38.5681 102.588 38.5831C102.557 38.6148 102.51 38.6464 102.479 38.6781C102.448 38.7097 102.417 38.7414 102.386 38.7731C102.355 38.8047 102.339 38.8214 102.308 38.8531L102.292 38.8697C102.261 38.9014 102.23 38.9497 102.2 38.9814C102.169 39.0131 102.152 39.0447 102.122 39.0764C102.091 39.1081 102.074 39.1564 102.044 39.2047C102.027 39.2364 101.997 39.268 101.982 39.2997C101.966 39.348 101.935 39.3797 101.92 39.428C101.904 39.4597 101.889 39.4914 101.873 39.5397C101.857 39.5714 101.842 39.6197 101.826 39.668C101.81 39.6997 101.795 39.748 101.779 39.7797C101.763 39.8113 101.763 39.8597 101.748 39.8913C101.732 39.9397 101.717 39.9863 101.717 40.0197C101.701 40.0513 101.701 40.083 101.701 40.1313C101.685 40.1796 101.685 40.2263 101.67 40.2913C101.67 40.323 101.67 40.3546 101.654 40.3863C101.654 40.4346 101.638 40.498 101.638 40.5463V40.563L101.373 47.5458L95.2698 41.2179V12.7414C95.2698 11.2749 94.1203 10.0949 92.6915 10.0949C91.2627 10.0949 90.1132 11.2749 90.1132 12.7414V23.1991L79.8323 12.6464C78.8224 11.6098 77.1923 11.6098 76.1824 12.6464C75.1725 13.683 75.1725 15.3563 76.1824 16.3929L90.1132 30.6919V35.8566L84.8477 30.4053C83.8541 29.3687 82.2077 29.3537 81.1978 30.3886C80.1879 31.4252 80.1733 33.0984 81.1816 34.135L86.5087 39.6513H81.3845L67.4537 25.3523C66.4438 24.3157 64.8137 24.3157 63.8038 25.3523C62.7939 26.3889 62.7939 28.0621 63.8038 29.0987L74.0847 39.6513H64.2081C62.7793 39.6513 61.6298 40.8313 61.6298 42.2978C61.6298 43.7644 62.7793 44.9443 64.2081 44.9443H91.6199L95.2698 48.7391L97.6615 51.2256L90.9997 51.4972H90.9688C90.9217 51.4972 90.8763 51.5139 90.8292 51.5139C90.7984 51.5139 90.7513 51.5139 90.7204 51.5306C90.6733 51.5306 90.6279 51.5472 90.5808 51.5622C90.5337 51.5789 90.5029 51.5789 90.4558 51.5939C90.4087 51.6106 90.3778 51.6106 90.347 51.6256C90.2999 51.6422 90.2691 51.6572 90.222 51.6572C90.1911 51.6739 90.1603 51.6889 90.1132 51.7056C90.0661 51.7222 90.0206 51.7372 89.9882 51.7539C89.9573 51.7706 89.9265 51.7856 89.8956 51.8022C89.8485 51.8189 89.8031 51.8506 89.7706 51.8656C89.7397 51.8822 89.7089 51.8972 89.6927 51.9289C89.6456 51.9605 89.6001 51.9922 89.5676 52.0239C89.5368 52.0405 89.5206 52.0722 89.4897 52.0872C89.4426 52.1189 89.4118 52.1505 89.3647 52.1989L89.3484 52.2155C89.3322 52.2322 89.3014 52.2639 89.2868 52.2789C89.2559 52.3105 89.2251 52.3422 89.178 52.3905C89.1471 52.4222 89.1163 52.4538 89.1 52.4855C89.0692 52.5172 89.0529 52.5488 89.0221 52.5805C88.9912 52.6122 88.975 52.6605 88.9442 52.6922C88.9279 52.7238 88.8971 52.7555 88.8825 52.7872C88.8662 52.8188 88.8354 52.8672 88.8208 52.9155C88.8045 52.9471 88.7899 52.9788 88.7737 53.0271C88.7574 53.0588 88.7428 53.1071 88.7266 53.1388C88.7104 53.1871 88.6957 53.2188 88.6795 53.2671C88.6633 53.2988 88.6487 53.3471 88.6487 53.3788C88.6324 53.4271 88.6178 53.4738 88.6178 53.5071C88.6016 53.5388 88.6016 53.5871 88.587 53.6188C88.5707 53.6671 88.5707 53.7138 88.5561 53.7621C88.5561 53.8104 88.5399 53.8421 88.5399 53.8904C88.5399 53.9388 88.5236 53.9704 88.5236 54.0187V54.2737C88.5236 54.3221 88.5236 54.3687 88.5399 54.4171C88.5399 54.4487 88.5399 54.4971 88.5561 54.5287C88.5561 54.577 88.5723 54.6237 88.587 54.657C88.6032 54.7054 88.6032 54.737 88.6178 54.7854C88.634 54.817 88.634 54.8654 88.6487 54.897C88.6649 54.9454 88.6795 54.977 88.6795 55.0253C88.6957 55.057 88.7104 55.1053 88.7266 55.137C88.7428 55.1853 88.7574 55.217 88.7737 55.2653C88.7899 55.297 88.8045 55.3287 88.8208 55.3603C88.837 55.4087 88.8679 55.4403 88.8825 55.4887C88.8987 55.5203 88.9296 55.552 88.9442 55.5836C88.975 55.632 88.9912 55.6636 89.0221 55.712C89.0383 55.7436 89.0692 55.7753 89.0838 55.792C89.1146 55.8236 89.1455 55.872 89.1763 55.9036L89.2072 55.9353L93.8199 61.0516L85.1546 61.0033L76.3951 52.0122H54.5783C53.1495 52.0122 52 53.1921 52 54.6587C52 56.1253 53.1495 57.3052 54.5783 57.3052H74.286L77.8418 60.955L70.3714 60.9233H70.3552C68.9426 60.9233 67.7768 62.1032 67.7768 63.5531C67.7768 65.003 68.9101 66.1996 70.3389 66.2146L77.9018 66.2463L74.2828 69.961H54.5783C53.1495 69.961 52 71.141 52 72.6075C52 74.0741 53.1495 75.254 54.5783 75.254H76.4146L85.1578 66.2796L90.3454 66.3113L93.7469 66.3279L89.2121 71.3493L89.1958 71.366C89.165 71.3976 89.1341 71.4459 89.1033 71.4776C89.0724 71.5093 89.0562 71.5409 89.0253 71.5726C88.9945 71.6043 88.9783 71.6526 88.9474 71.6843C88.9312 71.7159 88.9003 71.7476 88.8857 71.7959C88.8695 71.8276 88.8549 71.8593 88.824 71.9076C88.8078 71.9559 88.7769 71.9876 88.7623 72.0342C88.7461 72.0659 88.7315 72.0976 88.7152 72.1292C88.699 72.1776 88.6844 72.2242 88.6681 72.2576C88.6519 72.2892 88.6519 72.3209 88.6373 72.3692L88.5902 72.5125C88.574 72.5442 88.574 72.5759 88.574 72.6075C88.5577 72.6559 88.5577 72.7025 88.5431 72.7675C88.5431 72.7992 88.5431 72.8309 88.5269 72.8625C88.5269 72.9109 88.5107 72.9742 88.5107 73.0225V73.2608C88.5107 73.3092 88.5107 73.3408 88.5269 73.3892C88.5269 73.4375 88.5431 73.4691 88.5431 73.5175C88.5431 73.5658 88.5594 73.6125 88.574 73.6608C88.574 73.6925 88.5902 73.7408 88.6048 73.7725C88.6211 73.8208 88.6357 73.8675 88.6357 73.8991C88.6519 73.9308 88.6519 73.9791 88.6665 74.0108C88.6828 74.0591 88.6974 74.0908 88.7136 74.1391C88.7298 74.1874 88.7445 74.2191 88.7607 74.2658C88.7769 74.2974 88.7915 74.3291 88.8078 74.3774C88.824 74.4258 88.8549 74.4574 88.8695 74.5041C88.8857 74.5357 88.9166 74.5674 88.9312 74.5991C88.962 74.6307 88.9783 74.6791 89.0091 74.7107C89.04 74.7424 89.0562 74.7741 89.087 74.8057C89.1179 74.8374 89.1341 74.8691 89.165 74.9007C89.1958 74.9324 89.2267 74.9641 89.2575 75.0124C89.2738 75.029 89.3046 75.0607 89.3192 75.0757L89.3355 75.0924C89.3663 75.124 89.3972 75.1557 89.428 75.1724C89.4589 75.204 89.4897 75.2207 89.5206 75.2524C89.5514 75.284 89.5823 75.3007 89.6131 75.3157C89.644 75.3474 89.691 75.364 89.7219 75.3957C89.7527 75.4124 89.7836 75.4274 89.8144 75.459C89.8615 75.4757 89.8924 75.5073 89.9394 75.5223C89.9703 75.539 90.0011 75.554 90.032 75.5707C90.0791 75.5873 90.1099 75.6023 90.157 75.619C90.1879 75.6357 90.2187 75.6507 90.2658 75.6507C90.3129 75.6657 90.3583 75.6823 90.3908 75.699C90.4217 75.7157 90.4688 75.7157 90.4996 75.7307C90.5467 75.7473 90.5922 75.7473 90.6392 75.7623C90.6701 75.7623 90.7009 75.779 90.748 75.779C90.7951 75.779 90.8406 75.7957 90.8877 75.7957H90.9494L97.7361 76.0673L91.5712 82.3319H64.2227C62.7939 82.3319 61.6444 83.5118 61.6444 84.9784C61.6444 86.445 62.7939 87.6249 64.2227 87.6249H74.1155L63.8347 98.1775C62.8248 99.2141 62.8248 100.887 63.8347 101.924C64.3315 102.434 64.9988 102.706 65.6515 102.706C66.3042 102.706 66.9715 102.451 67.4684 101.924L81.3991 87.6249H86.4308L81.1199 93.0295C80.11 94.0661 80.0954 95.7394 81.1036 96.776C82.1135 97.8126 83.7437 97.8276 84.7536 96.7926L90.1278 91.3246V96.586L76.197 110.885C75.1871 111.922 75.1871 113.595 76.197 114.631C76.6938 115.141 77.3612 115.413 78.0139 115.413C78.6666 115.413 79.3339 115.158 79.8307 114.631L90.1116 104.079V114.536C90.1116 116.003 91.2611 117.183 92.6899 117.183C94.1187 117.183 95.2682 116.003 95.2682 114.536V86.0983L98.9652 82.3519L101.156 80.1354V86.8149C101.156 86.8466 101.156 86.8949 101.172 86.9266C101.172 86.9749 101.188 87.0216 101.188 87.0699C101.188 87.1183 101.204 87.1499 101.204 87.1982C101.22 87.2466 101.22 87.2782 101.235 87.3249C101.251 87.3732 101.251 87.4049 101.266 87.4532C101.282 87.5016 101.297 87.5332 101.313 87.5816C101.329 87.6299 101.344 87.6616 101.36 87.7082C101.376 87.7399 101.391 87.7882 101.407 87.8199C101.423 87.8682 101.438 87.8999 101.469 87.9315C101.485 87.9632 101.516 87.9949 101.531 88.0265C101.561 88.0749 101.578 88.1065 101.609 88.1382C101.625 88.1699 101.656 88.2015 101.67 88.2332C101.701 88.2648 101.732 88.3132 101.763 88.3448C101.774 88.3559 101.784 88.3665 101.794 88.3765C101.81 88.3932 101.824 88.4082 101.841 88.4248C101.872 88.4732 101.919 88.5048 101.949 88.5515C101.98 88.5832 102.011 88.5998 102.027 88.6315C102.058 88.6632 102.105 88.6948 102.136 88.7265C102.167 88.7582 102.198 88.7748 102.229 88.8065C102.276 88.8382 102.307 88.8548 102.352 88.8865C102.383 88.9031 102.414 88.9348 102.461 88.9498C102.508 88.9815 102.553 88.9981 102.601 89.0131C102.631 89.0298 102.662 89.0448 102.693 89.0615C102.755 89.0931 102.802 89.1098 102.864 89.1248C102.894 89.1415 102.911 89.1415 102.942 89.1565C103.019 89.1881 103.097 89.2048 103.175 89.2198H103.206C103.377 89.2514 103.547 89.2831 103.734 89.2831C103.812 89.2831 103.904 89.2831 103.982 89.2665C104.013 89.2665 104.044 89.2664 104.06 89.2498C104.107 89.2498 104.169 89.2331 104.216 89.2181C104.247 89.2181 104.278 89.2015 104.309 89.2015C104.356 89.1848 104.401 89.1848 104.448 89.1698C104.479 89.1531 104.51 89.1531 104.557 89.1381C104.604 89.1231 104.635 89.1065 104.682 89.0898C104.713 89.0731 104.744 89.0581 104.775 89.0415C104.822 89.0248 104.853 89.0098 104.9 88.9781C104.93 88.9615 104.961 88.9465 104.992 88.9298C105.023 88.9131 105.07 88.8815 105.101 88.8665C105.132 88.8498 105.163 88.8181 105.193 88.8031C105.224 88.7715 105.255 88.7548 105.286 88.7232C105.317 88.6915 105.348 88.6748 105.379 88.6432C105.389 88.632 105.4 88.6215 105.409 88.6115L110.938 83.6218L110.891 92.7246L102.131 101.716V124.129C102.131 125.596 103.281 126.776 104.71 126.776C106.138 126.776 107.288 125.596 107.288 124.129V103.884L110.844 100.234L110.813 107.902C110.813 109.368 111.946 110.548 113.375 110.563H113.391C114.805 110.563 115.97 109.383 115.97 107.934L116 100.171L119.619 103.885V124.114C119.619 125.581 120.769 126.761 122.198 126.761C123.627 126.761 124.776 125.581 124.776 124.114V101.701L116.078 92.7262L116.109 87.4016L116.125 83.9101L121.017 88.5648L121.034 88.5815C121.065 88.6132 121.112 88.6448 121.157 88.6765C121.188 88.6932 121.204 88.7248 121.235 88.7398C121.282 88.7715 121.313 88.8032 121.36 88.8198C121.391 88.8365 121.422 88.8681 121.453 88.8831C121.5 88.9148 121.53 88.9315 121.578 88.9465C121.608 88.9631 121.639 88.9781 121.67 88.9948C121.717 89.0115 121.748 89.0265 121.794 89.0431C121.824 89.0581 121.871 89.0748 121.902 89.0915C121.933 89.1081 121.98 89.1231 122.026 89.1231C122.073 89.1398 122.104 89.1548 122.151 89.1548C122.182 89.1715 122.229 89.1715 122.26 89.1715C122.307 89.1881 122.352 89.1881 122.399 89.2031C122.43 89.2031 122.461 89.2031 122.508 89.2198C122.555 89.2198 122.617 89.2365 122.664 89.2365H122.959C123.006 89.2365 123.052 89.2365 123.084 89.2198C123.115 89.2198 123.162 89.2031 123.193 89.2031C123.24 89.2031 123.286 89.1865 123.333 89.1715C123.364 89.1548 123.411 89.1548 123.442 89.1398C123.489 89.1231 123.534 89.1081 123.565 89.1081C123.596 89.0915 123.643 89.0765 123.674 89.0598C123.721 89.0448 123.752 89.0281 123.797 89.0115C123.828 88.9948 123.875 88.9798 123.906 88.9631C123.937 88.9465 123.984 88.9315 124.015 88.9148C124.046 88.8981 124.093 88.8665 124.123 88.8515C124.154 88.8365 124.185 88.8032 124.216 88.7882C124.247 88.7565 124.294 88.7398 124.325 88.7082C124.356 88.6765 124.386 88.6598 124.417 88.6282C124.448 88.5965 124.479 88.5798 124.51 88.5482C124.541 88.5165 124.572 88.4848 124.602 88.4532C124.619 88.4382 124.633 88.4215 124.649 88.4048C124.659 88.3937 124.67 88.3832 124.68 88.3732C124.711 88.3415 124.742 88.2932 124.773 88.2615C124.789 88.2299 124.82 88.1982 124.835 88.1815C124.865 88.1499 124.882 88.1015 124.913 88.0549C124.929 88.0232 124.96 87.9915 124.974 87.9599C124.99 87.9115 125.021 87.8799 125.036 87.8332C125.052 87.8015 125.067 87.7699 125.083 87.7215C125.099 87.6732 125.114 87.6416 125.13 87.5932C125.146 87.5616 125.161 87.5132 125.177 87.4816C125.193 87.4332 125.208 87.4016 125.208 87.3532C125.224 87.3049 125.239 87.2732 125.239 87.2249C125.255 87.1933 125.255 87.1449 125.27 87.1133C125.286 87.0649 125.286 87.0183 125.301 86.9849C125.301 86.9533 125.301 86.9049 125.317 86.8733C125.317 86.825 125.333 86.7783 125.333 86.7299V86.7133L125.598 79.7304L131.701 86.0583V114.513C131.701 115.98 132.85 117.16 134.279 117.16C135.708 117.16 136.858 115.98 136.858 114.513V104.055L147.138 114.608C147.635 115.118 148.303 115.39 148.955 115.39C149.608 115.39 150.275 115.135 150.772 114.608C151.782 113.572 151.782 111.898 150.772 110.862L136.841 96.5626V91.398L142.107 96.8493C143.117 97.8859 144.747 97.9009 145.757 96.866C146.767 95.8294 146.781 94.1561 145.773 93.1195L140.477 87.6199H145.602L159.533 101.919C160.03 102.429 160.697 102.701 161.35 102.701C162.003 102.701 162.67 102.446 163.167 101.919C164.177 100.882 164.177 99.2091 163.167 98.1725L152.886 87.6199H163.368C164.797 87.6199 165.947 86.44 165.947 84.9734C165.947 83.5068 164.797 82.3269 163.368 82.3269H135.367L131.717 78.5322L129.326 76.0456L135.987 75.774H136.049C136.096 75.774 136.142 75.774 136.189 75.7573C136.22 75.7573 136.267 75.7407 136.297 75.7407C136.345 75.7407 136.39 75.724 136.437 75.709C136.468 75.709 136.515 75.6923 136.546 75.6773C136.593 75.6607 136.638 75.6457 136.669 75.629C136.7 75.6123 136.747 75.6123 136.778 75.5973C136.825 75.5823 136.856 75.5657 136.901 75.549C136.932 75.5323 136.963 75.5173 136.994 75.5007C137.041 75.484 137.072 75.4524 137.119 75.4374C137.15 75.4207 137.181 75.4057 137.212 75.389C137.242 75.3724 137.289 75.3407 137.32 75.309C137.351 75.2924 137.382 75.2607 137.413 75.2457C137.444 75.214 137.475 75.1974 137.505 75.1657C137.536 75.134 137.567 75.1174 137.598 75.0857L137.614 75.069C137.63 75.0524 137.661 75.0207 137.676 75.0057C137.707 74.9741 137.738 74.9424 137.768 74.8941C137.799 74.8624 137.83 74.8307 137.846 74.7991C137.877 74.7674 137.893 74.7357 137.924 74.7041C137.955 74.6724 137.971 74.6241 138.002 74.5924C138.018 74.5607 138.049 74.5291 138.064 74.4974C138.08 74.4491 138.111 74.4174 138.126 74.3708C138.142 74.3391 138.157 74.3074 138.173 74.2591C138.189 74.2274 138.204 74.1791 138.22 74.1474C138.236 74.0991 138.251 74.0674 138.267 74.0208C138.283 73.9891 138.298 73.9408 138.298 73.9091C138.314 73.8608 138.329 73.8141 138.329 73.7808C138.343 73.7491 138.343 73.7008 138.359 73.6691C138.376 73.6208 138.376 73.5741 138.39 73.5258C138.39 73.4775 138.407 73.4458 138.407 73.3991C138.407 73.3525 138.423 73.3192 138.423 73.2708V73.0158C138.423 72.9675 138.407 72.9042 138.407 72.8559C138.407 72.8242 138.407 72.7925 138.39 72.7609C138.39 72.7125 138.374 72.6659 138.359 72.6175C138.359 72.5859 138.343 72.5542 138.343 72.5059C138.329 72.4576 138.312 72.4109 138.296 72.3625C138.28 72.3309 138.28 72.2992 138.265 72.2509C138.249 72.2026 138.234 72.1559 138.204 72.1076C138.187 72.0759 138.173 72.0442 138.157 72.0126C138.14 71.9642 138.109 71.9176 138.095 71.8859C138.079 71.8543 138.064 71.8226 138.048 71.7909C138.017 71.7426 138.001 71.7109 137.97 71.6626C137.954 71.6309 137.923 71.5993 137.908 71.5676C137.877 71.5359 137.846 71.4876 137.816 71.4559C137.785 71.4243 137.768 71.3926 137.738 71.361C137.738 71.361 137.721 71.3443 137.721 71.3293L133.109 66.213L141.774 66.2613L150.533 75.2524H172.37C173.799 75.2524 174.948 74.0724 174.948 72.6059C174.948 71.1393 173.799 69.9594 172.37 69.9594H152.708L149.152 66.3096L156.622 66.3413H156.638C158.051 66.3413 159.217 65.1614 159.217 63.7114C159.217 62.2615 158.083 61.065 156.655 61.05L149.092 61.0183L152.711 57.3035H172.418L172.423 57.2969ZM120.784 71.101L120.426 80.762L113.547 74.2258L106.311 80.762V71.101L96.8058 70.7193L103.205 63.6248L96.8058 56.5303L106.216 56.1636L106.574 46.5042L113.485 53.0721L120.397 46.5042L120.754 56.1636L130.165 56.5303L123.766 63.6248L130.165 70.7193L120.785 71.101H120.784Z" fill="white" fill-opacity="0.45"/>
<path d="M1390.42 1031.8C1391.85 1031.8 1393 1030.62 1393 1029.15C1393 1027.68 1391.85 1026.5 1390.42 1026.5H1368.59L1359.84 1035.48L1354.66 1035.45L1351.25 1035.43L1355.79 1030.41C1355.8 1030.4 1355.81 1030.39 1355.82 1030.38C1355.85 1030.35 1355.88 1030.3 1355.91 1030.27C1355.93 1030.23 1355.96 1030.2 1355.97 1030.19C1356.01 1030.15 1356.02 1030.11 1356.05 1030.06C1356.07 1030.03 1356.1 1029.99 1356.11 1029.96C1356.15 1029.91 1356.16 1029.88 1356.18 1029.83C1356.19 1029.8 1356.21 1029.77 1356.22 1029.74C1356.24 1029.69 1356.25 1029.66 1356.27 1029.61C1356.29 1029.58 1356.3 1029.55 1356.32 1029.5C1356.33 1029.45 1356.35 1029.42 1356.35 1029.37C1356.36 1029.34 1356.38 1029.29 1356.38 1029.26C1356.4 1029.21 1356.4 1029.18 1356.41 1029.13C1356.43 1029.08 1356.43 1029.05 1356.44 1029C1356.44 1028.97 1356.46 1028.92 1356.46 1028.89C1356.46 1028.84 1356.47 1028.8 1356.47 1028.75V1028.48C1356.47 1028.43 1356.47 1028.4 1356.46 1028.35C1356.46 1028.3 1356.46 1028.27 1356.44 1028.22C1356.44 1028.17 1356.42 1028.12 1356.41 1028.08C1356.41 1028.04 1356.39 1028 1356.38 1027.96C1356.36 1027.92 1356.35 1027.87 1356.35 1027.84C1356.33 1027.8 1356.33 1027.76 1356.32 1027.72C1356.3 1027.68 1356.29 1027.64 1356.27 1027.6C1356.25 1027.55 1356.24 1027.52 1356.22 1027.48C1356.21 1027.45 1356.19 1027.4 1356.18 1027.37C1356.16 1027.32 1356.13 1027.29 1356.11 1027.24C1356.1 1027.21 1356.07 1027.18 1356.05 1027.15C1356.02 1027.12 1356.01 1027.07 1355.97 1027.04C1355.94 1027.01 1355.93 1026.97 1355.9 1026.94C1355.87 1026.91 1355.85 1026.88 1355.82 1026.85C1355.79 1026.82 1355.76 1026.78 1355.71 1026.74C1355.69 1026.72 1355.66 1026.69 1355.65 1026.67L1355.63 1026.66C1355.58 1026.62 1355.55 1026.59 1355.51 1026.54C1355.48 1026.53 1355.46 1026.5 1355.43 1026.48C1355.38 1026.45 1355.35 1026.42 1355.3 1026.39C1355.27 1026.37 1355.24 1026.35 1355.23 1026.32C1355.18 1026.29 1355.15 1026.27 1355.1 1026.26C1355.07 1026.24 1355.04 1026.23 1355.01 1026.21C1354.96 1026.19 1354.93 1026.18 1354.89 1026.16C1354.85 1026.15 1354.81 1026.13 1354.78 1026.12C1354.75 1026.1 1354.7 1026.08 1354.65 1026.08C1354.6 1026.07 1354.57 1026.05 1354.53 1026.05C1354.5 1026.04 1354.45 1026.04 1354.42 1026.04C1354.37 1026.02 1354.33 1026.02 1354.28 1026C1354.25 1026 1354.22 1026 1354.17 1025.99C1354.12 1025.99 1354.06 1025.97 1354.01 1025.97H1354L1347.21 1025.7L1353.38 1019.43H1381.39C1382.82 1019.43 1383.97 1018.25 1383.97 1016.79C1383.97 1015.32 1382.82 1014.14 1381.39 1014.14H1370.91L1381.19 1003.59C1382.2 1002.55 1382.2 1000.88 1381.19 999.842C1380.18 998.805 1378.55 998.805 1377.54 999.842L1363.58 1014.12H1358.55L1363.86 1008.72C1364.87 1007.68 1364.89 1006.01 1363.88 1004.97C1362.88 1003.94 1361.24 1003.92 1360.23 1004.96L1354.85 1010.42V1005.16L1368.79 990.864C1369.8 989.827 1369.8 988.154 1368.79 987.118C1367.78 986.081 1366.15 986.081 1365.14 987.118L1354.85 997.67V987.229C1354.85 985.763 1353.7 984.583 1352.28 984.583C1350.85 984.583 1349.7 985.763 1349.7 987.229V1015.67L1346 1019.41L1343.61 1021.89L1343.34 1015.03V1015.01C1343.34 1014.97 1343.33 1014.9 1343.33 1014.85C1343.33 1014.82 1343.33 1014.79 1343.31 1014.76C1343.31 1014.71 1343.3 1014.65 1343.28 1014.6C1343.28 1014.57 1343.26 1014.54 1343.26 1014.5C1343.25 1014.46 1343.23 1014.39 1343.22 1014.34C1343.2 1014.31 1343.2 1014.28 1343.19 1014.26C1343.17 1014.2 1343.14 1014.15 1343.13 1014.09C1343.11 1014.07 1343.11 1014.04 1343.09 1014.03C1343.06 1013.96 1343.03 1013.91 1343 1013.85C1342.99 1013.83 1342.99 1013.82 1342.97 1013.79C1342.94 1013.74 1342.91 1013.69 1342.88 1013.64C1342.86 1013.63 1342.85 1013.6 1342.83 1013.58C1342.8 1013.53 1342.77 1013.49 1342.72 1013.45C1342.71 1013.44 1342.69 1013.4 1342.66 1013.39C1342.65 1013.38 1342.64 1013.37 1342.64 1013.36C1342.61 1013.33 1342.58 1013.29 1342.55 1013.26C1342.54 1013.25 1342.52 1013.23 1342.49 1013.2C1342.44 1013.15 1342.4 1013.12 1342.35 1013.07C1342.33 1013.05 1342.32 1013.04 1342.3 1013.02C1342.26 1012.99 1342.19 1012.94 1342.15 1012.91C1342.13 1012.89 1342.12 1012.89 1342.1 1012.88C1342.05 1012.85 1341.99 1012.82 1341.93 1012.78C1341.91 1012.77 1341.9 1012.77 1341.87 1012.75C1341.82 1012.72 1341.76 1012.7 1341.71 1012.67C1341.68 1012.66 1341.67 1012.66 1341.63 1012.64C1341.59 1012.62 1341.53 1012.61 1341.48 1012.59C1341.45 1012.58 1341.42 1012.58 1341.39 1012.56C1341.34 1012.54 1341.29 1012.54 1341.25 1012.53C1341.22 1012.53 1341.17 1012.51 1341.14 1012.51C1341.09 1012.51 1341.05 1012.5 1341 1012.5C1340.97 1012.5 1340.92 1012.5 1340.89 1012.48H1340.62C1340.58 1012.48 1340.53 1012.5 1340.49 1012.5C1340.45 1012.5 1340.41 1012.5 1340.38 1012.51C1340.33 1012.51 1340.28 1012.53 1340.24 1012.54C1340.21 1012.56 1340.16 1012.56 1340.13 1012.58C1340.08 1012.59 1340.05 1012.61 1340 1012.61C1339.96 1012.62 1339.93 1012.64 1339.88 1012.64C1339.85 1012.66 1339.8 1012.67 1339.77 1012.69C1339.72 1012.7 1339.69 1012.72 1339.65 1012.74C1339.62 1012.75 1339.59 1012.77 1339.55 1012.78C1339.51 1012.8 1339.48 1012.83 1339.43 1012.85C1339.4 1012.86 1339.37 1012.88 1339.34 1012.91C1339.29 1012.94 1339.26 1012.97 1339.21 1012.99C1339.18 1013.01 1339.17 1013.04 1339.13 1013.05C1339.09 1013.09 1339.06 1013.12 1339.01 1013.15L1338.99 1013.17L1334.01 1017.9L1334.06 1009.01L1342.82 1000.02V977.646C1342.82 976.18 1341.67 975 1340.24 975C1338.81 975 1337.66 976.18 1337.66 977.646V997.875L1334.1 1001.52L1334.14 993.857C1334.14 992.391 1333 991.211 1331.57 991.196H1331.56C1330.14 991.196 1328.98 992.376 1328.98 993.825L1328.95 1001.59L1325.33 997.874V977.646C1325.33 976.18 1324.18 975 1322.75 975C1321.32 975 1320.17 976.18 1320.17 977.646V1000.06L1328.92 1009.03L1328.88 1014.36L1328.87 1017.85L1323.98 1013.2L1323.96 1013.18C1323.93 1013.15 1323.88 1013.12 1323.84 1013.08C1323.81 1013.07 1323.79 1013.04 1323.76 1013.02C1323.71 1012.99 1323.68 1012.96 1323.63 1012.93C1323.6 1012.91 1323.57 1012.89 1323.56 1012.86C1323.51 1012.83 1323.48 1012.81 1323.43 1012.8C1323.4 1012.78 1323.37 1012.77 1323.34 1012.75C1323.29 1012.73 1323.26 1012.72 1323.21 1012.7C1323.18 1012.69 1323.14 1012.67 1323.11 1012.65C1323.06 1012.64 1323.03 1012.62 1322.98 1012.62C1322.94 1012.61 1322.9 1012.59 1322.86 1012.59C1322.83 1012.57 1322.78 1012.57 1322.75 1012.57C1322.7 1012.56 1322.66 1012.56 1322.61 1012.54C1322.58 1012.54 1322.53 1012.54 1322.5 1012.53C1322.45 1012.53 1322.41 1012.51 1322.34 1012.51H1322.08C1322.05 1012.51 1322 1012.51 1321.97 1012.53C1321.92 1012.53 1321.88 1012.54 1321.82 1012.54C1321.78 1012.54 1321.75 1012.56 1321.71 1012.56C1321.66 1012.58 1321.61 1012.58 1321.57 1012.59C1321.54 1012.61 1321.5 1012.61 1321.47 1012.62C1321.43 1012.64 1321.38 1012.65 1321.33 1012.67C1321.3 1012.69 1321.27 1012.69 1321.26 1012.7C1321.21 1012.72 1321.16 1012.75 1321.1 1012.77C1321.07 1012.78 1321.05 1012.8 1321.02 1012.8C1320.98 1012.83 1320.93 1012.85 1320.88 1012.88C1320.85 1012.89 1320.84 1012.91 1320.81 1012.93C1320.76 1012.96 1320.71 1012.99 1320.67 1013.02C1320.63 1013.04 1320.62 1013.07 1320.59 1013.08C1320.56 1013.12 1320.51 1013.15 1320.48 1013.18C1320.45 1013.21 1320.42 1013.24 1320.39 1013.27C1320.36 1013.31 1320.34 1013.32 1320.31 1013.35L1320.29 1013.37C1320.26 1013.4 1320.23 1013.45 1320.2 1013.48C1320.17 1013.51 1320.15 1013.55 1320.12 1013.58C1320.09 1013.61 1320.07 1013.66 1320.04 1013.71C1320.03 1013.74 1320 1013.77 1319.98 1013.8C1319.97 1013.85 1319.93 1013.88 1319.92 1013.93C1319.9 1013.96 1319.89 1013.99 1319.87 1014.04C1319.86 1014.07 1319.84 1014.12 1319.83 1014.17C1319.81 1014.2 1319.8 1014.25 1319.78 1014.28C1319.76 1014.31 1319.76 1014.36 1319.75 1014.39C1319.73 1014.44 1319.72 1014.49 1319.72 1014.52C1319.7 1014.55 1319.7 1014.58 1319.7 1014.63C1319.68 1014.68 1319.68 1014.73 1319.67 1014.79C1319.67 1014.82 1319.67 1014.86 1319.65 1014.89C1319.65 1014.94 1319.64 1015 1319.64 1015.05V1015.06L1319.37 1022.05L1313.27 1015.72V987.243C1313.27 985.776 1312.12 984.596 1310.69 984.596C1309.26 984.596 1308.11 985.776 1308.11 987.243V997.7L1297.83 987.148C1296.82 986.111 1295.19 986.111 1294.18 987.148C1293.17 988.184 1293.17 989.857 1294.18 990.894L1308.11 1005.19V1010.36L1302.85 1004.91C1301.85 1003.87 1300.21 1003.85 1299.2 1004.89C1298.19 1005.93 1298.17 1007.6 1299.18 1008.64L1304.51 1014.15H1299.38L1285.45 999.853C1284.44 998.817 1282.81 998.817 1281.8 999.853C1280.79 1000.89 1280.79 1002.56 1281.8 1003.6L1292.08 1014.15H1282.21C1280.78 1014.15 1279.63 1015.33 1279.63 1016.8C1279.63 1018.27 1280.78 1019.45 1282.21 1019.45H1309.62L1313.27 1023.24L1315.66 1025.73L1309 1026H1308.97C1308.92 1026 1308.88 1026.02 1308.83 1026.02C1308.8 1026.02 1308.75 1026.02 1308.72 1026.03C1308.67 1026.03 1308.63 1026.05 1308.58 1026.06C1308.53 1026.08 1308.5 1026.08 1308.46 1026.1C1308.41 1026.11 1308.38 1026.11 1308.35 1026.13C1308.3 1026.14 1308.27 1026.16 1308.22 1026.16C1308.19 1026.17 1308.16 1026.19 1308.11 1026.21C1308.07 1026.22 1308.02 1026.24 1307.99 1026.25C1307.96 1026.27 1307.93 1026.29 1307.9 1026.3C1307.85 1026.32 1307.8 1026.35 1307.77 1026.37C1307.74 1026.38 1307.71 1026.4 1307.69 1026.43C1307.65 1026.46 1307.6 1026.49 1307.57 1026.52C1307.54 1026.54 1307.52 1026.57 1307.49 1026.59C1307.44 1026.62 1307.41 1026.65 1307.36 1026.7L1307.35 1026.72C1307.33 1026.73 1307.3 1026.76 1307.29 1026.78C1307.26 1026.81 1307.23 1026.84 1307.18 1026.89C1307.15 1026.92 1307.12 1026.95 1307.1 1026.99C1307.07 1027.02 1307.05 1027.05 1307.02 1027.08C1306.99 1027.11 1306.98 1027.16 1306.94 1027.19C1306.93 1027.22 1306.9 1027.26 1306.88 1027.29C1306.87 1027.32 1306.84 1027.37 1306.82 1027.42C1306.8 1027.45 1306.79 1027.48 1306.77 1027.53C1306.76 1027.56 1306.74 1027.61 1306.73 1027.64C1306.71 1027.69 1306.7 1027.72 1306.68 1027.77C1306.66 1027.8 1306.65 1027.85 1306.65 1027.88C1306.63 1027.93 1306.62 1027.97 1306.62 1028.01C1306.6 1028.04 1306.6 1028.09 1306.59 1028.12C1306.57 1028.17 1306.57 1028.21 1306.56 1028.26C1306.56 1028.31 1306.54 1028.34 1306.54 1028.39C1306.54 1028.44 1306.52 1028.47 1306.52 1028.52V1028.77C1306.52 1028.82 1306.52 1028.87 1306.54 1028.92C1306.54 1028.95 1306.54 1029 1306.56 1029.03C1306.56 1029.08 1306.57 1029.12 1306.59 1029.16C1306.6 1029.21 1306.6 1029.24 1306.62 1029.29C1306.63 1029.32 1306.63 1029.37 1306.65 1029.4C1306.66 1029.45 1306.68 1029.48 1306.68 1029.53C1306.7 1029.56 1306.71 1029.61 1306.73 1029.64C1306.74 1029.69 1306.76 1029.72 1306.77 1029.77C1306.79 1029.8 1306.8 1029.83 1306.82 1029.86C1306.84 1029.91 1306.87 1029.94 1306.88 1029.99C1306.9 1030.02 1306.93 1030.05 1306.94 1030.08C1306.98 1030.13 1306.99 1030.16 1307.02 1030.21C1307.04 1030.24 1307.07 1030.28 1307.08 1030.29C1307.11 1030.32 1307.15 1030.37 1307.18 1030.4L1307.21 1030.44L1311.82 1035.55L1303.15 1035.5L1294.4 1026.51H1272.58C1271.15 1026.51 1270 1027.69 1270 1029.16C1270 1030.63 1271.15 1031.81 1272.58 1031.81H1292.29L1295.84 1035.46L1288.37 1035.42H1288.36C1286.94 1035.42 1285.78 1036.6 1285.78 1038.05C1285.78 1039.5 1286.91 1040.7 1288.34 1040.72L1295.9 1040.75L1292.28 1044.46H1272.58C1271.15 1044.46 1270 1045.64 1270 1047.11C1270 1048.58 1271.15 1049.76 1272.58 1049.76H1294.41L1303.16 1040.78L1308.35 1040.81L1311.75 1040.83L1307.21 1045.85L1307.2 1045.87C1307.16 1045.9 1307.13 1045.95 1307.1 1045.98C1307.07 1046.01 1307.06 1046.04 1307.03 1046.07C1306.99 1046.11 1306.98 1046.15 1306.95 1046.19C1306.93 1046.22 1306.9 1046.25 1306.89 1046.3C1306.87 1046.33 1306.85 1046.36 1306.82 1046.41C1306.81 1046.46 1306.78 1046.49 1306.76 1046.54C1306.75 1046.57 1306.73 1046.6 1306.72 1046.63C1306.7 1046.68 1306.68 1046.73 1306.67 1046.76C1306.65 1046.79 1306.65 1046.82 1306.64 1046.87L1306.59 1047.01C1306.57 1047.05 1306.57 1047.08 1306.57 1047.11C1306.56 1047.16 1306.56 1047.2 1306.54 1047.27C1306.54 1047.3 1306.54 1047.33 1306.53 1047.36C1306.53 1047.41 1306.51 1047.48 1306.51 1047.52V1047.76C1306.51 1047.81 1306.51 1047.84 1306.53 1047.89C1306.53 1047.94 1306.54 1047.97 1306.54 1048.02C1306.54 1048.07 1306.56 1048.11 1306.57 1048.16C1306.57 1048.19 1306.59 1048.24 1306.6 1048.27C1306.62 1048.32 1306.64 1048.37 1306.64 1048.4C1306.65 1048.43 1306.65 1048.48 1306.67 1048.51C1306.68 1048.56 1306.7 1048.59 1306.71 1048.64C1306.73 1048.69 1306.74 1048.72 1306.76 1048.77C1306.78 1048.8 1306.79 1048.83 1306.81 1048.88C1306.82 1048.93 1306.85 1048.96 1306.87 1049.01C1306.89 1049.04 1306.92 1049.07 1306.93 1049.1C1306.96 1049.13 1306.98 1049.18 1307.01 1049.21C1307.04 1049.24 1307.06 1049.28 1307.09 1049.31C1307.12 1049.34 1307.13 1049.37 1307.16 1049.4C1307.2 1049.43 1307.23 1049.47 1307.26 1049.51C1307.27 1049.53 1307.3 1049.56 1307.32 1049.58L1307.34 1049.59C1307.37 1049.63 1307.4 1049.66 1307.43 1049.67C1307.46 1049.71 1307.49 1049.72 1307.52 1049.75C1307.55 1049.79 1307.58 1049.8 1307.61 1049.82C1307.64 1049.85 1307.69 1049.87 1307.72 1049.9C1307.75 1049.91 1307.78 1049.93 1307.81 1049.96C1307.86 1049.98 1307.89 1050.01 1307.94 1050.02C1307.97 1050.04 1308 1050.06 1308.03 1050.07C1308.08 1050.09 1308.11 1050.1 1308.16 1050.12C1308.19 1050.14 1308.22 1050.15 1308.27 1050.15C1308.31 1050.17 1308.36 1050.18 1308.39 1050.2C1308.42 1050.22 1308.47 1050.22 1308.5 1050.23C1308.55 1050.25 1308.59 1050.25 1308.64 1050.26C1308.67 1050.26 1308.7 1050.28 1308.75 1050.28C1308.8 1050.28 1308.84 1050.3 1308.89 1050.3H1308.95L1315.74 1050.57L1309.57 1056.83H1282.22C1280.79 1056.83 1279.64 1058.01 1279.64 1059.48C1279.64 1060.95 1280.79 1062.13 1282.22 1062.13H1292.12L1281.83 1072.68C1280.82 1073.72 1280.82 1075.39 1281.83 1076.43C1282.33 1076.94 1283 1077.21 1283.65 1077.21C1284.3 1077.21 1284.97 1076.95 1285.47 1076.43L1299.4 1062.13H1304.43L1299.12 1067.53C1298.11 1068.57 1298.1 1070.24 1299.1 1071.28C1300.11 1072.31 1301.74 1072.33 1302.75 1071.29L1308.13 1065.83V1071.09L1294.2 1085.39C1293.19 1086.42 1293.19 1088.1 1294.2 1089.13C1294.69 1089.64 1295.36 1089.91 1296.01 1089.91C1296.67 1089.91 1297.33 1089.66 1297.83 1089.13L1308.11 1078.58V1089.04C1308.11 1090.5 1309.26 1091.68 1310.69 1091.68C1312.12 1091.68 1313.27 1090.5 1313.27 1089.04V1060.6L1316.97 1056.85L1319.16 1054.64V1061.32C1319.16 1061.35 1319.16 1061.4 1319.17 1061.43C1319.17 1061.48 1319.19 1061.52 1319.19 1061.57C1319.19 1061.62 1319.2 1061.65 1319.2 1061.7C1319.22 1061.75 1319.22 1061.78 1319.24 1061.83C1319.25 1061.87 1319.25 1061.91 1319.27 1061.95C1319.28 1062 1319.3 1062.03 1319.31 1062.08C1319.33 1062.13 1319.34 1062.16 1319.36 1062.21C1319.38 1062.24 1319.39 1062.29 1319.41 1062.32C1319.42 1062.37 1319.44 1062.4 1319.47 1062.43C1319.49 1062.46 1319.52 1062.5 1319.53 1062.53C1319.56 1062.58 1319.58 1062.61 1319.61 1062.64C1319.62 1062.67 1319.66 1062.7 1319.67 1062.73C1319.7 1062.77 1319.73 1062.81 1319.76 1062.85C1319.77 1062.86 1319.78 1062.87 1319.79 1062.88C1319.81 1062.89 1319.82 1062.91 1319.84 1062.93C1319.87 1062.97 1319.92 1063.01 1319.95 1063.05C1319.98 1063.08 1320.01 1063.1 1320.03 1063.13C1320.06 1063.16 1320.11 1063.2 1320.14 1063.23C1320.17 1063.26 1320.2 1063.28 1320.23 1063.31C1320.28 1063.34 1320.31 1063.36 1320.35 1063.39C1320.38 1063.4 1320.41 1063.44 1320.46 1063.45C1320.51 1063.48 1320.55 1063.5 1320.6 1063.51C1320.63 1063.53 1320.66 1063.55 1320.69 1063.56C1320.75 1063.59 1320.8 1063.61 1320.86 1063.63C1320.89 1063.64 1320.91 1063.64 1320.94 1063.66C1321.02 1063.69 1321.1 1063.71 1321.18 1063.72H1321.21C1321.38 1063.75 1321.55 1063.78 1321.73 1063.78C1321.81 1063.78 1321.9 1063.78 1321.98 1063.77C1322.01 1063.77 1322.04 1063.77 1322.06 1063.75C1322.11 1063.75 1322.17 1063.73 1322.22 1063.72C1322.25 1063.72 1322.28 1063.7 1322.31 1063.7C1322.36 1063.69 1322.4 1063.69 1322.45 1063.67C1322.48 1063.65 1322.51 1063.65 1322.56 1063.64C1322.6 1063.62 1322.63 1063.61 1322.68 1063.59C1322.71 1063.57 1322.74 1063.56 1322.77 1063.54C1322.82 1063.53 1322.85 1063.51 1322.9 1063.48C1322.93 1063.46 1322.96 1063.45 1322.99 1063.43C1323.02 1063.41 1323.07 1063.38 1323.1 1063.37C1323.13 1063.35 1323.16 1063.32 1323.19 1063.3C1323.22 1063.27 1323.26 1063.26 1323.29 1063.22C1323.32 1063.19 1323.35 1063.18 1323.38 1063.14C1323.39 1063.13 1323.4 1063.12 1323.41 1063.11L1328.94 1058.12L1328.89 1067.23L1320.13 1076.22V1098.63C1320.13 1100.1 1321.28 1101.28 1322.71 1101.28C1324.14 1101.28 1325.29 1100.1 1325.29 1098.63V1078.38L1328.84 1074.74L1328.81 1082.4C1328.81 1083.87 1329.95 1085.05 1331.37 1085.06H1331.39C1332.81 1085.06 1333.97 1083.88 1333.97 1082.43L1334 1074.67L1337.62 1078.39V1098.62C1337.62 1100.08 1338.77 1101.26 1340.2 1101.26C1341.63 1101.26 1342.78 1100.08 1342.78 1098.62V1076.2L1334.08 1067.23L1334.11 1061.9L1334.13 1058.41L1339.02 1063.07L1339.03 1063.08C1339.06 1063.11 1339.11 1063.15 1339.16 1063.18C1339.19 1063.19 1339.2 1063.23 1339.23 1063.24C1339.28 1063.27 1339.31 1063.3 1339.36 1063.32C1339.39 1063.34 1339.42 1063.37 1339.45 1063.38C1339.5 1063.42 1339.53 1063.43 1339.58 1063.45C1339.61 1063.46 1339.64 1063.48 1339.67 1063.5C1339.72 1063.51 1339.75 1063.53 1339.79 1063.54C1339.82 1063.56 1339.87 1063.58 1339.9 1063.59C1339.93 1063.61 1339.98 1063.62 1340.03 1063.62C1340.07 1063.64 1340.1 1063.66 1340.15 1063.66C1340.18 1063.67 1340.23 1063.67 1340.26 1063.67C1340.31 1063.69 1340.35 1063.69 1340.4 1063.7C1340.43 1063.7 1340.46 1063.7 1340.51 1063.72C1340.56 1063.72 1340.62 1063.74 1340.66 1063.74H1340.96C1341.01 1063.74 1341.05 1063.74 1341.08 1063.72C1341.12 1063.72 1341.16 1063.7 1341.19 1063.7C1341.24 1063.7 1341.29 1063.69 1341.33 1063.67C1341.36 1063.66 1341.41 1063.66 1341.44 1063.64C1341.49 1063.62 1341.53 1063.61 1341.56 1063.61C1341.6 1063.59 1341.64 1063.58 1341.67 1063.56C1341.72 1063.55 1341.75 1063.53 1341.8 1063.51C1341.83 1063.5 1341.88 1063.48 1341.91 1063.46C1341.94 1063.45 1341.98 1063.43 1342.01 1063.42C1342.05 1063.4 1342.09 1063.37 1342.12 1063.35C1342.15 1063.34 1342.19 1063.3 1342.22 1063.29C1342.25 1063.26 1342.29 1063.24 1342.32 1063.21C1342.36 1063.18 1342.39 1063.16 1342.42 1063.13C1342.45 1063.1 1342.48 1063.08 1342.51 1063.05C1342.54 1063.02 1342.57 1062.99 1342.6 1062.95C1342.62 1062.94 1342.63 1062.92 1342.65 1062.91C1342.66 1062.89 1342.67 1062.88 1342.68 1062.87C1342.71 1062.84 1342.74 1062.79 1342.77 1062.76C1342.79 1062.73 1342.82 1062.7 1342.83 1062.68C1342.87 1062.65 1342.88 1062.6 1342.91 1062.56C1342.93 1062.52 1342.96 1062.49 1342.97 1062.46C1342.99 1062.41 1343.02 1062.38 1343.04 1062.33C1343.05 1062.3 1343.07 1062.27 1343.08 1062.22C1343.1 1062.17 1343.11 1062.14 1343.13 1062.09C1343.15 1062.06 1343.16 1062.01 1343.18 1061.98C1343.19 1061.93 1343.21 1061.9 1343.21 1061.85C1343.22 1061.81 1343.24 1061.77 1343.24 1061.73C1343.26 1061.69 1343.26 1061.65 1343.27 1061.61C1343.29 1061.57 1343.29 1061.52 1343.3 1061.49C1343.3 1061.45 1343.3 1061.41 1343.32 1061.37C1343.32 1061.33 1343.33 1061.28 1343.33 1061.23V1061.21L1343.6 1054.23L1349.7 1060.56V1089.01C1349.7 1090.48 1350.85 1091.66 1352.28 1091.66C1353.71 1091.66 1354.86 1090.48 1354.86 1089.01V1078.56L1365.14 1089.11C1365.64 1089.62 1366.3 1089.89 1366.96 1089.89C1367.61 1089.89 1368.28 1089.64 1368.77 1089.11C1369.78 1088.07 1369.78 1086.4 1368.77 1085.36L1354.84 1071.06V1065.9L1360.11 1071.35C1361.12 1072.39 1362.75 1072.4 1363.76 1071.37C1364.77 1070.33 1364.78 1068.66 1363.77 1067.62L1358.48 1062.12H1363.6L1377.53 1076.42C1378.03 1076.93 1378.7 1077.2 1379.35 1077.2C1380 1077.2 1380.67 1076.95 1381.17 1076.42C1382.18 1075.38 1382.18 1073.71 1381.17 1072.67L1370.89 1062.12H1381.37C1382.8 1062.12 1383.95 1060.94 1383.95 1059.47C1383.95 1058.01 1382.8 1056.83 1381.37 1056.83H1353.37L1349.72 1053.03L1347.33 1050.55L1353.99 1050.28H1354.05C1354.1 1050.28 1354.14 1050.28 1354.19 1050.26C1354.22 1050.26 1354.27 1050.24 1354.3 1050.24C1354.34 1050.24 1354.39 1050.23 1354.44 1050.21C1354.47 1050.21 1354.52 1050.19 1354.55 1050.18C1354.59 1050.16 1354.64 1050.15 1354.67 1050.13C1354.7 1050.11 1354.75 1050.11 1354.78 1050.1C1354.83 1050.08 1354.86 1050.07 1354.9 1050.05C1354.93 1050.03 1354.96 1050.02 1354.99 1050C1355.04 1049.99 1355.07 1049.95 1355.12 1049.94C1355.15 1049.92 1355.18 1049.91 1355.21 1049.89C1355.24 1049.87 1355.29 1049.84 1355.32 1049.81C1355.35 1049.79 1355.38 1049.76 1355.41 1049.75C1355.44 1049.72 1355.47 1049.7 1355.51 1049.67C1355.54 1049.64 1355.57 1049.62 1355.6 1049.59L1355.61 1049.57C1355.63 1049.55 1355.66 1049.52 1355.68 1049.51C1355.71 1049.48 1355.74 1049.44 1355.77 1049.4C1355.8 1049.36 1355.83 1049.33 1355.85 1049.3C1355.88 1049.27 1355.89 1049.24 1355.92 1049.21C1355.96 1049.17 1355.97 1049.13 1356 1049.09C1356.02 1049.06 1356.05 1049.03 1356.06 1049C1356.08 1048.95 1356.11 1048.92 1356.13 1048.87C1356.14 1048.84 1356.16 1048.81 1356.17 1048.76C1356.19 1048.73 1356.2 1048.68 1356.22 1048.65C1356.24 1048.6 1356.25 1048.57 1356.27 1048.52C1356.28 1048.49 1356.3 1048.44 1356.3 1048.41C1356.31 1048.36 1356.33 1048.32 1356.33 1048.28C1356.34 1048.25 1356.34 1048.2 1356.36 1048.17C1356.38 1048.12 1356.38 1048.08 1356.39 1048.03C1356.39 1047.98 1356.41 1047.95 1356.41 1047.9C1356.41 1047.85 1356.42 1047.82 1356.42 1047.77V1047.52C1356.42 1047.47 1356.41 1047.41 1356.41 1047.36C1356.41 1047.33 1356.41 1047.29 1356.39 1047.26C1356.39 1047.21 1356.37 1047.17 1356.36 1047.12C1356.36 1047.09 1356.34 1047.06 1356.34 1047.01C1356.33 1046.96 1356.31 1046.91 1356.3 1046.86C1356.28 1046.83 1356.28 1046.8 1356.27 1046.75C1356.25 1046.7 1356.23 1046.66 1356.2 1046.61C1356.19 1046.58 1356.17 1046.55 1356.16 1046.51C1356.14 1046.47 1356.11 1046.42 1356.09 1046.39C1356.08 1046.36 1356.06 1046.32 1356.05 1046.29C1356.02 1046.24 1356 1046.21 1355.97 1046.16C1355.95 1046.13 1355.92 1046.1 1355.91 1046.07C1355.88 1046.04 1355.85 1045.99 1355.82 1045.96C1355.78 1045.93 1355.77 1045.89 1355.74 1045.86C1355.74 1045.86 1355.72 1045.85 1355.72 1045.83L1351.11 1040.71L1359.77 1040.76L1368.53 1049.75H1390.37C1391.8 1049.75 1392.95 1048.57 1392.95 1047.11C1392.95 1045.64 1391.8 1044.46 1390.37 1044.46H1370.71L1367.15 1040.81L1374.62 1040.84H1374.64C1376.05 1040.84 1377.22 1039.66 1377.22 1038.21C1377.22 1036.76 1376.08 1035.57 1374.65 1035.55L1367.09 1035.52L1370.71 1031.8H1390.42L1390.42 1031.8ZM1338.78 1045.6L1338.43 1055.26L1331.55 1048.73L1324.31 1055.26V1045.6L1314.81 1045.22L1321.2 1038.13L1314.81 1031.03L1324.22 1030.66L1324.57 1021.01L1331.49 1027.57L1338.4 1021.01L1338.75 1030.66L1348.16 1031.03L1341.77 1038.13L1348.16 1045.22L1338.79 1045.6H1338.78Z" fill="white" fill-opacity="0.45"/>
<path d="M1387.05 447.142C1390.35 447.142 1393 444.417 1393 441.031C1393 437.645 1390.35 434.92 1387.05 434.92H1336.63L1316.44 455.642L1304.46 455.569L1296.61 455.53L1307.08 443.936C1307.11 443.911 1307.13 443.886 1307.15 443.863C1307.22 443.79 1307.29 443.678 1307.37 443.605C1307.4 443.532 1307.47 443.459 1307.51 443.421C1307.58 443.347 1307.62 443.236 1307.69 443.124C1307.72 443.051 1307.8 442.978 1307.83 442.905C1307.9 442.793 1307.94 442.72 1307.97 442.609C1308.01 442.536 1308.04 442.462 1308.08 442.389C1308.12 442.278 1308.15 442.205 1308.19 442.093C1308.23 442.02 1308.26 441.947 1308.3 441.835C1308.34 441.724 1308.37 441.651 1308.37 441.539C1308.41 441.466 1308.44 441.354 1308.44 441.281C1308.48 441.17 1308.48 441.096 1308.51 440.985C1308.55 440.873 1308.55 440.8 1308.58 440.689C1308.58 440.615 1308.62 440.504 1308.62 440.431C1308.62 440.319 1308.66 440.211 1308.66 440.1V439.473C1308.66 439.361 1308.66 439.288 1308.62 439.176C1308.62 439.065 1308.62 438.992 1308.58 438.88C1308.58 438.768 1308.55 438.661 1308.51 438.549C1308.51 438.476 1308.48 438.364 1308.44 438.291C1308.4 438.18 1308.37 438.072 1308.37 437.995C1308.34 437.922 1308.34 437.81 1308.3 437.737C1308.26 437.626 1308.23 437.552 1308.19 437.441C1308.15 437.329 1308.12 437.256 1308.08 437.183C1308.04 437.11 1308.01 436.998 1307.97 436.925C1307.94 436.814 1307.86 436.741 1307.83 436.629C1307.79 436.556 1307.72 436.483 1307.69 436.41C1307.62 436.337 1307.58 436.225 1307.51 436.152C1307.44 436.079 1307.4 436.006 1307.33 435.932C1307.26 435.859 1307.22 435.786 1307.15 435.713C1307.08 435.64 1307.01 435.567 1306.9 435.455C1306.86 435.417 1306.79 435.344 1306.75 435.309L1306.72 435.271C1306.61 435.198 1306.54 435.124 1306.43 435.013C1306.36 434.974 1306.32 434.901 1306.25 434.867C1306.14 434.794 1306.07 434.72 1305.96 434.647C1305.89 434.609 1305.82 434.574 1305.78 434.501C1305.67 434.428 1305.6 434.389 1305.49 434.355C1305.42 434.316 1305.35 434.282 1305.28 434.243C1305.17 434.205 1305.1 434.17 1304.99 434.132C1304.92 434.093 1304.81 434.059 1304.74 434.02C1304.67 433.982 1304.56 433.947 1304.45 433.947C1304.34 433.908 1304.27 433.874 1304.17 433.874C1304.1 433.835 1303.99 433.835 1303.92 433.835C1303.81 433.797 1303.7 433.797 1303.59 433.762C1303.52 433.762 1303.45 433.762 1303.34 433.724C1303.23 433.724 1303.09 433.685 1302.98 433.685H1302.95L1287.28 433.058L1301.51 418.594H1366.2C1369.5 418.594 1372.15 415.869 1372.15 412.483C1372.15 409.097 1369.5 406.373 1366.2 406.373H1342L1365.73 382.007C1368.07 379.614 1368.07 375.751 1365.73 373.357C1363.4 370.964 1359.64 370.964 1357.31 373.357L1325.07 406.334H1313.45L1325.72 393.855C1328.05 391.462 1328.08 387.599 1325.75 385.205C1323.46 382.812 1319.66 382.777 1317.33 385.167L1304.92 397.792V385.644L1337.09 352.629C1339.42 350.235 1339.42 346.372 1337.09 343.978C1334.75 341.585 1330.99 341.585 1328.66 343.978L1304.92 368.343V344.236C1304.92 340.85 1302.27 338.126 1298.97 338.126C1295.67 338.126 1293.01 340.85 1293.01 344.236V409.897L1284.48 418.548L1278.96 424.254L1278.35 408.427V408.389C1278.35 408.277 1278.31 408.131 1278.31 408.02C1278.31 407.946 1278.31 407.873 1278.27 407.8C1278.27 407.689 1278.23 407.542 1278.2 407.431C1278.2 407.358 1278.16 407.285 1278.16 407.211C1278.12 407.1 1278.09 406.954 1278.05 406.842C1278.02 406.769 1278.02 406.696 1277.98 406.657C1277.94 406.511 1277.87 406.4 1277.84 406.253C1277.8 406.215 1277.8 406.142 1277.77 406.107C1277.7 405.961 1277.63 405.849 1277.55 405.703C1277.52 405.665 1277.52 405.63 1277.48 405.557C1277.41 405.445 1277.34 405.338 1277.27 405.226C1277.23 405.187 1277.2 405.114 1277.16 405.08C1277.09 404.968 1277.02 404.86 1276.91 404.783C1276.87 404.745 1276.84 404.672 1276.77 404.637C1276.74 404.612 1276.73 404.587 1276.73 404.564C1276.66 404.491 1276.59 404.418 1276.52 404.345C1276.48 404.306 1276.45 404.272 1276.37 404.199C1276.27 404.087 1276.16 404.014 1276.05 403.902C1276.01 403.864 1275.98 403.829 1275.94 403.791C1275.83 403.718 1275.69 403.606 1275.58 403.533C1275.55 403.494 1275.51 403.494 1275.47 403.46C1275.37 403.387 1275.22 403.314 1275.08 403.24C1275.04 403.202 1275.01 403.202 1274.94 403.167C1274.83 403.094 1274.69 403.056 1274.58 402.983C1274.51 402.944 1274.47 402.944 1274.4 402.91C1274.29 402.871 1274.15 402.836 1274.04 402.798C1273.97 402.759 1273.9 402.759 1273.82 402.725C1273.72 402.686 1273.61 402.686 1273.5 402.652C1273.43 402.652 1273.32 402.613 1273.25 402.613C1273.14 402.613 1273.04 402.575 1272.93 402.575C1272.86 402.575 1272.75 402.575 1272.68 402.536H1272.07C1271.96 402.536 1271.85 402.575 1271.74 402.575C1271.67 402.575 1271.56 402.575 1271.49 402.613C1271.38 402.613 1271.28 402.652 1271.17 402.686C1271.1 402.725 1270.99 402.725 1270.92 402.759C1270.81 402.798 1270.74 402.833 1270.63 402.833C1270.52 402.871 1270.45 402.906 1270.35 402.906C1270.27 402.944 1270.17 402.979 1270.09 403.017C1269.99 403.056 1269.91 403.09 1269.81 403.129C1269.74 403.167 1269.67 403.202 1269.6 403.24C1269.49 403.279 1269.42 403.352 1269.31 403.387C1269.24 403.425 1269.16 403.46 1269.09 403.533C1268.99 403.606 1268.91 403.679 1268.81 403.718C1268.73 403.756 1268.7 403.829 1268.63 403.864C1268.52 403.937 1268.45 404.01 1268.34 404.083L1268.3 404.122L1256.79 415.054L1256.9 394.517L1277.13 373.758V322.111C1277.13 318.724 1274.47 316 1271.17 316C1267.88 316 1265.22 318.724 1265.22 322.111V368.817L1257.01 377.244L1257.08 359.539C1257.08 356.153 1254.47 353.429 1251.17 353.394H1251.13C1247.86 353.394 1245.18 356.119 1245.18 359.466L1245.1 377.39L1236.75 368.813V322.111C1236.75 318.724 1234.09 316 1230.8 316C1227.5 316 1224.84 318.724 1224.84 322.111V373.861L1245.03 394.583L1244.96 406.877L1244.92 414.938L1233.63 404.191L1233.59 404.152C1233.52 404.079 1233.41 404.006 1233.3 403.933C1233.23 403.895 1233.19 403.821 1233.12 403.787C1233.01 403.714 1232.94 403.641 1232.84 403.567C1232.76 403.529 1232.69 403.494 1232.66 403.421C1232.55 403.348 1232.48 403.31 1232.37 403.275C1232.3 403.237 1232.22 403.202 1232.15 403.163C1232.04 403.125 1231.97 403.09 1231.87 403.052C1231.8 403.013 1231.69 402.979 1231.62 402.94C1231.51 402.902 1231.44 402.867 1231.33 402.867C1231.22 402.829 1231.15 402.794 1231.04 402.794C1230.97 402.756 1230.86 402.756 1230.79 402.756C1230.68 402.717 1230.58 402.717 1230.47 402.682C1230.4 402.682 1230.29 402.682 1230.22 402.644C1230.11 402.644 1230 402.606 1229.86 402.606H1229.25C1229.18 402.606 1229.07 402.606 1229 402.644C1228.89 402.644 1228.78 402.682 1228.64 402.682C1228.57 402.682 1228.49 402.721 1228.39 402.721C1228.28 402.759 1228.17 402.759 1228.06 402.794C1227.99 402.833 1227.92 402.833 1227.85 402.867C1227.74 402.906 1227.64 402.94 1227.53 402.979C1227.46 403.017 1227.38 403.017 1227.35 403.052C1227.24 403.09 1227.13 403.163 1226.99 403.198C1226.92 403.237 1226.88 403.271 1226.81 403.271C1226.7 403.344 1226.59 403.383 1226.48 403.456C1226.41 403.494 1226.38 403.529 1226.3 403.567C1226.2 403.641 1226.09 403.714 1225.98 403.787C1225.91 403.825 1225.87 403.898 1225.8 403.933C1225.73 404.006 1225.62 404.079 1225.55 404.152C1225.48 404.225 1225.41 404.299 1225.34 404.372C1225.27 404.445 1225.23 404.483 1225.16 404.556L1225.12 404.595C1225.05 404.668 1224.98 404.78 1224.91 404.853C1224.84 404.926 1224.8 404.999 1224.73 405.072C1224.66 405.145 1224.62 405.257 1224.55 405.368C1224.51 405.441 1224.44 405.515 1224.4 405.588C1224.37 405.699 1224.3 405.772 1224.26 405.884C1224.22 405.957 1224.19 406.03 1224.15 406.142C1224.12 406.215 1224.08 406.326 1224.04 406.438C1224.01 406.511 1223.97 406.623 1223.94 406.696C1223.9 406.769 1223.9 406.881 1223.86 406.954C1223.83 407.065 1223.79 407.173 1223.79 407.25C1223.76 407.323 1223.76 407.396 1223.76 407.508C1223.72 407.619 1223.72 407.727 1223.68 407.877C1223.68 407.95 1223.68 408.023 1223.65 408.097C1223.65 408.208 1223.61 408.354 1223.61 408.466V408.504L1223 424.627L1208.91 410.017V344.267C1208.91 340.881 1206.25 338.156 1202.95 338.156C1199.65 338.156 1197 340.881 1197 344.267V368.413L1173.26 344.048C1170.93 341.654 1167.17 341.654 1164.84 344.048C1162.5 346.441 1162.5 350.304 1164.84 352.698L1197 385.713V397.638L1184.84 385.051C1182.55 382.658 1178.75 382.623 1176.42 385.013C1174.08 387.406 1174.05 391.269 1176.38 393.663L1188.68 406.4H1176.85L1144.68 373.384C1142.35 370.991 1138.59 370.991 1136.25 373.384C1133.92 375.778 1133.92 379.641 1136.25 382.034L1159.99 406.4H1137.19C1133.89 406.4 1131.23 409.124 1131.23 412.51C1131.23 415.896 1133.89 418.621 1137.19 418.621H1200.48L1208.91 427.382L1214.43 433.123L1199.05 433.751H1198.98C1198.87 433.751 1198.76 433.789 1198.65 433.789C1198.58 433.789 1198.47 433.789 1198.4 433.828C1198.29 433.828 1198.19 433.866 1198.08 433.901C1197.97 433.939 1197.9 433.939 1197.79 433.974C1197.68 434.012 1197.61 434.012 1197.54 434.047C1197.43 434.085 1197.36 434.12 1197.25 434.12C1197.18 434.159 1197.11 434.193 1197 434.232C1196.89 434.27 1196.79 434.305 1196.71 434.343C1196.64 434.382 1196.57 434.416 1196.5 434.455C1196.39 434.493 1196.28 434.566 1196.21 434.601C1196.14 434.64 1196.07 434.674 1196.03 434.747C1195.92 434.82 1195.82 434.894 1195.74 434.967C1195.67 435.005 1195.63 435.078 1195.56 435.113C1195.45 435.186 1195.38 435.259 1195.27 435.371L1195.23 435.409C1195.2 435.448 1195.13 435.521 1195.09 435.555C1195.02 435.629 1194.95 435.702 1194.84 435.813C1194.77 435.886 1194.7 435.959 1194.66 436.033C1194.59 436.106 1194.55 436.179 1194.48 436.252C1194.41 436.325 1194.37 436.437 1194.3 436.51C1194.26 436.583 1194.19 436.656 1194.16 436.729C1194.12 436.802 1194.05 436.914 1194.02 437.025C1193.98 437.098 1193.94 437.172 1193.91 437.283C1193.87 437.356 1193.84 437.468 1193.8 437.541C1193.76 437.653 1193.73 437.726 1193.69 437.837C1193.65 437.91 1193.62 438.022 1193.62 438.095C1193.58 438.207 1193.55 438.314 1193.55 438.391C1193.51 438.464 1193.51 438.576 1193.48 438.649C1193.44 438.761 1193.44 438.868 1193.4 438.98C1193.4 439.092 1193.37 439.165 1193.37 439.276C1193.37 439.388 1193.33 439.461 1193.33 439.573V440.161C1193.33 440.273 1193.33 440.381 1193.37 440.492C1193.37 440.565 1193.37 440.677 1193.4 440.75C1193.4 440.862 1193.44 440.969 1193.48 441.046C1193.51 441.158 1193.51 441.231 1193.55 441.343C1193.58 441.416 1193.58 441.527 1193.62 441.601C1193.66 441.712 1193.69 441.785 1193.69 441.897C1193.73 441.97 1193.76 442.081 1193.8 442.155C1193.84 442.266 1193.87 442.339 1193.91 442.451C1193.94 442.524 1193.98 442.597 1194.02 442.67C1194.05 442.782 1194.12 442.855 1194.16 442.967C1194.2 443.04 1194.27 443.113 1194.3 443.186C1194.37 443.297 1194.41 443.371 1194.48 443.482C1194.52 443.555 1194.59 443.628 1194.62 443.667C1194.69 443.74 1194.77 443.852 1194.84 443.925L1194.91 443.998L1205.56 455.811L1185.55 455.699L1165.33 434.94H1114.95C1111.65 434.94 1109 437.664 1109 441.05C1109 444.436 1111.65 447.161 1114.95 447.161H1160.46L1168.67 455.588L1151.42 455.515H1151.38C1148.12 455.515 1145.43 458.239 1145.43 461.587C1145.43 464.934 1148.04 467.697 1151.34 467.732L1168.81 467.805L1160.45 476.382H1114.95C1111.65 476.382 1109 479.106 1109 482.493C1109 485.879 1111.65 488.603 1114.95 488.603H1165.37L1185.56 467.882L1197.54 467.955L1205.39 467.993L1194.92 479.587L1194.88 479.626C1194.81 479.699 1194.74 479.811 1194.67 479.884C1194.6 479.957 1194.56 480.03 1194.49 480.103C1194.42 480.176 1194.38 480.288 1194.31 480.361C1194.27 480.434 1194.2 480.507 1194.17 480.619C1194.13 480.692 1194.09 480.765 1194.02 480.876C1193.99 480.988 1193.91 481.061 1193.88 481.169C1193.84 481.242 1193.81 481.315 1193.77 481.388C1193.73 481.5 1193.7 481.607 1193.66 481.684C1193.63 481.758 1193.63 481.831 1193.59 481.942L1193.48 482.273C1193.45 482.346 1193.45 482.419 1193.45 482.493C1193.41 482.604 1193.41 482.712 1193.37 482.862C1193.37 482.935 1193.37 483.008 1193.34 483.081C1193.34 483.193 1193.3 483.339 1193.3 483.451V484.001C1193.3 484.113 1193.3 484.186 1193.34 484.297C1193.34 484.409 1193.37 484.482 1193.37 484.594C1193.37 484.705 1193.41 484.813 1193.45 484.924C1193.45 484.998 1193.48 485.109 1193.52 485.182C1193.55 485.294 1193.59 485.402 1193.59 485.475C1193.63 485.548 1193.63 485.659 1193.66 485.732C1193.7 485.844 1193.73 485.917 1193.77 486.029C1193.81 486.14 1193.84 486.213 1193.88 486.321C1193.91 486.394 1193.95 486.467 1193.99 486.579C1194.02 486.691 1194.09 486.764 1194.13 486.871C1194.17 486.945 1194.24 487.018 1194.27 487.091C1194.34 487.164 1194.38 487.276 1194.45 487.349C1194.52 487.422 1194.56 487.495 1194.63 487.568C1194.7 487.641 1194.74 487.714 1194.81 487.787C1194.88 487.86 1194.95 487.934 1195.02 488.045C1195.06 488.084 1195.13 488.157 1195.17 488.191L1195.2 488.23C1195.28 488.303 1195.35 488.376 1195.42 488.415C1195.49 488.488 1195.56 488.526 1195.63 488.599C1195.7 488.672 1195.77 488.711 1195.85 488.745C1195.92 488.819 1196.03 488.857 1196.1 488.93C1196.17 488.969 1196.24 489.003 1196.31 489.076C1196.42 489.115 1196.49 489.188 1196.6 489.223C1196.67 489.261 1196.74 489.296 1196.81 489.334C1196.92 489.373 1196.99 489.407 1197.1 489.446C1197.17 489.484 1197.24 489.519 1197.35 489.519C1197.46 489.553 1197.57 489.592 1197.64 489.63C1197.71 489.669 1197.82 489.669 1197.89 489.704C1198 489.742 1198.11 489.742 1198.21 489.777C1198.29 489.777 1198.36 489.815 1198.47 489.815C1198.57 489.815 1198.68 489.854 1198.79 489.854H1198.93L1214.6 490.481L1200.37 504.945H1137.22C1133.92 504.945 1131.27 507.67 1131.27 511.056C1131.27 514.442 1133.92 517.166 1137.22 517.166H1160.06L1136.33 541.531C1133.99 543.925 1133.99 547.788 1136.33 550.182C1137.47 551.359 1139.01 551.986 1140.52 551.986C1142.03 551.986 1143.57 551.398 1144.72 550.182L1176.88 517.166H1188.5L1176.24 529.645C1173.9 532.039 1173.87 535.902 1176.2 538.295C1178.53 540.689 1182.29 540.723 1184.63 538.334L1197.03 525.709V537.857L1164.87 570.872C1162.54 573.265 1162.54 577.129 1164.87 579.522C1166.02 580.7 1167.56 581.327 1169.06 581.327C1170.57 581.327 1172.11 580.738 1173.26 579.522L1197 555.157V579.303C1197 582.689 1199.65 585.413 1202.95 585.413C1206.25 585.413 1208.9 582.689 1208.9 579.303V513.642L1217.44 504.991L1222.5 499.874V515.296C1222.5 515.369 1222.5 515.481 1222.53 515.554C1222.53 515.666 1222.57 515.773 1222.57 515.885C1222.57 515.997 1222.61 516.07 1222.61 516.181C1222.65 516.293 1222.65 516.366 1222.68 516.474C1222.72 516.585 1222.72 516.658 1222.75 516.77C1222.79 516.882 1222.82 516.955 1222.86 517.066C1222.9 517.178 1222.93 517.251 1222.97 517.359C1223.01 517.432 1223.04 517.543 1223.08 517.617C1223.11 517.728 1223.15 517.801 1223.22 517.874C1223.26 517.947 1223.33 518.021 1223.36 518.094C1223.43 518.205 1223.47 518.278 1223.54 518.351C1223.58 518.425 1223.65 518.498 1223.68 518.571C1223.76 518.644 1223.83 518.755 1223.9 518.829C1223.92 518.854 1223.95 518.879 1223.97 518.902C1224.01 518.94 1224.04 518.975 1224.08 519.013C1224.15 519.125 1224.26 519.198 1224.33 519.306C1224.4 519.379 1224.47 519.417 1224.51 519.49C1224.58 519.564 1224.69 519.637 1224.76 519.71C1224.83 519.783 1224.9 519.821 1224.97 519.894C1225.08 519.968 1225.15 520.006 1225.26 520.079C1225.33 520.118 1225.4 520.191 1225.51 520.225C1225.62 520.298 1225.72 520.337 1225.83 520.372C1225.9 520.41 1225.97 520.445 1226.05 520.483C1226.19 520.556 1226.3 520.595 1226.44 520.629C1226.51 520.668 1226.55 520.668 1226.62 520.703C1226.8 520.776 1226.98 520.814 1227.16 520.849H1227.23C1227.62 520.922 1228.02 520.995 1228.45 520.995C1228.63 520.995 1228.84 520.995 1229.02 520.957C1229.09 520.957 1229.16 520.956 1229.2 520.918C1229.31 520.918 1229.45 520.88 1229.56 520.845C1229.63 520.845 1229.7 520.806 1229.78 520.806C1229.88 520.768 1229.99 520.768 1230.1 520.733C1230.17 520.695 1230.24 520.695 1230.35 520.66C1230.46 520.626 1230.53 520.587 1230.64 520.549C1230.71 520.51 1230.78 520.475 1230.85 520.437C1230.96 520.399 1231.03 520.364 1231.14 520.291C1231.21 520.252 1231.28 520.218 1231.35 520.179C1231.43 520.141 1231.53 520.068 1231.61 520.033C1231.68 519.995 1231.75 519.921 1231.82 519.887C1231.89 519.814 1231.96 519.775 1232.03 519.702C1232.1 519.629 1232.18 519.59 1232.25 519.517C1232.27 519.492 1232.3 519.467 1232.32 519.444L1245.08 507.924L1244.97 528.941L1224.75 549.701V601.452C1224.75 604.838 1227.4 607.562 1230.7 607.562C1234 607.562 1236.66 604.838 1236.66 601.452V554.707L1244.87 546.28L1244.79 563.984C1244.79 567.37 1247.41 570.095 1250.71 570.129H1250.75C1254.01 570.129 1256.7 567.405 1256.7 564.057L1256.77 546.134L1265.13 554.711V601.417C1265.13 604.803 1267.78 607.527 1271.08 607.527C1274.38 607.527 1277.03 604.803 1277.03 601.417V549.666L1256.95 528.945L1257.02 516.651L1257.06 508.589L1268.36 519.337L1268.39 519.375C1268.46 519.448 1268.57 519.521 1268.68 519.594C1268.75 519.633 1268.79 519.706 1268.86 519.741C1268.97 519.814 1269.04 519.887 1269.15 519.925C1269.22 519.964 1269.29 520.037 1269.36 520.071C1269.47 520.145 1269.54 520.183 1269.65 520.218C1269.72 520.256 1269.79 520.291 1269.86 520.329C1269.97 520.368 1270.04 520.402 1270.15 520.441C1270.22 520.476 1270.33 520.514 1270.4 520.552C1270.47 520.591 1270.58 520.626 1270.68 520.626C1270.79 520.664 1270.86 520.699 1270.97 520.699C1271.04 520.737 1271.15 520.737 1271.22 520.737C1271.33 520.776 1271.44 520.776 1271.55 520.81C1271.62 520.81 1271.69 520.81 1271.8 520.849C1271.91 520.849 1272.05 520.887 1272.16 520.887H1272.84C1272.95 520.887 1273.05 520.887 1273.13 520.849C1273.2 520.849 1273.31 520.81 1273.38 520.81C1273.49 520.81 1273.59 520.772 1273.7 520.737C1273.77 520.699 1273.88 520.699 1273.95 520.664C1274.06 520.626 1274.17 520.591 1274.24 520.591C1274.31 520.552 1274.42 520.518 1274.49 520.479C1274.6 520.445 1274.67 520.406 1274.77 520.368C1274.84 520.329 1274.95 520.295 1275.02 520.256C1275.1 520.218 1275.2 520.183 1275.28 520.145C1275.35 520.106 1275.46 520.033 1275.53 519.998C1275.6 519.964 1275.67 519.887 1275.74 519.852C1275.81 519.779 1275.92 519.741 1275.99 519.667C1276.06 519.594 1276.13 519.556 1276.21 519.483C1276.28 519.41 1276.35 519.371 1276.42 519.298C1276.49 519.225 1276.56 519.152 1276.63 519.079C1276.67 519.044 1276.7 519.006 1276.74 518.967C1276.76 518.941 1276.79 518.917 1276.81 518.894C1276.88 518.821 1276.96 518.709 1277.03 518.636C1277.06 518.563 1277.13 518.49 1277.17 518.451C1277.24 518.378 1277.28 518.267 1277.35 518.159C1277.39 518.086 1277.46 518.013 1277.49 517.94C1277.53 517.828 1277.6 517.755 1277.63 517.647C1277.67 517.574 1277.7 517.501 1277.74 517.389C1277.78 517.278 1277.81 517.205 1277.85 517.093C1277.89 517.02 1277.92 516.908 1277.96 516.835C1278 516.724 1278.03 516.651 1278.03 516.539C1278.07 516.427 1278.1 516.354 1278.1 516.243C1278.14 516.17 1278.14 516.058 1278.17 515.985C1278.21 515.873 1278.21 515.766 1278.24 515.689C1278.24 515.616 1278.24 515.504 1278.28 515.431C1278.28 515.319 1278.32 515.212 1278.32 515.1V515.061L1278.93 498.939L1293.02 513.549V579.249C1293.02 582.635 1295.68 585.359 1298.98 585.359C1302.27 585.359 1304.93 582.635 1304.93 579.249V555.103L1328.67 579.468C1329.81 580.646 1331.35 581.273 1332.86 581.273C1334.37 581.273 1335.91 580.684 1337.06 579.468C1339.39 577.075 1339.39 573.211 1337.06 570.818L1304.89 537.803V525.878L1317.05 538.465C1319.38 540.858 1323.14 540.893 1325.48 538.503C1327.81 536.11 1327.84 532.246 1325.51 529.853L1313.28 517.155H1325.12L1357.28 550.17C1358.43 551.348 1359.97 551.975 1361.48 551.975C1362.99 551.975 1364.53 551.386 1365.67 550.17C1368.01 547.777 1368.01 543.913 1365.67 541.52L1341.94 517.155H1366.14C1369.44 517.155 1372.09 514.43 1372.09 511.044C1372.09 507.658 1369.44 504.934 1366.14 504.934H1301.49L1293.06 496.172L1287.54 490.431L1302.92 489.804H1303.06C1303.17 489.804 1303.28 489.804 1303.38 489.765C1303.46 489.765 1303.56 489.727 1303.64 489.727C1303.74 489.727 1303.85 489.688 1303.96 489.654C1304.03 489.654 1304.14 489.615 1304.21 489.58C1304.32 489.542 1304.42 489.507 1304.49 489.469C1304.57 489.43 1304.67 489.43 1304.75 489.396C1304.85 489.361 1304.93 489.323 1305.03 489.284C1305.1 489.246 1305.17 489.211 1305.24 489.173C1305.35 489.134 1305.42 489.061 1305.53 489.026C1305.6 488.988 1305.67 488.953 1305.75 488.915C1305.82 488.876 1305.93 488.803 1306 488.73C1306.07 488.692 1306.14 488.618 1306.21 488.584C1306.28 488.511 1306.35 488.472 1306.42 488.399C1306.5 488.326 1306.57 488.288 1306.64 488.214L1306.68 488.176C1306.71 488.137 1306.78 488.064 1306.82 488.03C1306.89 487.957 1306.96 487.883 1307.03 487.772C1307.1 487.699 1307.17 487.626 1307.21 487.553C1307.28 487.479 1307.32 487.406 1307.39 487.333C1307.46 487.26 1307.5 487.149 1307.57 487.075C1307.61 487.002 1307.68 486.929 1307.71 486.856C1307.75 486.744 1307.82 486.671 1307.86 486.564C1307.89 486.491 1307.93 486.417 1307.97 486.306C1308 486.233 1308.04 486.121 1308.07 486.048C1308.11 485.936 1308.15 485.863 1308.18 485.756C1308.22 485.682 1308.25 485.571 1308.25 485.498C1308.29 485.386 1308.33 485.278 1308.33 485.201C1308.36 485.128 1308.36 485.017 1308.4 484.944C1308.43 484.832 1308.43 484.724 1308.47 484.613C1308.47 484.501 1308.51 484.428 1308.51 484.32C1308.51 484.213 1308.54 484.136 1308.54 484.024V483.435C1308.54 483.324 1308.51 483.177 1308.51 483.066C1308.51 482.993 1308.51 482.92 1308.47 482.847C1308.47 482.735 1308.43 482.627 1308.4 482.516C1308.4 482.443 1308.36 482.369 1308.36 482.258C1308.33 482.146 1308.29 482.038 1308.25 481.927C1308.21 481.854 1308.21 481.781 1308.18 481.669C1308.14 481.557 1308.11 481.45 1308.04 481.338C1308 481.265 1307.97 481.192 1307.93 481.119C1307.89 481.007 1307.82 480.899 1307.79 480.826C1307.75 480.753 1307.71 480.68 1307.68 480.607C1307.61 480.495 1307.57 480.422 1307.5 480.311C1307.46 480.238 1307.39 480.165 1307.35 480.091C1307.28 480.018 1307.21 479.907 1307.14 479.834C1307.07 479.76 1307.03 479.687 1306.96 479.614C1306.96 479.614 1306.92 479.576 1306.92 479.541L1296.27 467.728L1316.28 467.84L1336.51 488.599H1386.92C1390.22 488.599 1392.88 485.875 1392.88 482.489C1392.88 479.102 1390.22 476.378 1386.92 476.378H1341.52L1333.31 467.951L1350.56 468.024H1350.6C1353.86 468.024 1356.55 465.3 1356.55 461.952C1356.55 458.605 1353.94 455.842 1350.64 455.807L1333.18 455.734L1341.53 447.157H1387.04L1387.05 447.142ZM1267.82 479.014L1266.99 501.32L1251.11 486.229L1234.4 501.32V479.014L1212.45 478.133L1227.23 461.752L1212.45 445.371L1234.18 444.525L1235.01 422.222L1250.96 437.387L1266.92 422.222L1267.75 444.525L1289.48 445.371L1274.7 461.752L1289.48 478.133L1267.82 479.014H1267.82Z" fill="white" fill-opacity="0.45"/>
<path d="M62.7454 238.658C61.6133 238.658 60.5412 239.115 59.7397 239.938C59.6696 240.01 59.6003 240.081 59.5393 240.161L54.9397 238.202C54.722 237.683 54.4342 237.155 54.1036 236.646L69.0009 230.983L54.1036 225.32C54.4169 224.846 54.6874 224.354 54.896 223.862L59.5484 221.885C60.3235 222.797 61.4739 223.378 62.7454 223.378C65.0889 223.378 66.9971 221.419 66.9971 219.012C66.9971 216.606 65.0889 214.647 62.7454 214.647C60.4019 214.647 58.4937 216.606 58.4937 219.012C58.4937 219.111 58.5028 219.218 58.5028 219.316L53.9378 221.258C53.4241 221.043 52.8576 220.874 52.2564 220.757L58.8954 205.924L44.4589 212.741C44.3541 212.169 44.1975 211.614 44.0144 211.113L45.9226 206.381C46.0182 206.39 46.1138 206.39 46.2013 206.39C47.3334 206.39 48.4055 205.934 49.207 205.111C50.0085 204.288 50.453 203.188 50.453 202.024C50.453 200.861 50.0085 199.761 49.207 198.938C47.552 197.239 44.8505 197.239 43.1956 198.938C42.3941 199.761 41.9496 200.862 41.9496 202.024C41.9496 203.187 42.3941 204.288 43.1956 205.111C43.2657 205.183 43.3349 205.254 43.4133 205.316L41.5315 209.986C41.026 210.21 40.5123 210.496 40.0159 210.845L34.5 195.548L28.985 210.845C28.4968 210.505 28.0004 210.218 27.5131 210.004L25.614 205.307C26.503 204.511 27.0686 203.33 27.0686 202.024C27.0686 199.618 25.1605 197.659 22.8169 197.659C20.4734 197.659 18.5652 199.618 18.5652 202.024C18.5652 204.431 20.4734 206.39 22.8169 206.39C22.9126 206.39 23.0173 206.381 23.1129 206.381L25.0038 211.068C24.8034 211.578 24.655 212.142 24.542 212.732L10.1064 205.925L16.7454 220.749C16.1534 220.865 15.5868 221.035 15.0722 221.241L10.5245 219.309C10.5336 219.211 10.5336 219.112 10.5336 219.013C10.5336 217.851 10.0891 216.75 9.28762 215.927C7.63266 214.228 4.93117 214.228 3.27622 215.927C1.62126 217.626 1.62126 220.4 3.27622 222.1C4.10415 222.95 5.19258 223.379 6.28192 223.379C7.37126 223.379 8.45969 222.95 9.28762 222.1C9.35775 222.028 9.41787 221.957 9.488 221.885L14.1059 223.852C14.3153 224.344 14.5849 224.836 14.9074 225.32L0 230.973L14.8983 236.636C14.5585 237.155 14.2707 237.683 14.053 238.21L9.47889 240.152C8.70378 239.239 7.55342 238.658 6.28192 238.658C3.93838 238.658 2.03022 240.618 2.03022 243.024C2.03022 245.431 3.93838 247.39 6.28192 247.39C8.62545 247.39 10.5336 245.431 10.5336 243.024C10.5336 242.926 10.5245 242.828 10.5245 242.729L15.177 240.751C15.6652 240.939 16.188 241.091 16.7363 241.199L10.1064 256.022L24.5429 249.205C24.6559 249.813 24.8134 250.386 25.022 250.914L23.1139 255.646C21.9289 255.566 20.7266 255.986 19.8203 256.908C18.1654 258.607 18.1654 261.381 19.8203 263.081C20.6483 263.931 21.7367 264.36 22.826 264.36C23.9154 264.36 25.0038 263.931 25.8317 263.081C27.4867 261.381 27.4867 258.607 25.8317 256.908C25.7616 256.837 25.6924 256.774 25.6222 256.702L27.5568 251.907C28.0359 251.692 28.5241 251.406 28.9941 251.084L34.5091 266.382L40.0241 251.084C40.5032 251.424 41.0087 251.711 41.496 251.925L43.4215 256.702C42.5325 257.498 41.9669 258.679 41.9669 259.985C41.9669 262.391 43.8751 264.351 46.2186 264.351C48.5621 264.351 50.4703 262.391 50.4703 259.985C50.4703 257.579 48.5621 255.619 46.2186 255.619C46.123 255.619 46.0273 255.629 45.9308 255.629L43.9962 250.878C44.1875 250.369 44.345 249.805 44.458 249.215L58.8945 256.022L52.2555 241.199C52.8129 241.091 53.3448 240.939 53.8321 240.742L58.5019 242.728C58.4236 243.935 58.8325 245.179 59.7306 246.1C60.5321 246.923 61.6041 247.38 62.7363 247.38C63.8684 247.38 64.9405 246.923 65.742 246.1C67.3969 244.401 67.3969 241.627 65.742 239.928C64.9496 239.104 63.8776 238.657 62.7454 238.657V238.658ZM62.7454 217.421C63.5906 217.421 64.2874 218.128 64.2874 219.004C64.2874 219.88 63.5988 220.587 62.7454 220.587C61.892 220.587 61.2034 219.88 61.2034 219.004C61.2034 218.128 61.892 217.421 62.7454 217.421ZM45.1119 200.907C45.408 200.603 45.8087 200.442 46.2013 200.442C46.5938 200.442 46.9855 200.594 47.2906 200.907C47.5784 201.202 47.7433 201.604 47.7433 202.025C47.7433 202.446 47.5866 202.848 47.2906 203.144C47.0028 203.439 46.6112 203.609 46.2013 203.609C46.0009 203.609 45.8005 203.564 45.6175 203.493H45.6093C45.4262 203.412 45.2522 203.296 45.1129 203.153C44.825 202.858 44.6602 202.456 44.6602 202.035C44.6602 201.614 44.826 201.202 45.1129 200.908L45.1119 200.907ZM21.2749 202.024C21.2749 201.156 21.9635 200.441 22.8169 200.441C23.6704 200.441 24.3589 201.148 24.3589 202.024C24.3589 202.901 23.6704 203.608 22.8169 203.608C21.9635 203.608 21.2749 202.901 21.2749 202.024ZM5.19258 220.131C4.59144 219.514 4.59144 218.512 5.19258 217.895C5.79372 217.277 6.76921 217.277 7.37035 217.895C7.65816 218.19 7.82302 218.592 7.82302 219.013C7.82302 219.219 7.7793 219.425 7.71008 219.613C7.63175 219.801 7.51881 219.971 7.37945 220.123C6.76921 220.74 5.79372 220.74 5.19258 220.132V220.131ZM6.28192 244.608C5.43668 244.608 4.7399 243.9 4.7399 243.024C4.7399 242.148 5.42848 241.441 6.28192 241.441C7.13535 241.441 7.82393 242.148 7.82393 243.024C7.82393 243.9 7.13535 244.608 6.28192 244.608ZM23.9154 261.121C23.3142 261.739 22.3387 261.739 21.7376 261.121C21.4498 260.826 21.2849 260.424 21.2849 260.003C21.2849 259.582 21.4416 259.18 21.7376 258.884C22.0336 258.58 22.4344 258.419 22.8269 258.419C23.2195 258.419 23.6112 258.572 23.9163 258.884C24.2041 259.18 24.369 259.582 24.369 260.003C24.369 260.424 24.2032 260.817 23.9163 261.121H23.9154ZM47.7515 260.003C47.7515 260.871 47.0629 261.586 46.2095 261.586C45.356 261.586 44.6675 260.879 44.6675 260.003C44.6675 259.126 45.356 258.419 46.2095 258.419C47.0629 258.419 47.7515 259.126 47.7515 260.003ZM42.2192 240.403C41.4523 239.472 40.5378 238.703 39.5095 238.104C39.7709 237.719 40.0587 237.361 40.3894 237.022C40.72 236.682 41.0688 236.387 41.4432 236.128C42.027 237.174 42.7757 238.113 43.682 238.901H42.2183V240.404L42.2192 240.403ZM40.6253 248.051C40.5988 248.024 40.5642 247.998 40.5378 247.961C40.4859 247.916 40.4422 247.863 40.3894 247.818C40.3283 247.756 40.2673 247.684 40.2063 247.622L40.1799 247.595C38.5067 245.725 37.8536 243.104 38.4111 240.67C40.5633 242.048 41.9396 244.508 41.9396 247.165C41.9396 247.442 41.9223 247.728 41.8958 248.005C41.8612 248.319 41.8084 248.623 41.7392 248.918C41.3648 248.677 41.0069 248.408 40.6763 248.104C40.659 248.087 40.6416 248.069 40.6243 248.051H40.6253ZM27.2608 248.919C27.1561 248.48 27.095 248.033 27.0777 247.569V247.497C27.0777 247.452 27.0777 247.407 27.0686 247.371V247.165C27.0686 247.076 27.0686 246.987 27.0777 246.897V246.852C27.1652 244.714 28.1407 242.719 29.6827 241.359C29.6918 241.359 29.6918 241.35 29.7 241.35C29.7519 241.305 29.8129 241.252 29.8658 241.207C29.8922 241.18 29.9177 241.162 29.9532 241.135C29.9969 241.099 30.0315 241.072 30.0752 241.045C30.119 241.01 30.1627 240.982 30.2064 240.947H30.2155C30.3376 240.857 30.4678 240.768 30.599 240.688C31.1737 243.22 30.4505 245.957 28.6216 247.836C28.4303 248.032 28.2208 248.22 28.0113 248.4C27.7672 248.579 27.5149 248.758 27.2617 248.919H27.2608ZM25.318 238.9C26.2243 238.112 26.973 237.173 27.5568 236.127C27.9312 236.386 28.28 236.691 28.6106 237.03C28.9413 237.37 29.2291 237.728 29.4905 238.112C28.4713 238.712 27.5568 239.48 26.7899 240.411V238.908H25.3171V238.9H25.318ZM26.7808 221.545C27.5477 222.476 28.4622 223.244 29.4905 223.844C29.2291 224.228 28.9413 224.586 28.6106 224.926C28.28 225.265 27.9312 225.561 27.5568 225.821C26.973 224.774 26.2234 223.835 25.318 223.048H26.7817V221.545H26.7808ZM28.3757 213.896C28.4021 213.923 28.4367 213.949 28.4631 213.985C28.515 214.03 28.5587 214.084 28.6116 214.128C28.6726 214.191 28.7336 214.262 28.7946 214.325C28.8037 214.334 28.8119 214.343 28.821 214.352C30.4942 216.222 31.1473 218.843 30.5899 221.277C28.4376 219.899 27.0613 217.438 27.0613 214.782C27.0613 214.505 27.0786 214.218 27.1051 213.941C27.1397 213.628 27.1925 213.324 27.2617 213.029C27.6361 213.27 27.994 213.538 28.3246 213.842C28.342 213.86 28.3593 213.878 28.3766 213.896H28.3757ZM23.3661 229.945C24.2724 229.945 25.1787 229.819 26.0494 229.569C26.1278 230.025 26.1715 230.49 26.1715 230.973C26.1715 231.457 26.1278 231.922 26.0494 232.369C24.9173 232.047 23.7323 231.93 22.5555 232.029L23.592 230.965L22.5555 229.901C22.8169 229.936 23.0956 229.946 23.3661 229.946V229.945ZM32.0517 237.048C31.6336 236.332 31.1281 235.661 30.527 235.053C29.9259 234.436 29.2728 233.917 28.5842 233.487C28.7755 232.682 28.8802 231.841 28.8802 230.973C28.8802 230.105 28.7755 229.265 28.5842 228.459C29.281 228.03 29.935 227.511 30.527 226.894C31.1281 226.276 31.6336 225.606 32.0517 224.899C32.8359 225.095 33.6548 225.203 34.5 225.203C35.3452 225.203 36.1641 225.095 36.9483 224.899C37.3663 225.614 37.8718 226.286 38.473 226.894C39.0741 227.511 39.7272 228.03 40.4158 228.459C40.2245 229.265 40.1198 230.105 40.1198 230.973C40.1198 231.841 40.2245 232.682 40.4158 233.487C39.719 233.917 39.065 234.436 38.473 235.053C37.8718 235.67 37.3663 236.341 36.9483 237.048C36.1641 236.851 35.3452 236.744 34.5 236.744C33.6548 236.744 32.8359 236.851 32.0517 237.048ZM41.7401 213.028C41.8448 213.466 41.9059 213.913 41.9232 214.378V214.45C41.9232 214.495 41.9232 214.531 41.9323 214.576V214.781C41.9323 214.871 41.9323 214.96 41.9232 215.05V215.095C41.8357 217.233 40.8602 219.227 39.3182 220.587L39.3091 220.597C39.2481 220.65 39.1962 220.695 39.1352 220.74C39.1087 220.758 39.0914 220.775 39.0659 220.793C39.0222 220.829 38.9785 220.865 38.9357 220.901C38.892 220.936 38.8482 220.963 38.8045 220.999L38.7954 221.008C38.6734 221.098 38.5431 221.187 38.412 221.267C37.8372 218.736 38.5604 215.998 40.3894 214.119C40.5806 213.923 40.7901 213.735 40.9996 213.555C41.2346 213.367 41.4878 213.189 41.7401 213.028ZM43.6829 223.047C42.7766 223.835 42.0279 224.774 41.4441 225.82C41.0697 225.561 40.7209 225.256 40.3903 224.917C40.0596 224.577 39.7718 224.219 39.5104 223.835C40.5296 223.235 41.4441 222.466 42.211 221.536V223.039H43.6838V223.048L43.6829 223.047ZM42.9597 232.378C42.8814 231.922 42.8376 231.457 42.8376 230.973C42.8376 230.49 42.8814 230.025 42.9597 229.578C43.8313 229.829 44.7367 229.954 45.643 229.954C45.9135 229.954 46.1831 229.945 46.4536 229.918L45.4253 230.974L46.4618 232.039C45.2686 231.94 44.0918 232.056 42.9597 232.378ZM51.9768 223.54C51.7418 223.924 51.4804 224.291 51.1753 224.631C51.1662 224.641 51.158 224.649 51.158 224.659C51.1234 224.703 51.0796 224.739 51.045 224.784C51.0186 224.811 51.0013 224.829 50.9749 224.856C50.9485 224.883 50.9312 224.909 50.9057 224.928L50.8966 224.937C50.8355 225 50.7745 225.063 50.7135 225.116C50.7044 225.125 50.6871 225.143 50.6789 225.151C49.1451 226.601 47.0893 227.299 45.0591 227.137H45.0418C44.9717 227.128 44.8934 227.128 44.8241 227.119C44.7895 227.119 44.7458 227.11 44.7112 227.11C44.6593 227.1 44.6156 227.1 44.5627 227.092C44.5108 227.083 44.458 227.074 44.4061 227.065H44.397C44.2485 227.038 44.0918 227.012 43.9443 226.967C45.2859 224.757 47.6814 223.353 50.269 223.353C50.5386 223.353 50.8182 223.371 51.0878 223.398C51.3839 223.416 51.6799 223.47 51.9768 223.541V223.54ZM35.868 222.287C35.4236 222.367 34.9709 222.412 34.5 222.412C34.0291 222.412 33.5764 222.367 33.1411 222.287C33.4544 221.123 33.5682 219.907 33.4717 218.699L34.5082 219.763L35.5447 218.699C35.44 219.916 35.5538 221.123 35.8671 222.287H35.868ZM18.4086 223.343C18.4523 223.343 18.4869 223.343 18.5306 223.333H18.731C18.8184 223.333 18.905 223.333 18.9924 223.343H19.0361C21.1182 223.432 23.061 224.434 24.3854 226.017L24.4027 226.035C24.4464 226.089 24.4983 226.151 24.542 226.205C24.5684 226.233 24.5857 226.268 24.6121 226.295C24.6386 226.331 24.6732 226.376 24.6996 226.411C24.7342 226.456 24.7606 226.501 24.7952 226.545C24.8827 226.67 24.9692 226.804 25.0475 226.939C22.5819 227.529 19.916 226.786 18.0861 224.908C17.8949 224.712 17.7118 224.497 17.5369 224.282C17.3456 224.04 17.1708 223.79 17.0141 223.521C17.4413 223.414 17.8766 223.351 18.3293 223.333C18.3557 223.343 18.3812 223.343 18.4076 223.343H18.4086ZM17.0232 238.408C17.2582 238.023 17.5196 237.657 17.8156 237.316C17.8329 237.298 17.8502 237.281 17.8675 237.263C17.8939 237.227 17.9195 237.2 17.955 237.165C17.9987 237.111 18.0506 237.067 18.0943 237.012C18.1554 236.95 18.2164 236.887 18.2856 236.824C18.2947 236.815 18.312 236.807 18.3202 236.789C19.8531 235.339 21.9097 234.641 23.94 234.802H23.9664C24.0365 234.812 24.1057 234.812 24.1759 234.82C24.2196 234.829 24.2633 234.829 24.3061 234.838C24.3498 234.847 24.3936 234.847 24.4282 234.856C24.6377 234.883 24.8462 234.928 25.0466 234.981C23.705 237.191 21.3095 238.595 18.7219 238.595C18.4514 238.595 18.1727 238.577 17.9031 238.55C17.6152 238.532 17.311 238.478 17.0232 238.407V238.408ZM33.1329 239.66C33.5773 239.58 34.03 239.535 34.5009 239.535C34.9718 239.535 35.4245 239.58 35.8598 239.66C35.5465 240.823 35.4327 242.039 35.5292 243.248L34.5009 242.183L33.4644 243.248C33.56 242.031 33.4471 240.823 33.1338 239.66H33.1329ZM50.5832 238.604C50.5395 238.604 50.5049 238.604 50.4612 238.613H50.2608C50.1734 238.613 50.0868 238.613 49.9994 238.604H49.9557C47.8735 238.514 45.9308 237.513 44.6064 235.929C44.6064 235.92 44.5982 235.92 44.5982 235.912C44.5545 235.858 44.5026 235.796 44.4589 235.741C44.4325 235.714 44.4152 235.688 44.3897 235.652C44.3551 235.607 44.3286 235.571 44.294 235.526C44.2594 235.481 44.233 235.436 44.1984 235.392V235.383C44.111 235.258 44.0244 235.124 43.9461 234.989C46.4117 234.399 49.0777 235.142 50.9075 237.02C51.0988 237.216 51.2818 237.431 51.4567 237.646C51.648 237.888 51.8229 238.138 51.9795 238.407C51.5523 238.514 51.117 238.577 50.6643 238.595C50.6379 238.604 50.6124 238.604 50.586 238.604H50.5832ZM52.4732 234.283L49.2498 230.973L52.4732 227.663L61.1943 230.973L52.4732 234.283ZM44.9289 215.577L53.3795 211.587L49.4939 220.265H44.9289V215.577ZM34.5 203.563L37.7234 212.518L34.5 215.828L31.2766 212.518L34.5 203.563ZM24.072 215.577V220.265H19.507L15.6215 211.587L24.072 215.577ZM16.5268 227.663L19.7502 230.973L16.5268 234.283L7.80572 230.973L16.5268 227.663ZM24.072 246.37L15.6215 250.359L19.507 241.682H24.072V246.37ZM34.5 258.384L31.2766 249.429L34.5 246.119L37.7234 249.429L34.5 258.384ZM44.9289 246.37V241.682H49.4939L53.3795 250.359L44.9289 246.37ZM63.8338 244.133C63.546 244.429 63.1544 244.598 62.7445 244.598C62.3346 244.598 61.943 244.437 61.6552 244.133C61.054 243.516 61.054 242.514 61.6552 241.897C61.943 241.602 62.3346 241.432 62.7445 241.432C63.1544 241.432 63.546 241.593 63.8338 241.897C64.1217 242.193 64.2865 242.595 64.2865 243.016C64.2865 243.437 64.1207 243.839 63.8338 244.134V244.133Z" fill="white" fill-opacity="0.45"/>
<path d="M77.9685 1186.58L86.1023 1181.31L114.67 1199.7V1206.53H101.474L87.9546 1191.46C86.9203 1190.31 85.2535 1190.31 84.2354 1191.46C83.2011 1192.61 83.2011 1194.47 84.2354 1195.61L96.6596 1209.46L84.2354 1223.32C83.2011 1224.48 83.2011 1226.34 84.2354 1227.47C84.7453 1228.04 85.4246 1228.33 86.1023 1228.33C86.7799 1228.33 87.4447 1228.04 87.9691 1227.47L101.489 1212.4H114.684V1219.23L86.1007 1237.64L77.9668 1232.37C76.7164 1231.56 75.0964 1232.03 74.3703 1233.44C73.6442 1234.83 74.0621 1236.64 75.3271 1237.45L86.1007 1244.43L93.2922 1239.81H107.769V1255.89H100.129L99.1251 1250.78H101.749C103.199 1250.78 104.388 1249.47 104.388 1247.84C104.388 1246.2 103.215 1244.9 101.749 1244.9H92.5806L95.898 1261.76H113.045V1233.92H102.412L117.321 1224.32L129.822 1232.37L121.534 1237.57C120.269 1238.36 119.82 1240.15 120.53 1241.56C121.009 1242.52 121.903 1243.06 122.829 1243.06C123.262 1243.06 123.709 1242.94 124.111 1242.68L132.507 1237.41V1245.03L122.013 1256.73C120.979 1257.89 120.979 1259.74 122.013 1260.88C123.047 1262.03 124.714 1262.03 125.732 1260.88L132.507 1253.33V1263.25L124.174 1272.56C123.139 1273.71 123.139 1275.57 124.174 1276.71C124.683 1277.27 125.363 1277.57 126.04 1277.57C126.718 1277.57 127.383 1277.27 127.907 1276.71L132.506 1271.58V1274.63C132.506 1276.24 133.679 1277.57 135.146 1277.57C136.612 1277.57 137.785 1276.26 137.785 1274.63V1271.58L142.384 1276.71C143.418 1277.86 145.085 1277.86 146.103 1276.71C147.137 1275.55 147.137 1273.7 146.103 1272.56L137.784 1263.29V1253.36L144.559 1260.91C145.069 1261.48 145.748 1261.77 146.426 1261.77C147.103 1261.77 147.768 1261.48 148.293 1260.91C149.327 1259.76 149.327 1257.9 148.293 1256.77L137.798 1245.07V1237.43L146.195 1242.69C146.597 1242.95 147.044 1243.07 147.476 1243.07C148.402 1243.07 149.298 1242.54 149.775 1241.58C150.485 1240.17 150.038 1238.38 148.772 1237.58L140.483 1232.39L152.985 1224.34L167.894 1233.94H157.275V1261.77H174.422L177.741 1244.91H168.573C167.122 1244.91 165.933 1246.22 165.933 1247.85C165.933 1249.49 167.106 1250.8 168.573 1250.8H171.197L170.193 1255.91H162.553V1239.82H177.03L184.221 1244.45L194.995 1237.47C196.26 1236.66 196.677 1234.85 195.951 1233.46C195.225 1232.06 193.605 1231.58 192.355 1232.39L184.221 1237.65L155.576 1219.25V1212.42H168.771L182.291 1227.49C182.801 1228.06 183.48 1228.35 184.158 1228.35C184.836 1228.35 185.501 1228.05 186.025 1227.49C187.059 1226.33 187.059 1224.48 186.025 1223.34L173.601 1209.49L186.025 1195.64C187.059 1194.49 187.059 1192.63 186.025 1191.5C184.991 1190.34 183.324 1190.34 182.306 1191.5L168.786 1206.57H155.591V1199.74L184.158 1181.35L192.292 1186.61C193.542 1187.42 195.162 1186.95 195.888 1185.54C196.615 1184.15 196.197 1182.34 194.932 1181.54L184.158 1174.55L176.967 1179.18H162.659V1163.09H170.3L171.303 1168.2H168.68C167.229 1168.2 166.04 1169.51 166.04 1171.15C166.04 1172.78 167.213 1174.09 168.68 1174.09H177.848L174.529 1157.23H157.398V1185.07H167.847L152.938 1194.67L140.436 1186.61L148.725 1181.42C149.99 1180.63 150.439 1178.84 149.729 1177.43C149.019 1176.02 147.413 1175.52 146.148 1176.31L137.768 1181.52V1173.9L148.262 1162.2C149.296 1161.05 149.296 1159.19 148.262 1158.05C147.228 1156.9 145.561 1156.9 144.543 1158.05L137.768 1165.61V1155.68L146.087 1146.39C147.121 1145.24 147.121 1143.38 146.087 1142.24C145.053 1141.09 143.386 1141.09 142.368 1142.24L137.769 1147.37V1144.31C137.774 1142.69 136.601 1141.36 135.134 1141.36C133.668 1141.36 132.494 1142.67 132.494 1144.31V1147.35L127.896 1142.22C126.862 1141.07 125.195 1141.07 124.177 1142.22C123.142 1143.38 123.142 1145.24 124.177 1146.37L132.496 1155.64V1165.57L125.721 1158.02C124.687 1156.87 123.02 1156.87 122.002 1158.02C120.967 1159.17 120.967 1161.03 122.002 1162.16L132.496 1173.86V1181.52L124.099 1176.25C122.834 1175.46 121.229 1175.96 120.519 1177.37C119.809 1178.78 120.256 1180.57 121.522 1181.36L129.811 1186.56L117.31 1194.61L102.417 1185.03H113.205V1157.19H96.0577L92.7403 1174.05H101.908C103.359 1174.05 104.548 1172.74 104.548 1171.11C104.548 1169.47 103.375 1168.17 101.908 1168.17H99.2848L100.288 1163.06H107.928V1179.14H93.2825L86.091 1174.51L75.3126 1181.5C74.0476 1182.31 73.6297 1184.12 74.3558 1185.51C75.1125 1186.92 76.7164 1187.4 77.9668 1186.58H77.9685ZM119.948 1199.7L135.134 1189.93L150.321 1199.7V1219.25L135.134 1229.02L119.948 1219.25V1199.7ZM145.104 1215.89V1203.06L135.134 1196.64L125.164 1203.06V1215.89L135.134 1222.31L145.104 1215.89ZM130.428 1206.45L135.134 1203.42L139.841 1206.45V1212.5L135.134 1215.53L130.428 1212.5V1206.45ZM195.48 1202.51L189.229 1209.48L195.48 1216.44C196.515 1217.6 196.515 1219.45 195.48 1220.59C194.97 1221.16 194.291 1221.45 193.613 1221.45C192.936 1221.45 192.271 1221.16 191.747 1220.59L181.76 1209.46L191.747 1198.33C192.781 1197.17 194.448 1197.17 195.466 1198.33C196.515 1199.49 196.515 1201.35 195.482 1202.51L195.48 1202.51ZM74.7882 1216.44L81.039 1209.48L74.7882 1202.51C73.7539 1201.35 73.7539 1199.5 74.7882 1198.36C75.8225 1197.21 77.4892 1197.21 78.5074 1198.36L88.4935 1209.49L78.5074 1220.63C77.9975 1221.19 77.3182 1221.48 76.6405 1221.48C75.9628 1221.48 75.2981 1221.19 74.7737 1220.63C73.7555 1219.46 73.7555 1217.6 74.7898 1216.44L74.7882 1216.44Z" fill="white" fill-opacity="0.45"/>
</svg>
