<svg width="530" height="252" viewBox="0 0 530 252" fill="none" xmlns="http://www.w3.org/2000/svg">
<rect width="530" height="252" rx="20" fill="#FAD9D5"/>
<g clip-path="url(#clip0_2_82)">
<path d="M349.1 123.1H338.7L345.348 116.452C345.874 115.926 346.2 115.201 346.2 114.4C346.2 112.798 344.902 111.5 343.3 111.5C342.499 111.5 341.774 111.826 341.248 112.352L330.5 123.1H318.404L325.052 116.452C325.577 115.926 325.904 115.201 325.904 114.4C325.904 112.798 324.606 111.5 323.004 111.5C322.203 111.5 321.478 111.826 320.952 112.352L310.204 123.1H297.295L307.833 110.456C308.507 109.648 308.689 108.538 308.312 107.56C307.935 106.577 307.057 105.878 306.013 105.729L291.455 103.648L299.013 96.0901H314.217C314.96 96.0901 315.703 95.8074 316.268 95.2419C317.399 94.1109 317.399 92.273 316.268 91.142C315.703 90.5765 314.96 90.2938 314.217 90.2938H304.813L313.368 81.7388H328.572C329.315 81.7388 330.054 81.456 330.623 80.8905C331.754 79.7595 331.754 77.9216 330.623 76.7906C330.058 76.2251 329.315 75.9424 328.572 75.9424H319.168L326.52 68.5909C327.651 67.4599 327.651 65.622 326.52 64.491C325.389 63.36 323.551 63.36 322.42 64.491L315.068 71.8425V62.4393C315.068 61.6961 314.786 60.953 314.22 60.3875C313.089 59.2565 311.251 59.2565 310.12 60.3875C309.555 60.953 309.272 61.6961 309.272 62.4393V77.6425L300.717 86.1975V76.7943C300.717 76.0511 300.434 75.3116 299.869 74.7425C298.738 73.6115 296.9 73.6115 295.769 74.7425C295.204 75.308 294.921 76.0511 294.921 76.7943V91.9975L287.363 99.5556L285.282 84.9976C285.133 83.9573 284.434 83.08 283.451 82.6994C282.469 82.3224 281.363 82.5036 280.555 83.1779L267.911 93.7158V80.8071L278.659 70.059C279.185 69.5334 279.511 68.8084 279.511 68.0072C279.511 66.405 278.213 65.1073 276.611 65.1073C275.81 65.1073 275.085 65.4335 274.559 65.9591L267.911 72.6074V60.5107L278.659 49.7626C279.185 49.237 279.511 48.512 279.511 47.7109C279.511 46.1086 278.213 44.8109 276.611 44.8109C275.81 44.8109 275.085 45.1371 274.559 45.6627L267.911 52.311V41.9C267.911 40.2977 266.613 39 265.011 39C263.409 39 262.111 40.2977 262.111 41.9V52.3001L255.463 45.6519C254.937 45.1263 254.212 44.8 253.411 44.8C251.809 44.8 250.511 46.0978 250.511 47.7C250.511 48.5011 250.837 49.2261 251.363 49.7517L262.111 60.4999V72.5965L255.463 65.9482C254.937 65.4226 254.212 65.0964 253.411 65.0964C251.809 65.0964 250.511 66.3941 250.511 67.9964C250.511 68.7975 250.837 69.5225 251.363 70.0481L262.111 80.7963V93.7049L249.467 83.167C248.659 82.4927 247.549 82.3115 246.571 82.6885C245.588 83.0655 244.889 83.9428 244.74 84.9868L242.659 99.5448L235.101 91.9866V76.7834C235.101 76.0403 234.818 75.2971 234.253 74.7316C233.122 73.6006 231.284 73.6006 230.153 74.7316C229.587 75.2971 229.305 76.0403 229.305 76.7834V86.1866L220.75 77.6316V62.4284C220.75 61.6852 220.467 60.9458 219.901 60.3766C218.77 59.2456 216.932 59.2456 215.802 60.3766C215.236 60.9421 214.953 61.6852 214.953 62.4284V71.8316L207.602 64.4801C206.471 63.3491 204.633 63.3491 203.502 64.4801C202.371 65.6111 202.371 67.449 203.502 68.58L210.853 75.9315H201.45C200.707 75.9315 199.964 76.2143 199.398 76.7798C198.267 77.9108 198.267 79.7486 199.398 80.8796C199.964 81.4451 200.707 81.7279 201.45 81.7279H216.653L225.208 90.2829H215.805C215.062 90.2829 214.322 90.5656 213.753 91.1311C212.622 92.2621 212.622 94.1 213.753 95.231C214.319 95.7965 215.062 96.0793 215.805 96.0793H231.008L238.567 103.637L224.008 105.718C222.968 105.867 222.091 106.566 221.71 107.549C221.333 108.531 221.515 109.637 222.189 110.445L232.727 123.089H219.818L209.07 112.341C208.544 111.815 207.819 111.489 207.018 111.489C205.416 111.489 204.118 112.787 204.118 114.389C204.118 115.19 204.444 115.915 204.97 116.441L211.618 123.089H199.522L188.774 112.341C188.248 111.815 187.523 111.489 186.722 111.489C185.12 111.489 183.822 112.787 183.822 114.389C183.822 115.19 184.148 115.915 184.674 116.441L191.322 123.089H180.9C179.298 123.089 178 124.387 178 125.989C178 127.591 179.298 128.889 180.9 128.889H191.3L184.652 135.537C184.126 136.063 183.8 136.788 183.8 137.589C183.8 139.191 185.098 140.489 186.7 140.489C187.501 140.489 188.226 140.163 188.752 139.637L199.5 128.889H211.597L204.948 135.537C204.423 136.063 204.096 136.788 204.096 137.589C204.096 139.191 205.394 140.489 206.996 140.489C207.798 140.489 208.523 140.163 209.048 139.637L219.796 128.889H232.705L222.167 141.533C221.493 142.342 221.312 143.451 221.688 144.43C222.065 145.412 222.943 146.112 223.987 146.26L238.545 148.341L230.987 155.899H215.783C215.04 155.899 214.297 156.182 213.732 156.747C212.601 157.878 212.601 159.716 213.732 160.847C214.297 161.413 215.04 161.695 215.783 161.695H225.187L216.632 170.25H201.428C200.685 170.25 199.946 170.533 199.377 171.099C198.246 172.23 198.246 174.068 199.377 175.199C199.942 175.764 200.685 176.047 201.428 176.047H210.832L203.48 183.398C202.349 184.529 202.349 186.367 203.48 187.498C204.611 188.629 206.449 188.629 207.58 187.498L214.931 180.147V189.55C214.931 190.293 215.214 191.036 215.78 191.602C216.911 192.733 218.749 192.733 219.88 191.602C220.445 191.036 220.728 190.293 220.728 189.55V174.347L229.283 165.792V175.195C229.283 175.938 229.566 176.678 230.131 177.247C231.262 178.378 233.1 178.378 234.231 177.247C234.797 176.681 235.079 175.938 235.079 175.195V159.992L242.637 152.434L244.718 166.992C244.867 168.032 245.566 168.909 246.549 169.29C247.531 169.667 248.637 169.486 249.445 168.811L262.089 158.273V171.182L251.341 181.93C250.815 182.456 250.489 183.181 250.489 183.982C250.489 185.584 251.787 186.882 253.389 186.882C254.19 186.882 254.915 186.556 255.441 186.03L262.089 179.382V191.478L251.341 202.227C250.815 202.752 250.489 203.477 250.489 204.278C250.489 205.881 251.787 207.178 253.389 207.178C254.19 207.178 254.915 206.852 255.441 206.326L262.089 199.678V210.078C262.089 211.681 263.387 212.978 264.989 212.978C266.591 212.978 267.889 211.681 267.889 210.078V199.678L274.537 206.326C275.063 206.852 275.788 207.178 276.589 207.178C278.191 207.178 279.489 205.881 279.489 204.278C279.489 203.477 279.163 202.752 278.637 202.227L267.889 191.478V179.382L274.537 186.03C275.063 186.556 275.788 186.882 276.589 186.882C278.191 186.882 279.489 185.584 279.489 183.982C279.489 183.181 279.163 182.456 278.637 181.93L267.889 171.182V158.273L280.533 168.811C281.062 169.254 281.722 169.482 282.389 169.482C282.741 169.482 283.092 169.42 283.43 169.29C284.412 168.913 285.112 168.035 285.26 166.992L287.341 152.434L294.899 159.992V175.195C294.899 175.938 295.182 176.681 295.747 177.247C296.878 178.378 298.716 178.378 299.847 177.247C300.413 176.681 300.695 175.938 300.695 175.195V165.792L309.25 174.347V189.55C309.25 190.293 309.533 191.033 310.099 191.602C311.23 192.733 313.068 192.733 314.199 191.602C314.764 191.036 315.047 190.293 315.047 189.55V180.147L322.398 187.498C323.529 188.629 325.367 188.629 326.498 187.498C327.629 186.367 327.629 184.529 326.498 183.398L319.147 176.047H328.55C329.293 176.047 330.036 175.764 330.602 175.199C331.733 174.068 331.733 172.23 330.602 171.099C330.036 170.533 329.293 170.25 328.55 170.25H313.347L304.792 161.695H314.195C314.938 161.695 315.678 161.413 316.247 160.847C317.378 159.716 317.378 157.878 316.247 156.747C315.681 156.182 314.938 155.899 314.195 155.899H298.992L291.434 148.341L305.992 146.26C307.032 146.112 307.909 145.412 308.29 144.43C308.667 143.447 308.486 142.342 307.811 141.533L297.273 128.889H310.182L320.93 139.637C321.456 140.163 322.181 140.489 322.982 140.489C324.584 140.489 325.882 139.191 325.882 137.589C325.882 136.788 325.556 136.063 325.03 135.537L318.382 128.889H330.478L341.227 139.637C341.752 140.163 342.477 140.489 343.278 140.489C344.881 140.489 346.178 139.191 346.178 137.589C346.178 136.788 345.852 136.063 345.326 135.537L338.678 128.889H349.078C350.681 128.889 351.978 127.591 351.978 125.989C351.978 124.387 350.681 123.089 349.078 123.089L349.1 123.1ZM267.9 101.259L280.265 90.9571L282.226 104.678L271.594 115.31L267.904 112.849V101.259H267.9ZM249.735 90.9535L262.1 101.256V112.845L258.41 115.306L247.778 104.674L249.739 90.9535H249.735ZM229.954 110.735L243.674 108.774L253.737 118.837C253.52 119.25 253.396 119.714 253.396 120.196V123.096H240.256L229.954 110.732V110.735ZM243.674 143.222L229.954 141.261L240.256 128.896H253.396V131.796C253.396 132.279 253.516 132.743 253.737 133.156L243.674 143.219V143.222ZM262.1 150.741L249.735 161.043L247.774 147.322L258.406 136.69L262.096 139.152V150.741H262.1ZM265 134.116L259.2 130.249V121.752L265 117.884L270.8 121.752V130.249L265 134.116ZM280.265 161.047L267.9 150.744V139.155L271.59 136.694L282.222 147.326L280.261 161.047H280.265ZM300.047 141.265L286.326 143.226L276.263 133.163C276.48 132.75 276.604 132.286 276.604 131.804V128.904H289.744L300.047 141.269V141.265ZM289.741 123.1H276.6V120.2C276.6 119.718 276.48 119.254 276.259 118.841L286.322 108.778L300.043 110.739L289.741 123.104V123.1Z" fill="#DA78AC" fill-opacity="0.2"/>
</g>
<rect x="374.5" y="208.5" width="139" height="29" rx="11.5" fill="#FAD9D5"/>
<rect x="374.5" y="208.5" width="139" height="29" rx="11.5" stroke="#28225C"/>
<path d="M385.668 227.932V226.879C385.668 226.831 385.688 226.811 385.736 226.811H388.006C388.054 226.811 388.074 226.79 388.074 226.742V219.407C388.074 219.359 388.054 219.339 388.006 219.332H385.736C385.688 219.332 385.668 219.312 385.668 219.264V218.211C385.668 218.163 385.688 218.143 385.736 218.143H391.854C391.902 218.143 391.923 218.163 391.923 218.211V219.264C391.923 219.312 391.902 219.332 391.854 219.332H389.476C389.428 219.332 389.407 219.359 389.407 219.407V226.742C389.407 226.79 389.428 226.811 389.476 226.811H391.854C391.902 226.811 391.923 226.831 391.923 226.879V227.932C391.923 227.979 391.902 228 391.854 228H385.736C385.688 228 385.668 227.979 385.668 227.932ZM396.024 227.932V218.211C396.024 218.163 396.044 218.143 396.092 218.143H397.282C397.33 218.143 397.35 218.163 397.35 218.211V226.742C397.35 226.79 397.377 226.811 397.425 226.811H402.32C402.368 226.811 402.388 226.831 402.395 226.879V227.932C402.395 227.979 402.368 228 402.32 228H396.092C396.044 228 396.024 227.979 396.024 227.932ZM406.058 227.932V218.211C406.058 218.163 406.079 218.143 406.127 218.143H407.316C407.364 218.143 407.385 218.163 407.385 218.211V226.742C407.385 226.79 407.412 226.811 407.46 226.811H412.354C412.402 226.811 412.423 226.831 412.43 226.879V227.932C412.43 227.979 412.402 228 412.354 228H406.127C406.079 228 406.058 227.979 406.058 227.932ZM415.334 224.657V218.211C415.334 218.163 415.355 218.143 415.403 218.143H416.599C416.647 218.143 416.667 218.163 416.667 218.211V224.657C416.667 225.854 417.652 226.947 418.848 226.947C420.044 226.947 421.008 225.847 421.008 224.657V218.211C421.008 218.163 421.029 218.143 421.076 218.143H422.266C422.314 218.143 422.334 218.163 422.334 218.211V224.657C422.334 226.599 420.796 228.137 418.848 228.137C416.893 228.137 415.334 226.599 415.334 224.657ZM425.13 225.3C425.13 225.252 425.157 225.231 425.205 225.225H426.449C426.504 225.225 426.531 225.252 426.531 225.313C426.531 226.024 427.29 226.947 428.869 226.947C430.366 226.947 431.207 226.154 431.207 225.225C431.207 223.98 430.093 223.7 428.869 223.591C427.31 223.434 425.294 222.982 425.301 220.815C425.301 219.018 427.01 218.006 428.719 218.006C430.475 218.006 432.157 218.922 432.232 220.843C432.232 220.891 432.212 220.911 432.164 220.918H430.899C430.851 220.911 430.831 220.891 430.831 220.843C430.831 219.913 429.963 219.195 428.719 219.195C427.611 219.195 426.702 219.872 426.702 220.815C426.702 221.964 427.898 222.148 428.869 222.258C430.701 222.477 432.608 222.914 432.608 225.225C432.608 226.64 431.59 228.137 428.869 228.137C426.442 228.137 425.13 226.817 425.13 225.3ZM435.404 219.264V218.211C435.404 218.163 435.424 218.143 435.472 218.143H442.349C442.397 218.143 442.417 218.163 442.417 218.211V219.264C442.417 219.312 442.397 219.332 442.349 219.332H439.649C439.601 219.332 439.58 219.359 439.58 219.407V227.932C439.58 227.979 439.553 228 439.505 228H438.316C438.268 228 438.247 227.979 438.247 227.932V219.387C438.227 219.353 438.206 219.332 438.179 219.332H435.472C435.424 219.332 435.404 219.312 435.404 219.264ZM445.664 227.932V218.211C445.664 218.163 445.684 218.143 445.732 218.143H449.683C451.208 218.143 452.541 219.469 452.541 221.137C452.541 221.752 452.383 222.292 452.069 222.764C451.755 223.235 451.358 223.591 450.873 223.816C450.839 223.837 450.825 223.864 450.845 223.912L452.636 227.932C452.657 227.979 452.63 228 452.568 228H451.406C451.372 228 451.297 228.007 451.262 227.932L449.581 224.151C449.56 224.104 449.533 224.083 449.485 224.083H447.065C447.017 224.083 446.997 224.104 446.997 224.151V227.932C446.997 227.979 446.969 228 446.922 228H445.732C445.684 228 445.664 227.979 445.664 227.932ZM446.997 219.407V222.818C446.997 222.866 447.017 222.887 447.065 222.887H449.567C450.428 222.853 451.208 222.101 451.208 221.137C451.208 220.173 450.387 219.332 449.512 219.332H447.065C447.017 219.332 446.997 219.359 446.997 219.407ZM454.748 227.918L458.05 218.211C458.07 218.163 458.098 218.143 458.132 218.143H459.855C459.889 218.143 459.923 218.163 459.943 218.211L463.204 227.918C463.225 227.973 463.197 228 463.129 228H461.816C461.789 228 461.769 227.979 461.748 227.932L461.106 225.929C461.099 225.881 461.065 225.86 461.003 225.86H456.942C456.908 225.86 456.881 225.881 456.86 225.929L456.204 227.932C456.184 227.979 456.163 228 456.129 228H454.816C454.755 228 454.728 227.973 454.748 227.918ZM458.918 219.544L457.264 224.657C457.243 224.712 457.271 224.739 457.339 224.739H460.627C460.689 224.739 460.716 224.712 460.695 224.657L459.062 219.544C459.027 219.455 458.952 219.455 458.918 219.544ZM465.507 219.264V218.211C465.507 218.163 465.528 218.143 465.576 218.143H472.453C472.501 218.143 472.521 218.163 472.521 218.211V219.264C472.521 219.312 472.501 219.332 472.453 219.332H469.752C469.705 219.332 469.684 219.359 469.684 219.407V227.932C469.684 227.979 469.657 228 469.609 228H468.419C468.372 228 468.351 227.979 468.351 227.932V219.387C468.331 219.353 468.31 219.332 468.283 219.332H465.576C465.528 219.332 465.507 219.312 465.507 219.264ZM475.979 227.932V226.879C475.979 226.831 476 226.811 476.048 226.811H478.317C478.365 226.811 478.386 226.79 478.386 226.742V219.407C478.386 219.359 478.365 219.339 478.317 219.332H476.048C476 219.332 475.979 219.312 475.979 219.264V218.211C475.979 218.163 476 218.143 476.048 218.143H482.166C482.214 218.143 482.234 218.163 482.234 218.211V219.264C482.234 219.312 482.214 219.332 482.166 219.332H479.787C479.739 219.332 479.719 219.359 479.719 219.407V226.742C479.719 226.79 479.739 226.811 479.787 226.811H482.166C482.214 226.811 482.234 226.831 482.234 226.879V227.932C482.234 227.979 482.214 228 482.166 228H476.048C476 228 475.979 227.979 475.979 227.932ZM485.091 223.071C485.091 220.118 486.287 218.006 489.09 218.006C491.893 218.006 493.082 220.118 493.082 223.071C493.082 226.059 491.893 228.137 489.09 228.137C486.281 228.137 485.091 226.059 485.091 223.071ZM486.486 223.071C486.486 225.505 487.279 226.947 489.09 226.947C489.999 226.947 490.656 226.605 491.073 225.915C491.49 225.231 491.695 224.281 491.695 223.071C491.695 220.645 491.032 219.195 489.09 219.195C487.279 219.195 486.486 220.645 486.486 223.071ZM495.488 227.932V218.211C495.488 218.163 495.509 218.143 495.556 218.143H497.348C497.382 218.143 497.416 218.163 497.45 218.211L501.271 226.052C501.306 226.141 501.408 226.141 501.408 226.038V218.211C501.408 218.163 501.429 218.143 501.476 218.143H502.666C502.714 218.143 502.734 218.163 502.741 218.211V227.932C502.741 227.979 502.714 228 502.666 228H500.889C500.841 228 500.806 227.979 500.779 227.932L496.958 220.091C496.924 220.002 496.814 220.016 496.814 220.104V227.932C496.814 227.979 496.794 228 496.746 228H495.556C495.509 228 495.488 227.979 495.488 227.932Z" fill="#28225C"/>
<path d="M141.622 132.907V119.715C141.622 119.65 141.659 119.622 141.724 119.622H143.561C143.626 119.622 143.653 119.65 143.653 119.715V132.907C143.653 132.972 143.626 133 143.561 133H141.724C141.659 133 141.631 132.972 141.622 132.907ZM146.362 128.194C146.362 125.198 148.05 123.194 151.028 123.194C153.459 123.194 155.147 124.548 155.518 126.543C155.546 126.608 155.509 126.636 155.416 126.636H153.505C153.44 126.636 153.394 126.608 153.366 126.543C153.004 125.578 152.253 125.021 151.028 125.021C149.34 125.021 148.412 126.367 148.412 128.194C148.412 130.041 149.34 131.386 151.028 131.386C152.318 131.386 153.041 130.838 153.385 129.846C153.412 129.781 153.459 129.753 153.524 129.753H155.444C155.491 129.753 155.565 129.771 155.537 129.846C155.027 132.072 153.468 133.186 151.028 133.186C148.05 133.186 146.362 131.163 146.362 128.194ZM157.512 128.194C157.512 125.198 159.247 123.194 162.216 123.194C165.185 123.194 166.947 125.235 166.947 128.194C166.947 131.163 165.185 133.186 162.216 133.186C159.238 133.186 157.512 131.163 157.512 128.194ZM159.563 128.194C159.563 129.15 159.795 129.911 160.258 130.486C160.713 131.061 161.372 131.349 162.216 131.349C163.088 131.349 163.756 131.061 164.211 130.486C164.665 129.911 164.897 129.15 164.897 128.194C164.897 127.239 164.674 126.478 164.22 125.912C163.765 125.346 163.097 125.059 162.216 125.059C161.372 125.059 160.713 125.346 160.258 125.912C159.795 126.478 159.563 127.239 159.563 128.194ZM169.637 132.907V123.481C169.637 123.417 169.674 123.389 169.739 123.389H171.353C171.418 123.389 171.455 123.417 171.483 123.481L171.669 124.205C171.715 124.326 171.836 124.27 171.882 124.224C172.253 123.704 173.237 123.194 174.257 123.194C177.133 123.194 178.339 125.263 178.339 127.703V132.907C178.339 132.972 178.311 133 178.246 133H176.382C176.317 133 176.289 132.972 176.289 132.907V127.703C176.289 126.413 175.658 125.059 173.97 125.059C172.439 125.059 171.669 126.292 171.669 127.601V132.907C171.669 132.972 171.641 133 171.576 133H169.739C169.674 133 169.646 132.972 169.637 132.907ZM180.853 128.194C180.853 125.198 182.587 123.194 185.556 123.194C188.525 123.194 190.288 125.235 190.288 128.194C190.288 131.163 188.525 133.186 185.556 133.186C182.578 133.186 180.853 131.163 180.853 128.194ZM182.903 128.194C182.903 129.15 183.135 129.911 183.599 130.486C184.053 131.061 184.712 131.349 185.556 131.349C186.428 131.349 187.096 131.061 187.551 130.486C188.005 129.911 188.237 129.15 188.237 128.194C188.237 127.239 188.015 126.478 187.56 125.912C187.106 125.346 186.438 125.059 185.556 125.059C184.712 125.059 184.053 125.346 183.599 125.912C183.135 126.478 182.903 127.239 182.903 128.194ZM192.319 128.194C192.319 125.235 194.146 123.194 196.744 123.194C197.264 123.194 197.764 123.287 198.256 123.472C198.739 123.658 199.119 123.899 199.397 124.187C199.472 124.261 199.527 124.261 199.574 124.187L199.759 123.5C199.768 123.426 199.815 123.389 199.898 123.389H201.513C201.577 123.389 201.605 123.417 201.605 123.481V132.675C201.605 135.254 199.676 136.952 197.05 136.952C194.684 136.952 192.82 135.579 192.773 133.965C192.773 133.9 192.801 133.872 192.866 133.872H194.647C194.712 133.872 194.759 133.9 194.805 133.965C195 134.262 195.464 135.087 197.05 135.087C198.924 135.087 199.527 133.9 199.574 132.675V132.221C199.574 132.174 199.546 132.146 199.481 132.146C199.425 132.146 198.265 133.186 196.744 133.186C194.248 133.186 192.319 131.163 192.319 128.194ZM194.369 128.194C194.369 129.122 194.601 129.883 195.055 130.467C195.51 131.052 196.159 131.349 197.022 131.349C198.692 131.349 199.574 130.152 199.574 128.194C199.574 127.267 199.36 126.515 198.933 125.931C198.497 125.346 197.867 125.059 197.022 125.059C196.159 125.059 195.51 125.346 195.055 125.931C194.601 126.515 194.369 127.267 194.369 128.194ZM204.648 132.907V123.481C204.648 123.417 204.675 123.389 204.722 123.389H206.364C206.429 123.389 206.466 123.426 206.494 123.5L206.679 124.205C206.726 124.307 206.828 124.289 206.874 124.242C207.477 123.639 208.173 123.194 209.073 123.194H210.084C210.149 123.194 210.177 123.222 210.177 123.287V125.003C210.177 125.068 210.149 125.096 210.084 125.096H208.98C207.449 125.096 206.679 126.292 206.679 127.601V132.907C206.679 132.972 206.651 133 206.586 133H204.722C204.675 133 204.648 132.972 204.648 132.907ZM211.438 130.152C211.438 128.482 212.82 127.165 215.603 127.165H217.561C217.969 127.165 218.164 126.858 218.164 126.636C218.164 126.051 217.997 125.059 215.947 125.059C215.177 125.059 214.629 125.207 214.304 125.495C213.98 125.782 213.804 126.135 213.794 126.543C213.794 126.608 213.766 126.636 213.701 126.636H211.855C211.79 126.636 211.763 126.608 211.763 126.543C211.763 124.307 213.739 123.194 215.947 123.194C217.264 123.194 218.303 123.481 219.064 124.066C219.825 124.65 220.205 125.541 220.205 126.729V130.625C220.205 130.987 220.455 131.256 220.864 131.256H221.281C221.346 131.256 221.374 131.284 221.374 131.349V132.907C221.374 132.972 221.346 133 221.281 133H220.52C219.453 133 218.915 132.694 218.581 132.109C218.535 132.035 218.479 132.026 218.414 132.091C218.173 132.341 217.784 132.592 217.245 132.824C216.707 133.065 216.03 133.186 215.223 133.186C213.943 133.186 212.996 132.898 212.375 132.332C211.753 131.766 211.438 131.033 211.438 130.152ZM213.479 130.152C213.479 130.681 213.887 131.349 215.223 131.349C217.357 131.349 218.164 130.115 218.164 129.048V128.918C218.164 128.853 218.136 128.825 218.071 128.816H215.659C213.785 128.816 213.479 129.567 213.479 130.152ZM223.572 136.665V123.481C223.572 123.417 223.609 123.389 223.674 123.389H225.288C225.362 123.389 225.409 123.417 225.418 123.481L225.604 124.168C225.65 124.27 225.743 124.261 225.817 124.187C226.299 123.704 227.44 123.194 228.377 123.194C231.114 123.194 232.831 125.235 232.831 128.194C232.831 131.163 231.012 133.186 228.377 133.186C226.773 133.186 225.873 132.295 225.761 132.184C225.715 132.137 225.604 132.193 225.604 132.239V136.665C225.604 136.729 225.576 136.757 225.511 136.767H223.674C223.609 136.767 223.581 136.729 223.572 136.665ZM225.604 128.194C225.604 130.152 226.476 131.33 228.099 131.33C228.971 131.33 229.639 131.042 230.094 130.458C230.548 129.874 230.771 129.122 230.771 128.194C230.771 127.267 230.548 126.506 230.094 125.921C229.639 125.337 228.971 125.04 228.099 125.04C227.292 125.04 226.67 125.337 226.244 125.921C225.817 126.506 225.604 127.267 225.604 128.194ZM235.502 132.907V119.715C235.502 119.65 235.539 119.622 235.604 119.622H237.441C237.506 119.622 237.533 119.65 237.533 119.715V124.187C237.533 124.307 237.7 124.298 237.747 124.224C237.923 123.982 238.229 123.75 238.665 123.528C239.092 123.305 239.574 123.194 240.122 123.194C242.998 123.194 244.204 125.263 244.204 127.703V132.907C244.204 132.972 244.176 133 244.111 133H242.246C242.181 133 242.154 132.972 242.154 132.907V127.703C242.154 126.413 241.523 125.096 239.834 125.096C238.303 125.096 237.533 126.292 237.533 127.601V132.907C237.533 132.972 237.506 133 237.441 133H235.604C235.539 133 235.511 132.972 235.502 132.907ZM247.283 122.173V120.04C247.283 119.975 247.311 119.947 247.376 119.947H249.473C249.538 119.947 249.565 119.975 249.565 120.04V122.173C249.565 122.238 249.538 122.266 249.473 122.266H247.376C247.311 122.266 247.283 122.238 247.283 122.173ZM247.376 132.907V123.481C247.376 123.417 247.413 123.389 247.478 123.389H249.315C249.38 123.389 249.408 123.417 249.408 123.481V132.907C249.408 132.972 249.38 133 249.315 133H247.478C247.413 133 247.385 132.972 247.376 132.907ZM252.097 128.194C252.097 125.198 253.786 123.194 256.764 123.194C259.195 123.194 260.883 124.548 261.254 126.543C261.282 126.608 261.245 126.636 261.152 126.636H259.241C259.176 126.636 259.13 126.608 259.102 126.543C258.74 125.578 257.989 125.021 256.764 125.021C255.075 125.021 254.148 126.367 254.148 128.194C254.148 130.041 255.075 131.386 256.764 131.386C258.053 131.386 258.777 130.838 259.12 129.846C259.148 129.781 259.195 129.753 259.26 129.753H261.18C261.226 129.753 261.301 129.771 261.273 129.846C260.762 132.072 259.204 133.186 256.764 133.186C253.786 133.186 252.097 131.163 252.097 128.194ZM268.675 132.907V119.715C268.675 119.65 268.712 119.622 268.777 119.622H277.989C278.054 119.622 278.082 119.65 278.082 119.715V121.394C278.082 121.459 278.054 121.487 277.989 121.487H270.808C270.743 121.487 270.716 121.515 270.706 121.58V125.151C270.706 125.216 270.743 125.244 270.808 125.244H277.117C277.182 125.244 277.21 125.281 277.21 125.346V126.998C277.21 127.062 277.182 127.09 277.117 127.09H270.808C270.743 127.09 270.716 127.118 270.706 127.183V131.061C270.706 131.126 270.743 131.154 270.808 131.154H277.989C278.054 131.154 278.082 131.191 278.082 131.256V132.907C278.082 132.972 278.054 133 277.989 133H268.777C268.712 133 268.684 132.972 268.675 132.907ZM280.734 132.907V123.481C280.734 123.417 280.771 123.389 280.836 123.389H282.451C282.516 123.389 282.553 123.417 282.581 123.481L282.766 124.205C282.812 124.326 282.933 124.27 282.979 124.224C283.351 123.704 284.334 123.194 285.354 123.194C288.23 123.194 289.437 125.263 289.437 127.703V132.907C289.437 132.972 289.409 133 289.344 133H287.479C287.414 133 287.386 132.972 287.386 132.907V127.703C287.386 126.413 286.755 125.059 285.067 125.059C283.536 125.059 282.766 126.292 282.766 127.601V132.907C282.766 132.972 282.738 133 282.673 133H280.836C280.771 133 280.744 132.972 280.734 132.907ZM291.95 128.194C291.95 125.198 293.638 123.194 296.616 123.194C299.047 123.194 300.736 124.548 301.107 126.543C301.134 126.608 301.097 126.636 301.005 126.636H299.093C299.029 126.636 298.982 126.608 298.954 126.543C298.592 125.578 297.841 125.021 296.616 125.021C294.928 125.021 294 126.367 294 128.194C294 130.041 294.928 131.386 296.616 131.386C297.906 131.386 298.63 130.838 298.973 129.846C299.001 129.781 299.047 129.753 299.112 129.753H301.032C301.079 129.753 301.153 129.771 301.125 129.846C300.615 132.072 299.056 133.186 296.616 133.186C293.638 133.186 291.95 131.163 291.95 128.194ZM305.364 132.712L302.247 123.481C302.219 123.417 302.247 123.389 302.321 123.389H304.316C304.362 123.389 304.399 123.417 304.427 123.481L306.821 130.987C306.867 131.089 306.969 131.089 307.016 130.987L309.409 123.481C309.437 123.417 309.474 123.389 309.52 123.389H311.478C311.552 123.389 311.58 123.417 311.571 123.481L308.018 134.048C307.359 135.997 306.756 136.767 304.984 136.767H302.358C302.293 136.767 302.266 136.729 302.266 136.665V135.05C302.266 134.985 302.293 134.958 302.358 134.958H304.585C305.401 134.958 305.68 134.586 305.68 134.03C305.68 133.649 305.513 133.195 305.364 132.712ZM312.767 128.194C312.767 125.198 314.455 123.194 317.433 123.194C319.864 123.194 321.552 124.548 321.924 126.543C321.951 126.608 321.914 126.636 321.821 126.636H319.91C319.845 126.636 319.799 126.608 319.771 126.543C319.409 125.578 318.658 125.021 317.433 125.021C315.745 125.021 314.817 126.367 314.817 128.194C314.817 130.041 315.745 131.386 317.433 131.386C318.723 131.386 319.446 130.838 319.79 129.846C319.818 129.781 319.864 129.753 319.929 129.753H321.849C321.896 129.753 321.97 129.771 321.942 129.846C321.432 132.072 319.873 133.186 317.433 133.186C314.455 133.186 312.767 131.163 312.767 128.194ZM324.409 132.907V119.715C324.409 119.65 324.446 119.622 324.511 119.622H326.348C326.413 119.622 326.441 119.65 326.441 119.715V132.907C326.441 132.972 326.413 133 326.348 133H324.511C324.446 133 324.418 132.972 324.409 132.907ZM329.131 128.194C329.131 125.198 330.865 123.194 333.834 123.194C336.803 123.194 338.566 125.235 338.566 128.194C338.566 131.163 336.803 133.186 333.834 133.186C330.856 133.186 329.131 131.163 329.131 128.194ZM331.181 128.194C331.181 129.15 331.413 129.911 331.877 130.486C332.331 131.061 332.99 131.349 333.834 131.349C334.706 131.349 335.374 131.061 335.829 130.486C336.283 129.911 336.515 129.15 336.515 128.194C336.515 127.239 336.293 126.478 335.838 125.912C335.383 125.346 334.716 125.059 333.834 125.059C332.99 125.059 332.331 125.346 331.877 125.912C331.413 126.478 331.181 127.239 331.181 128.194ZM341.255 136.665V123.481C341.255 123.417 341.292 123.389 341.357 123.389H342.972C343.046 123.389 343.092 123.417 343.101 123.481L343.287 124.168C343.333 124.27 343.426 124.261 343.5 124.187C343.983 123.704 345.124 123.194 346.061 123.194C348.798 123.194 350.514 125.235 350.514 128.194C350.514 131.163 348.696 133.186 346.061 133.186C344.456 133.186 343.556 132.295 343.445 132.184C343.398 132.137 343.287 132.193 343.287 132.239V136.665C343.287 136.729 343.259 136.757 343.194 136.767H341.357C341.292 136.767 341.265 136.729 341.255 136.665ZM343.287 128.194C343.287 130.152 344.159 131.33 345.783 131.33C346.655 131.33 347.323 131.042 347.777 130.458C348.232 129.874 348.455 129.122 348.455 128.194C348.455 127.267 348.232 126.506 347.777 125.921C347.323 125.337 346.655 125.04 345.783 125.04C344.976 125.04 344.354 125.337 343.927 125.921C343.5 126.506 343.287 127.267 343.287 128.194ZM352.443 130.152C352.443 128.482 353.779 127.165 356.534 127.165H358.659C359.021 127.165 359.132 127.016 359.132 126.729C359.132 126.042 358.965 125.021 356.915 125.021C355.375 125.021 354.827 125.727 354.781 126.543C354.781 126.608 354.753 126.636 354.688 126.636H352.842C352.777 126.636 352.749 126.608 352.749 126.543C352.749 124.307 354.707 123.194 356.915 123.194C358.445 123.194 359.587 123.602 360.329 124.409C360.357 124.437 360.375 124.446 360.384 124.446C360.412 124.446 360.44 124.437 360.468 124.409C361.247 123.63 362.407 123.194 363.734 123.194C366.684 123.194 368.372 125.235 368.372 128.194C368.372 128.556 368.335 128.677 368.289 128.797C368.261 128.862 368.233 128.89 368.196 128.899H361.34C361.275 128.899 361.247 128.927 361.247 128.992C361.247 130.356 362.203 131.386 363.734 131.386C364.875 131.386 365.496 130.922 365.895 130.245C365.932 130.18 365.979 130.152 366.034 130.152H367.955C368.02 130.152 368.048 130.18 368.048 130.245V130.263C367.593 132.119 365.877 133.186 363.734 133.186C362.945 133.186 362.268 133.037 361.693 132.731C361.117 132.425 360.616 132.072 360.199 131.655C360.153 131.608 360.069 131.516 360.004 131.655C359.086 132.777 357.573 133.186 356.34 133.186C353.788 133.186 352.443 131.896 352.443 130.152ZM354.419 130.152C354.419 130.783 354.92 131.46 356.247 131.46C358.381 131.46 359.123 130.087 359.169 129.011V128.881C359.169 128.807 359.123 128.77 359.039 128.76L356.627 128.797C354.772 128.899 354.419 129.567 354.419 130.152ZM361.247 127.202C361.247 127.267 361.275 127.294 361.34 127.304H366.071C366.136 127.304 366.164 127.267 366.164 127.202C366.164 126.274 365.441 125.021 363.734 125.021C362.036 125.021 361.294 126.404 361.247 127.202ZM370.375 128.194C370.375 125.235 372.175 123.194 374.819 123.194C376.406 123.194 377.343 124.112 377.435 124.205C377.482 124.251 377.593 124.196 377.593 124.149V119.715C377.593 119.65 377.621 119.622 377.686 119.622H379.532C379.597 119.622 379.625 119.65 379.625 119.715V132.907C379.625 132.972 379.597 133 379.532 133H377.918C377.844 133 377.797 132.972 377.779 132.907L377.593 132.221C377.547 132.109 377.482 132.1 377.38 132.202C376.897 132.685 375.766 133.186 374.819 133.186C372.073 133.186 370.375 131.163 370.375 128.194ZM372.426 128.194C372.426 129.122 372.658 129.883 373.112 130.467C373.567 131.052 374.225 131.349 375.107 131.349C375.914 131.349 376.536 131.052 376.962 130.458C377.38 129.874 377.593 129.113 377.593 128.194C377.593 126.237 376.73 125.059 375.107 125.059C374.235 125.059 373.567 125.346 373.112 125.931C372.658 126.515 372.426 127.267 372.426 128.194ZM382.871 122.173V120.04C382.871 119.975 382.899 119.947 382.964 119.947H385.061C385.126 119.947 385.153 119.975 385.153 120.04V122.173C385.153 122.238 385.126 122.266 385.061 122.266H382.964C382.899 122.266 382.871 122.238 382.871 122.173ZM382.964 132.907V123.481C382.964 123.417 383.001 123.389 383.066 123.389H384.903C384.968 123.389 384.996 123.417 384.996 123.481V132.907C384.996 132.972 384.968 133 384.903 133H383.066C383.001 133 382.973 132.972 382.964 132.907ZM387.602 130.152C387.602 128.482 388.984 127.165 391.767 127.165H393.725C394.133 127.165 394.328 126.858 394.328 126.636C394.328 126.051 394.161 125.059 392.111 125.059C391.341 125.059 390.793 125.207 390.469 125.495C390.144 125.782 389.968 126.135 389.958 126.543C389.958 126.608 389.931 126.636 389.866 126.636H388.019C387.954 126.636 387.927 126.608 387.927 126.543C387.927 124.307 389.903 123.194 392.111 123.194C393.428 123.194 394.467 123.481 395.228 124.066C395.989 124.65 396.369 125.541 396.369 126.729V130.625C396.369 130.987 396.62 131.256 397.028 131.256H397.445C397.51 131.256 397.538 131.284 397.538 131.349V132.907C397.538 132.972 397.51 133 397.445 133H396.684C395.618 133 395.079 132.694 394.745 132.109C394.699 132.035 394.643 132.026 394.579 132.091C394.337 132.341 393.948 132.592 393.41 132.824C392.871 133.065 392.194 133.186 391.387 133.186C390.107 133.186 389.161 132.898 388.539 132.332C387.917 131.766 387.602 131.033 387.602 130.152ZM389.643 130.152C389.643 130.681 390.051 131.349 391.387 131.349C393.521 131.349 394.328 130.115 394.328 129.048V128.918C394.328 128.853 394.3 128.825 394.235 128.816H391.823C389.949 128.816 389.643 129.567 389.643 130.152Z" fill="#28225C"/>
<defs>
<clipPath id="clip0_2_82">
<rect width="174" height="174" fill="white" transform="translate(178 39)"/>
</clipPath>
</defs>
</svg>
