<svg width="255" height="251" viewBox="0 0 255 251" fill="none" xmlns="http://www.w3.org/2000/svg">
<rect width="255" height="251" rx="20" fill="#E3087E"/>
<path d="M26 35.16H26.4C27.5733 35.16 28.5467 35.0667 29.32 34.88C30.0933 34.6667 30.72 34.3333 31.2 33.88C31.68 33.4267 32.0133 32.8267 32.2 32.08C32.4133 31.3333 32.52 30.4133 32.52 29.32V28.92H38.96V57H34.4V34.12H34C33.8133 35.1867 33.4933 36.0667 33.04 36.76C32.6133 37.4533 32.08 38 31.44 38.4C30.8 38.8 30.0533 39.08 29.2 39.24C28.3467 39.4 27.4133 39.48 26.4 39.48H26V35.16ZM62.1131 28.6C64.4598 28.6 66.5131 29.16 68.2731 30.28C70.0331 31.4 71.3798 32.9467 72.3131 34.92L72.3931 35.16L69.1931 38.32L68.9931 37.64C68.5665 36.0667 67.7931 34.88 66.6731 34.08C65.5531 33.28 64.1265 32.88 62.3931 32.88C60.8465 32.88 59.5931 33.2 58.6331 33.84C57.6731 34.48 56.9265 35.3067 56.3931 36.32C55.8865 37.3333 55.5398 38.4667 55.3531 39.72C55.1665 40.9733 55.0731 42.2267 55.0731 43.48C55.0731 43.64 55.0731 43.8 55.0731 43.96C55.0998 44.0933 55.0998 44.2267 55.0731 44.36H55.4731C56.0065 42.84 56.9398 41.6267 58.2731 40.72C59.6331 39.8133 61.3131 39.36 63.3131 39.36C64.6731 39.36 65.9265 39.5733 67.0731 40C68.2465 40.4267 69.2465 41.04 70.0731 41.84C70.9265 42.6133 71.5798 43.5467 72.0331 44.64C72.5131 45.7067 72.7531 46.8933 72.7531 48.2C72.7531 49.6133 72.4865 50.8933 71.9531 52.04C71.4465 53.16 70.7398 54.12 69.8331 54.92C68.9265 55.6933 67.8465 56.2933 66.5931 56.72C65.3665 57.1467 64.0198 57.36 62.5531 57.36C60.3931 57.36 58.5665 56.9333 57.0731 56.08C55.6065 55.2267 54.4198 54.12 53.5131 52.76C52.6065 51.4 51.9531 49.88 51.5531 48.2C51.1531 46.4933 50.9531 44.8 50.9531 43.12C50.9531 41.52 51.1265 39.8667 51.4731 38.16C51.8465 36.4267 52.4598 34.8533 53.3131 33.44C54.1665 32.0267 55.2998 30.8667 56.7131 29.96C58.1531 29.0533 59.9531 28.6 62.1131 28.6ZM56.5931 48.4C56.5931 49.2 56.7398 49.8933 57.0331 50.48C57.3265 51.0667 57.7265 51.56 58.2331 51.96C58.7665 52.3333 59.3931 52.6267 60.1131 52.84C60.8331 53.0267 61.6065 53.12 62.4331 53.12C63.2865 53.12 64.0731 53.0267 64.7931 52.84C65.5398 52.6267 66.1798 52.32 66.7131 51.92C67.2731 51.4933 67.7131 50.9733 68.0331 50.36C68.3531 49.7467 68.5131 49.0267 68.5131 48.2C68.5131 47.4 68.3665 46.6933 68.0731 46.08C67.7798 45.4667 67.3665 44.9467 66.8331 44.52C66.3265 44.0667 65.7131 43.7333 64.9931 43.52C64.2998 43.28 63.5398 43.16 62.7131 43.16C60.9265 43.16 59.4598 43.6 58.3131 44.48C57.1665 45.36 56.5931 46.6667 56.5931 48.4Z" fill="white"/>
<g clip-path="url(#clip0_2_86)">
<path d="M188.04 156.891C185.813 155.285 183.539 155.763 182.925 155.936L158.288 161.621C157.379 161.829 156.451 161.432 155.973 160.632L136.891 128.523L169.611 73.5227C171.011 71.1253 171.019 68.256 169.637 65.8453C168.256 63.4347 165.771 62 162.995 62C160.219 62 157.744 63.456 156.387 65.7867L128 113.557L99.6213 65.8C98.2533 63.456 95.7173 62 93.0027 62C90.288 62 87.7413 63.4373 86.36 65.8453C84.9786 68.2533 84.9867 71.1227 86.3946 73.536L119.107 128.52L100.024 160.629C99.5466 161.429 98.6187 161.827 97.7093 161.619L73.072 155.933C72.4586 155.76 70.184 155.283 67.9573 156.888C65.3306 158.781 63.9973 162.744 63.9973 168.664C63.9973 179.208 70.136 179.331 70.3973 179.331H98.1306C102.333 179.331 106.472 176.92 110.437 172.163C113.035 169.048 114.661 165.96 114.936 165.427L128 143.467L141.064 165.424C141.683 166.637 148.392 179.328 157.867 179.328H185.6C185.861 179.328 192 179.205 192 168.661C192 162.741 190.667 158.779 188.04 156.885V156.891ZM174.933 162.157V175.067H170.667V163.144L174.933 162.16V162.157ZM138.669 139.864L133.24 143.936L102.744 92.6747L108.197 88.584L138.669 139.861V139.864ZM160.064 67.952C160.669 66.912 161.795 66.2667 162.997 66.2667C164.2 66.2667 165.328 66.904 165.941 67.9707C166.555 69.0373 166.549 70.3093 165.941 71.3573L155.453 88.9893L149.997 84.8987L160.067 67.9547L160.064 67.952ZM147.803 88.584L153.256 92.6747L134.413 124.347L130.483 117.731L147.803 88.584ZM90.0587 67.9707C90.672 66.904 91.7733 66.2667 93.0027 66.2667C94.232 66.2667 95.328 66.912 95.944 67.9653L106.005 84.896L100.549 88.9867L90.0693 71.3707C89.448 70.3067 89.4453 69.0373 90.0587 67.9707ZM85.3333 163.144V175.067H81.0666V162.157L85.3333 163.141V163.144ZM70.4 175.067C70.4 175.067 70.4106 175.067 70.432 175.067C70.4426 175.067 70.456 175.067 70.472 175.067H70.4ZM68.2666 168.667C68.2666 162.675 69.76 160.883 70.4026 160.389C71.0586 159.888 71.7226 159.997 71.8826 160.032C71.9573 160.061 71.9573 160.056 72.0533 160.077L76.8 161.173V175.067H70.496C70.256 175.011 68.2666 174.363 68.2666 168.667ZM111.232 163.309C111.205 163.352 111.181 163.4 111.157 163.445C109.533 166.677 104.029 175.067 98.1306 175.067H89.5973V164.128L96.7493 165.779C99.4747 166.408 102.261 165.216 103.691 162.813L115.136 143.555L120.565 147.627L111.235 163.312L111.232 163.309ZM122.76 143.936L117.331 139.864L121.589 132.696L125.517 139.299L122.76 143.936ZM148.888 169.493C146.395 166.52 144.856 163.475 144.84 163.445C144.816 163.4 144.792 163.355 144.765 163.309L135.435 147.624L140.864 143.552L152.309 162.811C153.736 165.213 156.525 166.405 159.251 165.776L166.403 164.125V175.064H157.869C154.309 175.064 151.021 172.035 148.891 169.491L148.888 169.493ZM185.528 175.067C185.573 175.064 185.6 175.067 185.6 175.067H185.528ZM185.512 175.067H179.2V161.173L183.947 160.077C184.043 160.056 184.043 160.061 184.117 160.032C184.277 159.997 184.941 159.885 185.597 160.389C186.24 160.883 187.733 162.675 187.733 168.667C187.733 173.429 186.299 174.928 185.512 175.067Z" fill="black" fill-opacity="0.08"/>
<path d="M136.533 172.933H119.467C114.763 172.933 110.933 176.763 110.933 181.467C110.933 186.171 114.763 190 119.467 190H136.533C141.237 190 145.067 186.171 145.067 181.467C145.067 176.763 141.237 172.933 136.533 172.933ZM136.533 185.733H119.467C117.115 185.733 115.2 183.819 115.2 181.467C115.2 179.115 117.115 177.2 119.467 177.2H136.533C138.885 177.2 140.8 179.115 140.8 181.467C140.8 183.819 138.885 185.733 136.533 185.733Z" fill="black" fill-opacity="0.08"/>
</g>
<rect x="170.5" y="208.5" width="69" height="29" rx="11.5" fill="#E3087E"/>
<rect x="170.5" y="208.5" width="69" height="29" rx="11.5" stroke="white"/>
<path d="M181.668 227.932V226.879C181.668 226.831 181.688 226.811 181.736 226.811H184.006C184.054 226.811 184.074 226.79 184.074 226.742V219.407C184.074 219.359 184.054 219.339 184.006 219.332H181.736C181.688 219.332 181.668 219.312 181.668 219.264V218.211C181.668 218.163 181.688 218.143 181.736 218.143H187.854C187.902 218.143 187.923 218.163 187.923 218.211V219.264C187.923 219.312 187.902 219.332 187.854 219.332H185.476C185.428 219.332 185.407 219.359 185.407 219.407V226.742C185.407 226.79 185.428 226.811 185.476 226.811H187.854C187.902 226.811 187.923 226.831 187.923 226.879V227.932C187.923 227.979 187.902 228 187.854 228H181.736C181.688 228 181.668 227.979 181.668 227.932ZM190.821 223.071C190.821 220.118 192.024 218.006 194.82 218.006C195.551 218.006 196.153 218.136 196.638 218.389C197.117 218.642 197.499 218.942 197.793 219.291C198.081 219.64 198.286 219.988 198.402 220.337C198.518 220.686 198.573 220.959 198.573 221.157C198.573 221.205 198.552 221.226 198.504 221.226H197.274C197.226 221.226 197.192 221.205 197.171 221.157C197.062 220.856 196.912 220.357 196.556 219.947C196.201 219.537 195.688 219.195 194.82 219.195C193.979 219.195 193.336 219.537 192.892 220.221C192.441 220.911 192.215 221.861 192.215 223.071C192.215 224.281 192.441 225.231 192.892 225.915C193.336 226.605 193.979 226.947 194.82 226.947C196.495 226.947 196.953 225.737 197.171 224.992C197.178 224.944 197.212 224.924 197.274 224.917H198.504C198.552 224.917 198.573 224.944 198.573 224.992C198.573 225.225 198.511 225.519 198.381 225.874C198.251 226.229 198.039 226.571 197.746 226.906C197.452 227.241 197.062 227.535 196.59 227.774C196.112 228.014 195.524 228.137 194.82 228.137C192.024 228.137 190.821 226.059 190.821 223.071ZM200.814 223.071C200.814 220.118 202.011 218.006 204.813 218.006C207.616 218.006 208.806 220.118 208.806 223.071C208.806 226.059 207.616 228.137 204.813 228.137C202.004 228.137 200.814 226.059 200.814 223.071ZM202.209 223.071C202.209 225.505 203.002 226.947 204.813 226.947C205.723 226.947 206.379 226.605 206.796 225.915C207.213 225.231 207.418 224.281 207.418 223.071C207.418 220.645 206.755 219.195 204.813 219.195C203.002 219.195 202.209 220.645 202.209 223.071ZM211.211 227.932V218.211C211.211 218.163 211.232 218.143 211.28 218.143H213.071C213.105 218.143 213.139 218.163 213.173 218.211L216.994 226.052C217.029 226.141 217.131 226.141 217.131 226.038V218.211C217.131 218.163 217.152 218.143 217.2 218.143H218.389C218.437 218.143 218.457 218.163 218.464 218.211V227.932C218.464 227.979 218.437 228 218.389 228H216.612C216.564 228 216.53 227.979 216.502 227.932L212.681 220.091C212.647 220.002 212.537 220.016 212.537 220.104V227.932C212.537 227.979 212.517 228 212.469 228H211.28C211.232 228 211.211 227.979 211.211 227.932ZM221.13 225.3C221.13 225.252 221.157 225.231 221.205 225.225H222.449C222.504 225.225 222.531 225.252 222.531 225.313C222.531 226.024 223.29 226.947 224.869 226.947C226.366 226.947 227.207 226.154 227.207 225.225C227.207 223.98 226.093 223.7 224.869 223.591C223.31 223.434 221.294 222.982 221.301 220.815C221.301 219.018 223.01 218.006 224.719 218.006C226.475 218.006 228.157 218.922 228.232 220.843C228.232 220.891 228.212 220.911 228.164 220.918H226.899C226.851 220.911 226.831 220.891 226.831 220.843C226.831 219.913 225.963 219.195 224.719 219.195C223.611 219.195 222.702 219.872 222.702 220.815C222.702 221.964 223.898 222.148 224.869 222.258C226.701 222.477 228.608 222.914 228.608 225.225C228.608 226.64 227.59 228.137 224.869 228.137C222.442 228.137 221.13 226.817 221.13 225.3Z" fill="white"/>
<path d="M76.7176 127.311C76.7176 123.303 78.7308 120.437 82.72 120.437C86.7371 120.437 88.7225 123.303 88.7225 127.311C88.7225 131.365 86.7371 134.186 82.72 134.186C78.7308 134.186 76.7176 131.365 76.7176 127.311ZM78.8421 127.311C78.8421 128.879 79.1761 130.113 79.844 131.003C80.5027 131.903 81.4676 132.349 82.72 132.349C83.9725 132.349 84.9373 131.903 85.6053 131.003C86.264 130.113 86.5979 128.879 86.5979 127.311C86.5979 125.725 86.2732 124.491 85.6146 123.609C84.9559 122.728 83.991 122.292 82.72 122.292C81.449 122.292 80.4935 122.728 79.8348 123.609C79.1761 124.491 78.8421 125.725 78.8421 127.311ZM91.4585 133.907V124.481C91.4585 124.417 91.4864 124.389 91.5328 124.389H93.1748C93.2398 124.389 93.2769 124.426 93.3047 124.5L93.4903 125.205C93.5367 125.307 93.6387 125.289 93.6851 125.242C94.2881 124.639 94.9839 124.194 95.8838 124.194H96.8951C96.96 124.194 96.9878 124.222 96.9878 124.287V126.003C96.9878 126.068 96.96 126.096 96.8951 126.096H95.7911C94.2603 126.096 93.4903 127.292 93.4903 128.601V133.907C93.4903 133.972 93.4624 134 93.3975 134H91.5328C91.4864 134 91.4585 133.972 91.4585 133.907ZM99.0838 123.173V121.04C99.0838 120.975 99.1116 120.947 99.1765 120.947H101.273C101.338 120.947 101.366 120.975 101.366 121.04V123.173C101.366 123.238 101.338 123.266 101.273 123.266H99.1765C99.1116 123.266 99.0838 123.238 99.0838 123.173ZM99.1765 133.907V124.481C99.1765 124.417 99.2137 124.389 99.2786 124.389H101.116C101.18 124.389 101.208 124.417 101.208 124.481V133.907C101.208 133.972 101.18 134 101.116 134H99.2786C99.2137 134 99.1858 133.972 99.1765 133.907ZM103.898 129.194C103.898 126.198 105.633 124.194 108.602 124.194C111.57 124.194 113.333 126.235 113.333 129.194C113.333 132.163 111.57 134.186 108.602 134.186C105.624 134.186 103.898 132.163 103.898 129.194ZM105.948 129.194C105.948 130.15 106.18 130.911 106.644 131.486C107.099 132.061 107.757 132.349 108.602 132.349C109.474 132.349 110.142 132.061 110.596 131.486C111.051 130.911 111.283 130.15 111.283 129.194C111.283 128.239 111.06 127.478 110.605 126.912C110.151 126.346 109.483 126.059 108.602 126.059C107.757 126.059 107.099 126.346 106.644 126.912C106.18 127.478 105.948 128.239 105.948 129.194ZM116.023 133.907V124.481C116.023 124.417 116.06 124.389 116.125 124.389H117.739C117.804 124.389 117.841 124.417 117.869 124.481L118.054 125.205C118.101 125.326 118.221 125.27 118.268 125.224C118.639 124.704 119.622 124.194 120.643 124.194C123.519 124.194 124.725 126.263 124.725 128.703V133.907C124.725 133.972 124.697 134 124.632 134H122.767C122.702 134 122.675 133.972 122.675 133.907V128.703C122.675 127.413 122.044 126.059 120.355 126.059C118.824 126.059 118.054 127.292 118.054 128.601V133.907C118.054 133.972 118.027 134 117.962 134H116.125C116.06 134 116.032 133.972 116.023 133.907ZM132.665 133.907V120.715C132.665 120.65 132.702 120.622 132.767 120.622H134.604C134.669 120.622 134.697 120.65 134.697 120.715V133.907C134.697 133.972 134.669 134 134.604 134H132.767C132.702 134 132.674 133.972 132.665 133.907ZM137.405 129.194C137.405 126.198 139.093 124.194 142.071 124.194C144.502 124.194 146.19 125.548 146.562 127.543C146.589 127.608 146.552 127.636 146.459 127.636H144.548C144.483 127.636 144.437 127.608 144.409 127.543C144.047 126.578 143.296 126.021 142.071 126.021C140.383 126.021 139.455 127.367 139.455 129.194C139.455 131.041 140.383 132.386 142.071 132.386C143.361 132.386 144.084 131.838 144.428 130.846C144.456 130.781 144.502 130.753 144.567 130.753H146.487C146.534 130.753 146.608 130.771 146.58 130.846C146.07 133.072 144.511 134.186 142.071 134.186C139.093 134.186 137.405 132.163 137.405 129.194ZM148.555 129.194C148.555 126.198 150.29 124.194 153.259 124.194C156.228 124.194 157.99 126.235 157.99 129.194C157.99 132.163 156.228 134.186 153.259 134.186C150.281 134.186 148.555 132.163 148.555 129.194ZM150.606 129.194C150.606 130.15 150.838 130.911 151.301 131.486C151.756 132.061 152.415 132.349 153.259 132.349C154.131 132.349 154.799 132.061 155.254 131.486C155.708 130.911 155.94 130.15 155.94 129.194C155.94 128.239 155.717 127.478 155.263 126.912C154.808 126.346 154.14 126.059 153.259 126.059C152.415 126.059 151.756 126.346 151.301 126.912C150.838 127.478 150.606 128.239 150.606 129.194ZM160.68 133.907V124.481C160.68 124.417 160.717 124.389 160.782 124.389H162.396C162.461 124.389 162.498 124.417 162.526 124.481L162.712 125.205C162.758 125.326 162.879 125.27 162.925 125.224C163.296 124.704 164.28 124.194 165.3 124.194C168.176 124.194 169.382 126.263 169.382 128.703V133.907C169.382 133.972 169.354 134 169.29 134H167.425C167.36 134 167.332 133.972 167.332 133.907V128.703C167.332 127.413 166.701 126.059 165.013 126.059C163.482 126.059 162.712 127.292 162.712 128.601V133.907C162.712 133.972 162.684 134 162.619 134H160.782C160.717 134 160.689 133.972 160.68 133.907ZM171.812 130.846C171.812 130.781 171.849 130.753 171.914 130.753H173.788C173.863 130.753 173.9 130.781 173.909 130.846C173.909 131.235 174.104 131.579 174.484 131.885C174.864 132.191 175.412 132.349 176.126 132.349C177.008 132.349 178.279 132.163 178.279 131.078C178.279 130.734 178.121 130.493 177.815 130.345C177.499 130.196 177.11 130.094 176.646 130.029C176.173 129.964 175.672 129.909 175.133 129.844C174.057 129.732 173.074 129.389 172.452 128.666C172.146 128.304 171.988 127.784 171.988 127.107C171.988 125.511 173.519 124.194 175.904 124.194C178.288 124.194 180.06 125.307 180.06 127.543C180.06 127.608 180.032 127.636 179.986 127.636H178.102C178.037 127.636 178.009 127.608 178.009 127.543C178.009 127.153 177.842 126.81 177.508 126.504C177.165 126.207 176.636 126.059 175.904 126.059C174.614 126.059 174.02 126.55 174.02 127.107C174.02 127.432 174.178 127.664 174.484 127.793C174.79 127.933 175.18 128.025 175.653 128.09C176.126 128.155 176.627 128.211 177.175 128.276C178.26 128.406 179.243 128.74 179.865 129.482C180.171 129.862 180.329 130.391 180.329 131.078C180.329 133.193 178.603 134.186 176.126 134.186C173.241 134.186 171.812 132.627 171.812 130.846Z" fill="white"/>
<path d="M215 23C214.448 23 214 23.4477 214 24C214 24.5523 214.448 25 215 25L215 23ZM237.707 24.7071C238.098 24.3166 238.098 23.6834 237.707 23.2929L231.343 16.9289C230.953 16.5384 230.319 16.5384 229.929 16.9289C229.538 17.3195 229.538 17.9526 229.929 18.3431L235.586 24L229.929 29.6569C229.538 30.0474 229.538 30.6805 229.929 31.0711C230.319 31.4616 230.953 31.4616 231.343 31.0711L237.707 24.7071ZM215 25L237 25L237 23L215 23L215 25Z" fill="white"/>
<defs>
<clipPath id="clip0_2_86">
<rect width="128" height="128" fill="white" transform="translate(64 62)"/>
</clipPath>
</defs>
</svg>
