<svg width="255" height="527" viewBox="0 0 255 527" fill="none" xmlns="http://www.w3.org/2000/svg">
<rect width="255" height="527" rx="20" fill="#F0583B"/>
<g clip-path="url(#clip0_2_83)">
<path d="M86.5 416.463C81.9524 416.463 78.2504 420.188 78.2504 424.763C78.2504 429.338 81.9524 433.063 86.5 433.063C91.0476 433.063 94.7496 429.338 94.7496 424.763C94.7496 420.188 91.0476 416.463 86.5 416.463ZM86.5 427.53C84.9841 427.53 83.7501 426.288 83.7501 424.763C83.7501 423.238 84.9841 421.997 86.5 421.997C88.0159 421.997 89.2499 423.238 89.2499 424.763C89.2499 426.288 88.0159 427.53 86.5 427.53Z" fill="black" fill-opacity="0.08"/>
<path d="M86.5 438.596C81.9524 438.596 78.2504 442.32 78.2504 446.895C78.2504 451.471 81.9524 455.195 86.5 455.195C91.0476 455.195 94.7496 451.471 94.7496 446.895C94.7496 442.32 91.0476 438.596 86.5 438.596ZM86.5 449.662C84.9841 449.662 83.7501 448.421 83.7501 446.895C83.7501 445.37 84.9841 444.129 86.5 444.129C88.0159 444.129 89.2499 445.37 89.2499 446.895C89.2499 448.421 88.0159 449.662 86.5 449.662Z" fill="black" fill-opacity="0.08"/>
<path d="M75.5005 372.199C77.0192 372.199 78.2504 370.96 78.2504 369.432C78.2504 367.904 77.0192 366.666 75.5005 366.666C73.9818 366.666 72.7507 367.904 72.7507 369.432C72.7507 370.96 73.9818 372.199 75.5005 372.199Z" fill="black" fill-opacity="0.08"/>
<path d="M97.4995 372.199C99.0182 372.199 100.249 370.96 100.249 369.432C100.249 367.904 99.0182 366.666 97.4995 366.666C95.9808 366.666 94.7496 367.904 94.7496 369.432C94.7496 370.96 95.9808 372.199 97.4995 372.199Z" fill="black" fill-opacity="0.08"/>
<path d="M73.0428 381.736C73.0428 381.736 73.06 381.771 73.0772 381.802C73.0807 381.812 73.0875 381.819 73.091 381.83C73.5516 382.687 77.1539 388.798 86.5 388.798C95.8461 388.798 99.4519 382.687 99.909 381.83C99.9125 381.819 99.9194 381.812 99.9228 381.802C99.94 381.771 99.9503 381.747 99.9572 381.736C100.143 381.363 100.249 380.944 100.249 380.498C100.249 378.97 99.0188 377.732 97.4995 377.732C96.4236 377.732 95.4921 378.354 95.0418 379.26L95.059 379.222C94.9696 379.388 92.8213 383.261 86.5 383.261C80.1787 383.261 78.0304 379.385 77.941 379.222L77.9582 379.257C77.5079 378.351 76.5764 377.728 75.5005 377.728C73.9812 377.728 72.7507 378.966 72.7507 380.495C72.7507 380.941 72.8572 381.359 73.0428 381.733V381.736Z" fill="black" fill-opacity="0.08"/>
<path d="M157.447 398.401C156.323 394.113 153.607 390.524 149.799 388.293C145.99 386.062 141.546 385.454 137.287 386.585C137.256 386.592 137.225 386.602 137.194 386.612L110.85 394.597C116.35 388.535 119.499 380.561 119.499 372.202C119.499 353.894 104.698 339 86.5003 339C68.303 339 53.5018 353.894 53.5018 372.199C53.5018 380.557 56.6504 388.532 62.1502 394.594L35.8064 386.609C35.7755 386.599 35.7446 386.592 35.7136 386.581C31.4513 385.45 27.0069 386.056 23.2017 388.29C19.3932 390.52 16.6777 394.113 15.5537 398.398C14.4297 402.686 15.0312 407.157 17.2517 410.986C19.4688 414.817 23.0367 417.549 27.299 418.68L47.3559 424.002C50.9754 424.964 53.5018 428.263 53.5018 432.029V445.07C53.5018 447.674 52.9244 450.295 51.8347 452.653L38.6526 481.156C36.738 485.14 36.4733 489.635 37.9135 493.816C39.3572 498.008 42.3339 501.379 46.2972 503.316C48.5796 504.429 51.027 504.993 53.4915 504.993C55.3099 504.993 57.1351 504.689 58.9019 504.07C63.0267 502.631 66.3575 499.681 68.2893 495.746L80.4437 475.277C81.5471 473.42 83.3173 472.161 85.3041 471.819C88.1674 471.324 90.9722 472.621 92.4572 475.118L104.704 495.746C107.575 501.583 113.432 504.983 119.519 504.979C121.936 504.979 124.387 504.443 126.7 503.312C130.663 501.376 133.643 498.001 135.084 493.813C136.524 489.632 136.259 485.136 134.345 481.152L121.162 452.65C120.073 450.291 119.495 447.667 119.495 445.066V432.025C119.495 428.259 122.022 424.96 125.641 423.999L145.698 418.677C149.96 417.546 153.528 414.814 155.745 410.982C157.962 407.151 158.567 402.679 157.443 398.394L157.447 398.401ZM102.999 402.631C102.999 404.156 101.765 405.397 100.25 405.397C97.8263 405.397 92.244 403.903 89.9548 402.631C92.244 401.358 97.8263 399.864 100.25 399.864C101.765 399.864 102.999 401.106 102.999 402.631ZM86.5003 344.533C101.662 344.533 113.999 356.945 113.999 372.199C113.999 381.09 109.723 389.462 102.549 394.663C101.82 394.449 101.047 394.331 100.25 394.331C98.2525 394.331 94.4439 395.085 91.3847 396.088C89.8035 396.607 87.9714 397.305 86.5003 398.294C85.0256 397.305 83.197 396.607 81.6158 396.088C78.5566 395.085 74.748 394.331 72.7509 394.331C71.9535 394.331 71.1835 394.449 70.4513 394.663C63.2776 389.465 59.0016 381.093 59.0016 372.199C59.0016 356.945 71.3382 344.533 86.5003 344.533ZM72.7509 399.864C75.1742 399.864 80.7565 401.358 83.0457 402.631C80.7565 403.903 75.1742 405.397 72.7509 405.397C71.2351 405.397 70.001 404.156 70.001 402.631C70.001 401.106 71.2351 399.864 72.7509 399.864ZM22.0021 408.205C20.5241 405.65 20.1219 402.672 20.8712 399.812C21.6206 396.956 23.432 394.559 25.9688 393.072C28.4952 391.592 31.441 391.184 34.2665 391.924L43.7089 394.788C43.5783 396.344 44.0217 397.53 44.3482 398.391C44.6748 399.259 44.7366 399.46 44.5407 400.023C44.3414 400.583 44.166 400.704 43.372 401.171C42.2927 401.804 40.6634 402.759 39.7834 405.252C38.9035 407.745 39.5738 409.519 40.0172 410.695C40.3437 411.563 40.4056 411.764 40.2097 412.327C40.0137 412.888 39.8384 413.005 39.041 413.472C38.3432 413.88 37.4151 414.427 36.6073 415.436L28.7049 413.337C25.8657 412.583 23.4836 410.761 22.0055 408.209L22.0021 408.205ZM63.5114 493.014C63.4701 493.083 63.4323 493.152 63.3979 493.225C62.1158 495.884 59.8781 497.88 57.1007 498.848C54.3234 499.816 51.3398 499.636 48.6965 498.346C46.0531 497.057 44.0698 494.805 43.1073 492.015C42.1449 489.22 42.3236 486.219 43.6058 483.559C43.6126 483.545 43.6195 483.532 43.6264 483.518L47.1153 475.972C48.7686 476.608 50.1573 476.408 51.1438 476.262C52.0547 476.128 52.2678 476.11 52.7697 476.428C53.2715 476.743 53.3472 476.944 53.629 477.826C54.0071 479.022 54.5812 480.831 56.812 482.231C59.0428 483.635 60.9093 483.359 62.1433 483.179C63.0542 483.047 63.2673 483.027 63.7692 483.345C64.271 483.66 64.3466 483.857 64.6285 484.742C64.9138 485.645 65.3125 486.9 66.4503 488.062L63.5079 493.017L63.5114 493.014ZM129.391 483.556C130.673 486.215 130.852 489.217 129.89 492.011C128.927 494.805 126.944 497.053 124.301 498.343C121.657 499.633 118.674 499.813 115.896 498.844C113.119 497.876 110.885 495.881 109.599 493.221C109.565 493.149 109.527 493.08 109.486 493.01L105.729 486.685C106.952 486.851 108.668 486.952 110.682 485.683C112.913 484.279 113.487 482.473 113.865 481.277C114.147 480.395 114.222 480.194 114.724 479.88C115.226 479.565 115.436 479.582 116.35 479.714C117.584 479.894 119.451 480.167 121.681 478.766C123.912 477.366 124.486 475.557 124.864 474.36C124.906 474.229 124.943 474.118 124.978 474.015L129.367 483.507C129.367 483.507 129.381 483.535 129.388 483.549L129.391 483.556ZM124.242 418.656C118.213 420.257 113.999 425.756 113.999 432.032V445.073C113.999 448.476 114.752 451.906 116.182 454.991L122.441 468.526C120.52 469.889 119.987 471.556 119.629 472.683C119.347 473.565 119.272 473.766 118.77 474.08C118.268 474.395 118.058 474.378 117.144 474.246C115.91 474.066 114.04 473.79 111.813 475.194C109.582 476.598 109.008 478.403 108.63 479.6C108.351 480.481 108.272 480.682 107.77 480.997C107.269 481.311 107.059 481.294 106.148 481.163C105.247 481.031 104.007 480.851 102.539 481.308L97.1835 472.292C94.5264 467.818 89.5011 465.494 84.3829 466.375C80.8115 466.991 77.656 469.204 75.7276 472.452L69.7158 482.577C69.3205 481.412 68.6364 479.88 66.6909 478.656C64.4601 477.251 62.5936 477.528 61.3596 477.708C60.4487 477.843 60.2356 477.86 59.7337 477.542C59.2319 477.227 59.1563 477.027 58.8744 476.145C58.4963 474.948 57.9223 473.14 55.6914 471.736C53.4606 470.332 51.5941 470.605 50.3601 470.788C49.958 470.847 49.6933 470.882 49.4802 470.875L56.8257 454.991C58.2522 451.906 59.0085 448.476 59.0085 445.073V432.032C59.0085 425.759 54.7977 420.257 48.7652 418.656L43.3342 417.214C44.1042 416.564 44.881 415.633 45.4 414.167C46.2766 411.674 45.6097 409.9 45.1663 408.724C44.8398 407.856 44.7779 407.655 44.9738 407.092C45.1697 406.532 45.3485 406.414 46.1425 405.947C47.2218 405.314 48.8511 404.36 49.7311 401.866C50.5801 399.46 49.9855 397.724 49.5455 396.551L64.6457 401.13C64.5563 401.617 64.5082 402.119 64.5082 402.631C64.5082 407.206 68.2102 410.93 72.7578 410.93C74.7549 410.93 78.5635 410.176 81.6227 409.174C83.2039 408.655 85.036 407.956 86.5071 406.967C87.9818 407.956 89.8104 408.655 91.3916 409.174C94.4508 410.176 98.2594 410.93 100.256 410.93C104.804 410.93 108.506 407.206 108.506 402.631C108.506 402.119 108.458 401.617 108.369 401.13L121.747 397.073C122.647 398.588 123.847 399.297 124.703 399.798C125.5 400.265 125.676 400.383 125.871 400.943C126.071 401.503 126.006 401.707 125.679 402.575C125.236 403.748 124.565 405.525 125.445 408.019C126.325 410.512 127.955 411.466 129.034 412.099C129.831 412.566 130.007 412.684 130.203 413.244C130.398 413.804 130.337 414.008 130.01 414.876C129.773 415.506 129.474 416.304 129.378 417.297L124.242 418.659V418.656ZM144.299 413.334L135.548 415.658C135.85 414.572 136.005 413.164 135.383 411.397C134.503 408.904 132.873 407.949 131.794 407.317C130.997 406.85 130.821 406.732 130.625 406.172C130.426 405.612 130.491 405.408 130.818 404.54C131.261 403.364 131.932 401.59 131.052 399.096C130.264 396.866 128.879 395.866 127.824 395.23L138.731 391.924C141.559 391.184 144.502 391.592 147.028 393.072C149.568 394.559 151.377 396.952 152.126 399.812C153.673 405.712 150.16 411.778 144.296 413.334H144.299Z" fill="black" fill-opacity="0.08"/>
</g>
<path d="M78.7768 264.354C78.7768 264.28 78.8046 264.243 78.8696 264.233H80.8085C80.8735 264.233 80.9013 264.271 80.9013 264.354C80.9013 265.282 82.0238 266.349 83.9072 266.349C85.707 266.349 86.8666 265.347 86.8666 264.159C86.8666 263.528 86.5976 263.055 86.0595 262.749C85.5214 262.443 84.8071 262.239 83.9072 262.146C81.2724 261.896 78.9252 261.163 78.9252 258.333C78.9252 255.865 81.2538 254.437 83.6196 254.437C86.0873 254.437 88.4252 255.754 88.4252 258.287C88.4252 258.352 88.3974 258.379 88.3324 258.389H86.3749C86.31 258.389 86.2822 258.352 86.2822 258.287C86.2822 257.229 85.2431 256.292 83.6196 256.292C82.1723 256.292 81.1518 257.21 81.1518 258.37C81.1518 259.947 83.1186 259.966 85.0854 260.291C87.0336 260.625 89.019 261.274 89.019 264.159C89.019 266.376 87.349 268.186 83.9072 268.186C80.3539 268.186 78.7768 266.265 78.7768 264.354ZM91.5695 263.686V258.481C91.5695 258.417 91.5973 258.389 91.6623 258.389H93.527C93.592 258.389 93.6198 258.417 93.6198 258.481V263.686C93.6198 264.985 94.2506 266.33 95.9391 266.33C97.4792 266.33 98.2399 265.105 98.2399 263.779V258.481C98.2399 258.417 98.2677 258.389 98.3327 258.389H100.179C100.244 258.389 100.272 258.417 100.272 258.481V267.907C100.272 267.972 100.244 268 100.179 268H98.5553C98.4904 268 98.4533 267.972 98.4255 267.907L98.2399 267.184C98.1935 267.063 98.0729 267.119 98.0265 267.165C97.6183 267.675 96.7091 268.186 95.6515 268.186C92.7848 268.186 91.5695 266.126 91.5695 263.686ZM103.611 271.665V258.481C103.611 258.417 103.648 258.389 103.713 258.389H105.327C105.401 258.389 105.448 258.417 105.457 258.481L105.642 259.168C105.689 259.27 105.782 259.261 105.856 259.187C106.338 258.704 107.479 258.194 108.416 258.194C111.153 258.194 112.87 260.235 112.87 263.194C112.87 266.163 111.051 268.186 108.416 268.186C106.811 268.186 105.912 267.295 105.8 267.184C105.754 267.137 105.642 267.193 105.642 267.239V271.665C105.642 271.729 105.615 271.757 105.55 271.767H103.713C103.648 271.767 103.62 271.729 103.611 271.665ZM105.642 263.194C105.642 265.152 106.515 266.33 108.138 266.33C109.01 266.33 109.678 266.042 110.133 265.458C110.587 264.874 110.81 264.122 110.81 263.194C110.81 262.267 110.587 261.506 110.133 260.921C109.678 260.337 109.01 260.04 108.138 260.04C107.331 260.04 106.709 260.337 106.283 260.921C105.856 261.506 105.642 262.267 105.642 263.194ZM114.882 263.194C114.882 260.198 116.645 258.194 119.511 258.194C122.378 258.194 124.15 260.235 124.15 263.194C124.15 263.482 124.122 263.686 124.076 263.862C124.048 263.927 124.02 263.955 123.983 263.955H117.118C117.053 263.955 117.025 263.983 117.025 264.048C117.025 265.263 118.008 266.349 119.511 266.349C120.597 266.349 121.283 265.95 121.645 265.245C121.673 265.18 121.71 265.152 121.775 265.152H123.733C123.798 265.152 123.825 265.18 123.825 265.226V265.245C123.593 266.182 123.092 266.905 122.304 267.416C121.515 267.926 120.588 268.186 119.511 268.186C116.682 268.186 114.882 266.163 114.882 263.194ZM117.025 262.202C117.025 262.267 117.053 262.294 117.118 262.304H121.849C121.914 262.304 121.942 262.267 121.942 262.202C121.942 261.292 121.228 260.059 119.511 260.059C117.814 260.059 117.025 261.404 117.025 262.202ZM126.803 267.907V258.481C126.803 258.417 126.83 258.389 126.877 258.389H128.519C128.584 258.389 128.621 258.426 128.649 258.5L128.834 259.205C128.881 259.307 128.983 259.289 129.029 259.242C129.632 258.639 130.328 258.194 131.228 258.194H132.239C132.304 258.194 132.332 258.222 132.332 258.287V260.003C132.332 260.068 132.304 260.096 132.239 260.096H131.135C129.604 260.096 128.834 261.292 128.834 262.601V267.907C128.834 267.972 128.807 268 128.742 268H126.877C126.83 268 126.803 267.972 126.803 267.907ZM133.676 260.003V258.481C133.676 258.417 133.704 258.389 133.769 258.389H135.383C135.448 258.389 135.476 258.352 135.476 258.287V255.726C135.476 255.661 135.504 255.633 135.569 255.633H137.434C137.499 255.633 137.526 255.661 137.526 255.726V258.287C137.526 258.352 137.564 258.379 137.629 258.389H139.623C139.688 258.389 139.716 258.417 139.716 258.481V260.003C139.716 260.068 139.688 260.096 139.623 260.096H137.629C137.564 260.096 137.536 260.124 137.526 260.188V265.375C137.526 265.857 137.796 266.154 138.389 266.154H139.623C139.688 266.154 139.716 266.191 139.716 266.256V267.907C139.716 267.972 139.688 268 139.623 268H138.139C137.174 268 136.487 267.787 136.088 267.369C135.68 266.952 135.476 266.274 135.476 265.319V260.188C135.476 260.124 135.448 260.096 135.383 260.096H133.769C133.704 260.096 133.676 260.068 133.676 260.003ZM141.506 263.194C141.506 260.198 143.241 258.194 146.209 258.194C149.178 258.194 150.941 260.235 150.941 263.194C150.941 266.163 149.178 268.186 146.209 268.186C143.231 268.186 141.506 266.163 141.506 263.194ZM143.556 263.194C143.556 264.15 143.788 264.911 144.252 265.486C144.706 266.061 145.365 266.349 146.209 266.349C147.081 266.349 147.749 266.061 148.204 265.486C148.659 264.911 148.89 264.15 148.89 263.194C148.89 262.239 148.668 261.478 148.213 260.912C147.759 260.346 147.091 260.059 146.209 260.059C145.365 260.059 144.706 260.346 144.252 260.912C143.788 261.478 143.556 262.239 143.556 263.194ZM152.972 263.194C152.972 260.198 154.707 258.194 157.675 258.194C160.644 258.194 162.407 260.235 162.407 263.194C162.407 266.163 160.644 268.186 157.675 268.186C154.697 268.186 152.972 266.163 152.972 263.194ZM155.022 263.194C155.022 264.15 155.254 264.911 155.718 265.486C156.172 266.061 156.831 266.349 157.675 266.349C158.547 266.349 159.215 266.061 159.67 265.486C160.125 264.911 160.357 264.15 160.357 263.194C160.357 262.239 160.134 261.478 159.679 260.912C159.225 260.346 158.557 260.059 157.675 260.059C156.831 260.059 156.172 260.346 155.718 260.912C155.254 261.478 155.022 262.239 155.022 263.194ZM165.097 267.907V254.715C165.097 254.65 165.134 254.622 165.199 254.622H167.035C167.1 254.622 167.128 254.65 167.128 254.715V267.907C167.128 267.972 167.1 268 167.035 268H165.199C165.134 268 165.106 267.972 165.097 267.907ZM169.734 264.846C169.734 264.781 169.772 264.753 169.837 264.753H171.711C171.785 264.753 171.822 264.781 171.831 264.846C171.831 265.235 172.026 265.579 172.406 265.885C172.787 266.191 173.334 266.349 174.048 266.349C174.93 266.349 176.201 266.163 176.201 265.078C176.201 264.734 176.043 264.493 175.737 264.345C175.421 264.196 175.032 264.094 174.568 264.029C174.095 263.964 173.594 263.909 173.056 263.844C171.98 263.732 170.996 263.389 170.375 262.666C170.068 262.304 169.911 261.784 169.911 261.107C169.911 259.511 171.441 258.194 173.826 258.194C176.21 258.194 177.982 259.307 177.982 261.543C177.982 261.608 177.954 261.636 177.908 261.636H176.024C175.96 261.636 175.932 261.608 175.932 261.543C175.932 261.153 175.765 260.81 175.431 260.504C175.087 260.207 174.559 260.059 173.826 260.059C172.536 260.059 171.942 260.55 171.942 261.107C171.942 261.432 172.1 261.664 172.406 261.793C172.712 261.933 173.102 262.025 173.575 262.09C174.048 262.155 174.549 262.211 175.097 262.276C176.182 262.406 177.166 262.74 177.787 263.482C178.093 263.862 178.251 264.391 178.251 265.078C178.251 267.193 176.525 268.186 174.048 268.186C171.163 268.186 169.734 266.627 169.734 264.846Z" fill="white"/>
<defs>
<clipPath id="clip0_2_83">
<rect width="143" height="166" fill="white" transform="translate(15 339)"/>
</clipPath>
</defs>
</svg>
