<svg width="255" height="526" viewBox="0 0 255 526" fill="none" xmlns="http://www.w3.org/2000/svg">
<rect width="255" height="526" rx="20" fill="#E3087E"/>
<path d="M26 35.16H26.4C27.5734 35.16 28.5467 35.0667 29.32 34.88C30.0934 34.6667 30.72 34.3333 31.2 33.88C31.68 33.4267 32.0134 32.8267 32.2 32.08C32.4134 31.3333 32.52 30.4133 32.52 29.32V28.92H38.96V57H34.4V34.12H34C33.8134 35.1867 33.4934 36.0667 33.04 36.76C32.6134 37.4533 32.08 38 31.44 38.4C30.8 38.8 30.0534 39.08 29.2 39.24C28.3467 39.4 27.4134 39.48 26.4 39.48H26V35.16ZM60.9932 28.44C62.3265 28.44 63.4998 28.6667 64.5132 29.12C65.5532 29.5467 66.4465 30.1333 67.1932 30.88C67.9665 31.6267 68.6198 32.4933 69.1532 33.48C69.6865 34.44 70.1132 35.4533 70.4332 36.52C70.7798 37.56 71.0198 38.6267 71.1532 39.72C71.3132 40.7867 71.3932 41.8 71.3932 42.76C71.3932 44.1733 71.2198 45.72 70.8732 47.4C70.5265 49.0533 69.9532 50.6 69.1532 52.04C68.3532 53.4533 67.2865 54.64 65.9532 55.6C64.6198 56.5333 62.9665 57 60.9932 57C59.0198 57 57.3665 56.5333 56.0332 55.6C54.6998 54.64 53.6332 53.4533 52.8332 52.04C52.0332 50.6 51.4598 49.0533 51.1132 47.4C50.7665 45.72 50.5932 44.1733 50.5932 42.76C50.5932 41.8 50.6598 40.7867 50.7932 39.72C50.9532 38.6267 51.1932 37.56 51.5132 36.52C51.8598 35.4533 52.2998 34.44 52.8332 33.48C53.3665 32.4933 54.0065 31.6267 54.7532 30.88C55.5265 30.1333 56.4332 29.5467 57.4732 29.12C58.5132 28.6667 59.6865 28.44 60.9932 28.44ZM56.5132 50.48L62.9932 33C62.3532 32.7867 61.6865 32.68 60.9932 32.68C59.6332 32.68 58.5532 33.0133 57.7532 33.68C56.9532 34.32 56.3398 35.1333 55.9132 36.12C55.5132 37.1067 55.2465 38.2 55.1132 39.4C55.0065 40.5733 54.9532 41.7067 54.9532 42.8C54.9532 43.44 54.9665 44.1067 54.9932 44.8C55.0465 45.4933 55.1265 46.1867 55.2332 46.88C55.3398 47.5467 55.4865 48.1867 55.6732 48.8C55.8865 49.4133 56.1665 49.9733 56.5132 50.48ZM60.9932 52.72C62.3532 52.72 63.4332 52.4133 64.2332 51.8C65.0332 51.16 65.6465 50.3467 66.0732 49.36C66.4998 48.3733 66.7665 47.2933 66.8732 46.12C67.0065 44.9467 67.0732 43.8267 67.0732 42.76C67.0732 41.5333 66.9798 40.2267 66.7932 38.84C66.6065 37.4533 66.2065 36.24 65.5932 35.2L59.1932 52.48C59.7532 52.64 60.3532 52.72 60.9932 52.72Z" fill="white"/>
<g clip-path="url(#clip0_2_80)">
<path d="M111.6 399.8C112.925 399.8 114 398.725 114 397.4C114 396.075 112.925 395 111.6 395C110.275 395 109.2 396.075 109.2 397.4C109.2 398.725 110.275 399.8 111.6 399.8Z" fill="black" fill-opacity="0.08"/>
<path d="M92.4 399.8C93.7255 399.8 94.8 398.725 94.8 397.4C94.8 396.075 93.7255 395 92.4 395C91.0745 395 90 396.075 90 397.4C90 398.725 91.0745 399.8 92.4 399.8Z" fill="black" fill-opacity="0.08"/>
<path d="M90 447.8C86.031 447.8 82.8 451.031 82.8 455C82.8 458.969 86.031 462.2 90 462.2C93.969 462.2 97.2 458.969 97.2 455C97.2 451.031 93.969 447.8 90 447.8ZM90 457.4C88.677 457.4 87.6 456.323 87.6 455C87.6 453.677 88.677 452.6 90 452.6C91.323 452.6 92.4 453.677 92.4 455C92.4 456.323 91.323 457.4 90 457.4Z" fill="black" fill-opacity="0.08"/>
<path d="M90 467C86.031 467 82.8 470.231 82.8 474.2C82.8 478.169 86.031 481.4 90 481.4C93.969 481.4 97.2 478.169 97.2 474.2C97.2 470.231 93.969 467 90 467ZM90 476.6C88.677 476.6 87.6 475.523 87.6 474.2C87.6 472.877 88.677 471.8 90 471.8C91.323 471.8 92.4 472.877 92.4 474.2C92.4 475.523 91.323 476.6 90 476.6Z" fill="black" fill-opacity="0.08"/>
<path d="M171.231 478.709C169.098 475.76 165.906 474.2 162 474.2C159.492 474.2 157.278 474.848 155.451 476.09C152.664 473.966 149.13 472.622 144.903 472.079C145.098 470.405 145.2 468.71 145.2 467.003C145.2 458.771 142.839 450.734 138.471 443.849L146.418 437.891C146.454 437.912 146.49 437.93 146.529 437.948L156.129 442.751C156.453 442.91 156.816 443.003 157.203 443.003C158.529 443.003 159.603 441.929 159.603 440.603C159.603 439.664 159.063 438.851 158.277 438.458L150.711 434.672L155.856 430.814L164.985 428.531C166.029 428.267 166.803 427.328 166.803 426.203C166.803 424.877 165.729 423.803 164.403 423.803C164.202 423.803 164.007 423.83 163.821 423.878L157.203 425.531V419.006C157.203 417.68 156.129 416.606 154.803 416.606C153.477 416.606 152.403 417.68 152.403 419.006V427.406L137.418 438.644C137.793 437.774 138.003 436.814 138.003 435.806V431.006C138.003 427.037 134.772 423.806 130.803 423.806H128.286C131.475 418.82 133.203 413 133.203 407.006C133.203 401.012 131.478 395.192 128.286 390.206H128.403C132.372 390.206 135.603 386.975 135.603 383.006C135.603 379.037 132.372 375.806 128.403 375.806H126.003V359.006C126.003 352.388 120.621 347.006 114.003 347.006H90.0032C83.3852 347.006 78.0032 352.388 78.0032 359.006V375.806H75.6032C71.6342 375.806 68.4032 379.037 68.4032 383.006C68.4032 386.975 71.6342 390.206 75.6032 390.206H75.7202C72.5312 395.192 70.8032 401.012 70.8032 407.006C70.8032 413 72.5282 418.82 75.7202 423.806H73.2032C69.2342 423.806 66.0032 427.037 66.0032 431.006V435.806C66.0032 436.814 66.2132 437.774 66.5882 438.644L51.6032 427.406V419.006C51.6032 417.68 50.5292 416.606 49.2032 416.606C47.8772 416.606 46.8032 417.68 46.8032 419.006V425.531L40.1852 423.878C39.9992 423.833 39.8042 423.806 39.6032 423.806C38.2772 423.806 37.2032 424.88 37.2032 426.206C37.2032 427.331 37.9772 428.273 39.0212 428.531L48.1502 430.817L53.2952 434.675L45.7292 438.458C44.9432 438.854 44.4032 439.664 44.4032 440.606C44.4032 441.932 45.4772 443.006 46.8032 443.006C47.1902 443.006 47.5532 442.913 47.8772 442.751L57.4772 437.954C57.5132 437.933 57.5522 437.915 57.5882 437.894L65.5652 443.876C61.2902 450.593 58.9232 458.399 58.8092 466.385C58.7822 468.305 58.8812 470.207 59.1002 472.085C54.8762 472.628 51.3422 473.972 48.5552 476.096C46.7252 474.854 44.5142 474.206 42.0062 474.206C38.1032 474.206 34.9112 475.766 32.7752 478.715C30.9632 481.22 30.0062 484.64 30.0062 488.606C30.0062 489.932 31.0802 491.006 32.4062 491.006H171.606C172.932 491.006 174.006 489.932 174.006 488.606C174.006 484.64 173.049 481.217 171.237 478.715L171.231 478.709ZM144.081 476.813C147.351 477.206 150.06 478.151 152.166 479.636C151.083 481.466 150.393 483.692 150.129 486.2H140.406C141.009 485.396 141.519 484.511 141.918 483.551C142.83 481.358 143.55 479.108 144.081 476.813ZM133.2 431V435.8C133.2 437.123 132.123 438.2 130.8 438.2H126V428.6H130.8C132.123 428.6 133.2 429.677 133.2 431ZM111.6 428.6H121.2V455C121.2 456.323 120.123 457.4 118.8 457.4H114C112.677 457.4 111.6 456.323 111.6 455V428.6ZM90.0002 351.8H114C117.969 351.8 121.2 355.031 121.2 359V366.2H82.8002V359C82.8002 355.031 86.0312 351.8 90.0002 351.8ZM82.8002 371H121.2V375.8H82.8002V371ZM73.2002 383C73.2002 381.677 74.2772 380.6 75.6002 380.6H128.4C129.723 380.6 130.8 381.677 130.8 383C130.8 384.323 129.723 385.4 128.4 385.4H75.6002C74.2772 385.4 73.2002 384.323 73.2002 383ZM75.6002 407C75.6002 400.85 77.7422 394.922 81.6422 390.2H122.361C126.261 394.922 128.4 400.844 128.4 407C128.4 413.156 126.258 419.078 122.358 423.8H81.6392C77.7392 419.078 75.6002 413.156 75.6002 407ZM70.8002 431C70.8002 429.677 71.8772 428.6 73.2002 428.6H106.8V438.2H73.2002C71.8772 438.2 70.8002 437.123 70.8002 435.8V431ZM62.1212 483.641C62.5082 484.568 63.0062 485.423 63.5912 486.2H53.8742C53.6072 483.692 52.9202 481.466 51.8372 479.636C53.9432 478.151 56.6522 477.206 59.9222 476.813C60.4622 479.138 61.1942 481.418 62.1242 483.641H62.1212ZM34.9472 486.2C35.7902 479.756 40.0562 479 42.0002 479C43.9442 479 48.2102 479.756 49.0532 486.2H34.9472ZM130.809 486.2H73.1912C70.2782 486.2 67.6712 484.469 66.5522 481.79C64.5212 476.93 63.5312 471.767 63.6062 466.445C63.7262 457.904 66.7532 449.591 72.1442 442.922C72.4892 442.973 72.8432 443 73.2032 443H106.803V455C106.803 458.969 110.034 462.2 114.003 462.2H118.803C122.772 462.2 126.003 458.969 126.003 455V443H130.803C131.181 443 131.55 442.97 131.913 442.913C137.394 449.714 140.403 458.234 140.403 467C140.403 472.097 139.422 477.044 137.487 481.709C136.356 484.436 133.737 486.2 130.815 486.2H130.809ZM154.947 486.2C155.79 479.756 160.056 479 162 479C163.944 479 168.21 479.756 169.053 486.2H154.947Z" fill="black" fill-opacity="0.08"/>
<path d="M159.6 380.6C164.892 380.6 169.2 376.295 169.2 371C169.2 365.705 164.892 361.4 159.6 361.4C154.308 361.4 150 365.705 150 371C150 376.295 154.308 380.6 159.6 380.6ZM159.6 366.2C162.246 366.2 164.4 368.354 164.4 371C164.4 373.646 162.246 375.8 159.6 375.8C156.954 375.8 154.8 373.646 154.8 371C154.8 368.354 156.954 366.2 159.6 366.2Z" fill="black" fill-opacity="0.08"/>
<path d="M147.6 407C151.569 407 154.8 403.769 154.8 399.8C154.8 395.831 151.569 392.6 147.6 392.6C143.631 392.6 140.4 395.831 140.4 399.8C140.4 403.769 143.631 407 147.6 407ZM147.6 397.4C148.923 397.4 150 398.477 150 399.8C150 401.123 148.923 402.2 147.6 402.2C146.277 402.2 145.2 401.123 145.2 399.8C145.2 398.477 146.277 397.4 147.6 397.4Z" fill="black" fill-opacity="0.08"/>
<path d="M51.6 387.8C55.569 387.8 58.8 384.569 58.8 380.6C58.8 376.631 55.569 373.4 51.6 373.4C47.631 373.4 44.4 376.631 44.4 380.6C44.4 384.569 47.631 387.8 51.6 387.8ZM51.6 378.2C52.923 378.2 54 379.277 54 380.6C54 381.923 52.923 383 51.6 383C50.277 383 49.2 381.923 49.2 380.6C49.2 379.277 50.277 378.2 51.6 378.2Z" fill="black" fill-opacity="0.08"/>
<path d="M102 419C101.781 419 101.415 419 85.323 417.278C82.518 416.978 80.4 414.623 80.4 411.8C80.4 408.977 82.515 406.622 85.323 406.322C101.415 404.6 101.781 404.6 102 404.6C105.969 404.6 109.2 407.831 109.2 411.8C109.2 415.769 105.969 419 102 419ZM102.054 409.4C101.259 409.46 95.235 410.087 85.833 411.095C85.473 411.134 85.2 411.437 85.2 411.8C85.2 412.163 85.473 412.466 85.833 412.505C95.235 413.51 101.259 414.14 102.054 414.2C103.353 414.17 104.4 413.105 104.4 411.8C104.4 410.495 103.353 409.43 102.054 409.4Z" fill="black" fill-opacity="0.08"/>
</g>
<rect x="109.5" y="476.5" width="129" height="29" rx="11.5" fill="#E3087E"/>
<rect x="109.5" y="476.5" width="129" height="29" rx="11.5" stroke="white"/>
<path d="M119.786 491.071C119.786 488.118 120.989 486.006 123.785 486.006C124.517 486.006 125.118 486.136 125.604 486.389C126.082 486.642 126.465 486.942 126.759 487.291C127.046 487.64 127.251 487.988 127.367 488.337C127.483 488.686 127.538 488.959 127.538 489.157C127.538 489.205 127.518 489.226 127.47 489.226H126.239C126.191 489.226 126.157 489.205 126.137 489.157C126.027 488.856 125.877 488.357 125.521 487.947C125.166 487.537 124.653 487.195 123.785 487.195C122.944 487.195 122.302 487.537 121.857 488.221C121.406 488.911 121.181 489.861 121.181 491.071C121.181 492.281 121.406 493.231 121.857 493.915C122.302 494.605 122.944 494.947 123.785 494.947C125.46 494.947 125.918 493.737 126.137 492.992C126.144 492.944 126.178 492.924 126.239 492.917H127.47C127.518 492.917 127.538 492.944 127.538 492.992C127.538 493.225 127.477 493.519 127.347 493.874C127.217 494.229 127.005 494.571 126.711 494.906C126.417 495.241 126.027 495.535 125.556 495.774C125.077 496.014 124.489 496.137 123.785 496.137C120.989 496.137 119.786 494.059 119.786 491.071ZM130.265 492.657V486.211C130.265 486.163 130.286 486.143 130.333 486.143H131.53C131.578 486.143 131.598 486.163 131.598 486.211V492.657C131.598 493.854 132.582 494.947 133.779 494.947C134.975 494.947 135.939 493.847 135.939 492.657V486.211C135.939 486.163 135.959 486.143 136.007 486.143H137.197C137.245 486.143 137.265 486.163 137.265 486.211V492.657C137.265 494.599 135.727 496.137 133.779 496.137C131.824 496.137 130.265 494.599 130.265 492.657ZM140.525 495.932V486.211C140.525 486.163 140.546 486.143 140.594 486.143H144.545C146.069 486.143 147.402 487.469 147.402 489.137C147.402 489.752 147.245 490.292 146.931 490.764C146.616 491.235 146.22 491.591 145.734 491.816C145.7 491.837 145.686 491.864 145.707 491.912L147.498 495.932C147.518 495.979 147.491 496 147.43 496H146.267C146.233 496 146.158 496.007 146.124 495.932L144.442 492.151C144.422 492.104 144.394 492.083 144.347 492.083H141.927C141.879 492.083 141.858 492.104 141.858 492.151V495.932C141.858 495.979 141.831 496 141.783 496H140.594C140.546 496 140.525 495.979 140.525 495.932ZM141.858 487.407V490.818C141.858 490.866 141.879 490.887 141.927 490.887H144.429C145.29 490.853 146.069 490.101 146.069 489.137C146.069 488.173 145.249 487.332 144.374 487.332H141.927C141.879 487.332 141.858 487.359 141.858 487.407ZM150.772 495.932V494.879C150.772 494.831 150.792 494.811 150.84 494.811H153.11C153.158 494.811 153.178 494.79 153.178 494.742V487.407C153.178 487.359 153.158 487.339 153.11 487.332H150.84C150.792 487.332 150.772 487.312 150.772 487.264V486.211C150.772 486.163 150.792 486.143 150.84 486.143H156.958C157.006 486.143 157.027 486.163 157.027 486.211V487.264C157.027 487.312 157.006 487.332 156.958 487.332H154.579C154.532 487.332 154.511 487.359 154.511 487.407V494.742C154.511 494.79 154.532 494.811 154.579 494.811H156.958C157.006 494.811 157.027 494.831 157.027 494.879V495.932C157.027 495.979 157.006 496 156.958 496H150.84C150.792 496 150.772 495.979 150.772 495.932ZM159.884 491.071C159.884 488.118 161.08 486.006 163.883 486.006C166.685 486.006 167.875 488.118 167.875 491.071C167.875 494.059 166.685 496.137 163.883 496.137C161.073 496.137 159.884 494.059 159.884 491.071ZM161.278 491.071C161.278 493.505 162.071 494.947 163.883 494.947C164.792 494.947 165.448 494.605 165.865 493.915C166.282 493.231 166.487 492.281 166.487 491.071C166.487 488.645 165.824 487.195 163.883 487.195C162.071 487.195 161.278 488.645 161.278 491.071ZM170.164 493.3C170.164 493.252 170.192 493.231 170.239 493.225H171.484C171.538 493.225 171.566 493.252 171.566 493.313C171.566 494.024 172.324 494.947 173.904 494.947C175.401 494.947 176.241 494.154 176.241 493.225C176.241 491.98 175.127 491.7 173.904 491.591C172.345 491.434 170.328 490.982 170.335 488.815C170.335 487.018 172.044 486.006 173.753 486.006C175.51 486.006 177.192 486.922 177.267 488.843C177.267 488.891 177.246 488.911 177.198 488.918H175.934C175.886 488.911 175.865 488.891 175.865 488.843C175.865 487.913 174.997 487.195 173.753 487.195C172.646 487.195 171.737 487.872 171.737 488.815C171.737 489.964 172.933 490.148 173.904 490.258C175.736 490.477 177.643 490.914 177.643 493.225C177.643 494.64 176.624 496.137 173.904 496.137C171.477 496.137 170.164 494.817 170.164 493.3ZM180.876 495.932V494.879C180.876 494.831 180.896 494.811 180.944 494.811H183.214C183.261 494.811 183.282 494.79 183.282 494.742V487.407C183.282 487.359 183.261 487.339 183.214 487.332H180.944C180.896 487.332 180.876 487.312 180.876 487.264V486.211C180.876 486.163 180.896 486.143 180.944 486.143H187.062C187.11 486.143 187.131 486.163 187.131 486.211V487.264C187.131 487.312 187.11 487.332 187.062 487.332H184.683C184.635 487.332 184.615 487.359 184.615 487.407V494.742C184.615 494.79 184.635 494.811 184.683 494.811H187.062C187.11 494.811 187.131 494.831 187.131 494.879V495.932C187.131 495.979 187.11 496 187.062 496H180.944C180.896 496 180.876 495.979 180.876 495.932ZM190.473 487.264V486.211C190.473 486.163 190.493 486.143 190.541 486.143H197.418C197.466 486.143 197.486 486.163 197.486 486.211V487.264C197.486 487.312 197.466 487.332 197.418 487.332H194.718C194.67 487.332 194.649 487.359 194.649 487.407V495.932C194.649 495.979 194.622 496 194.574 496H193.385C193.337 496 193.316 495.979 193.316 495.932V487.387C193.296 487.353 193.275 487.332 193.248 487.332H190.541C190.493 487.332 190.473 487.312 190.473 487.264ZM200.945 495.932V494.879C200.945 494.831 200.965 494.811 201.013 494.811H203.283C203.331 494.811 203.351 494.79 203.351 494.742V487.407C203.351 487.359 203.331 487.339 203.283 487.332H201.013C200.965 487.332 200.945 487.312 200.945 487.264V486.211C200.945 486.163 200.965 486.143 201.013 486.143H207.131C207.179 486.143 207.2 486.163 207.2 486.211V487.264C207.2 487.312 207.179 487.332 207.131 487.332H204.752C204.705 487.332 204.684 487.359 204.684 487.407V494.742C204.684 494.79 204.705 494.811 204.752 494.811H207.131C207.179 494.811 207.2 494.831 207.2 494.879V495.932C207.2 495.979 207.179 496 207.131 496H201.013C200.965 496 200.945 495.979 200.945 495.932ZM210.891 495.932V486.211C210.891 486.163 210.918 486.143 210.966 486.143H217.699C217.747 486.143 217.768 486.163 217.768 486.211V487.264C217.768 487.312 217.747 487.332 217.699 487.332H212.292C212.244 487.332 212.224 487.359 212.224 487.407V490.258C212.224 490.306 212.244 490.326 212.292 490.333H217.125C217.173 490.333 217.193 490.354 217.193 490.401V491.447C217.193 491.495 217.173 491.516 217.125 491.522H212.292C212.244 491.522 212.224 491.543 212.224 491.591V494.742C212.224 494.79 212.244 494.811 212.292 494.811H217.699C217.747 494.811 217.768 494.831 217.768 494.879V495.932C217.768 495.979 217.747 496 217.699 496H210.966C210.918 496 210.897 495.979 210.891 495.932ZM220.337 493.3C220.337 493.252 220.365 493.231 220.412 493.225H221.657C221.711 493.225 221.739 493.252 221.739 493.313C221.739 494.024 222.497 494.947 224.077 494.947C225.574 494.947 226.414 494.154 226.414 493.225C226.414 491.98 225.3 491.7 224.077 491.591C222.518 491.434 220.501 490.982 220.508 488.815C220.508 487.018 222.217 486.006 223.926 486.006C225.683 486.006 227.365 486.922 227.44 488.843C227.44 488.891 227.419 488.911 227.371 488.918H226.107C226.059 488.911 226.038 488.891 226.038 488.843C226.038 487.913 225.17 487.195 223.926 487.195C222.819 487.195 221.91 487.872 221.91 488.815C221.91 489.964 223.106 490.148 224.077 490.258C225.909 490.477 227.816 490.914 227.816 493.225C227.816 494.64 226.797 496.137 224.077 496.137C221.65 496.137 220.337 494.817 220.337 493.3Z" fill="white"/>
<path d="M104.761 267.907L102.135 254.733C102.107 254.659 102.145 254.622 102.228 254.622H104.269C104.306 254.622 104.334 254.65 104.362 254.715L106.394 265.894C106.421 266.015 106.551 265.996 106.579 265.894L108.861 254.715C108.889 254.65 108.926 254.622 108.973 254.622H112.377C112.424 254.622 112.461 254.65 112.489 254.715L114.79 265.894C114.817 266.015 114.957 266.015 114.984 265.894L116.998 254.715C117.025 254.65 117.053 254.622 117.09 254.622H119.122C119.206 254.622 119.243 254.659 119.215 254.733L116.599 267.907C116.571 267.972 116.534 268 116.478 268H113.231C113.166 268 113.129 267.972 113.12 267.907L110.782 256.756C110.754 256.635 110.605 256.617 110.578 256.756L108.24 267.907C108.212 267.972 108.166 268 108.101 268H104.891C104.816 268 104.77 267.972 104.761 267.907ZM120.392 263.194C120.392 260.198 122.155 258.194 125.022 258.194C127.888 258.194 129.66 260.235 129.66 263.194C129.66 263.482 129.633 263.686 129.586 263.862C129.558 263.927 129.531 263.955 129.493 263.955H122.628C122.563 263.955 122.535 263.983 122.535 264.048C122.535 265.263 123.519 266.349 125.022 266.349C126.107 266.349 126.794 265.95 127.156 265.245C127.183 265.18 127.22 265.152 127.285 265.152H129.243C129.308 265.152 129.336 265.18 129.336 265.226V265.245C129.104 266.182 128.603 266.905 127.814 267.416C127.026 267.926 126.098 268.186 125.022 268.186C122.192 268.186 120.392 266.163 120.392 263.194ZM122.535 262.202C122.535 262.267 122.563 262.294 122.628 262.304H127.36C127.425 262.304 127.452 262.267 127.452 262.202C127.452 261.292 126.738 260.059 125.022 260.059C123.324 260.059 122.535 261.404 122.535 262.202ZM132.22 257.173V255.04C132.22 254.975 132.248 254.947 132.313 254.947H134.41C134.475 254.947 134.502 254.975 134.502 255.04V257.173C134.502 257.238 134.475 257.266 134.41 257.266H132.313C132.248 257.266 132.22 257.238 132.22 257.173ZM132.313 267.907V258.481C132.313 258.417 132.35 258.389 132.415 258.389H134.252C134.317 258.389 134.345 258.417 134.345 258.481V267.907C134.345 267.972 134.317 268 134.252 268H132.415C132.35 268 132.322 267.972 132.313 267.907ZM137.693 267.907V258.481C137.693 258.417 137.721 258.389 137.767 258.389H139.409C139.474 258.389 139.511 258.426 139.539 258.5L139.725 259.205C139.771 259.307 139.873 259.289 139.92 259.242C140.523 258.639 141.218 258.194 142.118 258.194H143.13C143.195 258.194 143.222 258.222 143.222 258.287V260.003C143.222 260.068 143.195 260.096 143.13 260.096H142.026C140.495 260.096 139.725 261.292 139.725 262.601V267.907C139.725 267.972 139.697 268 139.632 268H137.767C137.721 268 137.693 267.972 137.693 267.907ZM144.4 263.194C144.4 260.235 146.2 258.194 148.844 258.194C150.43 258.194 151.367 259.112 151.46 259.205C151.506 259.251 151.618 259.196 151.618 259.149V254.715C151.618 254.65 151.645 254.622 151.71 254.622H153.557C153.622 254.622 153.649 254.65 153.649 254.715V267.907C153.649 267.972 153.622 268 153.557 268H151.942C151.868 268 151.822 267.972 151.803 267.907L151.618 267.221C151.571 267.109 151.506 267.1 151.404 267.202C150.922 267.685 149.79 268.186 148.844 268.186C146.098 268.186 144.4 266.163 144.4 263.194ZM146.45 263.194C146.45 264.122 146.682 264.883 147.137 265.467C147.591 266.052 148.25 266.349 149.131 266.349C149.938 266.349 150.56 266.052 150.987 265.458C151.404 264.874 151.618 264.113 151.618 263.194C151.618 261.237 150.755 260.059 149.131 260.059C148.259 260.059 147.591 260.346 147.137 260.931C146.682 261.515 146.45 262.267 146.45 263.194ZM104.733 289.907V276.715C104.733 276.65 104.77 276.622 104.835 276.622H113.704C113.769 276.622 113.797 276.65 113.797 276.715V278.394C113.797 278.459 113.769 278.487 113.704 278.487H106.867C106.802 278.487 106.774 278.515 106.765 278.561V282.151C106.765 282.216 106.802 282.244 106.867 282.244H112.832C112.897 282.244 112.925 282.281 112.925 282.346V283.998C112.925 284.062 112.897 284.09 112.832 284.09H106.867C106.802 284.09 106.774 284.118 106.765 284.183V289.907C106.765 289.972 106.737 290 106.672 290H104.835C104.77 290 104.742 289.972 104.733 289.907ZM114.64 287.152C114.64 285.482 116.023 284.165 118.806 284.165H120.763C121.172 284.165 121.366 283.858 121.366 283.636C121.366 283.051 121.199 282.059 119.149 282.059C118.379 282.059 117.832 282.207 117.507 282.495C117.182 282.782 117.006 283.135 116.997 283.543C116.997 283.608 116.969 283.636 116.904 283.636H115.058C114.993 283.636 114.965 283.608 114.965 283.543C114.965 281.307 116.941 280.194 119.149 280.194C120.467 280.194 121.506 280.481 122.266 281.066C123.027 281.65 123.407 282.541 123.407 283.729V287.625C123.407 287.987 123.658 288.256 124.066 288.256H124.484C124.549 288.256 124.576 288.284 124.576 288.349V289.907C124.576 289.972 124.549 290 124.484 290H123.723C122.656 290 122.118 289.694 121.784 289.109C121.738 289.035 121.682 289.026 121.617 289.091C121.376 289.341 120.986 289.592 120.448 289.824C119.91 290.065 119.233 290.186 118.426 290.186C117.145 290.186 116.199 289.898 115.577 289.332C114.956 288.766 114.64 288.033 114.64 287.152ZM116.681 287.152C116.681 287.681 117.09 288.349 118.426 288.349C120.559 288.349 121.366 287.115 121.366 286.048V285.918C121.366 285.853 121.339 285.825 121.274 285.816H118.862C116.988 285.816 116.681 286.567 116.681 287.152ZM126.116 285.194C126.116 282.198 127.804 280.194 130.782 280.194C133.213 280.194 134.901 281.548 135.272 283.543C135.3 283.608 135.263 283.636 135.17 283.636H133.259C133.194 283.636 133.148 283.608 133.12 283.543C132.758 282.578 132.007 282.021 130.782 282.021C129.094 282.021 128.166 283.367 128.166 285.194C128.166 287.041 129.094 288.386 130.782 288.386C132.072 288.386 132.795 287.838 133.139 286.846C133.167 286.781 133.213 286.753 133.278 286.753H135.198C135.245 286.753 135.319 286.771 135.291 286.846C134.781 289.072 133.222 290.186 130.782 290.186C127.804 290.186 126.116 288.163 126.116 285.194ZM136.617 282.003V280.481C136.617 280.417 136.645 280.389 136.71 280.389H138.324C138.389 280.389 138.417 280.352 138.417 280.287V277.726C138.417 277.661 138.445 277.633 138.51 277.633H140.374C140.439 277.633 140.467 277.661 140.467 277.726V280.287C140.467 280.352 140.504 280.379 140.569 280.389H142.564C142.629 280.389 142.656 280.417 142.656 280.481V282.003C142.656 282.068 142.629 282.096 142.564 282.096H140.569C140.504 282.096 140.476 282.124 140.467 282.188V287.375C140.467 287.857 140.736 288.154 141.33 288.154H142.564C142.629 288.154 142.656 288.191 142.656 288.256V289.907C142.656 289.972 142.629 290 142.564 290H141.079C140.114 290 139.428 289.787 139.029 289.369C138.621 288.952 138.417 288.274 138.417 287.319V282.188C138.417 282.124 138.389 282.096 138.324 282.096H136.71C136.645 282.096 136.617 282.068 136.617 282.003ZM144.418 286.846C144.418 286.781 144.456 286.753 144.52 286.753H146.395C146.469 286.753 146.506 286.781 146.515 286.846C146.515 287.235 146.71 287.579 147.09 287.885C147.471 288.191 148.018 288.349 148.732 288.349C149.614 288.349 150.885 288.163 150.885 287.078C150.885 286.734 150.727 286.493 150.421 286.345C150.105 286.196 149.716 286.094 149.252 286.029C148.779 285.964 148.278 285.909 147.74 285.844C146.664 285.732 145.68 285.389 145.059 284.666C144.752 284.304 144.595 283.784 144.595 283.107C144.595 281.511 146.125 280.194 148.51 280.194C150.894 280.194 152.666 281.307 152.666 283.543C152.666 283.608 152.638 283.636 152.592 283.636H150.708C150.644 283.636 150.616 283.608 150.616 283.543C150.616 283.153 150.449 282.81 150.115 282.504C149.771 282.207 149.243 282.059 148.51 282.059C147.22 282.059 146.626 282.55 146.626 283.107C146.626 283.432 146.784 283.664 147.09 283.793C147.396 283.933 147.786 284.025 148.259 284.09C148.732 284.155 149.233 284.211 149.781 284.276C150.866 284.406 151.85 284.74 152.471 285.482C152.777 285.862 152.935 286.391 152.935 287.078C152.935 289.193 151.209 290.186 148.732 290.186C145.847 290.186 144.418 288.627 144.418 286.846Z" fill="white"/>
<path d="M215 23C214.448 23 214 23.4477 214 24C214 24.5523 214.448 25 215 25L215 23ZM237.707 24.7071C238.098 24.3166 238.098 23.6834 237.707 23.2929L231.343 16.9289C230.953 16.5384 230.319 16.5384 229.929 16.9289C229.538 17.3195 229.538 17.9526 229.929 18.3431L235.586 24L229.929 29.6569C229.538 30.0474 229.538 30.6805 229.929 31.0711C230.319 31.4616 230.953 31.4616 231.343 31.0711L237.707 24.7071ZM215 25L237 25L237 23L215 23L215 25Z" fill="white"/>
<defs>
<clipPath id="clip0_2_80">
<rect width="144" height="144" fill="white" transform="translate(30 347)"/>
</clipPath>
</defs>
</svg>
