<svg width="255" height="252" viewBox="0 0 255 252" fill="none" xmlns="http://www.w3.org/2000/svg">
<rect width="255" height="252" rx="20" fill="#EE425D"/>
<path d="M26 34.16H26.4C27.5733 34.16 28.5467 34.0667 29.32 33.88C30.0933 33.6667 30.72 33.3333 31.2 32.88C31.68 32.4267 32.0133 31.8267 32.2 31.08C32.4133 30.3333 32.52 29.4133 32.52 28.32V27.92H38.96V56H34.4V33.12H34C33.8133 34.1867 33.4933 35.0667 33.04 35.76C32.6133 36.4533 32.08 37 31.44 37.4C30.8 37.8 30.0533 38.08 29.2 38.24C28.3467 38.4 27.4133 38.48 26.4 38.48H26V34.16ZM54.1931 45.16L54.3131 45.96C54.4465 46.8667 54.7398 47.7067 55.1931 48.48C55.6731 49.2267 56.2598 49.88 56.9531 50.44C57.6731 50.9733 58.4731 51.3867 59.3531 51.68C60.2598 51.9733 61.1931 52.12 62.1531 52.12C63.9931 52.12 65.4731 51.6533 66.5931 50.72C67.7131 49.7867 68.2731 48.44 68.2731 46.68C68.2731 45.08 67.7265 43.8267 66.6331 42.92C65.5398 41.9867 64.1398 41.52 62.4331 41.52C61.5531 41.52 60.7931 41.6533 60.1531 41.92C59.5398 42.1867 58.9531 42.64 58.3931 43.28L58.2731 43.4H53.2331V27.92H71.3131V31.64H57.7931V40.68H58.1931C58.7531 39.8533 59.5265 39.2267 60.5131 38.8C61.4998 38.3733 62.5398 38.16 63.6331 38.16C65.0198 38.16 66.2598 38.4 67.3531 38.88C68.4465 39.36 69.3665 40.0133 70.1131 40.84C70.8598 41.6667 71.4198 42.6267 71.7931 43.72C72.1931 44.8133 72.3931 45.9733 72.3931 47.2C72.3931 48.6133 72.1131 49.8933 71.5531 51.04C71.0198 52.16 70.2865 53.12 69.3531 53.92C68.4198 54.72 67.3131 55.3333 66.0331 55.76C64.7798 56.1867 63.4331 56.4 61.9931 56.4C60.7398 56.4 59.4998 56.2133 58.2731 55.84C57.0731 55.4667 55.9798 54.9467 54.9931 54.28C54.0065 53.5867 53.1531 52.76 52.4331 51.8C51.7398 50.8133 51.2598 49.72 50.9931 48.52L50.9531 48.32L54.1931 45.16Z" fill="white"/>
<g clip-path="url(#clip0_2_85)">
<path d="M207.22 139.317L201.39 133.519C204.19 129.733 209.113 120.924 206.033 108.668C205.793 107.716 205.05 106.977 204.093 106.738C191.77 103.675 182.91 108.572 179.107 111.357L173.277 105.558C172.237 104.524 170.547 104.524 169.507 105.558C162.46 112.567 160.74 120.815 160.58 126.686L160.08 126.189C159.58 125.692 158.9 125.413 158.193 125.413C157.487 125.413 156.807 125.692 156.307 126.189C150.693 131.768 149.683 139.857 149.657 144.777C149.547 144.761 149.44 144.751 149.33 144.734C149.33 144.678 149.333 144.621 149.333 144.562C149.333 138.362 146.647 132.776 142.367 128.891C145.533 125.284 149.333 119.542 149.333 112.736C149.333 111.27 148.14 110.083 146.667 110.083H145.96C150.02 105.82 154.667 98.7753 154.667 88.8661C154.667 87.4008 153.473 86.2139 152 86.2139H143.757C143.047 81.566 140.263 71.8756 129.37 65.3745C128.527 64.8705 127.47 64.8705 126.627 65.3745C115.733 71.8756 112.953 81.566 112.24 86.2139H103.997C102.523 86.2139 101.33 87.4008 101.33 88.8661C101.33 98.7753 105.977 105.82 110.037 110.083H109.33C107.857 110.083 106.663 111.27 106.663 112.736C106.663 119.542 110.46 125.284 113.63 128.891C109.353 132.773 106.663 138.359 106.663 144.562C106.663 144.618 106.667 144.674 106.667 144.734C106.557 144.747 106.447 144.761 106.34 144.777C106.31 139.857 105.3 131.768 99.69 126.189C99.19 125.692 98.51 125.413 97.8033 125.413C97.0967 125.413 96.4167 125.692 95.9167 126.189L95.4167 126.686C95.2567 120.818 93.5333 112.567 86.49 105.558C85.45 104.524 83.76 104.524 82.72 105.558L76.8933 111.357C73.0867 108.572 64.23 103.672 51.9067 106.738C50.95 106.977 50.2067 107.716 49.9667 108.668C46.8867 120.924 51.81 129.736 54.61 133.519L48.78 139.317C47.74 140.351 47.74 142.032 48.78 143.067C55.8267 150.075 64.12 151.786 70.0233 151.945L69.5233 152.442C69.0233 152.939 68.7433 153.616 68.7433 154.318C68.7433 155.021 69.0233 155.698 69.5233 156.195C75.1367 161.778 83.2667 162.782 88.2133 162.809C88.0767 163.78 88 164.775 88 165.782C88 177.482 97.57 187 109.333 187C117.357 187 124.36 182.567 128 176.04C131.64 182.567 138.643 187 146.667 187C158.43 187 168 177.482 168 165.782C168 164.771 167.923 163.78 167.787 162.809C172.733 162.779 180.867 161.778 186.477 156.195C186.977 155.698 187.257 155.021 187.257 154.318C187.257 153.616 186.977 152.939 186.477 152.442L185.977 151.945C191.877 151.786 200.173 150.072 207.22 143.067C208.26 142.032 208.26 140.351 207.22 139.317ZM112.263 115.391H117.333C118.533 115.391 119.583 114.595 119.903 113.448C120.223 112.298 119.733 111.078 118.707 110.465C118.593 110.398 108.147 104.017 106.81 91.5216H114.67C116.133 91.5216 117.323 90.3347 117.337 88.8793C117.34 88.4152 117.557 77.8695 128.003 70.7982C138.45 77.8695 138.667 88.4152 138.67 88.8694C138.67 90.3347 139.863 91.5216 141.337 91.5216H149.197C147.89 103.917 137.75 110.19 137.297 110.465C136.27 111.078 135.78 112.298 136.1 113.448C136.42 114.595 137.47 115.391 138.67 115.391H143.74C142.897 119.691 140.193 123.397 137.983 125.821C135.75 124.641 133.283 123.845 130.67 123.52V88.8694C130.67 87.4041 129.477 86.2172 128.003 86.2172C126.53 86.2172 125.337 87.4041 125.337 88.8694V123.52C122.723 123.845 120.257 124.641 118.023 125.821C115.813 123.397 113.11 119.691 112.267 115.391H112.263ZM128 128.652C136.823 128.652 144 135.79 144 144.565C144 153.34 136.823 160.478 128 160.478C119.177 160.478 112 153.34 112 144.565C112 135.79 119.177 128.652 128 128.652ZM84.9033 157.309C82.12 157 78.4433 156.188 75.3667 154.133L78.95 150.569C79.7967 149.727 79.97 148.431 79.3867 147.393C78.8 146.355 77.5867 145.835 76.4267 146.117C75.9033 146.243 64.2733 148.941 54.5367 141.094L60.0967 135.564C61.13 134.533 61.13 132.859 60.1033 131.821C59.7767 131.49 52.4333 123.881 54.79 111.532C67.2033 109.188 74.8567 116.492 75.18 116.81C76.22 117.844 77.91 117.844 78.95 116.81L84.51 111.28C92.4 120.964 89.69 132.531 89.5633 133.045C89.2733 134.202 89.7933 135.408 90.8367 135.995C91.88 136.582 93.19 136.406 94.0367 135.561L97.6233 131.994C100.853 136.754 101.1 143.053 100.98 146.256C99.2833 146.975 97.7033 147.913 96.2633 149.027L68.5533 121.468C68.07 120.987 67.4033 120.692 66.6667 120.692C65.1933 120.692 64 121.879 64 123.344C64 124.077 64.3 124.74 64.78 125.221L92.49 152.78C91.37 154.212 90.4267 155.787 89.7033 157.475C88.4767 157.521 86.7967 157.514 84.9033 157.305V157.309ZM109.333 181.695C100.51 181.695 93.3333 174.558 93.3333 165.782C93.3333 157.667 99.4733 150.957 107.377 149.992C109.573 158.24 116.647 164.526 125.33 165.61C125.33 165.666 125.33 165.726 125.33 165.782C125.33 174.558 118.153 181.695 109.33 181.695H109.333ZM146.667 181.695C137.843 181.695 130.667 174.558 130.667 165.782C130.667 165.726 130.667 165.666 130.667 165.61C139.35 164.526 146.423 158.24 148.62 149.992C156.523 150.957 162.663 157.667 162.663 165.782C162.663 174.558 155.487 181.695 146.663 181.695H146.667ZM179.58 146.12C178.417 145.828 177.203 146.349 176.613 147.386C176.023 148.424 176.2 149.727 177.05 150.569L180.637 154.136C175.85 157.349 169.513 157.594 166.297 157.475C165.573 155.787 164.63 154.216 163.51 152.783L191.22 125.224C191.703 124.743 192 124.08 192 123.348C192 121.882 190.807 120.695 189.333 120.695C188.597 120.695 187.93 120.994 187.447 121.471L159.737 149.031C158.297 147.917 156.713 146.979 155.017 146.259C154.97 145.039 154.977 143.368 155.187 141.485C155.497 138.717 156.313 135.06 158.38 132L161.963 135.564C162.81 136.406 164.113 136.579 165.157 135.999C166.2 135.415 166.723 134.212 166.44 133.055C166.313 132.534 163.603 120.967 171.49 111.284L177.05 116.813C178.087 117.841 179.77 117.841 180.813 116.82C181.147 116.495 188.793 109.188 201.213 111.536C203.57 123.881 196.227 131.493 195.907 131.815C194.867 132.849 194.867 134.53 195.907 135.564L201.467 141.094C191.73 148.941 180.1 146.246 179.583 146.12H179.58Z" fill="black" fill-opacity="0.08"/>
</g>
<rect x="170.5" y="208.5" width="69" height="29" rx="11.5" fill="#EE425D"/>
<rect x="170.5" y="208.5" width="69" height="29" rx="11.5" stroke="white"/>
<path d="M180.786 223.071C180.786 220.118 181.989 218.006 184.785 218.006C185.517 218.006 186.118 218.136 186.604 218.389C187.082 218.642 187.465 218.942 187.759 219.291C188.046 219.64 188.251 219.988 188.367 220.337C188.483 220.686 188.538 220.959 188.538 221.157C188.538 221.205 188.518 221.226 188.47 221.226H187.239C187.191 221.226 187.157 221.205 187.137 221.157C187.027 220.856 186.877 220.357 186.521 219.947C186.166 219.537 185.653 219.195 184.785 219.195C183.944 219.195 183.302 219.537 182.857 220.221C182.406 220.911 182.181 221.861 182.181 223.071C182.181 224.281 182.406 225.231 182.857 225.915C183.302 226.605 183.944 226.947 184.785 226.947C186.46 226.947 186.918 225.737 187.137 224.992C187.144 224.944 187.178 224.924 187.239 224.917H188.47C188.518 224.917 188.538 224.944 188.538 224.992C188.538 225.225 188.477 225.519 188.347 225.874C188.217 226.229 188.005 226.571 187.711 226.906C187.417 227.241 187.027 227.535 186.556 227.774C186.077 228.014 185.489 228.137 184.785 228.137C181.989 228.137 180.786 226.059 180.786 223.071ZM190.78 223.071C190.78 220.118 191.976 218.006 194.779 218.006C197.581 218.006 198.771 220.118 198.771 223.071C198.771 226.059 197.581 228.137 194.779 228.137C191.969 228.137 190.78 226.059 190.78 223.071ZM192.174 223.071C192.174 225.505 192.967 226.947 194.779 226.947C195.688 226.947 196.344 226.605 196.761 225.915C197.178 225.231 197.383 224.281 197.383 223.071C197.383 220.645 196.72 219.195 194.779 219.195C192.967 219.195 192.174 220.645 192.174 223.071ZM202.058 227.932V218.211C202.058 218.163 202.079 218.143 202.127 218.143H203.316C203.364 218.143 203.385 218.163 203.385 218.211V226.742C203.385 226.79 203.412 226.811 203.46 226.811H208.354C208.402 226.811 208.423 226.831 208.43 226.879V227.932C208.43 227.979 208.402 228 208.354 228H202.127C202.079 228 202.058 227.979 202.058 227.932ZM210.849 223.071C210.849 220.118 212.045 218.006 214.848 218.006C217.651 218.006 218.84 220.118 218.84 223.071C218.84 226.059 217.651 228.137 214.848 228.137C212.038 228.137 210.849 226.059 210.849 223.071ZM212.243 223.071C212.243 225.505 213.036 226.947 214.848 226.947C215.757 226.947 216.413 226.605 216.83 225.915C217.247 225.231 217.452 224.281 217.452 223.071C217.452 220.645 216.789 219.195 214.848 219.195C213.036 219.195 212.243 220.645 212.243 223.071ZM221.594 227.932V218.211C221.594 218.163 221.615 218.143 221.663 218.143H225.614C227.138 218.143 228.471 219.469 228.471 221.137C228.471 221.752 228.314 222.292 228 222.764C227.685 223.235 227.289 223.591 226.803 223.816C226.769 223.837 226.756 223.864 226.776 223.912L228.567 227.932C228.588 227.979 228.56 228 228.499 228H227.337C227.303 228 227.227 228.007 227.193 227.932L225.511 224.151C225.491 224.104 225.464 224.083 225.416 224.083H222.996C222.948 224.083 222.928 224.104 222.928 224.151V227.932C222.928 227.979 222.9 228 222.852 228H221.663C221.615 228 221.594 227.979 221.594 227.932ZM222.928 219.407V222.818C222.928 222.866 222.948 222.887 222.996 222.887H225.498C226.359 222.853 227.138 222.101 227.138 221.137C227.138 220.173 226.318 219.332 225.443 219.332H222.996C222.948 219.332 222.928 219.359 222.928 219.407Z" fill="white"/>
<path d="M97.7113 133.907V120.715C97.7113 120.65 97.7484 120.622 97.8134 120.622H102.693C106.692 120.622 108.659 123.442 108.659 127.441C108.659 131.477 106.692 134 102.693 134H97.8134C97.7484 134 97.7206 133.972 97.7113 133.907ZM99.7431 122.58V132.061C99.7431 132.126 99.7802 132.154 99.8451 132.154H102.693C105.133 132.154 106.534 130.512 106.534 127.441C106.534 124.426 105.115 122.487 102.693 122.487H99.8451C99.7802 122.487 99.7523 122.515 99.7431 122.58ZM110.838 129.194C110.838 126.198 112.573 124.194 115.542 124.194C118.51 124.194 120.273 126.235 120.273 129.194C120.273 132.163 118.51 134.186 115.542 134.186C112.564 134.186 110.838 132.163 110.838 129.194ZM112.888 129.194C112.888 130.15 113.12 130.911 113.584 131.486C114.039 132.061 114.697 132.349 115.542 132.349C116.414 132.349 117.082 132.061 117.536 131.486C117.991 130.911 118.223 130.15 118.223 129.194C118.223 128.239 118 127.478 117.546 126.912C117.091 126.346 116.423 126.059 115.542 126.059C114.697 126.059 114.039 126.346 113.584 126.912C113.12 127.478 112.888 128.239 112.888 129.194ZM122.963 137.665V124.481C122.963 124.417 123 124.389 123.065 124.389H124.679C124.753 124.389 124.8 124.417 124.809 124.481L124.995 125.168C125.041 125.27 125.134 125.261 125.208 125.187C125.69 124.704 126.831 124.194 127.768 124.194C130.505 124.194 132.222 126.235 132.222 129.194C132.222 132.163 130.403 134.186 127.768 134.186C126.163 134.186 125.264 133.295 125.152 133.184C125.106 133.137 124.995 133.193 124.995 133.239V137.665C124.995 137.729 124.967 137.757 124.902 137.767H123.065C123 137.767 122.972 137.729 122.963 137.665ZM124.995 129.194C124.995 131.152 125.867 132.33 127.49 132.33C128.362 132.33 129.03 132.042 129.485 131.458C129.939 130.874 130.162 130.122 130.162 129.194C130.162 128.267 129.939 127.506 129.485 126.921C129.03 126.337 128.362 126.04 127.49 126.04C126.683 126.04 126.061 126.337 125.635 126.921C125.208 127.506 124.995 128.267 124.995 129.194ZM134.234 129.194C134.234 126.198 135.997 124.194 138.863 124.194C141.73 124.194 143.502 126.235 143.502 129.194C143.502 129.482 143.474 129.686 143.428 129.862C143.4 129.927 143.372 129.955 143.335 129.955H136.47C136.405 129.955 136.377 129.983 136.377 130.048C136.377 131.263 137.36 132.349 138.863 132.349C139.949 132.349 140.635 131.95 140.997 131.245C141.025 131.18 141.062 131.152 141.127 131.152H143.085C143.15 131.152 143.177 131.18 143.177 131.226V131.245C142.945 132.182 142.444 132.905 141.656 133.416C140.867 133.926 139.94 134.186 138.863 134.186C136.034 134.186 134.234 132.163 134.234 129.194ZM136.377 128.202C136.377 128.267 136.405 128.294 136.47 128.304H141.201C141.266 128.304 141.294 128.267 141.294 128.202C141.294 127.292 140.58 126.059 138.863 126.059C137.166 126.059 136.377 127.404 136.377 128.202ZM146.155 133.907V120.715C146.155 120.65 146.192 120.622 146.257 120.622H148.094C148.159 120.622 148.186 120.65 148.186 120.715V133.907C148.186 133.972 148.159 134 148.094 134H146.257C146.192 134 146.164 133.972 146.155 133.907ZM153.362 133.712L150.245 124.481C150.217 124.417 150.245 124.389 150.319 124.389H152.314C152.36 124.389 152.398 124.417 152.425 124.481L154.819 131.987C154.865 132.089 154.967 132.089 155.014 131.987L157.407 124.481C157.435 124.417 157.472 124.389 157.519 124.389H159.476C159.55 124.389 159.578 124.417 159.569 124.481L156.016 135.048C155.357 136.997 154.754 137.767 152.982 137.767H150.357C150.292 137.767 150.264 137.729 150.264 137.665V136.05C150.264 135.985 150.292 135.958 150.357 135.958H152.583C153.4 135.958 153.678 135.586 153.678 135.03C153.678 134.649 153.511 134.195 153.362 133.712Z" fill="white"/>
<path d="M215 23C214.448 23 214 23.4477 214 24C214 24.5523 214.448 25 215 25L215 23ZM237.707 24.7071C238.098 24.3166 238.098 23.6834 237.707 23.2929L231.343 16.9289C230.953 16.5384 230.319 16.5384 229.929 16.9289C229.538 17.3195 229.538 17.9526 229.929 18.3431L235.586 24L229.929 29.6569C229.538 30.0474 229.538 30.6805 229.929 31.0711C230.319 31.4616 230.953 31.4616 231.343 31.0711L237.707 24.7071ZM215 25L237 25L237 23L215 23L215 25Z" fill="white"/>
<defs>
<clipPath id="clip0_2_85">
<rect width="160" height="122" fill="white" transform="translate(48 65)"/>
</clipPath>
</defs>
</svg>
