<svg width="255" height="251" viewBox="0 0 255 251" fill="none" xmlns="http://www.w3.org/2000/svg">
<rect width="255" height="251" rx="20" fill="#E3087E"/>
<g clip-path="url(#clip0_2_86)">
<path d="M188.04 156.891C185.813 155.285 183.539 155.763 182.925 155.936L158.288 161.621C157.379 161.829 156.451 161.432 155.973 160.632L136.891 128.523L169.611 73.5227C171.011 71.1253 171.019 68.256 169.637 65.8453C168.256 63.4347 165.771 62 162.995 62C160.219 62 157.744 63.456 156.387 65.7867L128 113.557L99.6213 65.8C98.2533 63.456 95.7173 62 93.0027 62C90.288 62 87.7413 63.4373 86.36 65.8453C84.9786 68.2533 84.9867 71.1227 86.3946 73.536L119.107 128.52L100.024 160.629C99.5466 161.429 98.6187 161.827 97.7093 161.619L73.072 155.933C72.4586 155.76 70.184 155.283 67.9573 156.888C65.3306 158.781 63.9973 162.744 63.9973 168.664C63.9973 179.208 70.136 179.331 70.3973 179.331H98.1306C102.333 179.331 106.472 176.92 110.437 172.163C113.035 169.048 114.661 165.96 114.936 165.427L128 143.467L141.064 165.424C141.683 166.637 148.392 179.328 157.867 179.328H185.6C185.861 179.328 192 179.205 192 168.661C192 162.741 190.667 158.779 188.04 156.885V156.891ZM174.933 162.157V175.067H170.667V163.144L174.933 162.16V162.157ZM138.669 139.864L133.24 143.936L102.744 92.6747L108.197 88.584L138.669 139.861V139.864ZM160.064 67.952C160.669 66.912 161.795 66.2667 162.997 66.2667C164.2 66.2667 165.328 66.904 165.941 67.9707C166.555 69.0373 166.549 70.3093 165.941 71.3573L155.453 88.9893L149.997 84.8987L160.067 67.9547L160.064 67.952ZM147.803 88.584L153.256 92.6747L134.413 124.347L130.483 117.731L147.803 88.584ZM90.0587 67.9707C90.672 66.904 91.7733 66.2667 93.0027 66.2667C94.232 66.2667 95.328 66.912 95.944 67.9653L106.005 84.896L100.549 88.9867L90.0693 71.3707C89.448 70.3067 89.4453 69.0373 90.0587 67.9707ZM85.3333 163.144V175.067H81.0666V162.157L85.3333 163.141V163.144ZM70.4 175.067C70.4 175.067 70.4106 175.067 70.432 175.067C70.4426 175.067 70.456 175.067 70.472 175.067H70.4ZM68.2666 168.667C68.2666 162.675 69.76 160.883 70.4026 160.389C71.0586 159.888 71.7226 159.997 71.8826 160.032C71.9573 160.061 71.9573 160.056 72.0533 160.077L76.8 161.173V175.067H70.496C70.256 175.011 68.2666 174.363 68.2666 168.667ZM111.232 163.309C111.205 163.352 111.181 163.4 111.157 163.445C109.533 166.677 104.029 175.067 98.1306 175.067H89.5973V164.128L96.7493 165.779C99.4747 166.408 102.261 165.216 103.691 162.813L115.136 143.555L120.565 147.627L111.235 163.312L111.232 163.309ZM122.76 143.936L117.331 139.864L121.589 132.696L125.517 139.299L122.76 143.936ZM148.888 169.493C146.395 166.52 144.856 163.475 144.84 163.445C144.816 163.4 144.792 163.355 144.765 163.309L135.435 147.624L140.864 143.552L152.309 162.811C153.736 165.213 156.525 166.405 159.251 165.776L166.403 164.125V175.064H157.869C154.309 175.064 151.021 172.035 148.891 169.491L148.888 169.493ZM185.528 175.067C185.573 175.064 185.6 175.067 185.6 175.067H185.528ZM185.512 175.067H179.2V161.173L183.947 160.077C184.043 160.056 184.043 160.061 184.117 160.032C184.277 159.997 184.941 159.885 185.597 160.389C186.24 160.883 187.733 162.675 187.733 168.667C187.733 173.429 186.299 174.928 185.512 175.067Z" fill="black" fill-opacity="0.08"/>
<path d="M136.533 172.933H119.467C114.763 172.933 110.933 176.763 110.933 181.467C110.933 186.171 114.763 190 119.467 190H136.533C141.237 190 145.067 186.171 145.067 181.467C145.067 176.763 141.237 172.933 136.533 172.933ZM136.533 185.733H119.467C117.115 185.733 115.2 183.819 115.2 181.467C115.2 179.115 117.115 177.2 119.467 177.2H136.533C138.885 177.2 140.8 179.115 140.8 181.467C140.8 183.819 138.885 185.733 136.533 185.733Z" fill="black" fill-opacity="0.08"/>
</g>
<path d="M76.7176 127.311C76.7176 123.303 78.7308 120.437 82.72 120.437C86.7371 120.437 88.7225 123.303 88.7225 127.311C88.7225 131.365 86.7371 134.186 82.72 134.186C78.7308 134.186 76.7176 131.365 76.7176 127.311ZM78.8421 127.311C78.8421 128.879 79.1761 130.113 79.844 131.003C80.5027 131.903 81.4676 132.349 82.72 132.349C83.9725 132.349 84.9373 131.903 85.6053 131.003C86.264 130.113 86.5979 128.879 86.5979 127.311C86.5979 125.725 86.2732 124.491 85.6146 123.609C84.9559 122.728 83.991 122.292 82.72 122.292C81.449 122.292 80.4935 122.728 79.8348 123.609C79.1761 124.491 78.8421 125.725 78.8421 127.311ZM91.4585 133.907V124.481C91.4585 124.417 91.4864 124.389 91.5328 124.389H93.1748C93.2398 124.389 93.2769 124.426 93.3047 124.5L93.4903 125.205C93.5367 125.307 93.6387 125.289 93.6851 125.242C94.2881 124.639 94.9839 124.194 95.8838 124.194H96.8951C96.96 124.194 96.9878 124.222 96.9878 124.287V126.003C96.9878 126.068 96.96 126.096 96.8951 126.096H95.7911C94.2603 126.096 93.4903 127.292 93.4903 128.601V133.907C93.4903 133.972 93.4624 134 93.3975 134H91.5328C91.4864 134 91.4585 133.972 91.4585 133.907ZM99.0838 123.173V121.04C99.0838 120.975 99.1116 120.947 99.1765 120.947H101.273C101.338 120.947 101.366 120.975 101.366 121.04V123.173C101.366 123.238 101.338 123.266 101.273 123.266H99.1765C99.1116 123.266 99.0838 123.238 99.0838 123.173ZM99.1765 133.907V124.481C99.1765 124.417 99.2137 124.389 99.2786 124.389H101.116C101.18 124.389 101.208 124.417 101.208 124.481V133.907C101.208 133.972 101.18 134 101.116 134H99.2786C99.2137 134 99.1858 133.972 99.1765 133.907ZM103.898 129.194C103.898 126.198 105.633 124.194 108.602 124.194C111.57 124.194 113.333 126.235 113.333 129.194C113.333 132.163 111.57 134.186 108.602 134.186C105.624 134.186 103.898 132.163 103.898 129.194ZM105.948 129.194C105.948 130.15 106.18 130.911 106.644 131.486C107.099 132.061 107.757 132.349 108.602 132.349C109.474 132.349 110.142 132.061 110.596 131.486C111.051 130.911 111.283 130.15 111.283 129.194C111.283 128.239 111.06 127.478 110.605 126.912C110.151 126.346 109.483 126.059 108.602 126.059C107.757 126.059 107.099 126.346 106.644 126.912C106.18 127.478 105.948 128.239 105.948 129.194ZM116.023 133.907V124.481C116.023 124.417 116.06 124.389 116.125 124.389H117.739C117.804 124.389 117.841 124.417 117.869 124.481L118.054 125.205C118.101 125.326 118.221 125.27 118.268 125.224C118.639 124.704 119.622 124.194 120.643 124.194C123.519 124.194 124.725 126.263 124.725 128.703V133.907C124.725 133.972 124.697 134 124.632 134H122.767C122.702 134 122.675 133.972 122.675 133.907V128.703C122.675 127.413 122.044 126.059 120.355 126.059C118.824 126.059 118.054 127.292 118.054 128.601V133.907C118.054 133.972 118.027 134 117.962 134H116.125C116.06 134 116.032 133.972 116.023 133.907ZM132.665 133.907V120.715C132.665 120.65 132.702 120.622 132.767 120.622H134.604C134.669 120.622 134.697 120.65 134.697 120.715V133.907C134.697 133.972 134.669 134 134.604 134H132.767C132.702 134 132.674 133.972 132.665 133.907ZM137.405 129.194C137.405 126.198 139.093 124.194 142.071 124.194C144.502 124.194 146.19 125.548 146.562 127.543C146.589 127.608 146.552 127.636 146.459 127.636H144.548C144.483 127.636 144.437 127.608 144.409 127.543C144.047 126.578 143.296 126.021 142.071 126.021C140.383 126.021 139.455 127.367 139.455 129.194C139.455 131.041 140.383 132.386 142.071 132.386C143.361 132.386 144.084 131.838 144.428 130.846C144.456 130.781 144.502 130.753 144.567 130.753H146.487C146.534 130.753 146.608 130.771 146.58 130.846C146.07 133.072 144.511 134.186 142.071 134.186C139.093 134.186 137.405 132.163 137.405 129.194ZM148.555 129.194C148.555 126.198 150.29 124.194 153.259 124.194C156.228 124.194 157.99 126.235 157.99 129.194C157.99 132.163 156.228 134.186 153.259 134.186C150.281 134.186 148.555 132.163 148.555 129.194ZM150.606 129.194C150.606 130.15 150.838 130.911 151.301 131.486C151.756 132.061 152.415 132.349 153.259 132.349C154.131 132.349 154.799 132.061 155.254 131.486C155.708 130.911 155.94 130.15 155.94 129.194C155.94 128.239 155.717 127.478 155.263 126.912C154.808 126.346 154.14 126.059 153.259 126.059C152.415 126.059 151.756 126.346 151.301 126.912C150.838 127.478 150.606 128.239 150.606 129.194ZM160.68 133.907V124.481C160.68 124.417 160.717 124.389 160.782 124.389H162.396C162.461 124.389 162.498 124.417 162.526 124.481L162.712 125.205C162.758 125.326 162.879 125.27 162.925 125.224C163.296 124.704 164.28 124.194 165.3 124.194C168.176 124.194 169.382 126.263 169.382 128.703V133.907C169.382 133.972 169.354 134 169.29 134H167.425C167.36 134 167.332 133.972 167.332 133.907V128.703C167.332 127.413 166.701 126.059 165.013 126.059C163.482 126.059 162.712 127.292 162.712 128.601V133.907C162.712 133.972 162.684 134 162.619 134H160.782C160.717 134 160.689 133.972 160.68 133.907ZM171.812 130.846C171.812 130.781 171.849 130.753 171.914 130.753H173.788C173.863 130.753 173.9 130.781 173.909 130.846C173.909 131.235 174.104 131.579 174.484 131.885C174.864 132.191 175.412 132.349 176.126 132.349C177.008 132.349 178.279 132.163 178.279 131.078C178.279 130.734 178.121 130.493 177.815 130.345C177.499 130.196 177.11 130.094 176.646 130.029C176.173 129.964 175.672 129.909 175.133 129.844C174.057 129.732 173.074 129.389 172.452 128.666C172.146 128.304 171.988 127.784 171.988 127.107C171.988 125.511 173.519 124.194 175.904 124.194C178.288 124.194 180.06 125.307 180.06 127.543C180.06 127.608 180.032 127.636 179.986 127.636H178.102C178.037 127.636 178.009 127.608 178.009 127.543C178.009 127.153 177.842 126.81 177.508 126.504C177.165 126.207 176.636 126.059 175.904 126.059C174.614 126.059 174.02 126.55 174.02 127.107C174.02 127.432 174.178 127.664 174.484 127.793C174.79 127.933 175.18 128.025 175.653 128.09C176.126 128.155 176.627 128.211 177.175 128.276C178.26 128.406 179.243 128.74 179.865 129.482C180.171 129.862 180.329 130.391 180.329 131.078C180.329 133.193 178.603 134.186 176.126 134.186C173.241 134.186 171.812 132.627 171.812 130.846Z" fill="white"/>
<defs>
<clipPath id="clip0_2_86">
<rect width="128" height="128" fill="white" transform="translate(64 62)"/>
</clipPath>
</defs>
</svg>
