<svg width="530" height="253" viewBox="0 0 530 253" fill="none" xmlns="http://www.w3.org/2000/svg">
<rect width="530" height="253" rx="20" fill="#EE425D"/>
<g clip-path="url(#clip0_2_81)">
<path d="M164.616 96.6667C166.295 96.6667 167.657 95.3086 167.657 93.6333C167.657 91.9581 166.295 90.6 164.616 90.6C162.936 90.6 161.574 91.9581 161.574 93.6333C161.574 95.3086 162.936 96.6667 164.616 96.6667Z" fill="black" fill-opacity="0.08"/>
<path d="M152.45 96.6667C154.13 96.6667 155.491 95.3086 155.491 93.6333C155.491 91.9581 154.13 90.6 152.45 90.6C150.77 90.6 149.409 91.9581 149.409 93.6333C149.409 95.3086 150.77 96.6667 152.45 96.6667Z" fill="black" fill-opacity="0.08"/>
<path d="M191.574 68.65C191.244 67.2888 190.023 66.3333 188.62 66.3333C177.819 66.3333 174.117 75.1338 173.964 75.5054C173.953 75.5319 173.945 75.5585 173.938 75.5812C172.972 74.8305 171.927 74.201 170.82 73.7081C174.732 69.3325 179.827 61.6544 179.827 51.3259V39.0333C179.827 37.3574 178.466 36 176.785 36C175.105 36 173.744 37.3574 173.744 39.0333V46.848C170.953 45.3995 167.661 42.8743 167.661 39.0333C167.661 37.3574 166.3 36 164.62 36C162.939 36 161.578 37.3574 161.578 39.0333C161.578 47.6139 169.543 51.8492 173.645 53.4644C173.432 55.8721 172.877 58.0978 172.121 60.115C170.315 59.8496 167.661 59.1367 167.661 57.2371C167.661 55.5612 166.3 54.2038 164.62 54.2038C162.939 54.2038 161.578 55.5612 161.578 57.2371C161.578 62.28 165.483 64.7181 169.265 65.7305C167.087 69.0823 164.692 71.38 163.517 72.4038H153.556C152.386 71.38 149.987 69.0861 147.808 65.7305C151.591 64.7181 155.495 62.2762 155.495 57.2371C155.495 55.5612 154.134 54.2038 152.454 54.2038C150.774 54.2038 149.413 55.5612 149.413 57.2371C149.413 59.1367 146.759 59.8496 144.953 60.115C144.196 58.0978 143.641 55.8721 143.429 53.4644C144.706 52.9601 146.356 52.2094 148.01 51.1553C152.906 48.0348 155.495 43.845 155.495 39.0371C155.495 37.3612 154.134 36.0038 152.454 36.0038C150.774 36.0038 149.413 37.3612 149.413 39.0371C149.413 42.8819 146.12 45.4033 143.33 46.8518V39.0333C143.33 37.3574 141.969 36 140.288 36C138.608 36 137.247 37.3574 137.247 39.0333V51.3297C137.247 61.6582 142.341 69.3363 146.253 73.7119C145.143 74.2048 144.098 74.8343 143.136 75.585C143.124 75.5585 143.121 75.5319 143.109 75.5092C142.957 75.1338 139.254 66.3371 128.453 66.3371C127.05 66.3371 125.83 67.2926 125.499 68.6538C125.324 69.3743 123.891 75.8125 127.529 80.4307C129.005 82.3038 131.905 84.5371 137.334 84.5371H137.559C137.08 86.8842 137.159 89.3412 137.847 91.7375L139.954 99.0858C138.079 101.209 133.126 105.77 125.089 105.77C118.428 105.77 115.539 105.183 112.193 104.504C108.11 103.674 103.479 102.737 91.633 102.737C78.5738 102.737 69.5826 108.986 64.2335 116.926C63.7127 106.127 54.6492 101.008 49.7905 99.7948C48.8819 99.5673 47.92 99.772 47.1825 100.348C46.4449 100.925 46.0115 101.804 46.0115 102.741V120.941C46.0115 128.266 51.2466 134.394 58.1811 135.804C58.1811 135.907 58.1811 136.009 58.1811 136.108C58.1811 147.46 61.5228 154.391 64.2069 159.965C65.9367 163.559 67.3053 166.395 67.3053 169.474C67.3053 171.067 67.0582 172.109 66.6514 173.838C65.701 177.858 64.2639 183.936 64.2639 202.841V214.974C64.2639 216.65 65.625 218.008 67.3053 218.008H82.5125C83.4477 218.008 84.3335 217.579 84.9114 216.84C85.4893 216.104 85.6908 215.145 85.4665 214.239L82.4593 202.242C82.2502 200.824 80.1402 185.236 87.7095 177.687C89.1428 176.258 90.348 174.984 91.4163 173.85C87.7666 190.116 90.7624 200.774 91.6406 203.368V214.974C91.6406 216.65 93.0016 218.008 94.682 218.008H109.889C110.824 218.008 111.71 217.579 112.288 216.84C112.866 216.104 113.067 215.145 112.843 214.239L109.802 202.105C109.768 201.976 109.726 201.851 109.676 201.73C109.623 201.59 104.513 188.012 112.026 166.437C119.667 166.407 126.195 166.221 131.833 165.865L134.373 173.467C136.836 180.842 135.943 187.265 135.08 193.479C134.654 196.539 134.217 199.701 134.217 202.841V214.974C134.217 216.65 135.578 218.008 137.258 218.008H164.631C165.566 218.008 166.452 217.579 167.03 216.84C167.608 216.104 167.809 215.145 167.585 214.239L164.635 202.469V181.611C164.635 173.524 166.46 162.623 167.988 154.899L167.832 154.869C171.984 150.364 173.759 144.263 173.759 136.111V110.908L179.249 91.7413C179.937 89.345 180.017 86.888 179.538 84.5409H179.762C185.191 84.5409 188.088 82.3076 189.567 80.4345C193.205 75.8163 191.772 69.378 191.597 68.6576L191.574 68.65ZM137.243 78.4667C134.897 78.4515 133.244 77.8562 132.316 76.6922C131.46 75.6153 131.187 74.0797 131.16 72.7185C134.855 73.6361 136.658 76.2827 137.243 77.3443V78.4667ZM58.1658 129.514C54.6264 128.263 52.083 124.888 52.083 120.933V107.355C54.8697 109.058 58.1658 112.262 58.1658 117.9V129.514ZM70.3316 211.933V205.867H77.0797L78.6005 211.933H70.3316ZM99.4837 167.48C101.054 166.953 102.962 166.665 105.563 166.528C100.487 182.309 101.605 193.968 102.837 199.8H96.9251C95.8377 195.428 94.0205 183.829 99.4837 167.48ZM97.7044 211.933V205.867H104.453L105.973 211.933H97.7044ZM138.064 165.36C141.6 165.015 144.831 164.572 147.774 164.018C147.04 169.33 146.367 175.78 146.367 181.6V199.8H140.425C140.577 198.025 140.828 196.198 141.09 194.306C142.007 187.724 143.041 180.262 140.129 171.541L138.064 165.36ZM140.284 211.933V205.867H147.033L148.553 211.933H140.284ZM154.826 211.933L153.306 205.867H159.202L160.723 211.933H154.826ZM158.533 181.6V199.8H152.45V181.6C152.45 175.238 153.313 167.98 154.134 162.52C156.636 161.789 158.868 160.935 160.844 159.95C159.628 166.972 158.537 175.078 158.537 181.6H158.533ZM167.657 136.1C167.657 150.307 162.616 157.455 133.97 159.627C127.415 160.124 119.53 160.367 109.87 160.367C96.4422 160.367 93.5263 162.733 87.0708 169.577C86.0063 170.703 84.8012 171.981 83.3907 173.391C75.7757 180.986 75.6198 193.658 76.0685 199.804H70.3506C70.4912 183.993 71.7268 178.756 72.5594 175.226C72.9966 173.368 73.3768 171.768 73.3768 169.47C73.3768 165.011 71.5786 161.28 69.6777 157.333C67.1343 152.055 64.2525 146.076 64.2525 136.104C64.2525 124.767 72.7457 108.804 91.6254 108.804C102.856 108.804 106.985 109.642 110.973 110.449C114.489 111.162 117.808 111.837 125.081 111.837C132.863 111.837 138.433 108.573 141.836 105.691L144.311 114.336C145.424 118.222 149.032 120.937 153.085 120.937H163.985C165.277 120.937 166.524 120.66 167.661 120.156V136.104L167.657 136.1ZM166.908 112.667C166.536 113.964 165.334 114.867 163.985 114.867H161.578V108.8C163.259 108.8 164.62 107.443 164.62 105.767C164.62 104.091 163.259 102.733 161.578 102.733H155.495C153.815 102.733 152.454 104.091 152.454 105.767C152.454 107.443 153.815 108.8 155.495 108.8V114.867H153.089C151.739 114.867 150.534 113.96 150.165 112.667L143.691 90.0692C142.896 87.2975 143.44 84.3893 145.181 82.0877C146.922 79.7862 149.576 78.4667 152.465 78.4667H164.616C167.505 78.4667 170.159 79.7862 171.9 82.0877C173.641 84.3893 174.181 87.2975 173.39 90.0692L166.916 112.671L166.908 112.667ZM184.75 76.6922C183.822 77.8562 182.165 78.4515 179.823 78.4667V77.3481C180.424 76.2675 182.226 73.6323 185.906 72.7185C185.879 74.0797 185.606 75.6153 184.75 76.6922Z" fill="black" fill-opacity="0.08"/>
</g>
<path d="M192.125 132.889L196.568 119.715C196.578 119.65 196.624 119.622 196.689 119.622H199.342C199.407 119.622 199.444 119.65 199.463 119.715L203.907 132.889C203.935 132.963 203.898 133 203.814 133H201.838C201.773 133 201.736 132.972 201.717 132.907L200.864 130.263C200.836 130.198 200.799 130.17 200.753 130.17H195.279C195.232 130.17 195.195 130.198 195.168 130.263L194.314 132.907C194.305 132.972 194.258 133 194.193 133H192.217C192.134 133 192.097 132.963 192.125 132.889ZM197.923 121.654L195.798 128.269C195.789 128.333 195.808 128.361 195.873 128.361H200.168C200.233 128.361 200.252 128.333 200.242 128.269L198.108 121.654C198.062 121.552 197.969 121.552 197.923 121.654ZM204.296 125.003V123.481C204.296 123.417 204.324 123.389 204.388 123.389H206.003C206.068 123.389 206.096 123.352 206.096 123.287V120.726C206.096 120.661 206.123 120.633 206.188 120.633H208.053C208.118 120.633 208.146 120.661 208.146 120.726V123.287C208.146 123.352 208.183 123.379 208.248 123.389H210.242C210.307 123.389 210.335 123.417 210.335 123.481V125.003C210.335 125.068 210.307 125.096 210.242 125.096H208.248C208.183 125.096 208.155 125.124 208.146 125.188V130.375C208.146 130.857 208.415 131.154 209.009 131.154H210.242C210.307 131.154 210.335 131.191 210.335 131.256V132.907C210.335 132.972 210.307 133 210.242 133H208.758C207.793 133 207.107 132.787 206.708 132.369C206.3 131.952 206.096 131.274 206.096 130.319V125.188C206.096 125.124 206.068 125.096 206.003 125.096H204.388C204.324 125.096 204.296 125.068 204.296 125.003ZM211.513 125.003V123.481C211.513 123.417 211.541 123.389 211.606 123.389H213.22C213.285 123.389 213.313 123.352 213.313 123.287V120.726C213.313 120.661 213.34 120.633 213.405 120.633H215.27C215.335 120.633 215.363 120.661 215.363 120.726V123.287C215.363 123.352 215.4 123.379 215.465 123.389H217.46C217.524 123.389 217.552 123.417 217.552 123.481V125.003C217.552 125.068 217.524 125.096 217.46 125.096H215.465C215.4 125.096 215.372 125.124 215.363 125.188V130.375C215.363 130.857 215.632 131.154 216.226 131.154H217.46C217.524 131.154 217.552 131.191 217.552 131.256V132.907C217.552 132.972 217.524 133 217.46 133H215.975C215.01 133 214.324 132.787 213.925 132.369C213.517 131.952 213.313 131.274 213.313 130.319V125.188C213.313 125.124 213.285 125.096 213.22 125.096H211.606C211.541 125.096 211.513 125.068 211.513 125.003ZM219.342 128.194C219.342 125.198 221.105 123.194 223.971 123.194C226.838 123.194 228.61 125.235 228.61 128.194C228.61 128.482 228.582 128.686 228.536 128.862C228.508 128.927 228.48 128.955 228.443 128.955H221.578C221.513 128.955 221.485 128.983 221.485 129.048C221.485 130.263 222.469 131.349 223.971 131.349C225.057 131.349 225.743 130.95 226.105 130.245C226.133 130.18 226.17 130.152 226.235 130.152H228.193C228.258 130.152 228.285 130.18 228.285 130.226V130.245C228.054 131.182 227.553 131.905 226.764 132.416C225.975 132.926 225.048 133.186 223.971 133.186C221.142 133.186 219.342 131.163 219.342 128.194ZM221.485 127.202C221.485 127.267 221.513 127.294 221.578 127.304H226.309C226.374 127.304 226.402 127.267 226.402 127.202C226.402 126.292 225.688 125.059 223.971 125.059C222.274 125.059 221.485 126.404 221.485 127.202ZM231.263 132.907V123.481C231.263 123.417 231.3 123.389 231.365 123.389H232.979C233.044 123.389 233.081 123.417 233.109 123.481L233.294 124.205C233.341 124.326 233.461 124.27 233.508 124.224C233.879 123.704 234.862 123.194 235.883 123.194C238.759 123.194 239.965 125.263 239.965 127.703V132.907C239.965 132.972 239.937 133 239.872 133H238.007C237.942 133 237.915 132.972 237.915 132.907V127.703C237.915 126.413 237.284 125.059 235.595 125.059C234.064 125.059 233.294 126.292 233.294 127.601V132.907C233.294 132.972 233.267 133 233.202 133H231.365C231.3 133 231.272 132.972 231.263 132.907ZM241.718 125.003V123.481C241.718 123.417 241.745 123.389 241.81 123.389H243.425C243.49 123.389 243.517 123.352 243.517 123.287V120.726C243.517 120.661 243.545 120.633 243.61 120.633H245.475C245.54 120.633 245.568 120.661 245.568 120.726V123.287C245.568 123.352 245.605 123.379 245.67 123.389H247.664C247.729 123.389 247.757 123.417 247.757 123.481V125.003C247.757 125.068 247.729 125.096 247.664 125.096H245.67C245.605 125.096 245.577 125.124 245.568 125.188V130.375C245.568 130.857 245.837 131.154 246.43 131.154H247.664C247.729 131.154 247.757 131.191 247.757 131.256V132.907C247.757 132.972 247.729 133 247.664 133H246.18C245.215 133 244.529 132.787 244.13 132.369C243.721 131.952 243.517 131.274 243.517 130.319V125.188C243.517 125.124 243.49 125.096 243.425 125.096H241.81C241.745 125.096 241.718 125.068 241.718 125.003ZM250.261 122.173V120.04C250.261 119.975 250.289 119.947 250.354 119.947H252.451C252.516 119.947 252.543 119.975 252.543 120.04V122.173C252.543 122.238 252.516 122.266 252.451 122.266H250.354C250.289 122.266 250.261 122.238 250.261 122.173ZM250.354 132.907V123.481C250.354 123.417 250.391 123.389 250.456 123.389H252.293C252.358 123.389 252.386 123.417 252.386 123.481V132.907C252.386 132.972 252.358 133 252.293 133H250.456C250.391 133 250.363 132.972 250.354 132.907ZM255.075 128.194C255.075 125.198 256.81 123.194 259.779 123.194C262.748 123.194 264.511 125.235 264.511 128.194C264.511 131.163 262.748 133.186 259.779 133.186C256.801 133.186 255.075 131.163 255.075 128.194ZM257.126 128.194C257.126 129.15 257.358 129.911 257.822 130.486C258.276 131.061 258.935 131.349 259.779 131.349C260.651 131.349 261.319 131.061 261.774 130.486C262.228 129.911 262.46 129.15 262.46 128.194C262.46 127.239 262.238 126.478 261.783 125.912C261.328 125.346 260.66 125.059 259.779 125.059C258.935 125.059 258.276 125.346 257.822 125.912C257.358 126.478 257.126 127.239 257.126 128.194ZM267.2 132.907V123.481C267.2 123.417 267.237 123.389 267.302 123.389H268.917C268.981 123.389 269.019 123.417 269.046 123.481L269.232 124.205C269.278 124.326 269.399 124.27 269.445 124.224C269.816 123.704 270.8 123.194 271.82 123.194C274.696 123.194 275.902 125.263 275.902 127.703V132.907C275.902 132.972 275.875 133 275.81 133H273.945C273.88 133 273.852 132.972 273.852 132.907V127.703C273.852 126.413 273.221 125.059 271.533 125.059C270.002 125.059 269.232 126.292 269.232 127.601V132.907C269.232 132.972 269.204 133 269.139 133H267.302C267.237 133 267.209 132.972 267.2 132.907ZM283.842 132.907V119.715C283.842 119.65 283.879 119.622 283.944 119.622H285.781C285.846 119.622 285.874 119.65 285.874 119.715V132.907C285.874 132.972 285.846 133 285.781 133H283.944C283.879 133 283.852 132.972 283.842 132.907ZM289.241 132.907V123.481C289.241 123.417 289.278 123.389 289.343 123.389H290.957C291.022 123.389 291.059 123.417 291.087 123.481L291.273 124.205C291.319 124.326 291.44 124.27 291.486 124.224C291.857 123.704 292.841 123.194 293.861 123.194C296.737 123.194 297.943 125.263 297.943 127.703V132.907C297.943 132.972 297.915 133 297.85 133H295.986C295.921 133 295.893 132.972 295.893 132.907V127.703C295.893 126.413 295.262 125.059 293.573 125.059C292.043 125.059 291.273 126.292 291.273 127.601V132.907C291.273 132.972 291.245 133 291.18 133H289.343C289.278 133 289.25 132.972 289.241 132.907ZM300.373 129.846C300.373 129.781 300.41 129.753 300.475 129.753H302.349C302.423 129.753 302.46 129.781 302.47 129.846C302.47 130.235 302.665 130.579 303.045 130.885C303.425 131.191 303.973 131.349 304.687 131.349C305.568 131.349 306.839 131.163 306.839 130.078C306.839 129.734 306.682 129.493 306.375 129.345C306.06 129.196 305.67 129.094 305.207 129.029C304.733 128.964 304.232 128.909 303.694 128.844C302.618 128.732 301.635 128.389 301.013 127.666C300.707 127.304 300.549 126.784 300.549 126.107C300.549 124.511 302.08 123.194 304.464 123.194C306.849 123.194 308.621 124.307 308.621 126.543C308.621 126.608 308.593 126.636 308.546 126.636H306.663C306.598 126.636 306.57 126.608 306.57 126.543C306.57 126.153 306.403 125.81 306.069 125.504C305.726 125.207 305.197 125.059 304.464 125.059C303.175 125.059 302.581 125.55 302.581 126.107C302.581 126.432 302.739 126.664 303.045 126.793C303.351 126.933 303.741 127.025 304.214 127.09C304.687 127.155 305.188 127.211 305.735 127.276C306.821 127.406 307.804 127.74 308.426 128.482C308.732 128.862 308.89 129.391 308.89 130.078C308.89 132.193 307.164 133.186 304.687 133.186C301.802 133.186 300.373 131.627 300.373 129.846ZM311.487 122.173V120.04C311.487 119.975 311.514 119.947 311.579 119.947H313.676C313.741 119.947 313.769 119.975 313.769 120.04V122.173C313.769 122.238 313.741 122.266 313.676 122.266H311.579C311.514 122.266 311.487 122.238 311.487 122.173ZM311.579 132.907V123.481C311.579 123.417 311.616 123.389 311.681 123.389H313.518C313.583 123.389 313.611 123.417 313.611 123.481V132.907C313.611 132.972 313.583 133 313.518 133H311.681C311.616 133 311.589 132.972 311.579 132.907ZM316.301 128.194C316.301 125.235 318.128 123.194 320.726 123.194C321.246 123.194 321.747 123.287 322.238 123.472C322.721 123.658 323.101 123.899 323.379 124.187C323.454 124.261 323.509 124.261 323.556 124.187L323.741 123.5C323.75 123.426 323.797 123.389 323.88 123.389H325.495C325.56 123.389 325.587 123.417 325.587 123.481V132.675C325.587 135.254 323.658 136.952 321.032 136.952C318.666 136.952 316.802 135.579 316.755 133.965C316.755 133.9 316.783 133.872 316.848 133.872H318.629C318.694 133.872 318.741 133.9 318.787 133.965C318.982 134.262 319.446 135.087 321.032 135.087C322.906 135.087 323.509 133.9 323.556 132.675V132.221C323.556 132.174 323.528 132.146 323.463 132.146C323.407 132.146 322.247 133.186 320.726 133.186C318.23 133.186 316.301 131.163 316.301 128.194ZM318.351 128.194C318.351 129.122 318.583 129.883 319.038 130.467C319.492 131.052 320.142 131.349 321.004 131.349C322.674 131.349 323.556 130.152 323.556 128.194C323.556 127.267 323.342 126.515 322.915 125.931C322.479 125.346 321.849 125.059 321.004 125.059C320.142 125.059 319.492 125.346 319.038 125.931C318.583 126.515 318.351 127.267 318.351 128.194ZM328.926 132.907V119.715C328.926 119.65 328.964 119.622 329.028 119.622H330.865C330.93 119.622 330.958 119.65 330.958 119.715V124.187C330.958 124.307 331.125 124.298 331.172 124.224C331.348 123.982 331.654 123.75 332.09 123.528C332.517 123.305 332.999 123.194 333.547 123.194C336.423 123.194 337.629 125.263 337.629 127.703V132.907C337.629 132.972 337.601 133 337.536 133H335.671C335.606 133 335.578 132.972 335.578 132.907V127.703C335.578 126.413 334.947 125.096 333.259 125.096C331.728 125.096 330.958 126.292 330.958 127.601V132.907C330.958 132.972 330.93 133 330.865 133H329.028C328.964 133 328.936 132.972 328.926 132.907ZM339.381 125.003V123.481C339.381 123.417 339.409 123.389 339.474 123.389H341.088C341.153 123.389 341.181 123.352 341.181 123.287V120.726C341.181 120.661 341.209 120.633 341.274 120.633H343.139C343.204 120.633 343.231 120.661 343.231 120.726V123.287C343.231 123.352 343.268 123.379 343.333 123.389H345.328C345.393 123.389 345.421 123.417 345.421 123.481V125.003C345.421 125.068 345.393 125.096 345.328 125.096H343.333C343.268 125.096 343.241 125.124 343.231 125.188V130.375C343.231 130.857 343.5 131.154 344.094 131.154H345.328C345.393 131.154 345.421 131.191 345.421 131.256V132.907C345.421 132.972 345.393 133 345.328 133H343.844C342.879 133 342.192 132.787 341.793 132.369C341.385 131.952 341.181 131.274 341.181 130.319V125.188C341.181 125.124 341.153 125.096 341.088 125.096H339.474C339.409 125.096 339.381 125.068 339.381 125.003Z" fill="white"/>
<rect x="374.5" y="208.5" width="139" height="29" rx="11.5" fill="#EE425D"/>
<rect x="374.5" y="208.5" width="139" height="29" rx="11.5" stroke="white"/>
<path d="M385.832 227.932V218.211C385.832 218.163 385.859 218.143 385.907 218.143H392.135C392.183 218.143 392.203 218.163 392.203 218.211V219.264C392.203 219.312 392.183 219.332 392.135 219.332H387.233C387.186 219.332 387.165 219.359 387.165 219.407V222.258C387.165 222.306 387.186 222.326 387.233 222.333H391.561C391.608 222.333 391.629 222.354 391.629 222.401V223.447C391.629 223.495 391.608 223.516 391.561 223.522H387.233C387.186 223.522 387.165 223.543 387.165 223.591V227.932C387.165 227.979 387.145 228 387.097 228H385.907C385.859 228 385.839 227.979 385.832 227.932ZM395.703 227.932V226.879C395.703 226.831 395.723 226.811 395.771 226.811H398.04C398.088 226.811 398.109 226.79 398.109 226.742V219.407C398.109 219.359 398.088 219.339 398.04 219.332H395.771C395.723 219.332 395.703 219.312 395.703 219.264V218.211C395.703 218.163 395.723 218.143 395.771 218.143H401.889C401.937 218.143 401.957 218.163 401.957 218.211V219.264C401.957 219.312 401.937 219.332 401.889 219.332H399.51C399.462 219.332 399.442 219.359 399.442 219.407V226.742C399.442 226.79 399.462 226.811 399.51 226.811H401.889C401.937 226.811 401.957 226.831 401.957 226.879V227.932C401.957 227.979 401.937 228 401.889 228H395.771C395.723 228 395.703 227.979 395.703 227.932ZM404.561 223.071C404.561 220.118 405.751 218.006 408.704 218.006C410.933 218.006 412.006 219.428 412.43 220.843C412.436 220.891 412.416 220.911 412.354 220.918H411.056C411.008 220.918 410.98 220.891 410.974 220.843C410.543 219.742 409.75 219.195 408.704 219.195C406.742 219.195 405.956 220.788 405.956 223.071C405.956 225.354 406.742 226.947 408.704 226.947C410.105 226.947 411.165 225.86 411.165 223.728C411.165 223.68 411.144 223.659 411.097 223.659H408.772C408.724 223.659 408.704 223.639 408.704 223.591V222.538C408.704 222.49 408.724 222.47 408.772 222.47H412.43C412.477 222.47 412.498 222.49 412.498 222.538V227.932C412.498 227.979 412.477 228 412.43 228H411.404C411.349 228 411.315 227.973 411.308 227.918L411.165 226.934C411.165 226.879 411.076 226.852 411.042 226.906C410.591 227.494 409.716 228.137 408.424 228.137C405.771 228.137 404.561 226.059 404.561 223.071ZM414.972 227.932V218.211C414.972 218.163 414.993 218.143 415.04 218.143H417.242C417.296 218.143 417.33 218.163 417.337 218.211L418.78 226.612C418.814 226.688 418.875 226.688 418.923 226.612L420.359 218.211C420.366 218.163 420.4 218.143 420.461 218.143H422.656C422.703 218.143 422.724 218.163 422.731 218.211V227.932C422.731 227.979 422.703 228 422.656 228H421.466C421.418 228 421.398 227.979 421.398 227.932V219.558C421.398 219.469 421.282 219.448 421.261 219.558L419.846 227.904C419.839 227.966 419.798 228 419.73 228H417.966C417.905 228 417.864 227.966 417.857 227.904L416.442 219.558C416.421 219.448 416.305 219.469 416.305 219.558V227.932C416.305 227.979 416.278 228 416.23 228H415.04C414.993 228 414.972 227.979 414.972 227.932ZM424.644 227.918L427.946 218.211C427.967 218.163 427.994 218.143 428.028 218.143H429.751C429.785 218.143 429.819 218.163 429.84 218.211L433.1 227.918C433.121 227.973 433.094 228 433.025 228H431.713C431.685 228 431.665 227.979 431.644 227.932L431.002 225.929C430.995 225.881 430.961 225.86 430.899 225.86H426.839C426.804 225.86 426.777 225.881 426.757 225.929L426.1 227.932C426.08 227.979 426.059 228 426.025 228H424.713C424.651 228 424.624 227.973 424.644 227.918ZM428.814 219.544L427.16 224.657C427.139 224.712 427.167 224.739 427.235 224.739H430.523C430.585 224.739 430.612 224.712 430.592 224.657L428.958 219.544C428.924 219.455 428.848 219.455 428.814 219.544ZM445.718 227.932V218.211C445.718 218.163 445.739 218.143 445.787 218.143H449.738C451.262 218.143 452.595 219.469 452.595 221.137C452.595 222.798 451.262 224.083 449.738 224.083H447.12C447.072 224.083 447.051 224.104 447.051 224.151V227.932C447.051 227.979 447.031 228 446.983 228H445.787C445.739 228 445.718 227.979 445.718 227.932ZM447.051 219.407V222.818C447.051 222.866 447.072 222.887 447.12 222.887H449.567C450.456 222.887 451.262 222.107 451.262 221.137C451.262 220.173 450.456 219.332 449.567 219.332H447.12C447.072 219.332 447.051 219.359 447.051 219.407ZM456.232 227.932V218.211C456.232 218.163 456.252 218.143 456.3 218.143H457.489C457.537 218.143 457.558 218.163 457.558 218.211V226.742C457.558 226.79 457.585 226.811 457.633 226.811H462.527C462.575 226.811 462.596 226.831 462.603 226.879V227.932C462.603 227.979 462.575 228 462.527 228H456.3C456.252 228 456.232 227.979 456.232 227.932ZM465.507 224.657V218.211C465.507 218.163 465.528 218.143 465.576 218.143H466.772C466.82 218.143 466.84 218.163 466.84 218.211V224.657C466.84 225.854 467.825 226.947 469.021 226.947C470.217 226.947 471.181 225.847 471.181 224.657V218.211C471.181 218.163 471.202 218.143 471.25 218.143H472.439C472.487 218.143 472.507 218.163 472.507 218.211V224.657C472.507 226.599 470.969 228.137 469.021 228.137C467.066 228.137 465.507 226.599 465.507 224.657ZM474.804 223.071C474.804 220.118 475.993 218.006 478.946 218.006C481.175 218.006 482.248 219.428 482.672 220.843C482.679 220.891 482.658 220.911 482.597 220.918H481.298C481.25 220.918 481.223 220.891 481.216 220.843C480.785 219.742 479.992 219.195 478.946 219.195C476.984 219.195 476.198 220.788 476.198 223.071C476.198 225.354 476.984 226.947 478.946 226.947C480.348 226.947 481.407 225.86 481.407 223.728C481.407 223.68 481.387 223.659 481.339 223.659H479.015C478.967 223.659 478.946 223.639 478.946 223.591V222.538C478.946 222.49 478.967 222.47 479.015 222.47H482.672C482.72 222.47 482.74 222.49 482.74 222.538V227.932C482.74 227.979 482.72 228 482.672 228H481.646C481.592 228 481.558 227.973 481.551 227.918L481.407 226.934C481.407 226.879 481.318 226.852 481.284 226.906C480.833 227.494 479.958 228.137 478.666 228.137C476.014 228.137 474.804 226.059 474.804 223.071ZM486.014 227.932V226.879C486.014 226.831 486.035 226.811 486.082 226.811H488.352C488.4 226.811 488.42 226.79 488.42 226.742V219.407C488.42 219.359 488.4 219.339 488.352 219.332H486.082C486.035 219.332 486.014 219.312 486.014 219.264V218.211C486.014 218.163 486.035 218.143 486.082 218.143H492.201C492.248 218.143 492.269 218.163 492.269 218.211V219.264C492.269 219.312 492.248 219.332 492.201 219.332H489.822C489.774 219.332 489.753 219.359 489.753 219.407V226.742C489.753 226.79 489.774 226.811 489.822 226.811H492.201C492.248 226.811 492.269 226.831 492.269 226.879V227.932C492.269 227.979 492.248 228 492.201 228H486.082C486.035 228 486.014 227.979 486.014 227.932ZM495.488 227.932V218.211C495.488 218.163 495.509 218.143 495.556 218.143H497.348C497.382 218.143 497.416 218.163 497.45 218.211L501.271 226.052C501.306 226.141 501.408 226.141 501.408 226.038V218.211C501.408 218.163 501.429 218.143 501.476 218.143H502.666C502.714 218.143 502.734 218.163 502.741 218.211V227.932C502.741 227.979 502.714 228 502.666 228H500.889C500.841 228 500.806 227.979 500.779 227.932L496.958 220.091C496.924 220.002 496.814 220.016 496.814 220.104V227.932C496.814 227.979 496.794 228 496.746 228H495.556C495.509 228 495.488 227.979 495.488 227.932Z" fill="white"/>
<defs>
<clipPath id="clip0_2_81">
<rect width="146" height="182" fill="white" transform="translate(46 36)"/>
</clipPath>
</defs>
</svg>
