<svg width="255" height="251" viewBox="0 0 255 251" fill="none" xmlns="http://www.w3.org/2000/svg">
<rect width="255" height="251" rx="20" fill="#FAD9D5"/>
<g clip-path="url(#clip0_2_72)">
<path d="M196 134.8C196 131.235 193.92 128.094 190.891 126.603C191.268 125.589 191.467 124.506 191.467 123.4C191.467 119.159 188.574 115.582 184.667 114.568V114.28C184.667 109.25 180.598 105.16 175.6 105.16C174.829 105.16 174.067 105.26 173.333 105.451V100.6C173.333 75.4573 152.996 55 128 55C103.004 55 82.6667 75.4573 82.6667 100.6V105.451C81.9328 105.26 81.1707 105.16 80.4 105.16C75.3992 105.16 71.3333 109.25 71.3333 114.28V114.568C67.4262 115.582 64.5333 119.156 64.5333 123.4C64.5333 124.506 64.7317 125.589 65.1085 126.603C62.0797 128.094 60 131.235 60 134.8C60 138.365 62.0797 141.506 65.1085 142.997C64.7317 144.011 64.5333 145.094 64.5333 146.2C64.5333 150.441 67.4262 154.018 71.3333 155.032V155.32C71.3333 160.35 75.3992 164.44 80.4 164.44C81.4965 164.44 82.5703 164.241 83.5762 163.861C85.0495 166.9 88.152 169 91.7333 169C96.7342 169 100.8 164.91 100.8 159.88V157.372C105.968 156.312 109.867 151.706 109.867 146.2V123.4C109.867 117.894 105.968 113.288 100.8 112.228V100.6C100.8 85.5149 113.003 73.24 128 73.24C142.997 73.24 155.2 85.5149 155.2 100.6V112.228C150.032 113.288 146.133 117.894 146.133 123.4V146.2C146.133 151.706 150.032 156.312 155.2 157.372V159.88C155.2 164.91 159.269 169 164.267 169C167.848 169 170.951 166.902 172.424 163.861C173.43 164.241 174.506 164.44 175.6 164.44C180.598 164.44 184.667 160.35 184.667 155.32V155.032C188.574 154.018 191.467 150.444 191.467 146.2C191.467 145.094 191.268 144.011 190.891 142.997C193.92 141.506 196 138.365 196 134.8ZM84.9333 134.8C84.9333 128.034 89.8435 122.402 96.2667 121.314V148.286C89.8435 147.198 84.9333 141.566 84.9333 134.8ZM105.333 123.4V146.2C105.333 149.173 103.438 151.706 100.8 152.647V116.95C103.438 117.891 105.333 120.425 105.333 123.397V123.4ZM96.2667 116.708C95.2863 116.831 94.3315 117.033 93.4078 117.307C93.3852 117.281 93.3625 117.253 93.337 117.227L91.0703 114.947C90.1863 114.058 88.7498 114.058 87.8658 114.947C86.9818 115.836 86.9818 117.281 87.8658 118.17L88.9878 119.299C87.3757 120.308 85.9307 121.565 84.7095 123.015L81.4172 121.359C81.1112 121.208 80.7683 121.12 80.4057 121.12C79.1533 121.12 78.139 122.14 78.139 123.4C78.139 124.292 78.649 125.064 79.3942 125.438L82.219 126.86C81.3747 128.61 80.8052 130.516 80.5558 132.52H78.1418C76.8895 132.52 75.8752 133.54 75.8752 134.8C75.8752 136.06 76.8895 137.08 78.1418 137.08H80.5558C80.8052 139.084 81.3747 140.99 82.219 142.74L79.3942 144.159C78.6518 144.536 78.139 145.305 78.139 146.2C78.139 147.46 79.1533 148.48 80.4057 148.48C80.7712 148.48 81.114 148.392 81.4172 148.238L84.7095 146.582C85.9335 148.033 87.3757 149.289 88.9878 150.298L87.8658 151.427C86.9818 152.316 86.9818 153.761 87.8658 154.65C88.3078 155.095 88.8887 155.317 89.4695 155.317C90.0503 155.317 90.6283 155.095 91.0732 154.65L93.3398 152.37C93.3653 152.345 93.388 152.316 93.4107 152.29C94.3343 152.564 95.292 152.766 96.2695 152.889V159.877C96.2695 162.391 94.2352 164.437 91.7362 164.437C89.2372 164.437 87.2028 162.391 87.2028 159.877C87.2028 158.617 86.1885 157.597 84.9362 157.597C83.9162 157.597 83.0548 158.275 82.7687 159.205C82.0603 159.641 81.2443 159.877 80.4028 159.877C77.9038 159.877 75.8695 157.831 75.8695 155.317V153.037C75.8695 151.777 74.8552 150.757 73.6028 150.757C71.1038 150.757 69.0695 148.711 69.0695 146.197C69.0695 145.066 69.4832 143.983 70.2368 143.142C70.8148 142.495 70.9792 141.574 70.6562 140.768C70.3332 139.961 69.5852 139.408 68.721 139.343C66.3722 139.166 64.5333 137.171 64.5333 134.8C64.5333 132.429 66.3722 130.434 68.721 130.257C69.5823 130.192 70.3332 129.639 70.6562 128.832C70.9792 128.026 70.8148 127.102 70.2368 126.458C69.4832 125.617 69.0695 124.531 69.0695 123.403C69.0695 120.889 71.1038 118.843 73.6028 118.843C74.8552 118.843 75.8695 117.823 75.8695 116.563V114.283C75.8695 111.769 77.9038 109.723 80.4028 109.723C81.2443 109.723 82.0632 109.957 82.7687 110.395C83.0548 111.327 83.9162 112.003 84.9362 112.003C86.1885 112.003 87.2028 110.983 87.2028 109.723C87.2028 107.209 89.2372 105.163 91.7362 105.163C94.2352 105.163 96.2695 107.209 96.2695 109.723V116.711L96.2667 116.708ZM128 68.68C110.501 68.68 96.2667 82.9984 96.2667 100.6V101.826C94.9322 101.047 93.3852 100.6 91.7333 100.6C90.0815 100.6 88.5345 101.05 87.2 101.831V100.6C87.2 77.971 105.503 59.56 128 59.56C150.497 59.56 168.8 77.971 168.8 100.6V101.831C167.465 101.053 165.919 100.6 164.267 100.6C162.615 100.6 161.068 101.047 159.733 101.828V100.6C159.733 82.9984 145.499 68.68 128 68.68ZM171.067 134.8C171.067 141.566 166.157 147.198 159.733 148.286V121.314C166.157 122.402 171.067 128.034 171.067 134.8ZM150.667 146.2V123.4C150.667 120.427 152.562 117.894 155.2 116.953V152.65C152.562 151.709 150.667 149.175 150.667 146.203V146.2ZM187.279 139.343C186.418 139.408 185.667 139.961 185.344 140.768C185.021 141.574 185.185 142.498 185.763 143.142C186.517 143.983 186.93 145.069 186.93 146.197C186.93 148.711 184.896 150.757 182.397 150.757C181.145 150.757 180.13 151.777 180.13 153.037V155.317C180.13 157.831 178.096 159.877 175.597 159.877C174.756 159.877 173.937 159.643 173.231 159.205C172.945 158.273 172.084 157.597 171.064 157.597C169.811 157.597 168.797 158.617 168.797 159.877C168.797 162.391 166.763 164.437 164.264 164.437C161.765 164.437 159.73 162.391 159.73 159.877V152.889C160.711 152.766 161.666 152.564 162.589 152.29C162.612 152.316 162.635 152.345 162.66 152.37L164.927 154.65C165.369 155.095 165.95 155.317 166.53 155.317C167.111 155.317 167.689 155.095 168.134 154.65C169.018 153.761 169.018 152.316 168.134 151.427L167.012 150.298C168.624 149.289 170.069 148.033 171.291 146.582L174.583 148.238C174.889 148.389 175.232 148.477 175.597 148.477C176.849 148.477 177.864 147.457 177.864 146.197C177.864 145.305 177.354 144.533 176.612 144.159L173.787 142.737C174.631 140.987 175.201 139.081 175.45 137.077H177.864C179.116 137.077 180.13 136.057 180.13 134.797C180.13 133.537 179.116 132.517 177.864 132.517H175.45C175.201 130.514 174.631 128.607 173.787 126.857L176.612 125.438C177.354 125.062 177.864 124.292 177.864 123.397C177.864 122.137 176.849 121.117 175.597 121.117C175.232 121.117 174.889 121.205 174.583 121.359L171.291 123.015C170.066 121.565 168.624 120.308 167.012 119.299L168.134 118.17C169.018 117.281 169.018 115.836 168.134 114.947C167.25 114.058 165.814 114.058 164.93 114.947L162.663 117.227C162.637 117.253 162.615 117.281 162.592 117.307C161.668 117.033 160.711 116.831 159.733 116.708V109.72C159.733 107.206 161.768 105.16 164.267 105.16C166.766 105.16 168.8 107.206 168.8 109.72C168.8 110.98 169.814 112 171.067 112C172.087 112 172.948 111.322 173.234 110.393C173.942 109.957 174.758 109.72 175.6 109.72C178.099 109.72 180.133 111.766 180.133 114.28V116.56C180.133 117.82 181.148 118.84 182.4 118.84C184.899 118.84 186.933 120.886 186.933 123.4C186.933 124.531 186.52 125.614 185.766 126.455C185.188 127.102 185.024 128.023 185.347 128.829C185.67 129.636 186.418 130.189 187.282 130.254C189.631 130.431 191.469 132.426 191.469 134.797C191.469 137.168 189.631 139.163 187.282 139.34L187.279 139.343Z" fill="#DA78AC" fill-opacity="0.2"/>
</g>
<path d="M92.7384 133.907V120.715C92.7384 120.65 92.7755 120.622 92.8405 120.622H94.6774C94.7423 120.622 94.7702 120.65 94.7702 120.715V125.187C94.7702 125.307 94.9372 125.298 94.9836 125.224C95.1598 124.982 95.466 124.75 95.902 124.528C96.3288 124.305 96.8112 124.194 97.3586 124.194C100.235 124.194 101.441 126.263 101.441 128.703V133.907C101.441 133.972 101.413 134 101.348 134H99.4831C99.4181 134 99.3903 133.972 99.3903 133.907V128.703C99.3903 127.413 98.7594 126.096 97.071 126.096C95.5402 126.096 94.7702 127.292 94.7702 128.601V133.907C94.7702 133.972 94.7423 134 94.6774 134H92.8405C92.7755 134 92.7477 133.972 92.7384 133.907ZM103.193 126.003V124.481C103.193 124.417 103.221 124.389 103.286 124.389H104.9C104.965 124.389 104.993 124.352 104.993 124.287V121.726C104.993 121.661 105.021 121.633 105.086 121.633H106.951C107.016 121.633 107.043 121.661 107.043 121.726V124.287C107.043 124.352 107.08 124.379 107.145 124.389H109.14C109.205 124.389 109.233 124.417 109.233 124.481V126.003C109.233 126.068 109.205 126.096 109.14 126.096H107.145C107.08 126.096 107.053 126.124 107.043 126.188V131.375C107.043 131.857 107.312 132.154 107.906 132.154H109.14C109.205 132.154 109.233 132.191 109.233 132.256V133.907C109.233 133.972 109.205 134 109.14 134H107.656C106.691 134 106.004 133.787 105.605 133.369C105.197 132.952 104.993 132.274 104.993 131.319V126.188C104.993 126.124 104.965 126.096 104.9 126.096H103.286C103.221 126.096 103.193 126.068 103.193 126.003ZM110.41 126.003V124.481C110.41 124.417 110.438 124.389 110.503 124.389H112.117C112.182 124.389 112.21 124.352 112.21 124.287V121.726C112.21 121.661 112.238 121.633 112.303 121.633H114.168C114.233 121.633 114.26 121.661 114.26 121.726V124.287C114.26 124.352 114.298 124.379 114.362 124.389H116.357C116.422 124.389 116.45 124.417 116.45 124.481V126.003C116.45 126.068 116.422 126.096 116.357 126.096H114.362C114.298 126.096 114.27 126.124 114.26 126.188V131.375C114.26 131.857 114.529 132.154 115.123 132.154H116.357C116.422 132.154 116.45 132.191 116.45 132.256V133.907C116.45 133.972 116.422 134 116.357 134H114.873C113.908 134 113.221 133.787 112.822 133.369C112.414 132.952 112.21 132.274 112.21 131.319V126.188C112.21 126.124 112.182 126.096 112.117 126.096H110.503C110.438 126.096 110.41 126.068 110.41 126.003ZM119.047 137.665V124.481C119.047 124.417 119.084 124.389 119.149 124.389H120.763C120.837 124.389 120.884 124.417 120.893 124.481L121.078 125.168C121.125 125.27 121.218 125.261 121.292 125.187C121.774 124.704 122.915 124.194 123.852 124.194C126.589 124.194 128.306 126.235 128.306 129.194C128.306 132.163 126.487 134.186 123.852 134.186C122.247 134.186 121.348 133.295 121.236 133.184C121.19 133.137 121.078 133.193 121.078 133.239V137.665C121.078 137.729 121.051 137.757 120.986 137.767H119.149C119.084 137.767 119.056 137.729 119.047 137.665ZM121.078 129.194C121.078 131.152 121.951 132.33 123.574 132.33C124.446 132.33 125.114 132.042 125.569 131.458C126.023 130.874 126.246 130.122 126.246 129.194C126.246 128.267 126.023 127.506 125.569 126.921C125.114 126.337 124.446 126.04 123.574 126.04C122.767 126.04 122.145 126.337 121.719 126.921C121.292 127.506 121.078 128.267 121.078 129.194ZM130.253 130.846C130.253 130.781 130.29 130.753 130.355 130.753H132.229C132.303 130.753 132.34 130.781 132.35 130.846C132.35 131.235 132.545 131.579 132.925 131.885C133.305 132.191 133.853 132.349 134.567 132.349C135.448 132.349 136.719 132.163 136.719 131.078C136.719 130.734 136.562 130.493 136.255 130.345C135.94 130.196 135.55 130.094 135.087 130.029C134.613 129.964 134.112 129.909 133.574 129.844C132.498 129.732 131.515 129.389 130.893 128.666C130.587 128.304 130.429 127.784 130.429 127.107C130.429 125.511 131.96 124.194 134.344 124.194C136.729 124.194 138.501 125.307 138.501 127.543C138.501 127.608 138.473 127.636 138.426 127.636H136.543C136.478 127.636 136.45 127.608 136.45 127.543C136.45 127.153 136.283 126.81 135.949 126.504C135.606 126.207 135.077 126.059 134.344 126.059C133.055 126.059 132.461 126.55 132.461 127.107C132.461 127.432 132.619 127.664 132.925 127.793C133.231 127.933 133.621 128.025 134.094 128.09C134.567 128.155 135.068 128.211 135.615 128.276C136.701 128.406 137.684 128.74 138.306 129.482C138.612 129.862 138.77 130.391 138.77 131.078C138.77 133.193 137.044 134.186 134.567 134.186C131.682 134.186 130.253 132.627 130.253 130.846ZM140.133 126.003V124.481C140.133 124.417 140.161 124.389 140.225 124.389H141.84C141.905 124.389 141.932 124.352 141.932 124.287V121.726C141.932 121.661 141.96 121.633 142.025 121.633H143.89C143.955 121.633 143.983 121.661 143.983 121.726V124.287C143.983 124.352 144.02 124.379 144.085 124.389H146.079C146.144 124.389 146.172 124.417 146.172 124.481V126.003C146.172 126.068 146.144 126.096 146.079 126.096H144.085C144.02 126.096 143.992 126.124 143.983 126.188V131.375C143.983 131.857 144.252 132.154 144.846 132.154H146.079C146.144 132.154 146.172 132.191 146.172 132.256V133.907C146.172 133.972 146.144 134 146.079 134H144.595C143.63 134 142.944 133.787 142.545 133.369C142.137 132.952 141.932 132.274 141.932 131.319V126.188C141.932 126.124 141.905 126.096 141.84 126.096H140.225C140.161 126.096 140.133 126.068 140.133 126.003ZM147.962 129.194C147.962 126.198 149.725 124.194 152.591 124.194C155.458 124.194 157.23 126.235 157.23 129.194C157.23 129.482 157.202 129.686 157.156 129.862C157.128 129.927 157.1 129.955 157.063 129.955H150.198C150.133 129.955 150.105 129.983 150.105 130.048C150.105 131.263 151.088 132.349 152.591 132.349C153.677 132.349 154.363 131.95 154.725 131.245C154.753 131.18 154.79 131.152 154.855 131.152H156.813C156.878 131.152 156.905 131.18 156.905 131.226V131.245C156.673 132.182 156.172 132.905 155.384 133.416C154.595 133.926 153.668 134.186 152.591 134.186C149.762 134.186 147.962 132.163 147.962 129.194ZM150.105 128.202C150.105 128.267 150.133 128.294 150.198 128.304H154.929C154.994 128.304 155.022 128.267 155.022 128.202C155.022 127.292 154.308 126.059 152.591 126.059C150.894 126.059 150.105 127.404 150.105 128.202ZM159.883 133.907V124.481C159.883 124.417 159.91 124.389 159.957 124.389H161.599C161.664 124.389 161.701 124.426 161.729 124.5L161.914 125.205C161.961 125.307 162.063 125.289 162.109 125.242C162.712 124.639 163.408 124.194 164.308 124.194H165.319C165.384 124.194 165.412 124.222 165.412 124.287V126.003C165.412 126.068 165.384 126.096 165.319 126.096H164.215C162.684 126.096 161.914 127.292 161.914 128.601V133.907C161.914 133.972 161.887 134 161.822 134H159.957C159.91 134 159.883 133.972 159.883 133.907Z" fill="#28225C"/>
<defs>
<clipPath id="clip0_2_72">
<rect width="136" height="114" fill="white" transform="translate(60 55)"/>
</clipPath>
</defs>
</svg>
