<svg width="255" height="521" viewBox="0 0 255 521" fill="none" xmlns="http://www.w3.org/2000/svg">
<rect width="255" height="521" rx="20" fill="#EE425D"/>
<path d="M99.6499 264.354C99.6499 264.28 99.6778 264.243 99.7427 264.233H101.682C101.747 264.233 101.774 264.271 101.774 264.354C101.774 265.282 102.897 266.349 104.78 266.349C106.58 266.349 107.74 265.347 107.74 264.159C107.74 263.528 107.471 263.055 106.933 262.749C106.395 262.443 105.68 262.239 104.78 262.146C102.146 261.896 99.7984 261.163 99.7984 258.333C99.7984 255.865 102.127 254.437 104.493 254.437C106.96 254.437 109.298 255.754 109.298 258.287C109.298 258.352 109.271 258.379 109.206 258.389H107.248C107.183 258.389 107.155 258.352 107.155 258.287C107.155 257.229 106.116 256.292 104.493 256.292C103.045 256.292 102.025 257.21 102.025 258.37C102.025 259.947 103.992 259.966 105.959 260.291C107.907 260.625 109.892 261.274 109.892 264.159C109.892 266.376 108.222 268.186 104.78 268.186C101.227 268.186 99.6499 266.265 99.6499 264.354ZM112.61 267.907V254.715C112.61 254.65 112.647 254.622 112.712 254.622H114.549C114.614 254.622 114.641 254.65 114.641 254.715V259.187C114.641 259.307 114.808 259.298 114.855 259.224C115.031 258.982 115.337 258.75 115.773 258.528C116.2 258.305 116.682 258.194 117.23 258.194C120.106 258.194 121.312 260.263 121.312 262.703V267.907C121.312 267.972 121.284 268 121.219 268H119.354C119.289 268 119.261 267.972 119.261 267.907V262.703C119.261 261.413 118.631 260.096 116.942 260.096C115.411 260.096 114.641 261.292 114.641 262.601V267.907C114.641 267.972 114.614 268 114.549 268H112.712C112.647 268 112.619 267.972 112.61 267.907ZM123.742 265.152C123.742 263.482 125.124 262.165 127.907 262.165H129.865C130.273 262.165 130.468 261.858 130.468 261.636C130.468 261.051 130.301 260.059 128.25 260.059C127.48 260.059 126.933 260.207 126.608 260.495C126.284 260.782 126.107 261.135 126.098 261.543C126.098 261.608 126.07 261.636 126.005 261.636H124.159C124.094 261.636 124.066 261.608 124.066 261.543C124.066 259.307 126.042 258.194 128.25 258.194C129.568 258.194 130.607 258.481 131.368 259.066C132.128 259.65 132.509 260.541 132.509 261.729V265.625C132.509 265.987 132.759 266.256 133.167 266.256H133.585C133.65 266.256 133.678 266.284 133.678 266.349V267.907C133.678 267.972 133.65 268 133.585 268H132.824C131.757 268 131.219 267.694 130.885 267.109C130.839 267.035 130.783 267.026 130.718 267.091C130.477 267.341 130.087 267.592 129.549 267.824C129.011 268.065 128.334 268.186 127.527 268.186C126.247 268.186 125.3 267.898 124.679 267.332C124.057 266.766 123.742 266.033 123.742 265.152ZM125.783 265.152C125.783 265.681 126.191 266.349 127.527 266.349C129.661 266.349 130.468 265.115 130.468 264.048V263.918C130.468 263.853 130.44 263.825 130.375 263.816H127.963C126.089 263.816 125.783 264.567 125.783 265.152ZM135.876 271.665V258.481C135.876 258.417 135.913 258.389 135.978 258.389H137.592C137.666 258.389 137.713 258.417 137.722 258.481L137.907 259.168C137.954 259.27 138.047 259.261 138.121 259.187C138.603 258.704 139.744 258.194 140.681 258.194C143.418 258.194 145.135 260.235 145.135 263.194C145.135 266.163 143.316 268.186 140.681 268.186C139.076 268.186 138.177 267.295 138.065 267.184C138.019 267.137 137.907 267.193 137.907 267.239V271.665C137.907 271.729 137.88 271.757 137.815 271.767H135.978C135.913 271.767 135.885 271.729 135.876 271.665ZM137.907 263.194C137.907 265.152 138.78 266.33 140.403 266.33C141.275 266.33 141.943 266.042 142.398 265.458C142.852 264.874 143.075 264.122 143.075 263.194C143.075 262.267 142.852 261.506 142.398 260.921C141.943 260.337 141.275 260.04 140.403 260.04C139.596 260.04 138.974 260.337 138.548 260.921C138.121 261.506 137.907 262.267 137.907 263.194ZM147.147 263.194C147.147 260.198 148.91 258.194 151.776 258.194C154.643 258.194 156.415 260.235 156.415 263.194C156.415 263.482 156.387 263.686 156.341 263.862C156.313 263.927 156.285 263.955 156.248 263.955H149.383C149.318 263.955 149.29 263.983 149.29 264.048C149.29 265.263 150.273 266.349 151.776 266.349C152.862 266.349 153.548 265.95 153.91 265.245C153.938 265.18 153.975 265.152 154.04 265.152H155.998C156.062 265.152 156.09 265.18 156.09 265.226V265.245C155.858 266.182 155.357 266.905 154.569 267.416C153.78 267.926 152.853 268.186 151.776 268.186C148.947 268.186 147.147 266.163 147.147 263.194ZM149.29 262.202C149.29 262.267 149.318 262.294 149.383 262.304H154.114C154.179 262.304 154.207 262.267 154.207 262.202C154.207 261.292 153.493 260.059 151.776 260.059C150.079 260.059 149.29 261.404 149.29 262.202ZM94.7151 289.907V276.715C94.7151 276.65 94.7522 276.622 94.8172 276.622H103.686C103.751 276.622 103.779 276.65 103.779 276.715V278.394C103.779 278.459 103.751 278.487 103.686 278.487H96.8489C96.784 278.487 96.7561 278.515 96.7469 278.561V282.151C96.7469 282.216 96.784 282.244 96.8489 282.244H102.814C102.879 282.244 102.907 282.281 102.907 282.346V283.998C102.907 284.062 102.879 284.09 102.814 284.09H96.8489C96.784 284.09 96.7561 284.118 96.7469 284.183V289.907C96.7469 289.972 96.719 290 96.6541 290H94.8172C94.7522 290 94.7244 289.972 94.7151 289.907ZM104.623 287.152C104.623 285.482 106.005 284.165 108.788 284.165H110.746C111.154 284.165 111.349 283.858 111.349 283.636C111.349 283.051 111.182 282.059 109.131 282.059C108.361 282.059 107.814 282.207 107.489 282.495C107.165 282.782 106.988 283.135 106.979 283.543C106.979 283.608 106.951 283.636 106.886 283.636H105.04C104.975 283.636 104.947 283.608 104.947 283.543C104.947 281.307 106.923 280.194 109.131 280.194C110.449 280.194 111.488 280.481 112.249 281.066C113.009 281.65 113.39 282.541 113.39 283.729V287.625C113.39 287.987 113.64 288.256 114.048 288.256H114.466C114.531 288.256 114.559 288.284 114.559 288.349V289.907C114.559 289.972 114.531 290 114.466 290H113.705C112.638 290 112.1 289.694 111.766 289.109C111.72 289.035 111.664 289.026 111.599 289.091C111.358 289.341 110.968 289.592 110.43 289.824C109.892 290.065 109.215 290.186 108.408 290.186C107.127 290.186 106.181 289.898 105.56 289.332C104.938 288.766 104.623 288.033 104.623 287.152ZM106.664 287.152C106.664 287.681 107.072 288.349 108.408 288.349C110.542 288.349 111.349 287.115 111.349 286.048V285.918C111.349 285.853 111.321 285.825 111.256 285.816H108.844C106.97 285.816 106.664 286.567 106.664 287.152ZM116.098 285.194C116.098 282.198 117.786 280.194 120.764 280.194C123.195 280.194 124.884 281.548 125.255 283.543C125.282 283.608 125.245 283.636 125.153 283.636H123.241C123.177 283.636 123.13 283.608 123.102 283.543C122.74 282.578 121.989 282.021 120.764 282.021C119.076 282.021 118.148 283.367 118.148 285.194C118.148 287.041 119.076 288.386 120.764 288.386C122.054 288.386 122.778 287.838 123.121 286.846C123.149 286.781 123.195 286.753 123.26 286.753H125.18C125.227 286.753 125.301 286.771 125.273 286.846C124.763 289.072 123.204 290.186 120.764 290.186C117.786 290.186 116.098 288.163 116.098 285.194ZM126.599 282.003V280.481C126.599 280.417 126.627 280.389 126.692 280.389H128.306C128.371 280.389 128.399 280.352 128.399 280.287V277.726C128.399 277.661 128.427 277.633 128.492 277.633H130.356C130.421 277.633 130.449 277.661 130.449 277.726V280.287C130.449 280.352 130.486 280.379 130.551 280.389H132.546C132.611 280.389 132.639 280.417 132.639 280.481V282.003C132.639 282.068 132.611 282.096 132.546 282.096H130.551C130.486 282.096 130.458 282.124 130.449 282.188V287.375C130.449 287.857 130.718 288.154 131.312 288.154H132.546C132.611 288.154 132.639 288.191 132.639 288.256V289.907C132.639 289.972 132.611 290 132.546 290H131.062C130.097 290 129.41 289.787 129.011 289.369C128.603 288.952 128.399 288.274 128.399 287.319V282.188C128.399 282.124 128.371 282.096 128.306 282.096H126.692C126.627 282.096 126.599 282.068 126.599 282.003ZM134.428 285.194C134.428 282.198 136.163 280.194 139.132 280.194C142.101 280.194 143.864 282.235 143.864 285.194C143.864 288.163 142.101 290.186 139.132 290.186C136.154 290.186 134.428 288.163 134.428 285.194ZM136.479 285.194C136.479 286.15 136.711 286.911 137.175 287.486C137.629 288.061 138.288 288.349 139.132 288.349C140.004 288.349 140.672 288.061 141.127 287.486C141.581 286.911 141.813 286.15 141.813 285.194C141.813 284.239 141.591 283.478 141.136 282.912C140.681 282.346 140.013 282.059 139.132 282.059C138.288 282.059 137.629 282.346 137.175 282.912C136.711 283.478 136.479 284.239 136.479 285.194ZM146.553 289.907V280.481C146.553 280.417 146.581 280.389 146.627 280.389H148.27C148.334 280.389 148.372 280.426 148.399 280.5L148.585 281.205C148.631 281.307 148.733 281.289 148.78 281.242C149.383 280.639 150.079 280.194 150.978 280.194H151.99C152.055 280.194 152.083 280.222 152.083 280.287V282.003C152.083 282.068 152.055 282.096 151.99 282.096H150.886C149.355 282.096 148.585 283.292 148.585 284.601V289.907C148.585 289.972 148.557 290 148.492 290H146.627C146.581 290 146.553 289.972 146.553 289.907ZM156.359 289.712L153.241 280.481C153.214 280.417 153.241 280.389 153.316 280.389H155.31C155.357 280.389 155.394 280.417 155.422 280.481L157.815 287.987C157.862 288.089 157.964 288.089 158.01 287.987L160.404 280.481C160.431 280.417 160.468 280.389 160.515 280.389H162.472C162.547 280.389 162.574 280.417 162.565 280.481L159.012 291.048C158.353 292.997 157.75 293.767 155.978 293.767H153.353C153.288 293.767 153.26 293.729 153.26 293.665V292.05C153.26 291.985 153.288 291.958 153.353 291.958H155.579C156.396 291.958 156.674 291.586 156.674 291.03C156.674 290.649 156.507 290.195 156.359 289.712Z" fill="white"/>
<g clip-path="url(#clip0_2_73)">
<path d="M118.261 464.2C128.042 464.2 136 456.185 136 446.333C136 436.482 128.042 428.467 118.261 428.467H115.858C117.657 421.97 120.002 418.687 120.035 418.64C120.539 417.964 120.62 417.057 120.243 416.301C119.866 415.544 119.101 415.067 118.258 415.067H116.041V408.367C116.041 404.673 113.056 401.667 109.389 401.667H100.519C97.4562 401.667 94.8702 403.763 94.1024 406.608C93.3429 406.304 92.517 406.133 91.6494 406.133H82.7798C81.9151 406.133 81.0863 406.304 80.3268 406.608C79.5563 403.766 76.973 401.667 73.9103 401.667H65.0407C61.9779 401.667 59.3919 403.763 58.6241 406.608C57.8647 406.304 57.0387 406.133 56.1711 406.133H47.3016C43.6346 406.133 40.6494 409.14 40.6494 412.833V415.067H38.432C37.5949 415.067 36.8327 415.544 36.4558 416.298C36.0788 417.052 36.1564 417.956 36.6526 418.634C36.7135 418.718 42.8668 427.319 42.8668 444.382C42.8668 460.417 49.6686 471.98 53.8789 477.603H36.2174C35.4496 477.603 34.7345 478.005 34.3298 478.661C33.9252 479.32 33.8891 480.14 34.2328 480.833C37.3455 487.106 43.6041 491 50.5667 491H106.126C113.089 491 119.347 487.103 122.46 480.833C122.804 480.14 122.768 479.32 122.363 478.661C121.958 478.002 121.246 477.603 120.475 477.603H102.811C105.004 474.677 107.895 470.141 110.165 464.203H118.255L118.261 464.2ZM118.261 432.933C125.598 432.933 131.565 438.944 131.565 446.333C131.565 453.723 125.598 459.733 118.261 459.733H111.664C112.074 458.307 112.443 456.819 112.753 455.267H118.261C123.15 455.267 127.13 451.261 127.13 446.333C127.13 441.406 123.15 437.4 118.261 437.4H114.189C114.358 435.812 114.577 434.321 114.832 432.933H118.261ZM113.826 444.379C113.826 443.519 113.845 442.685 113.876 441.867H118.261C120.706 441.867 122.696 443.871 122.696 446.333C122.696 448.796 120.706 450.8 118.261 450.8H113.455C113.693 448.748 113.826 446.607 113.826 444.379ZM98.3044 408.367C98.3044 407.136 99.2994 406.133 100.522 406.133H109.391C110.614 406.133 111.609 407.136 111.609 408.367V415.067H98.3044V408.367ZM80.5652 426.233C76.8982 426.233 73.913 429.24 73.913 432.933C73.913 434.164 72.918 435.167 71.6957 435.167C70.4733 435.167 69.4783 434.164 69.4783 432.933V426.233C69.4783 424.999 68.486 424 67.2609 424H58.3913C55.5004 424 53.0363 422.132 52.1216 419.533H104.577C103.662 422.132 101.198 424 98.3071 424H93.8723C92.6472 424 91.6549 424.999 91.6549 426.233V439.633C91.6549 440.864 90.6599 441.867 89.4376 441.867C88.2152 441.867 87.2202 440.864 87.2202 439.633V432.933C87.2202 429.24 84.235 426.233 80.568 426.233H80.5652ZM82.7826 410.6H91.6522C92.8745 410.6 93.8696 411.602 93.8696 412.833V415.067H80.5652V412.833C80.5652 411.602 81.5603 410.6 82.7826 410.6ZM62.8261 408.367C62.8261 407.136 63.8211 406.133 65.0435 406.133H73.913C75.1354 406.133 76.1304 407.136 76.1304 408.367V415.067H62.8261V408.367ZM45.087 412.833C45.087 411.602 46.082 410.6 47.3043 410.6H56.1739C57.3962 410.6 58.3913 411.602 58.3913 412.833V415.067H45.087V412.833ZM42.2653 419.533H47.5261C48.5572 424.625 53.0363 428.467 58.3913 428.467H65.0435V432.933C65.0435 436.627 68.0286 439.633 71.6957 439.633C75.3627 439.633 78.3478 436.627 78.3478 432.933C78.3478 431.702 79.3429 430.7 80.5652 430.7C81.7876 430.7 82.7826 431.702 82.7826 432.933V439.633C82.7826 443.327 85.7678 446.333 89.4348 446.333C93.1018 446.333 96.087 443.327 96.087 439.633V428.467H98.3044C103.659 428.467 108.138 424.625 109.17 419.533H114.43C112.332 423.855 109.391 432.104 109.391 444.379C109.391 450.133 108.41 455.286 106.991 459.733H49.7047C48.2855 455.286 47.3043 450.133 47.3043 444.379C47.3043 432.104 44.3635 423.855 42.2653 419.533ZM51.3594 464.2H105.336C104.652 465.819 103.925 467.307 103.194 468.667H53.5047C52.773 467.307 52.0468 465.819 51.3622 464.2H51.3594ZM106.126 486.533H50.5695C46.628 486.533 42.9832 484.883 40.411 482.067H116.287C113.715 484.883 110.07 486.533 106.129 486.533H106.126ZM59.6303 477.6C58.9262 476.807 57.6596 475.294 56.2016 473.133H100.494C99.0361 475.294 97.7694 476.81 97.0654 477.6H59.6303Z" fill="black" fill-opacity="0.08"/>
<path d="M78.9022 383.057C78.9022 385.218 78.0762 386.206 76.9315 387.572C75.5872 389.177 73.9131 391.173 73.9131 394.967C73.9131 396.201 74.9053 397.2 76.1304 397.2C77.3556 397.2 78.3478 396.201 78.3478 394.967C78.3478 392.806 79.1738 391.818 80.3185 390.453C81.6628 388.847 83.337 386.851 83.337 383.057C83.337 379.264 81.4688 377.189 79.9665 375.573C78.6583 374.169 77.7935 373.239 77.7935 371.145C77.7935 369.052 78.6195 367.996 79.7642 366.628C81.1085 365.023 82.7826 363.027 82.7826 359.233C82.7826 357.999 81.7903 357 80.5652 357C79.3401 357 78.3478 357.999 78.3478 359.233C78.3478 361.394 77.5219 362.382 76.3771 363.75C75.0328 365.355 73.3587 367.351 73.3587 371.145C73.3587 374.939 75.2269 377.013 76.7291 378.63C78.0374 380.034 78.9022 380.964 78.9022 383.057Z" fill="black" fill-opacity="0.08"/>
<path d="M93.8696 394.967C93.8696 396.201 94.8619 397.2 96.087 397.2C97.3121 397.2 98.3044 396.201 98.3044 394.967C98.3044 393.616 98.831 393.052 99.7845 392.027C100.915 390.813 102.462 389.149 102.462 386.033C102.462 382.918 101.023 381.304 99.9729 380.095C99.1054 379.096 98.5815 378.493 98.5815 377.1C98.5815 375.707 99.1082 375.185 100.062 374.16C101.193 372.946 102.739 371.282 102.739 368.167C102.739 366.933 101.747 365.933 100.522 365.933C99.2966 365.933 98.3044 366.933 98.3044 368.167C98.3044 369.518 97.7777 370.082 96.8242 371.106C95.6934 372.321 94.1467 373.985 94.1467 377.1C94.1467 380.216 95.5853 381.829 96.6358 383.038C97.5033 384.037 98.0272 384.64 98.0272 386.033C98.0272 387.426 97.5005 387.948 96.5471 388.973C95.4162 390.187 93.8696 391.851 93.8696 394.967Z" fill="black" fill-opacity="0.08"/>
<path d="M53.9565 394.967C53.9565 396.201 54.9488 397.2 56.1739 397.2C57.399 397.2 58.3913 396.201 58.3913 394.967C58.3913 393.616 58.918 393.052 59.8714 392.027C61.0023 390.813 62.5489 389.149 62.5489 386.033C62.5489 382.918 61.1104 381.304 60.0599 380.095C59.1924 379.096 58.6685 378.493 58.6685 377.1C58.6685 375.707 59.1951 375.185 60.1486 374.16C61.2795 372.946 62.8261 371.282 62.8261 368.167C62.8261 366.933 61.8338 365.933 60.6087 365.933C59.3836 365.933 58.3913 366.933 58.3913 368.167C58.3913 369.518 57.8647 370.082 56.9112 371.106C55.7803 372.321 54.2337 373.985 54.2337 377.1C54.2337 380.216 55.6723 381.829 56.7227 383.038C57.5903 384.037 58.1142 384.64 58.1142 386.033C58.1142 387.426 57.5875 387.948 56.634 388.973C55.5032 390.187 53.9565 391.851 53.9565 394.967Z" fill="black" fill-opacity="0.08"/>
</g>
<defs>
<clipPath id="clip0_2_73">
<rect width="102" height="134" fill="white" transform="translate(34 357)"/>
</clipPath>
</defs>
</svg>
