<svg width="255" height="252" viewBox="0 0 255 252" fill="none" xmlns="http://www.w3.org/2000/svg">
<rect width="255" height="252" rx="20" fill="#EE425D"/>
<path d="M17 39.44V36L30.32 18.92H34.64V35.76H37.96V39.44H34.64V47H30.12V39.44H17ZM21.44 35.76H30.12V24.64L21.44 35.76Z" fill="white"/>
<g clip-path="url(#clip0_2_74)">
<path d="M220 74.1905C220 67.4667 214.527 62 207.803 62C203.371 62 199.338 64.4152 197.2 68.179C196.678 68.1257 196.144 68.0952 195.607 68.0952H171.213C170.676 68.0952 170.146 68.1257 169.62 68.179C167.482 64.4152 163.449 62 159.016 62C152.293 62 146.82 67.4667 146.82 74.1905C146.82 76.4419 147.433 78.5486 148.504 80.3581C145.848 80.6248 142.982 81.6076 139.734 82.72C134.733 84.4343 129.066 86.381 122.43 86.381C117.452 86.381 114.132 85.2571 110.29 83.9543C105.214 82.2362 99.4621 80.2857 88.8891 80.2857C72.1224 80.2857 55.2299 89.8133 50.5342 110.762H46.2005C39.4771 110.762 34.0038 116.229 34.0038 122.952V129.048C34.0038 135.771 39.4771 141.238 46.2005 141.238C47.5574 141.238 48.8876 141.013 50.1492 140.583C50.9992 148.754 52.4514 156.568 54.5057 163.935C57.3453 174.126 60.6841 181.192 62.9863 185.322C64.5947 188.21 67.6515 190 70.9713 190H102.877C106.936 190 110.237 186.701 110.237 182.644C110.237 180.678 109.471 178.83 108.08 177.44L105.263 174.625C107.245 172.183 110.268 167.924 112.417 162.446C114.7 162.24 118.645 161.688 123.684 160.225C125.292 171.916 128.109 180.004 130.042 184.488C131.482 187.836 134.779 190 138.438 190H169.959C174.018 190 177.319 186.701 177.319 182.644C177.319 180.678 176.553 178.83 175.162 177.44L171.244 173.528C171.373 169.402 172.155 155.992 176.805 149.025C178.859 145.947 182.247 142.51 185.838 138.876C192.409 132.221 199.845 124.686 202.063 116.213L205.135 113.756C208.771 110.85 210.856 106.51 210.856 101.859V86C216.112 84.6438 220.004 79.8667 220.004 74.1943L220 74.1905ZM46.1967 135.143C42.835 135.143 40.0984 132.408 40.0984 129.048V122.952C40.0984 119.592 42.835 116.857 46.1967 116.857H49.5508C49.3526 118.808 49.2459 120.834 49.2459 122.952C49.2459 126.731 49.3641 130.446 49.5966 134.099C48.5941 134.773 47.4164 135.143 46.1967 135.143ZM159.016 68.0952C160.796 68.0952 162.447 68.8724 163.583 70.1486C160.049 72.1981 157.412 75.6267 156.409 79.6914C154.347 78.7124 152.918 76.6171 152.918 74.1905C152.918 70.8305 155.655 68.0952 159.016 68.0952ZM181.493 134.594C177.693 138.442 174.102 142.08 171.728 145.646C165.191 155.444 165.119 173.981 165.119 174.766C165.119 175.55 165.439 176.35 166.01 176.922L170.847 181.756C171.087 181.996 171.217 182.312 171.217 182.648C171.217 183.345 170.649 183.909 169.955 183.909H161.955C162.027 183.497 162.073 183.078 162.073 182.648C162.073 180.682 161.307 178.834 159.916 177.444L156.158 173.688C156.973 168.225 160.305 148.545 167.851 133.463C168.057 133.051 168.175 132.59 168.175 132.099C168.175 130.415 166.811 129.051 165.126 129.051C163.933 129.051 162.9 129.737 162.401 130.739C153.128 149.276 150.033 173.371 149.907 174.389C149.789 175.322 150.113 176.255 150.776 176.922L155.613 181.756C155.853 181.996 155.982 182.312 155.982 182.648C155.982 183.345 155.415 183.909 154.721 183.909H138.446C137.226 183.909 136.128 183.192 135.652 182.084C132.995 175.909 128.54 162.392 128.54 141.242C128.54 139.558 127.175 138.194 125.491 138.194C123.806 138.194 122.441 139.558 122.441 141.242C122.441 145.859 122.651 150.133 123.002 154.076C115.36 156.423 110.29 156.48 110.245 156.48C108.934 156.48 107.767 157.318 107.352 158.564C104.585 166.865 98.9933 172.56 98.9399 172.61C97.7507 173.798 97.7507 175.73 98.9399 176.918L103.777 181.752C104.017 181.992 104.146 182.309 104.146 182.644C104.146 183.341 103.578 183.905 102.885 183.905H94.8845C94.9569 183.493 95.0027 183.074 95.0027 182.644C95.0027 180.678 94.2366 178.83 92.8454 177.44L90.2612 174.857C94.2747 170.758 101.772 161.139 104.116 144.716C104.135 144.575 104.15 144.43 104.15 144.286C104.15 142.602 102.786 141.238 101.101 141.238C99.565 141.238 98.2958 142.377 98.0862 143.855C95.2733 163.539 84.1323 172.248 84.0294 172.324C83.3205 172.853 82.8784 173.665 82.8174 174.545C82.7526 175.425 83.0766 176.29 83.7016 176.914L88.5384 181.749C88.7785 181.989 88.9081 182.305 88.9081 182.64C88.9081 183.337 88.3402 183.901 87.6465 183.901H70.9866C69.8812 183.901 68.8636 183.307 68.33 182.354C64.4308 175.356 55.3671 155.562 55.3671 122.949C55.3671 111.181 58.9918 101.539 65.8449 95.0705C71.7832 89.4667 79.974 86.3771 88.9081 86.3771C98.4787 86.3771 103.498 88.08 108.35 89.7219C112.524 91.1352 116.461 92.4724 122.449 92.4724C130.103 92.4724 136.552 90.259 141.735 88.4838C145.028 87.3524 147.875 86.3771 149.892 86.3771H155.99V101.851C155.99 106.507 158.075 110.842 161.711 113.749L169.041 119.608C171.735 121.76 175.116 122.945 178.565 122.945H188.304C189.668 122.945 191.025 122.754 192.333 122.396C189.36 126.64 185.285 130.77 181.519 134.583L181.493 134.594ZM204.754 101.855C204.754 104.648 203.504 107.25 201.32 108.994L193.994 114.853C192.378 116.145 190.347 116.857 188.281 116.857H178.543C176.473 116.857 174.445 116.145 172.829 114.853L165.504 108.994C163.323 107.25 162.069 104.648 162.069 101.855V83.3333C162.069 78.2933 166.174 74.1905 171.217 74.1905H195.61C200.653 74.1905 204.758 78.2933 204.758 83.3333V101.855H204.754ZM210.41 79.6914C209.408 75.6267 206.77 72.1981 203.237 70.1486C204.373 68.8686 206.023 68.0952 207.803 68.0952C211.165 68.0952 213.902 70.8305 213.902 74.1905C213.902 76.6171 212.469 78.7124 210.41 79.6914Z" fill="black" fill-opacity="0.08"/>
<path d="M192.557 92.4762C194.241 92.4762 195.607 91.1117 195.607 89.4286C195.607 87.7454 194.241 86.381 192.557 86.381C190.873 86.381 189.508 87.7454 189.508 89.4286C189.508 91.1117 190.873 92.4762 192.557 92.4762Z" fill="black" fill-opacity="0.08"/>
<path d="M174.262 92.4762C175.946 92.4762 177.311 91.1117 177.311 89.4286C177.311 87.7454 175.946 86.381 174.262 86.381C172.578 86.381 171.213 87.7454 171.213 89.4286C171.213 91.1117 172.578 92.4762 174.262 92.4762Z" fill="black" fill-opacity="0.08"/>
<path d="M190.873 104.99C188.91 104.008 186.76 102.316 186.459 101.528V98.5714C188.144 98.5714 189.508 97.2076 189.508 95.5238C189.508 93.84 188.144 92.4762 186.459 92.4762H180.361C178.676 92.4762 177.311 93.84 177.311 95.5238C177.311 97.2076 178.676 98.5714 180.361 98.5714V101.516C180.075 102.293 177.918 103.996 175.947 104.987C174.948 105.49 174.262 106.518 174.262 107.714C174.262 109.398 175.627 110.762 177.311 110.762C177.803 110.762 178.264 110.644 178.676 110.438C179.617 109.97 181.657 108.853 183.41 107.261C185.163 108.857 187.202 109.97 188.144 110.442C188.555 110.644 189.017 110.762 189.508 110.762C191.193 110.762 192.557 109.398 192.557 107.714C192.557 106.522 191.871 105.49 190.873 104.99Z" fill="black" fill-opacity="0.08"/>
</g>
<rect x="60.5" y="208.5" width="179" height="29" rx="11.5" fill="#EE425D"/>
<rect x="60.5" y="208.5" width="179" height="29" rx="11.5" stroke="white"/>
<path d="M70.7861 223.071C70.7861 220.118 71.9893 218.006 74.7852 218.006C75.5166 218.006 76.1182 218.136 76.6035 218.389C77.082 218.642 77.4648 218.942 77.7588 219.291C78.0459 219.64 78.251 219.988 78.3672 220.337C78.4834 220.686 78.5381 220.959 78.5381 221.157C78.5381 221.205 78.5176 221.226 78.4697 221.226H77.2393C77.1914 221.226 77.1572 221.205 77.1367 221.157C77.0273 220.856 76.877 220.357 76.5215 219.947C76.166 219.537 75.6533 219.195 74.7852 219.195C73.9443 219.195 73.3018 219.537 72.8574 220.221C72.4062 220.911 72.1807 221.861 72.1807 223.071C72.1807 224.281 72.4062 225.231 72.8574 225.915C73.3018 226.605 73.9443 226.947 74.7852 226.947C76.46 226.947 76.918 225.737 77.1367 224.992C77.1436 224.944 77.1777 224.924 77.2393 224.917H78.4697C78.5176 224.917 78.5381 224.944 78.5381 224.992C78.5381 225.225 78.4766 225.519 78.3467 225.874C78.2168 226.229 78.0049 226.571 77.7109 226.906C77.417 227.241 77.0273 227.535 76.5557 227.774C76.0771 228.014 75.4893 228.137 74.7852 228.137C71.9893 228.137 70.7861 226.059 70.7861 223.071ZM81.2241 227.932V218.211C81.2241 218.163 81.2446 218.143 81.2924 218.143H82.4819C82.5297 218.143 82.5502 218.163 82.5571 218.211V222.258C82.5571 222.306 82.5776 222.326 82.6254 222.333H86.9252C86.9731 222.333 86.9936 222.306 86.9936 222.258V218.211C86.9936 218.163 87.0141 218.143 87.062 218.143H88.2514C88.2993 218.143 88.3198 218.163 88.3198 218.211V227.932C88.3198 227.979 88.2993 228 88.2514 228H87.062C87.0141 228 86.9936 227.979 86.9936 227.932V223.591C86.9936 223.543 86.9731 223.522 86.9252 223.522H82.6254C82.5776 223.522 82.5571 223.543 82.5571 223.577V227.932C82.5571 227.979 82.5297 228 82.4819 228H81.2924C81.2446 228 81.2241 227.979 81.2241 227.932ZM91.5253 227.932V218.211C91.5253 218.163 91.5458 218.143 91.5936 218.143H95.5448C97.0692 218.143 98.4022 219.469 98.4022 221.137C98.4022 221.752 98.245 222.292 97.9305 222.764C97.6161 223.235 97.2196 223.591 96.7343 223.816C96.7001 223.837 96.6864 223.864 96.7069 223.912L98.4979 227.932C98.5184 227.979 98.4911 228 98.4296 228H97.2675C97.2333 228 97.1581 228.007 97.1239 227.932L95.4423 224.151C95.4218 224.104 95.3944 224.083 95.3466 224.083H92.9266C92.8788 224.083 92.8583 224.104 92.8583 224.151V227.932C92.8583 227.979 92.8309 228 92.7831 228H91.5936C91.5458 228 91.5253 227.979 91.5253 227.932ZM92.8583 219.407V222.818C92.8583 222.866 92.8788 222.887 92.9266 222.887H95.4286C96.2899 222.853 97.0692 222.101 97.0692 221.137C97.0692 220.173 96.2489 219.332 95.3739 219.332H92.9266C92.8788 219.332 92.8583 219.359 92.8583 219.407ZM100.849 223.071C100.849 220.118 102.045 218.006 104.848 218.006C107.651 218.006 108.84 220.118 108.84 223.071C108.84 226.059 107.651 228.137 104.848 228.137C102.038 228.137 100.849 226.059 100.849 223.071ZM102.243 223.071C102.243 225.505 103.036 226.947 104.848 226.947C105.757 226.947 106.413 226.605 106.83 225.915C107.247 225.231 107.452 224.281 107.452 223.071C107.452 220.645 106.789 219.195 104.848 219.195C103.036 219.195 102.243 220.645 102.243 223.071ZM111.007 227.932V218.211C111.007 218.163 111.027 218.143 111.075 218.143H113.276C113.331 218.143 113.365 218.163 113.372 218.211L114.814 226.612C114.848 226.688 114.91 226.688 114.958 226.612L116.393 218.211C116.4 218.163 116.434 218.143 116.496 218.143H118.69C118.738 218.143 118.759 218.163 118.765 218.211V227.932C118.765 227.979 118.738 228 118.69 228H117.501C117.453 228 117.432 227.979 117.432 227.932V219.558C117.432 219.469 117.316 219.448 117.296 219.558L115.881 227.904C115.874 227.966 115.833 228 115.764 228H114.001C113.939 228 113.898 227.966 113.891 227.904L112.476 219.558C112.456 219.448 112.34 219.469 112.34 219.558V227.932C112.34 227.979 112.312 228 112.264 228H111.075C111.027 228 111.007 227.979 111.007 227.932ZM121.752 227.932V218.211C121.752 218.163 121.779 218.143 121.827 218.143H128.561C128.609 218.143 128.629 218.163 128.629 218.211V219.264C128.629 219.312 128.609 219.332 128.561 219.332H123.154C123.106 219.332 123.085 219.359 123.085 219.407V222.258C123.085 222.306 123.106 222.326 123.154 222.333H127.987C128.034 222.333 128.055 222.354 128.055 222.401V223.447C128.055 223.495 128.034 223.516 127.987 223.522H123.154C123.106 223.522 123.085 223.543 123.085 223.591V226.742C123.085 226.79 123.106 226.811 123.154 226.811H128.561C128.609 226.811 128.629 226.831 128.629 226.879V227.932C128.629 227.979 128.609 228 128.561 228H121.827C121.779 228 121.759 227.979 121.752 227.932ZM141.821 227.932V218.211C141.821 218.163 141.849 218.143 141.897 218.143H148.63C148.678 218.143 148.698 218.163 148.698 218.211V219.264C148.698 219.312 148.678 219.332 148.63 219.332H143.223C143.175 219.332 143.154 219.359 143.154 219.407V222.258C143.154 222.306 143.175 222.326 143.223 222.333H148.056C148.104 222.333 148.124 222.354 148.124 222.401V223.447C148.124 223.495 148.104 223.516 148.056 223.522H143.223C143.175 223.522 143.154 223.543 143.154 223.591V226.742C143.154 226.79 143.175 226.811 143.223 226.811H148.63C148.678 226.811 148.698 226.831 148.698 226.879V227.932C148.698 227.979 148.678 228 148.63 228H141.897C141.849 228 141.828 227.979 141.821 227.932ZM150.974 227.932L154.194 223.126C154.221 223.092 154.221 223.051 154.194 223.017L150.974 218.211C150.947 218.163 150.96 218.143 151.022 218.143H152.43C152.478 218.143 152.512 218.163 152.546 218.211L154.939 221.909C154.987 221.971 155.028 221.971 155.076 221.909L157.489 218.211C157.523 218.163 157.571 218.143 157.626 218.143H159.013C159.068 218.143 159.082 218.163 159.054 218.211L155.834 223.017C155.807 223.051 155.807 223.092 155.834 223.126L159.054 227.932C159.082 227.979 159.068 228 159.013 228H157.584C157.55 228 157.516 227.979 157.489 227.932L155.076 224.233C155.028 224.172 154.987 224.172 154.939 224.233C154.754 224.521 154.522 224.869 154.255 225.286C153.982 225.703 153.722 226.113 153.469 226.503C153.168 226.961 152.861 227.433 152.546 227.932C152.519 227.979 152.478 228 152.43 228H151.022C150.967 228 150.954 227.979 150.974 227.932ZM161.542 219.264V218.211C161.542 218.163 161.562 218.143 161.61 218.143H168.487C168.535 218.143 168.556 218.163 168.556 218.211V219.264C168.556 219.312 168.535 219.332 168.487 219.332H165.787C165.739 219.332 165.719 219.359 165.719 219.407V227.932C165.719 227.979 165.691 228 165.644 228H164.454C164.406 228 164.386 227.979 164.386 227.932V219.387C164.365 219.353 164.345 219.332 164.317 219.332H161.61C161.562 219.332 161.542 219.312 161.542 219.264ZM171.925 227.932V218.211C171.925 218.163 171.953 218.143 172 218.143H178.734C178.782 218.143 178.802 218.163 178.802 218.211V219.264C178.802 219.312 178.782 219.332 178.734 219.332H173.327C173.279 219.332 173.258 219.359 173.258 219.407V222.258C173.258 222.306 173.279 222.326 173.327 222.333H178.16C178.207 222.333 178.228 222.354 178.228 222.401V223.447C178.228 223.495 178.207 223.516 178.16 223.522H173.327C173.279 223.522 173.258 223.543 173.258 223.591V226.742C173.258 226.79 173.279 226.811 173.327 226.811H178.734C178.782 226.811 178.802 226.831 178.802 226.879V227.932C178.802 227.979 178.782 228 178.734 228H172C171.953 228 171.932 227.979 171.925 227.932ZM181.488 227.932V218.211C181.488 218.163 181.509 218.143 181.556 218.143H183.348C183.382 218.143 183.416 218.163 183.45 218.211L187.271 226.052C187.306 226.141 187.408 226.141 187.408 226.038V218.211C187.408 218.163 187.429 218.143 187.476 218.143H188.666C188.714 218.143 188.734 218.163 188.741 218.211V227.932C188.741 227.979 188.714 228 188.666 228H186.889C186.841 228 186.806 227.979 186.779 227.932L182.958 220.091C182.924 220.002 182.814 220.016 182.814 220.104V227.932C182.814 227.979 182.794 228 182.746 228H181.556C181.509 228 181.488 227.979 181.488 227.932ZM191.407 225.3C191.407 225.252 191.434 225.231 191.482 225.225H192.726C192.781 225.225 192.808 225.252 192.808 225.313C192.808 226.024 193.567 226.947 195.146 226.947C196.643 226.947 197.484 226.154 197.484 225.225C197.484 223.98 196.369 223.7 195.146 223.591C193.587 223.434 191.571 222.982 191.577 220.815C191.577 219.018 193.286 218.006 194.995 218.006C196.752 218.006 198.434 218.922 198.509 220.843C198.509 220.891 198.489 220.911 198.441 220.918H197.176C197.128 220.911 197.108 220.891 197.108 220.843C197.108 219.913 196.24 219.195 194.995 219.195C193.888 219.195 192.979 219.872 192.979 220.815C192.979 221.964 194.175 222.148 195.146 222.258C196.978 222.477 198.885 222.914 198.885 225.225C198.885 226.64 197.866 228.137 195.146 228.137C192.719 228.137 191.407 226.817 191.407 225.3ZM202.118 227.932V226.879C202.118 226.831 202.138 226.811 202.186 226.811H204.456C204.504 226.811 204.524 226.79 204.524 226.742V219.407C204.524 219.359 204.504 219.339 204.456 219.332H202.186C202.138 219.332 202.118 219.312 202.118 219.264V218.211C202.118 218.163 202.138 218.143 202.186 218.143H208.304C208.352 218.143 208.373 218.163 208.373 218.211V219.264C208.373 219.312 208.352 219.332 208.304 219.332H205.926C205.878 219.332 205.857 219.359 205.857 219.407V226.742C205.857 226.79 205.878 226.811 205.926 226.811H208.304C208.352 226.811 208.373 226.831 208.373 226.879V227.932C208.373 227.979 208.352 228 208.304 228H202.186C202.138 228 202.118 227.979 202.118 227.932ZM211.23 223.071C211.23 220.118 212.426 218.006 215.229 218.006C218.031 218.006 219.221 220.118 219.221 223.071C219.221 226.059 218.031 228.137 215.229 228.137C212.419 228.137 211.23 226.059 211.23 223.071ZM212.624 223.071C212.624 225.505 213.417 226.947 215.229 226.947C216.138 226.947 216.794 226.605 217.211 225.915C217.628 225.231 217.833 224.281 217.833 223.071C217.833 220.645 217.17 219.195 215.229 219.195C213.417 219.195 212.624 220.645 212.624 223.071ZM221.627 227.932V218.211C221.627 218.163 221.647 218.143 221.695 218.143H223.486C223.52 218.143 223.554 218.163 223.588 218.211L227.41 226.052C227.444 226.141 227.546 226.141 227.546 226.038V218.211C227.546 218.163 227.567 218.143 227.615 218.143H228.804C228.852 218.143 228.873 218.163 228.879 218.211V227.932C228.879 227.979 228.852 228 228.804 228H227.027C226.979 228 226.945 227.979 226.918 227.932L223.096 220.091C223.062 220.002 222.953 220.016 222.953 220.104V227.932C222.953 227.979 222.932 228 222.884 228H221.695C221.647 228 221.627 227.979 221.627 227.932Z" fill="white"/>
<path d="M86.1803 133.907L83.5548 120.733C83.527 120.659 83.5641 120.622 83.6476 120.622H85.6886C85.7257 120.622 85.7536 120.65 85.7814 120.715L87.8131 131.894C87.841 132.015 87.9709 131.996 87.9987 131.894L90.2809 120.715C90.3088 120.65 90.3459 120.622 90.3922 120.622H93.797C93.8434 120.622 93.8805 120.65 93.9084 120.715L96.2091 131.894C96.237 132.015 96.3761 132.015 96.404 131.894L98.4171 120.715C98.445 120.65 98.4728 120.622 98.5099 120.622H100.542C100.625 120.622 100.662 120.659 100.634 120.733L98.0182 133.907C97.9904 133.972 97.9533 134 97.8976 134H94.6505C94.5856 134 94.5485 133.972 94.5392 133.907L92.2013 122.756C92.1735 122.635 92.0251 122.617 91.9972 122.756L89.6593 133.907C89.6315 133.972 89.5851 134 89.5202 134H86.3102C86.236 134 86.1896 133.972 86.1803 133.907ZM102.767 133.907V120.715C102.767 120.65 102.805 120.622 102.87 120.622H104.706C104.771 120.622 104.799 120.65 104.799 120.715V125.187C104.799 125.307 104.966 125.298 105.013 125.224C105.189 124.982 105.495 124.75 105.931 124.528C106.358 124.305 106.84 124.194 107.388 124.194C110.264 124.194 111.47 126.263 111.47 128.703V133.907C111.47 133.972 111.442 134 111.377 134H109.512C109.447 134 109.419 133.972 109.419 133.907V128.703C109.419 127.413 108.788 126.096 107.1 126.096C105.569 126.096 104.799 127.292 104.799 128.601V133.907C104.799 133.972 104.771 134 104.706 134H102.87C102.805 134 102.777 133.972 102.767 133.907ZM113.9 131.152C113.9 129.482 115.282 128.165 118.065 128.165H120.023C120.431 128.165 120.626 127.858 120.626 127.636C120.626 127.051 120.459 126.059 118.408 126.059C117.638 126.059 117.091 126.207 116.766 126.495C116.442 126.782 116.265 127.135 116.256 127.543C116.256 127.608 116.228 127.636 116.163 127.636H114.317C114.252 127.636 114.224 127.608 114.224 127.543C114.224 125.307 116.2 124.194 118.408 124.194C119.726 124.194 120.765 124.481 121.526 125.066C122.286 125.65 122.667 126.541 122.667 127.729V131.625C122.667 131.987 122.917 132.256 123.325 132.256H123.743C123.808 132.256 123.836 132.284 123.836 132.349V133.907C123.836 133.972 123.808 134 123.743 134H122.982C121.915 134 121.377 133.694 121.043 133.109C120.997 133.035 120.941 133.026 120.876 133.091C120.635 133.341 120.245 133.592 119.707 133.824C119.169 134.065 118.492 134.186 117.685 134.186C116.404 134.186 115.458 133.898 114.837 133.332C114.215 132.766 113.9 132.033 113.9 131.152ZM115.941 131.152C115.941 131.681 116.349 132.349 117.685 132.349C119.818 132.349 120.626 131.115 120.626 130.048V129.918C120.626 129.853 120.598 129.825 120.533 129.816H118.121C116.247 129.816 115.941 130.567 115.941 131.152ZM124.67 126.003V124.481C124.67 124.417 124.698 124.389 124.763 124.389H126.377C126.442 124.389 126.47 124.352 126.47 124.287V121.726C126.47 121.661 126.497 121.633 126.562 121.633H128.427C128.492 121.633 128.52 121.661 128.52 121.726V124.287C128.52 124.352 128.557 124.379 128.622 124.389H130.617C130.682 124.389 130.709 124.417 130.709 124.481V126.003C130.709 126.068 130.682 126.096 130.617 126.096H128.622C128.557 126.096 128.529 126.124 128.52 126.188V131.375C128.52 131.857 128.789 132.154 129.383 132.154H130.617C130.682 132.154 130.709 132.191 130.709 132.256V133.907C130.709 133.972 130.682 134 130.617 134H129.132C128.167 134 127.481 133.787 127.082 133.369C126.674 132.952 126.47 132.274 126.47 131.319V126.188C126.47 126.124 126.442 126.096 126.377 126.096H124.763C124.698 126.096 124.67 126.068 124.67 126.003ZM133.325 133.907V120.715C133.325 120.65 133.362 120.622 133.427 120.622H142.296C142.361 120.622 142.389 120.65 142.389 120.715V122.394C142.389 122.459 142.361 122.487 142.296 122.487H135.459C135.394 122.487 135.366 122.515 135.357 122.561V126.151C135.357 126.216 135.394 126.244 135.459 126.244H141.424C141.489 126.244 141.517 126.281 141.517 126.346V127.998C141.517 128.062 141.489 128.09 141.424 128.09H135.459C135.394 128.09 135.366 128.118 135.357 128.183V133.907C135.357 133.972 135.329 134 135.264 134H133.427C133.362 134 133.334 133.972 133.325 133.907ZM143.353 129.194C143.353 126.198 145.088 124.194 148.057 124.194C151.025 124.194 152.788 126.235 152.788 129.194C152.788 132.163 151.025 134.186 148.057 134.186C145.078 134.186 143.353 132.163 143.353 129.194ZM145.403 129.194C145.403 130.15 145.635 130.911 146.099 131.486C146.554 132.061 147.212 132.349 148.057 132.349C148.929 132.349 149.597 132.061 150.051 131.486C150.506 130.911 150.738 130.15 150.738 129.194C150.738 128.239 150.515 127.478 150.06 126.912C149.606 126.346 148.938 126.059 148.057 126.059C147.212 126.059 146.554 126.346 146.099 126.912C145.635 127.478 145.403 128.239 145.403 129.194ZM155.478 133.907V124.481C155.478 124.417 155.515 124.389 155.58 124.389H157.194C157.259 124.389 157.296 124.417 157.324 124.481L157.509 125.205C157.556 125.326 157.676 125.27 157.723 125.224C158.094 124.704 159.077 124.194 160.098 124.194C162.974 124.194 164.18 126.263 164.18 128.703V133.907C164.18 133.972 164.152 134 164.087 134H162.222C162.157 134 162.129 133.972 162.129 133.907V128.703C162.129 127.413 161.499 126.059 159.81 126.059C158.279 126.059 157.509 127.292 157.509 128.601V133.907C157.509 133.972 157.482 134 157.417 134H155.58C155.515 134 155.487 133.972 155.478 133.907ZM165.932 126.003V124.481C165.932 124.417 165.96 124.389 166.025 124.389H167.639C167.704 124.389 167.732 124.352 167.732 124.287V121.726C167.732 121.661 167.76 121.633 167.825 121.633H169.69C169.755 121.633 169.783 121.661 169.783 121.726V124.287C169.783 124.352 169.82 124.379 169.885 124.389H171.879C171.944 124.389 171.972 124.417 171.972 124.481V126.003C171.972 126.068 171.944 126.096 171.879 126.096H169.885C169.82 126.096 169.792 126.124 169.783 126.188V131.375C169.783 131.857 170.052 132.154 170.645 132.154H171.879C171.944 132.154 171.972 132.191 171.972 132.256V133.907C171.972 133.972 171.944 134 171.879 134H170.395C169.43 134 168.743 133.787 168.345 133.369C167.936 132.952 167.732 132.274 167.732 131.319V126.188C167.732 126.124 167.704 126.096 167.639 126.096H166.025C165.96 126.096 165.932 126.068 165.932 126.003Z" fill="white"/>
<path d="M215 23C214.448 23 214 23.4477 214 24C214 24.5523 214.448 25 215 25L215 23ZM237.707 24.7071C238.098 24.3166 238.098 23.6834 237.707 23.2929L231.343 16.9289C230.953 16.5384 230.319 16.5384 229.929 16.9289C229.538 17.3195 229.538 17.9526 229.929 18.3431L235.586 24L229.929 29.6569C229.538 30.0474 229.538 30.6805 229.929 31.0711C230.319 31.4616 230.953 31.4616 231.343 31.0711L237.707 24.7071ZM215 25L237 25L237 23L215 23L215 25Z" fill="white"/>
<defs>
<clipPath id="clip0_2_74">
<rect width="186" height="128" fill="white" transform="translate(34 62)"/>
</clipPath>
</defs>
</svg>
