<svg width="255" height="252" viewBox="0 0 255 252" fill="none" xmlns="http://www.w3.org/2000/svg">
<rect width="255" height="252" rx="20" fill="#EE425D"/>
<g clip-path="url(#clip0_2_74)">
<path d="M220 74.1905C220 67.4667 214.527 62 207.803 62C203.371 62 199.338 64.4152 197.2 68.179C196.678 68.1257 196.144 68.0952 195.607 68.0952H171.213C170.676 68.0952 170.146 68.1257 169.62 68.179C167.482 64.4152 163.449 62 159.016 62C152.293 62 146.82 67.4667 146.82 74.1905C146.82 76.4419 147.433 78.5486 148.504 80.3581C145.848 80.6248 142.982 81.6076 139.734 82.72C134.733 84.4343 129.066 86.381 122.43 86.381C117.452 86.381 114.132 85.2571 110.29 83.9543C105.214 82.2362 99.4621 80.2857 88.8891 80.2857C72.1224 80.2857 55.2299 89.8133 50.5342 110.762H46.2005C39.4771 110.762 34.0038 116.229 34.0038 122.952V129.048C34.0038 135.771 39.4771 141.238 46.2005 141.238C47.5574 141.238 48.8876 141.013 50.1492 140.583C50.9992 148.754 52.4514 156.568 54.5057 163.935C57.3453 174.126 60.6841 181.192 62.9863 185.322C64.5947 188.21 67.6515 190 70.9713 190H102.877C106.936 190 110.237 186.701 110.237 182.644C110.237 180.678 109.471 178.83 108.08 177.44L105.263 174.625C107.245 172.183 110.268 167.924 112.417 162.446C114.7 162.24 118.645 161.688 123.684 160.225C125.292 171.916 128.109 180.004 130.042 184.488C131.482 187.836 134.779 190 138.438 190H169.959C174.018 190 177.319 186.701 177.319 182.644C177.319 180.678 176.553 178.83 175.162 177.44L171.244 173.528C171.373 169.402 172.155 155.992 176.805 149.025C178.859 145.947 182.247 142.51 185.838 138.876C192.409 132.221 199.845 124.686 202.063 116.213L205.135 113.756C208.771 110.85 210.856 106.51 210.856 101.859V86C216.112 84.6438 220.004 79.8667 220.004 74.1943L220 74.1905ZM46.1967 135.143C42.835 135.143 40.0984 132.408 40.0984 129.048V122.952C40.0984 119.592 42.835 116.857 46.1967 116.857H49.5508C49.3526 118.808 49.2459 120.834 49.2459 122.952C49.2459 126.731 49.3641 130.446 49.5966 134.099C48.5941 134.773 47.4164 135.143 46.1967 135.143ZM159.016 68.0952C160.796 68.0952 162.447 68.8724 163.583 70.1486C160.049 72.1981 157.412 75.6267 156.409 79.6914C154.347 78.7124 152.918 76.6171 152.918 74.1905C152.918 70.8305 155.655 68.0952 159.016 68.0952ZM181.493 134.594C177.693 138.442 174.102 142.08 171.728 145.646C165.191 155.444 165.119 173.981 165.119 174.766C165.119 175.55 165.439 176.35 166.01 176.922L170.847 181.756C171.087 181.996 171.217 182.312 171.217 182.648C171.217 183.345 170.649 183.909 169.955 183.909H161.955C162.027 183.497 162.073 183.078 162.073 182.648C162.073 180.682 161.307 178.834 159.916 177.444L156.158 173.688C156.973 168.225 160.305 148.545 167.851 133.463C168.057 133.051 168.175 132.59 168.175 132.099C168.175 130.415 166.811 129.051 165.126 129.051C163.933 129.051 162.9 129.737 162.401 130.739C153.128 149.276 150.033 173.371 149.907 174.389C149.789 175.322 150.113 176.255 150.776 176.922L155.613 181.756C155.853 181.996 155.982 182.312 155.982 182.648C155.982 183.345 155.415 183.909 154.721 183.909H138.446C137.226 183.909 136.128 183.192 135.652 182.084C132.995 175.909 128.54 162.392 128.54 141.242C128.54 139.558 127.175 138.194 125.491 138.194C123.806 138.194 122.441 139.558 122.441 141.242C122.441 145.859 122.651 150.133 123.002 154.076C115.36 156.423 110.29 156.48 110.245 156.48C108.934 156.48 107.767 157.318 107.352 158.564C104.585 166.865 98.9933 172.56 98.9399 172.61C97.7507 173.798 97.7507 175.73 98.9399 176.918L103.777 181.752C104.017 181.992 104.146 182.309 104.146 182.644C104.146 183.341 103.578 183.905 102.885 183.905H94.8845C94.9569 183.493 95.0027 183.074 95.0027 182.644C95.0027 180.678 94.2366 178.83 92.8454 177.44L90.2612 174.857C94.2747 170.758 101.772 161.139 104.116 144.716C104.135 144.575 104.15 144.43 104.15 144.286C104.15 142.602 102.786 141.238 101.101 141.238C99.565 141.238 98.2958 142.377 98.0862 143.855C95.2733 163.539 84.1323 172.248 84.0294 172.324C83.3205 172.853 82.8784 173.665 82.8174 174.545C82.7526 175.425 83.0766 176.29 83.7016 176.914L88.5384 181.749C88.7785 181.989 88.9081 182.305 88.9081 182.64C88.9081 183.337 88.3402 183.901 87.6465 183.901H70.9866C69.8812 183.901 68.8636 183.307 68.33 182.354C64.4308 175.356 55.3671 155.562 55.3671 122.949C55.3671 111.181 58.9918 101.539 65.8449 95.0705C71.7832 89.4667 79.974 86.3771 88.9081 86.3771C98.4787 86.3771 103.498 88.08 108.35 89.7219C112.524 91.1352 116.461 92.4724 122.449 92.4724C130.103 92.4724 136.552 90.259 141.735 88.4838C145.028 87.3524 147.875 86.3771 149.892 86.3771H155.99V101.851C155.99 106.507 158.075 110.842 161.711 113.749L169.041 119.608C171.735 121.76 175.116 122.945 178.565 122.945H188.304C189.668 122.945 191.025 122.754 192.333 122.396C189.36 126.64 185.285 130.77 181.519 134.583L181.493 134.594ZM204.754 101.855C204.754 104.648 203.504 107.25 201.32 108.994L193.994 114.853C192.378 116.145 190.347 116.857 188.281 116.857H178.543C176.473 116.857 174.445 116.145 172.829 114.853L165.504 108.994C163.323 107.25 162.069 104.648 162.069 101.855V83.3333C162.069 78.2933 166.174 74.1905 171.217 74.1905H195.61C200.653 74.1905 204.758 78.2933 204.758 83.3333V101.855H204.754ZM210.41 79.6914C209.408 75.6267 206.77 72.1981 203.237 70.1486C204.373 68.8686 206.023 68.0952 207.803 68.0952C211.165 68.0952 213.902 70.8305 213.902 74.1905C213.902 76.6171 212.469 78.7124 210.41 79.6914Z" fill="black" fill-opacity="0.08"/>
<path d="M192.557 92.4762C194.241 92.4762 195.607 91.1117 195.607 89.4286C195.607 87.7454 194.241 86.381 192.557 86.381C190.873 86.381 189.508 87.7454 189.508 89.4286C189.508 91.1117 190.873 92.4762 192.557 92.4762Z" fill="black" fill-opacity="0.08"/>
<path d="M174.262 92.4762C175.946 92.4762 177.311 91.1117 177.311 89.4286C177.311 87.7454 175.946 86.381 174.262 86.381C172.578 86.381 171.213 87.7454 171.213 89.4286C171.213 91.1117 172.578 92.4762 174.262 92.4762Z" fill="black" fill-opacity="0.08"/>
<path d="M190.873 104.99C188.91 104.008 186.76 102.316 186.459 101.528V98.5714C188.144 98.5714 189.508 97.2076 189.508 95.5238C189.508 93.84 188.144 92.4762 186.459 92.4762H180.361C178.676 92.4762 177.311 93.84 177.311 95.5238C177.311 97.2076 178.676 98.5714 180.361 98.5714V101.516C180.075 102.293 177.918 103.996 175.947 104.987C174.948 105.49 174.262 106.518 174.262 107.714C174.262 109.398 175.627 110.762 177.311 110.762C177.803 110.762 178.264 110.644 178.676 110.438C179.617 109.97 181.657 108.853 183.41 107.261C185.163 108.857 187.202 109.97 188.144 110.442C188.555 110.644 189.017 110.762 189.508 110.762C191.193 110.762 192.557 109.398 192.557 107.714C192.557 106.522 191.871 105.49 190.873 104.99Z" fill="black" fill-opacity="0.08"/>
</g>
<path d="M86.1803 133.907L83.5548 120.733C83.527 120.659 83.5641 120.622 83.6476 120.622H85.6886C85.7257 120.622 85.7536 120.65 85.7814 120.715L87.8131 131.894C87.841 132.015 87.9709 131.996 87.9987 131.894L90.2809 120.715C90.3088 120.65 90.3459 120.622 90.3922 120.622H93.797C93.8434 120.622 93.8805 120.65 93.9084 120.715L96.2091 131.894C96.237 132.015 96.3761 132.015 96.404 131.894L98.4171 120.715C98.445 120.65 98.4728 120.622 98.5099 120.622H100.542C100.625 120.622 100.662 120.659 100.634 120.733L98.0182 133.907C97.9904 133.972 97.9533 134 97.8976 134H94.6505C94.5856 134 94.5485 133.972 94.5392 133.907L92.2013 122.756C92.1735 122.635 92.0251 122.617 91.9972 122.756L89.6593 133.907C89.6315 133.972 89.5851 134 89.5202 134H86.3102C86.236 134 86.1896 133.972 86.1803 133.907ZM102.767 133.907V120.715C102.767 120.65 102.805 120.622 102.87 120.622H104.706C104.771 120.622 104.799 120.65 104.799 120.715V125.187C104.799 125.307 104.966 125.298 105.013 125.224C105.189 124.982 105.495 124.75 105.931 124.528C106.358 124.305 106.84 124.194 107.388 124.194C110.264 124.194 111.47 126.263 111.47 128.703V133.907C111.47 133.972 111.442 134 111.377 134H109.512C109.447 134 109.419 133.972 109.419 133.907V128.703C109.419 127.413 108.788 126.096 107.1 126.096C105.569 126.096 104.799 127.292 104.799 128.601V133.907C104.799 133.972 104.771 134 104.706 134H102.87C102.805 134 102.777 133.972 102.767 133.907ZM113.9 131.152C113.9 129.482 115.282 128.165 118.065 128.165H120.023C120.431 128.165 120.626 127.858 120.626 127.636C120.626 127.051 120.459 126.059 118.408 126.059C117.638 126.059 117.091 126.207 116.766 126.495C116.442 126.782 116.265 127.135 116.256 127.543C116.256 127.608 116.228 127.636 116.163 127.636H114.317C114.252 127.636 114.224 127.608 114.224 127.543C114.224 125.307 116.2 124.194 118.408 124.194C119.726 124.194 120.765 124.481 121.526 125.066C122.286 125.65 122.667 126.541 122.667 127.729V131.625C122.667 131.987 122.917 132.256 123.325 132.256H123.743C123.808 132.256 123.836 132.284 123.836 132.349V133.907C123.836 133.972 123.808 134 123.743 134H122.982C121.915 134 121.377 133.694 121.043 133.109C120.997 133.035 120.941 133.026 120.876 133.091C120.635 133.341 120.245 133.592 119.707 133.824C119.169 134.065 118.492 134.186 117.685 134.186C116.404 134.186 115.458 133.898 114.837 133.332C114.215 132.766 113.9 132.033 113.9 131.152ZM115.941 131.152C115.941 131.681 116.349 132.349 117.685 132.349C119.818 132.349 120.626 131.115 120.626 130.048V129.918C120.626 129.853 120.598 129.825 120.533 129.816H118.121C116.247 129.816 115.941 130.567 115.941 131.152ZM124.67 126.003V124.481C124.67 124.417 124.698 124.389 124.763 124.389H126.377C126.442 124.389 126.47 124.352 126.47 124.287V121.726C126.47 121.661 126.497 121.633 126.562 121.633H128.427C128.492 121.633 128.52 121.661 128.52 121.726V124.287C128.52 124.352 128.557 124.379 128.622 124.389H130.617C130.682 124.389 130.709 124.417 130.709 124.481V126.003C130.709 126.068 130.682 126.096 130.617 126.096H128.622C128.557 126.096 128.529 126.124 128.52 126.188V131.375C128.52 131.857 128.789 132.154 129.383 132.154H130.617C130.682 132.154 130.709 132.191 130.709 132.256V133.907C130.709 133.972 130.682 134 130.617 134H129.132C128.167 134 127.481 133.787 127.082 133.369C126.674 132.952 126.47 132.274 126.47 131.319V126.188C126.47 126.124 126.442 126.096 126.377 126.096H124.763C124.698 126.096 124.67 126.068 124.67 126.003ZM133.325 133.907V120.715C133.325 120.65 133.362 120.622 133.427 120.622H142.296C142.361 120.622 142.389 120.65 142.389 120.715V122.394C142.389 122.459 142.361 122.487 142.296 122.487H135.459C135.394 122.487 135.366 122.515 135.357 122.561V126.151C135.357 126.216 135.394 126.244 135.459 126.244H141.424C141.489 126.244 141.517 126.281 141.517 126.346V127.998C141.517 128.062 141.489 128.09 141.424 128.09H135.459C135.394 128.09 135.366 128.118 135.357 128.183V133.907C135.357 133.972 135.329 134 135.264 134H133.427C133.362 134 133.334 133.972 133.325 133.907ZM143.353 129.194C143.353 126.198 145.088 124.194 148.057 124.194C151.025 124.194 152.788 126.235 152.788 129.194C152.788 132.163 151.025 134.186 148.057 134.186C145.078 134.186 143.353 132.163 143.353 129.194ZM145.403 129.194C145.403 130.15 145.635 130.911 146.099 131.486C146.554 132.061 147.212 132.349 148.057 132.349C148.929 132.349 149.597 132.061 150.051 131.486C150.506 130.911 150.738 130.15 150.738 129.194C150.738 128.239 150.515 127.478 150.06 126.912C149.606 126.346 148.938 126.059 148.057 126.059C147.212 126.059 146.554 126.346 146.099 126.912C145.635 127.478 145.403 128.239 145.403 129.194ZM155.478 133.907V124.481C155.478 124.417 155.515 124.389 155.58 124.389H157.194C157.259 124.389 157.296 124.417 157.324 124.481L157.509 125.205C157.556 125.326 157.676 125.27 157.723 125.224C158.094 124.704 159.077 124.194 160.098 124.194C162.974 124.194 164.18 126.263 164.18 128.703V133.907C164.18 133.972 164.152 134 164.087 134H162.222C162.157 134 162.129 133.972 162.129 133.907V128.703C162.129 127.413 161.499 126.059 159.81 126.059C158.279 126.059 157.509 127.292 157.509 128.601V133.907C157.509 133.972 157.482 134 157.417 134H155.58C155.515 134 155.487 133.972 155.478 133.907ZM165.932 126.003V124.481C165.932 124.417 165.96 124.389 166.025 124.389H167.639C167.704 124.389 167.732 124.352 167.732 124.287V121.726C167.732 121.661 167.76 121.633 167.825 121.633H169.69C169.755 121.633 169.783 121.661 169.783 121.726V124.287C169.783 124.352 169.82 124.379 169.885 124.389H171.879C171.944 124.389 171.972 124.417 171.972 124.481V126.003C171.972 126.068 171.944 126.096 171.879 126.096H169.885C169.82 126.096 169.792 126.124 169.783 126.188V131.375C169.783 131.857 170.052 132.154 170.645 132.154H171.879C171.944 132.154 171.972 132.191 171.972 132.256V133.907C171.972 133.972 171.944 134 171.879 134H170.395C169.43 134 168.743 133.787 168.345 133.369C167.936 132.952 167.732 132.274 167.732 131.319V126.188C167.732 126.124 167.704 126.096 167.639 126.096H166.025C165.96 126.096 165.932 126.068 165.932 126.003Z" fill="white"/>
<defs>
<clipPath id="clip0_2_74">
<rect width="186" height="128" fill="white" transform="translate(34 62)"/>
</clipPath>
</defs>
</svg>
