<svg width="529" height="253" viewBox="0 0 529 253" fill="none" xmlns="http://www.w3.org/2000/svg">
<rect x="3.05176e-05" width="529" height="253" rx="20" fill="#FAD9D5"/>
<g clip-path="url(#clip0_2_77)">
<path d="M217.7 175.455H211.5V166.904C213.403 165.204 214.6 162.739 214.6 160V135.273C214.6 122.16 210.237 114.231 206.734 107.86C204.199 103.255 202.2 99.6191 202.2 95.0909V73.4545C202.2 71.7468 200.813 70.3636 199.1 70.3636H161.9C160.187 70.3636 158.8 71.7468 158.8 73.4545V85.8182C158.8 87.8968 158.8 89.79 158.653 91.6832C157.882 91.3741 157.114 91.1075 156.394 90.8718C154.681 90.3155 152.759 89.8286 150.984 89.477C149.953 87.0082 149.5 84.9295 149.5 82.7273V61.0909C149.5 59.3832 148.113 58 146.4 58H109.2C107.487 58 106.1 59.3832 106.1 61.0909V73.4545C106.1 75.5409 106.1 77.4341 105.953 79.335C101.655 77.5964 96.0366 76.5455 93.7 76.5455C88.5734 76.5455 84.4 80.7066 84.4 85.8182C84.4 90.9298 88.5734 95.0909 93.7 95.0909C95.281 95.0909 98.3151 94.6273 101.438 93.7966C99.7334 97.1 97.4045 100.975 94.2192 105.739C85.5625 118.69 62.9092 127.14 53.5705 130.169C47.9052 132.008 44.1 137.243 44.1 143.197C44.1 144.843 44.3945 146.419 44.9293 147.884C42.4299 150.217 41 153.486 41 156.905V169.269C41 176.088 46.5606 181.632 53.4 181.632H93.7C93.7 188.452 99.2606 193.996 106.1 193.996H217.7C222.827 193.996 227 189.835 227 184.723C227 179.612 222.827 175.451 217.7 175.451V175.455ZM192.9 172.364C192.9 174.068 191.509 175.455 189.8 175.455H173.765C174.11 174.489 174.3 173.445 174.3 172.364C174.3 167.252 170.127 163.091 165 163.091H159.327C160.737 162.345 162.152 161.569 163.586 160.78C168.15 158.277 172.796 155.735 177.691 153.83C179.264 153.977 180.5 155.302 180.5 156.905V159.996C180.5 165.108 184.673 169.269 189.8 169.269C191.509 169.269 192.9 170.656 192.9 172.36V172.364ZM124.7 172.364C124.7 174.068 123.309 175.455 121.6 175.455H115.4C113.691 175.455 112.3 174.068 112.3 172.364C112.3 170.66 113.691 169.273 115.4 169.273H121.6C123.309 169.273 124.7 170.66 124.7 172.364ZM110.548 163.091C106.848 163.091 103.767 160.417 103.128 156.909H137.1C137.518 156.909 147.454 156.832 157.42 150.21C166.275 144.325 181.306 138.364 192.9 138.364C199.894 138.364 205.067 137.413 208.4 136.513V141.103C208.307 141.254 208.059 141.574 207.454 141.972C206.009 142.934 202.196 144.545 192.9 144.545C180.345 144.545 169.855 150.295 160.602 155.364C153.352 159.335 146.505 163.091 140.2 163.091H110.548ZM72 160C72 161.704 70.6089 163.091 68.9 163.091H62.7C60.9911 163.091 59.6 161.704 59.6 160C59.6 158.296 60.9911 156.909 62.7 156.909H68.9C70.6089 156.909 72 158.296 72 160ZM57.8485 150.727C54.1479 150.727 51.0672 148.054 50.4279 144.545H84.4C84.8185 144.545 94.754 144.468 104.72 137.846C113.381 132.089 127.947 126.267 139.433 126.015C128.908 134.523 113.548 140.176 106.274 142.536C103.484 143.44 101.148 145.171 99.4931 147.405C95.7382 149.178 91.561 150.731 87.5039 150.731H57.8485V150.727ZM146.4 169.273H165C166.709 169.273 168.1 170.66 168.1 172.364C168.1 174.068 166.709 175.455 165 175.455H146.4C144.691 175.455 143.3 174.068 143.3 172.364C143.3 170.66 144.691 169.273 146.4 169.273ZM189.8 163.091C188.091 163.091 186.7 161.704 186.7 160V156.909C186.7 154.931 186.076 153.1 185.014 151.593C187.556 151.044 190.18 150.727 192.9 150.727C199.549 150.727 204.738 149.951 208.4 148.425V160C208.4 161.704 207.009 163.091 205.3 163.091H189.8ZM165 76.5455H196V95.0909C196 101.207 198.573 105.882 201.297 110.835C204.103 115.931 207.218 121.599 208.133 130.15C205.544 130.973 200.449 132.182 192.9 132.182C179.477 132.182 163.314 138.858 153.979 145.063C145.637 150.608 137.174 150.723 137.1 150.727H104.755C105.639 149.676 106.813 148.861 108.189 148.413C120.55 144.399 142.692 135.57 152.077 121.534C157.285 113.748 160.389 107.984 162.245 103.251C163.841 104.24 165.744 104.955 167.403 105.492C170.851 106.612 175.145 107.455 177.396 107.455C182.523 107.455 186.696 103.293 186.696 98.1818C186.696 93.0702 182.523 88.9091 177.396 88.9091C175.145 88.9091 170.851 89.7514 167.403 90.8718C166.593 91.1345 165.725 91.4398 164.864 91.7952C164.996 89.8248 164.996 87.8814 164.996 85.8182V76.5455H165ZM165.794 98.1818C168.375 96.76 174.668 95.0909 177.4 95.0909C179.109 95.0909 180.5 96.478 180.5 98.1818C180.5 99.8857 179.109 101.273 177.4 101.273C174.668 101.273 168.375 99.6036 165.794 98.1818ZM157.541 97.9423C157.486 98.1239 157.432 98.3093 157.374 98.4986C154.514 99.8393 148.93 101.273 146.4 101.273C144.691 101.273 143.3 99.8857 143.3 98.1818C143.3 96.478 144.691 95.0909 146.4 95.0909C148.981 95.0909 154.735 96.5784 157.541 97.9423ZM93.7 88.9091C91.9911 88.9091 90.6 87.522 90.6 85.8182C90.6 84.1143 91.9911 82.7273 93.7 82.7273C95.7382 82.7273 101.667 84.01 104.833 85.598C104.782 85.768 104.732 85.9418 104.678 86.1157C101.454 87.6843 95.715 88.9091 93.7 88.9091ZM55.4925 136.049C67.8538 132.035 89.9955 123.207 99.3807 109.17C104.589 101.385 107.693 95.6202 109.549 90.8873C111.145 91.8764 113.048 92.5911 114.706 93.1282C118.155 94.2486 122.449 95.0909 124.7 95.0909C129.827 95.0909 134 90.9298 134 85.8182C134 80.7066 129.827 76.5455 124.7 76.5455C122.449 76.5455 118.155 77.3877 114.706 78.5082C113.896 78.7709 113.028 79.0761 112.168 79.4316C112.3 77.4611 112.3 75.5177 112.3 73.4545V64.1818H143.3V82.7273C143.3 84.887 143.61 86.9657 144.28 89.1564C140.173 90.1145 137.1 93.7966 137.1 98.1818C137.1 103.293 141.273 107.455 146.4 107.455C148.179 107.455 151.236 106.925 154.142 106.153C152.437 109.456 150.108 113.335 146.919 118.103C146.586 118.601 146.226 119.092 145.85 119.579C144.032 119.737 142.137 119.818 140.196 119.818C126.773 119.818 110.61 126.495 101.276 132.7C92.9328 138.244 84.4697 138.36 84.3961 138.364H52.0554C52.9389 137.313 54.113 136.498 55.4886 136.049H55.4925ZM113.094 85.8182C115.675 84.3964 121.968 82.7273 124.7 82.7273C126.409 82.7273 127.8 84.1143 127.8 85.8182C127.8 87.522 126.409 88.9091 124.7 88.9091C121.968 88.9091 115.675 87.24 113.094 85.8182ZM53.4 175.455C49.9823 175.455 47.2 172.68 47.2 169.273V156.909C47.2 155.561 47.6495 154.259 48.4516 153.192C50.0404 154.676 51.9779 155.793 54.1324 156.395C53.6596 157.504 53.4 158.721 53.4 160C53.4 165.112 57.5734 169.273 62.7 169.273H68.9C74.0266 169.273 78.2 165.112 78.2 160C78.2 158.918 78.0101 157.875 77.6652 156.909H84.9309C84.586 157.875 84.3961 158.918 84.3961 160C84.3961 165.112 88.5695 169.273 93.6961 169.273V175.455H53.4ZM95.3624 163.091H93.7C91.9911 163.091 90.6 161.704 90.6 160C90.6 158.296 91.9911 156.909 93.7 156.909H96.8659C96.9782 158.072 97.2379 159.193 97.6254 160.251C96.7264 161.09 95.9669 162.048 95.3624 163.091ZM217.7 187.818H106.1C102.682 187.818 99.9 185.044 99.9 181.636V169.273C99.9 167.924 100.349 166.622 101.152 165.556C102.74 167.04 104.678 168.156 106.832 168.759C106.36 169.868 106.1 171.085 106.1 172.364C106.1 177.475 110.273 181.636 115.4 181.636H121.6C126.727 181.636 130.9 177.475 130.9 172.364C130.9 171.282 130.71 170.239 130.365 169.273H137.631C137.286 170.239 137.096 171.282 137.096 172.364C137.096 177.475 141.269 181.636 146.396 181.636H189.796C194.923 181.636 199.096 177.475 199.096 172.364C199.096 171.282 198.906 170.239 198.561 169.273H205.296V178.545C205.296 180.253 206.683 181.636 208.396 181.636H217.696C219.405 181.636 220.796 183.023 220.796 184.727C220.796 186.431 219.405 187.818 217.696 187.818H217.7Z" fill="#DA78AC" fill-opacity="0.2"/>
</g>
<path d="M181.085 126.385C181.085 122.359 183.154 119.437 187.069 119.437C188.117 119.437 188.998 119.613 189.713 119.965C190.418 120.318 190.993 120.735 191.429 121.227C191.865 121.719 192.181 122.21 192.366 122.702C192.542 123.194 192.635 123.583 192.635 123.862C192.635 123.927 192.607 123.955 192.542 123.955H190.603C190.557 123.955 190.511 123.927 190.483 123.862C190.223 123.138 189.555 121.311 187.069 121.292C184.61 121.292 183.209 123.305 183.209 126.385C183.209 127.935 183.543 129.141 184.211 130.013C184.87 130.894 185.826 131.33 187.069 131.33C189.425 131.33 190.242 129.521 190.483 128.779C190.492 128.714 190.539 128.686 190.622 128.686H192.542C192.607 128.686 192.635 128.714 192.635 128.779C192.635 129.048 192.542 129.428 192.366 129.92C192.181 130.412 191.874 130.903 191.438 131.386C191.002 131.868 190.436 132.286 189.731 132.647C189.017 133.009 188.136 133.186 187.069 133.186C182.978 133.186 181.085 130.421 181.085 126.385ZM194.508 130.152C194.508 128.482 195.891 127.165 198.674 127.165H200.632C201.04 127.165 201.235 126.858 201.235 126.636C201.235 126.051 201.068 125.059 199.017 125.059C198.247 125.059 197.7 125.207 197.375 125.495C197.05 125.782 196.874 126.135 196.865 126.543C196.865 126.608 196.837 126.636 196.772 126.636H194.926C194.861 126.636 194.833 126.608 194.833 126.543C194.833 124.307 196.809 123.194 199.017 123.194C200.335 123.194 201.374 123.481 202.134 124.066C202.895 124.65 203.276 125.541 203.276 126.729V130.625C203.276 130.987 203.526 131.256 203.934 131.256H204.352C204.417 131.256 204.445 131.284 204.445 131.349V132.907C204.445 132.972 204.417 133 204.352 133H203.591C202.524 133 201.986 132.694 201.652 132.109C201.606 132.035 201.55 132.026 201.485 132.091C201.244 132.341 200.854 132.592 200.316 132.824C199.778 133.065 199.101 133.186 198.294 133.186C197.013 133.186 196.067 132.898 195.446 132.332C194.824 131.766 194.508 131.033 194.508 130.152ZM196.55 130.152C196.55 130.681 196.958 131.349 198.294 131.349C200.427 131.349 201.235 130.115 201.235 129.048V128.918C201.235 128.853 201.207 128.825 201.142 128.816H198.73C196.856 128.816 196.55 129.567 196.55 130.152ZM206.643 132.907V123.481C206.643 123.417 206.67 123.389 206.717 123.389H208.359C208.424 123.389 208.461 123.426 208.489 123.5L208.674 124.205C208.721 124.307 208.823 124.289 208.869 124.242C209.472 123.639 210.168 123.194 211.068 123.194H212.079C212.144 123.194 212.172 123.222 212.172 123.287V125.003C212.172 125.068 212.144 125.096 212.079 125.096H210.975C209.444 125.096 208.674 126.292 208.674 127.601V132.907C208.674 132.972 208.646 133 208.581 133H206.717C206.67 133 206.643 132.972 206.643 132.907ZM213.349 128.194C213.349 125.235 215.149 123.194 217.793 123.194C219.38 123.194 220.317 124.112 220.409 124.205C220.456 124.251 220.567 124.196 220.567 124.149V119.715C220.567 119.65 220.595 119.622 220.66 119.622H222.506C222.571 119.622 222.599 119.65 222.599 119.715V132.907C222.599 132.972 222.571 133 222.506 133H220.892C220.818 133 220.771 132.972 220.753 132.907L220.567 132.221C220.521 132.109 220.456 132.1 220.354 132.202C219.871 132.685 218.739 133.186 217.793 133.186C215.047 133.186 213.349 131.163 213.349 128.194ZM215.4 128.194C215.4 129.122 215.632 129.883 216.086 130.467C216.541 131.052 217.199 131.349 218.081 131.349C218.888 131.349 219.509 131.052 219.936 130.458C220.354 129.874 220.567 129.113 220.567 128.194C220.567 126.237 219.704 125.059 218.081 125.059C217.209 125.059 216.541 125.346 216.086 125.931C215.632 126.515 215.4 127.267 215.4 128.194ZM225.196 129.846C225.196 129.781 225.233 129.753 225.298 129.753H227.172C227.246 129.753 227.283 129.781 227.292 129.846C227.292 130.235 227.487 130.579 227.868 130.885C228.248 131.191 228.795 131.349 229.51 131.349C230.391 131.349 231.662 131.163 231.662 130.078C231.662 129.734 231.504 129.493 231.198 129.345C230.883 129.196 230.493 129.094 230.029 129.029C229.556 128.964 229.055 128.909 228.517 128.844C227.441 128.732 226.457 128.389 225.836 127.666C225.53 127.304 225.372 126.784 225.372 126.107C225.372 124.511 226.903 123.194 229.287 123.194C231.671 123.194 233.443 124.307 233.443 126.543C233.443 126.608 233.415 126.636 233.369 126.636H231.486C231.421 126.636 231.393 126.608 231.393 126.543C231.393 126.153 231.226 125.81 230.892 125.504C230.549 125.207 230.02 125.059 229.287 125.059C227.997 125.059 227.404 125.55 227.404 126.107C227.404 126.432 227.561 126.664 227.868 126.793C228.174 126.933 228.563 127.025 229.037 127.09C229.51 127.155 230.011 127.211 230.558 127.276C231.643 127.406 232.627 127.74 233.248 128.482C233.555 128.862 233.712 129.391 233.712 130.078C233.712 132.193 231.987 133.186 229.51 133.186C226.624 133.186 225.196 131.627 225.196 129.846ZM239.936 125.003V123.481C239.936 123.417 239.964 123.389 240.029 123.389H241.652C241.717 123.389 241.745 123.361 241.745 123.314V122.09C241.745 120.374 242.793 119.622 244.5 119.622H245.883C245.948 119.622 245.975 119.65 245.975 119.715V121.394C245.975 121.459 245.948 121.487 245.883 121.487H244.575C244.092 121.487 243.795 121.756 243.795 122.266V123.314C243.795 123.361 243.823 123.389 243.888 123.389H245.883C245.948 123.389 245.975 123.417 245.975 123.481V125.003C245.975 125.068 245.948 125.096 245.883 125.096H243.888C243.823 125.096 243.795 125.124 243.795 125.188V132.907C243.795 132.972 243.767 133 243.703 133H241.838C241.773 133 241.745 132.972 241.745 132.907V125.188C241.745 125.124 241.717 125.096 241.652 125.096H240.029C239.964 125.096 239.936 125.068 239.936 125.003ZM247.227 128.194C247.227 125.198 248.962 123.194 251.931 123.194C254.9 123.194 256.662 125.235 256.662 128.194C256.662 131.163 254.9 133.186 251.931 133.186C248.953 133.186 247.227 131.163 247.227 128.194ZM249.277 128.194C249.277 129.15 249.509 129.911 249.973 130.486C250.428 131.061 251.087 131.349 251.931 131.349C252.803 131.349 253.471 131.061 253.925 130.486C254.38 129.911 254.612 129.15 254.612 128.194C254.612 127.239 254.389 126.478 253.935 125.912C253.48 125.346 252.812 125.059 251.931 125.059C251.087 125.059 250.428 125.346 249.973 125.912C249.509 126.478 249.277 127.239 249.277 128.194ZM259.352 132.907V123.481C259.352 123.417 259.38 123.389 259.426 123.389H261.068C261.133 123.389 261.17 123.426 261.198 123.5L261.384 124.205C261.43 124.307 261.532 124.289 261.578 124.242C262.182 123.639 262.877 123.194 263.777 123.194H264.788C264.853 123.194 264.881 123.222 264.881 123.287V125.003C264.881 125.068 264.853 125.096 264.788 125.096H263.684C262.154 125.096 261.384 126.292 261.384 127.601V132.907C261.384 132.972 261.356 133 261.291 133H259.426C259.38 133 259.352 132.972 259.352 132.907ZM271.838 132.907V119.715C271.838 119.65 271.875 119.622 271.94 119.622H273.777C273.842 119.622 273.869 119.65 273.869 119.715V125.151C273.869 125.216 273.907 125.244 273.972 125.244H279.668C279.714 125.244 279.742 125.216 279.742 125.151V119.715C279.742 119.65 279.779 119.622 279.844 119.622H281.7C281.765 119.622 281.792 119.65 281.792 119.715V132.907C281.792 132.972 281.765 133 281.7 133H279.844C279.779 133 279.751 132.972 279.742 132.907V127.183C279.742 127.118 279.714 127.09 279.668 127.09H273.972C273.907 127.09 273.879 127.118 273.869 127.183V132.907C273.869 132.972 273.842 133 273.777 133H271.94C271.875 133 271.847 132.972 271.838 132.907ZM284.992 128.686V123.481C284.992 123.417 285.02 123.389 285.085 123.389H286.95C287.015 123.389 287.043 123.417 287.043 123.481V128.686C287.043 129.985 287.673 131.33 289.362 131.33C290.902 131.33 291.663 130.105 291.663 128.779V123.481C291.663 123.417 291.691 123.389 291.755 123.389H293.602C293.667 123.389 293.694 123.417 293.694 123.481V132.907C293.694 132.972 293.667 133 293.602 133H291.978C291.913 133 291.876 132.972 291.848 132.907L291.663 132.184C291.616 132.063 291.496 132.119 291.449 132.165C291.041 132.675 290.132 133.186 289.074 133.186C286.208 133.186 284.992 131.126 284.992 128.686ZM297.034 132.907V123.481C297.034 123.417 297.071 123.389 297.136 123.389H298.75C298.815 123.389 298.852 123.426 298.88 123.5L299.065 124.205C299.112 124.307 299.204 124.298 299.279 124.224C299.678 123.732 300.652 123.194 301.561 123.194C302.776 123.194 303.481 123.583 304.159 124.335C304.205 124.381 304.279 124.409 304.353 124.335C305.012 123.658 305.986 123.194 307.053 123.194C309.512 123.194 310.829 124.697 310.829 127.601V132.907C310.829 132.972 310.801 133 310.736 133H308.89C308.825 133 308.797 132.972 308.797 132.907V127.666C308.797 126.376 308.445 125.059 306.858 125.059C305.337 125.059 304.956 126.265 304.956 127.666V132.907C304.956 132.972 304.929 133 304.864 133H302.999C302.934 133 302.906 132.972 302.906 132.907V127.666C302.906 126.348 302.554 125.059 300.986 125.059C299.548 125.059 299.065 126.265 299.065 127.666V132.907C299.065 132.972 299.037 133 298.973 133H297.136C297.071 133 297.043 132.972 297.034 132.907ZM313.25 130.152C313.25 128.482 314.632 127.165 317.415 127.165H319.373C319.781 127.165 319.976 126.858 319.976 126.636C319.976 126.051 319.809 125.059 317.758 125.059C316.988 125.059 316.441 125.207 316.116 125.495C315.792 125.782 315.615 126.135 315.606 126.543C315.606 126.608 315.578 126.636 315.513 126.636H313.667C313.602 126.636 313.574 126.608 313.574 126.543C313.574 124.307 315.55 123.194 317.758 123.194C319.076 123.194 320.115 123.481 320.876 124.066C321.636 124.65 322.017 125.541 322.017 126.729V130.625C322.017 130.987 322.267 131.256 322.675 131.256H323.093C323.158 131.256 323.186 131.284 323.186 131.349V132.907C323.186 132.972 323.158 133 323.093 133H322.332C321.265 133 320.727 132.694 320.393 132.109C320.347 132.035 320.291 132.026 320.226 132.091C319.985 132.341 319.595 132.592 319.057 132.824C318.519 133.065 317.842 133.186 317.035 133.186C315.754 133.186 314.808 132.898 314.187 132.332C313.565 131.766 313.25 131.033 313.25 130.152ZM315.291 130.152C315.291 130.681 315.699 131.349 317.035 131.349C319.169 131.349 319.976 130.115 319.976 129.048V128.918C319.976 128.853 319.948 128.825 319.883 128.816H317.471C315.597 128.816 315.291 129.567 315.291 130.152ZM325.384 132.907V123.481C325.384 123.417 325.421 123.389 325.486 123.389H327.1C327.165 123.389 327.202 123.417 327.23 123.481L327.415 124.205C327.462 124.326 327.582 124.27 327.629 124.224C328 123.704 328.983 123.194 330.004 123.194C332.88 123.194 334.086 125.263 334.086 127.703V132.907C334.086 132.972 334.058 133 333.993 133H332.128C332.063 133 332.035 132.972 332.035 132.907V127.703C332.035 126.413 331.405 125.059 329.716 125.059C328.185 125.059 327.415 126.292 327.415 127.601V132.907C327.415 132.972 327.388 133 327.323 133H325.486C325.421 133 325.393 132.972 325.384 132.907ZM337.165 122.173V120.04C337.165 119.975 337.193 119.947 337.258 119.947H339.355C339.419 119.947 339.447 119.975 339.447 120.04V122.173C339.447 122.238 339.419 122.266 339.355 122.266H337.258C337.193 122.266 337.165 122.238 337.165 122.173ZM337.258 132.907V123.481C337.258 123.417 337.295 123.389 337.36 123.389H339.197C339.262 123.389 339.29 123.417 339.29 123.481V132.907C339.29 132.972 339.262 133 339.197 133H337.36C337.295 133 337.267 132.972 337.258 132.907ZM341.219 125.003V123.481C341.219 123.417 341.246 123.389 341.311 123.389H342.926C342.991 123.389 343.018 123.352 343.018 123.287V120.726C343.018 120.661 343.046 120.633 343.111 120.633H344.976C345.041 120.633 345.069 120.661 345.069 120.726V123.287C345.069 123.352 345.106 123.379 345.171 123.389H347.165C347.23 123.389 347.258 123.417 347.258 123.481V125.003C347.258 125.068 347.23 125.096 347.165 125.096H345.171C345.106 125.096 345.078 125.124 345.069 125.188V130.375C345.069 130.857 345.338 131.154 345.931 131.154H347.165C347.23 131.154 347.258 131.191 347.258 131.256V132.907C347.258 132.972 347.23 133 347.165 133H345.681C344.716 133 344.03 132.787 343.631 132.369C343.222 131.952 343.018 131.274 343.018 130.319V125.188C343.018 125.124 342.991 125.096 342.926 125.096H341.311C341.246 125.096 341.219 125.068 341.219 125.003ZM351.367 132.712L348.25 123.481C348.222 123.417 348.25 123.389 348.324 123.389H350.319C350.365 123.389 350.402 123.417 350.43 123.481L352.824 130.987C352.87 131.089 352.972 131.089 353.019 130.987L355.412 123.481C355.44 123.417 355.477 123.389 355.523 123.389H357.481C357.555 123.389 357.583 123.417 357.574 123.481L354.021 134.048C353.362 135.997 352.759 136.767 350.987 136.767H348.361C348.296 136.767 348.269 136.729 348.269 136.665V135.05C348.269 134.985 348.296 134.958 348.361 134.958H350.588C351.404 134.958 351.683 134.586 351.683 134.03C351.683 133.649 351.516 133.195 351.367 132.712Z" fill="#28225C"/>
<defs>
<clipPath id="clip0_2_77">
<rect width="186" height="136" fill="white" transform="translate(41 58)"/>
</clipPath>
</defs>
</svg>
