<svg width="252" height="252" viewBox="0 0 252 252" fill="none" xmlns="http://www.w3.org/2000/svg">
<rect width="252" height="252" rx="20" fill="#F0583B"/>
<g clip-path="url(#clip0_2_78)">
<path d="M178.954 111.724C170.876 104.801 162.844 101.28 159.056 99.8737C159.24 96.045 159.863 91.6763 160.47 87.4275C161.224 82.1625 162 76.7175 162 72.0037C162 52.1513 145.849 36 126 36C106.151 36 90 52.1512 90 72C90 76.7137 90.7762 82.1588 91.53 87.4238C92.1375 91.6725 92.76 96.0413 92.9437 99.87C89.1562 101.276 81.1238 104.798 73.0462 111.72C62.9888 120.345 51 136.065 51 162C51 162.87 51.3787 163.695 52.035 164.265C52.5825 164.741 53.2838 165 54 165C54.1425 165 54.2812 164.989 54.4237 164.97C54.99 164.888 66.6863 163.114 78.0188 153.667C78.0038 154.433 77.9963 155.209 77.9963 156C77.9963 171.679 81.7763 184.305 89.2388 193.616C84.3525 196.091 80.9963 201.161 80.9963 207C80.9963 211.961 85.035 216 89.9963 216H113.996C118.958 216 122.996 211.961 122.996 207C122.996 203.494 121.785 200.269 119.764 197.711C121.725 197.903 123.799 198 125.996 198C128.194 198 130.271 197.903 132.229 197.711C130.207 200.269 128.996 203.494 128.996 207C128.996 211.961 133.035 216 137.996 216H161.996C166.957 216 170.996 211.961 170.996 207C170.996 201.158 167.64 196.091 162.754 193.616C170.216 184.309 173.996 171.682 173.996 156C173.996 155.209 173.989 154.433 173.974 153.667C185.306 163.114 197.006 164.891 197.569 164.97C197.711 164.989 197.854 165 197.993 165C198.709 165 199.41 164.741 199.958 164.265C200.614 163.695 200.993 162.87 200.993 162C200.993 136.065 189.004 120.345 178.946 111.724H178.954ZM193.462 147.09C192.757 145.927 192.004 144.724 191.205 143.49C183.289 131.306 174.821 122.46 166.013 117.173C164.798 114.66 163.59 112.481 162.51 110.542C161.794 109.256 161.152 108.097 160.616 107.036C164.467 108.814 169.875 111.806 175.23 116.438C184.702 124.624 190.804 134.899 193.459 147.09H193.462ZM76.7663 116.438C82.1213 111.81 87.5288 108.814 91.38 107.036C90.8438 108.097 90.2025 109.256 89.4862 110.542C88.41 112.481 87.2025 114.66 85.9837 117.173C77.1788 122.46 68.7075 131.306 60.7913 143.49C59.9888 144.724 59.2388 145.927 58.5338 147.09C61.1925 134.895 67.29 124.624 76.7625 116.438H76.7663ZM59.6363 157.35C63.5925 149.861 71.4112 136.77 81.855 127.643C80.3737 132.435 79.1512 138.112 78.5025 144.967C72.0337 151.909 64.6725 155.535 59.6363 157.35ZM114 210H111V207C111 205.342 109.658 204 108 204C106.342 204 105 205.342 105 207V210H99V207C99 205.342 97.6575 204 96 204C94.3425 204 93 205.342 93 207V210H90C88.3462 210 87 208.654 87 207C87 202.039 91.0387 198 96 198H108C112.961 198 117 202.039 117 207C117 208.654 115.654 210 114 210ZM103.815 184.699C98.5575 179.089 96 169.702 96 156C96 138.375 101.344 128.415 105.634 120.409C108.514 115.039 111 110.4 111 105C111 101.329 110.531 98.565 109.988 95.3625C109.103 90.1388 108 83.6325 108 69C108 60.2512 116.077 60 117 60C120.308 60 123 62.6925 123 66C123 67.6575 124.342 69 126 69C127.658 69 129 67.6575 129 66C129 62.6925 131.692 60 135 60C135.923 60 144 60.2512 144 69C144 83.6325 142.897 90.135 142.012 95.3625C141.469 98.565 141 101.329 141 105C141 110.404 143.486 115.039 146.366 120.409C150.66 128.415 156 138.375 156 156C156 169.702 153.443 179.089 148.185 184.699C143.516 189.679 136.466 192 126 192C115.534 192 108.484 189.679 103.815 184.699ZM162 210H159V207C159 205.342 157.658 204 156 204C154.342 204 153 205.342 153 207V210H147V207C147 205.342 145.658 204 144 204C142.342 204 141 205.342 141 207V210H138C136.346 210 135 208.654 135 207C135 202.039 139.039 198 144 198H156C160.961 198 165 202.039 165 207C165 208.654 163.654 210 162 210ZM156.221 192.004C156.146 192.004 156.075 192 156 192H148.95C150.251 191.051 151.455 189.986 152.565 188.801C158.914 182.029 162 171.3 162 156C162 136.868 156.019 125.719 151.654 117.574C149.055 112.725 147 108.896 147 105C147 101.835 147.409 99.42 147.926 96.3638C148.8 91.2038 150 84.1387 150 69C150 58.695 142.226 54 135 54C131.419 54 128.201 55.575 126 58.0725C123.799 55.5788 120.581 54 117 54C109.774 54 102 58.695 102 69C102 84.1387 103.196 91.2038 104.074 96.3638C104.591 99.42 105 101.835 105 105C105 108.896 102.945 112.725 100.346 117.574C95.9812 125.715 90 136.868 90 156C90 171.3 93.0863 182.029 99.435 188.801C100.545 189.986 101.749 191.051 103.05 192H96C95.925 192 95.8538 192.004 95.7788 192.004C87.9638 183.649 84 171.544 84 156C84 132.776 90.4575 121.151 94.7325 113.456C97.1175 109.166 99 105.776 99 102C99 97.2863 98.2238 91.8412 97.47 86.5762C96.7463 81.5175 96 76.2863 96 72C96 55.4587 109.459 42 126 42C142.541 42 156 55.4587 156 72C156 76.2863 155.254 81.5175 154.53 86.5762C153.776 91.8412 153 97.2863 153 102C153 105.776 154.882 109.166 157.268 113.456C161.543 121.151 168 132.776 168 156C168 171.548 164.036 183.652 156.221 192.004ZM173.501 144.967C172.853 138.112 171.63 132.435 170.149 127.643C180.6 136.778 188.426 149.884 192.375 157.369C187.35 155.565 180.004 151.95 173.497 144.967H173.501Z" fill="black" fill-opacity="0.08"/>
<path d="M128.996 75H123.004C120.214 75 117.626 76.26 115.909 78.4613C114.191 80.6625 113.595 83.475 114.27 86.1825C115.275 90.195 118.864 93 123 93H128.992C133.129 93 136.721 90.195 137.722 86.1825C138.401 83.475 137.801 80.6588 136.084 78.4613C134.366 76.2638 131.782 75 128.989 75H128.996ZM131.906 84.7275C131.572 86.0663 130.376 87 128.996 87H123.004C121.624 87 120.427 86.0663 120.094 84.7275C119.869 83.8238 120.067 82.8863 120.641 82.155C121.215 81.42 122.077 81 123.007 81H129C129.93 81 130.792 81.42 131.366 82.155C131.94 82.89 132.139 83.8275 131.914 84.7275H131.906Z" fill="black" fill-opacity="0.08"/>
<path d="M135 75C136.657 75 138 73.6569 138 72C138 70.3431 136.657 69 135 69C133.343 69 132 70.3431 132 72C132 73.6569 133.343 75 135 75Z" fill="black" fill-opacity="0.08"/>
<path d="M117 75C118.657 75 120 73.6569 120 72C120 70.3431 118.657 69 117 69C115.343 69 114 70.3431 114 72C114 73.6569 115.343 75 117 75Z" fill="black" fill-opacity="0.08"/>
</g>
<path d="M99.6225 133.907V120.715C99.6225 120.65 99.6596 120.622 99.7245 120.622H105.272C107.369 120.622 109.225 122.44 109.225 124.732C109.225 126.652 107.907 127.877 107.054 128.341C107.017 128.369 107.007 128.406 107.035 128.452L109.447 133.889C109.447 133.917 109.466 133.917 109.466 133.944C109.466 133.981 109.429 134 109.354 134H107.471C107.425 134 107.378 133.972 107.341 133.926C106.59 132.256 105.838 130.567 105.096 128.87C105.059 128.805 105.022 128.777 104.985 128.777H101.756C101.691 128.777 101.663 128.805 101.654 128.87V133.907C101.654 133.972 101.626 134 101.561 134H99.7245C99.6596 134 99.6317 133.972 99.6225 133.907ZM101.654 122.561V126.838C101.654 126.903 101.691 126.931 101.756 126.931H105.133C106.209 126.931 107.183 125.929 107.183 124.732C107.183 123.507 106.163 122.487 105.059 122.487H101.756C101.691 122.487 101.663 122.515 101.654 122.561ZM111.135 129.194C111.135 126.198 112.898 124.194 115.764 124.194C118.631 124.194 120.403 126.235 120.403 129.194C120.403 129.482 120.375 129.686 120.329 129.862C120.301 129.927 120.273 129.955 120.236 129.955H113.371C113.306 129.955 113.278 129.983 113.278 130.048C113.278 131.263 114.261 132.349 115.764 132.349C116.85 132.349 117.536 131.95 117.898 131.245C117.926 131.18 117.963 131.152 118.028 131.152H119.985C120.05 131.152 120.078 131.18 120.078 131.226V131.245C119.846 132.182 119.345 132.905 118.557 133.416C117.768 133.926 116.84 134.186 115.764 134.186C112.935 134.186 111.135 132.163 111.135 129.194ZM113.278 128.202C113.278 128.267 113.306 128.294 113.371 128.304H118.102C118.167 128.304 118.195 128.267 118.195 128.202C118.195 127.292 117.481 126.059 115.764 126.059C114.067 126.059 113.278 127.404 113.278 128.202ZM121.692 126.003V124.481C121.692 124.417 121.72 124.389 121.785 124.389H123.408C123.473 124.389 123.501 124.361 123.501 124.314V123.09C123.501 121.374 124.549 120.622 126.256 120.622H127.639C127.703 120.622 127.731 120.65 127.731 120.715V122.394C127.731 122.459 127.703 122.487 127.639 122.487H126.33C125.848 122.487 125.551 122.756 125.551 123.266V124.314C125.551 124.361 125.579 124.389 125.644 124.389H127.639C127.703 124.389 127.731 124.417 127.731 124.481V126.003C127.731 126.068 127.703 126.096 127.639 126.096H125.644C125.579 126.096 125.551 126.124 125.551 126.188V133.907C125.551 133.972 125.523 134 125.458 134H123.594C123.529 134 123.501 133.972 123.501 133.907V126.188C123.501 126.124 123.473 126.096 123.408 126.096H121.785C121.72 126.096 121.692 126.068 121.692 126.003ZM128.983 129.194C128.983 126.198 130.746 124.194 133.612 124.194C136.479 124.194 138.251 126.235 138.251 129.194C138.251 129.482 138.223 129.686 138.177 129.862C138.149 129.927 138.121 129.955 138.084 129.955H131.219C131.154 129.955 131.126 129.983 131.126 130.048C131.126 131.263 132.109 132.349 133.612 132.349C134.698 132.349 135.384 131.95 135.746 131.245C135.774 131.18 135.811 131.152 135.876 131.152H137.834C137.899 131.152 137.926 131.18 137.926 131.226V131.245C137.694 132.182 137.193 132.905 136.405 133.416C135.616 133.926 134.689 134.186 133.612 134.186C130.783 134.186 128.983 132.163 128.983 129.194ZM131.126 128.202C131.126 128.267 131.154 128.294 131.219 128.304H135.95C136.015 128.304 136.043 128.267 136.043 128.202C136.043 127.292 135.329 126.059 133.612 126.059C131.915 126.059 131.126 127.404 131.126 128.202ZM140.904 133.907V124.481C140.904 124.417 140.932 124.389 140.978 124.389H142.62C142.685 124.389 142.722 124.426 142.75 124.5L142.935 125.205C142.982 125.307 143.084 125.289 143.13 125.242C143.733 124.639 144.429 124.194 145.329 124.194H146.34C146.405 124.194 146.433 124.222 146.433 124.287V126.003C146.433 126.068 146.405 126.096 146.34 126.096H145.236C143.705 126.096 142.935 127.292 142.935 128.601V133.907C142.935 133.972 142.908 134 142.843 134H140.978C140.932 134 140.904 133.972 140.904 133.907ZM147.61 129.194C147.61 126.198 149.345 124.194 152.314 124.194C155.283 124.194 157.046 126.235 157.046 129.194C157.046 132.163 155.283 134.186 152.314 134.186C149.336 134.186 147.61 132.163 147.61 129.194ZM149.661 129.194C149.661 130.15 149.893 130.911 150.357 131.486C150.811 132.061 151.47 132.349 152.314 132.349C153.186 132.349 153.854 132.061 154.309 131.486C154.763 130.911 154.995 130.15 154.995 129.194C154.995 128.239 154.773 127.478 154.318 126.912C153.863 126.346 153.195 126.059 152.314 126.059C151.47 126.059 150.811 126.346 150.357 126.912C149.893 127.478 149.661 128.239 149.661 129.194Z" fill="white"/>
<defs>
<clipPath id="clip0_2_78">
<rect width="150" height="180" fill="white" transform="translate(51 36)"/>
</clipPath>
</defs>
</svg>
