<svg width="255" height="252" viewBox="0 0 255 252" fill="none" xmlns="http://www.w3.org/2000/svg">
<rect width="255" height="252" rx="20" fill="#EE425D"/>
<path d="M37.2 27.56C39.44 27.56 41.2933 27.9867 42.76 28.84C44.2533 29.6667 45.44 30.76 46.32 32.12C47.2267 33.48 47.8667 35.0133 48.24 36.72C48.6133 38.4 48.8 40.1067 48.8 41.84C48.8 43.44 48.6133 45.0933 48.24 46.8C47.8933 48.5067 47.2933 50.08 46.44 51.52C45.5867 52.9333 44.44 54.0933 43 55C41.5867 55.9067 39.8 56.36 37.64 56.36C35.2933 56.36 33.24 55.8 31.48 54.68C29.72 53.5333 28.3733 51.9867 27.44 50.04L27.36 49.76L30.6 46.64L30.76 47.32C31.6667 50.4933 33.88 52.08 37.4 52.08C38.9467 52.08 40.1867 51.76 41.12 51.12C42.08 50.48 42.8133 49.6533 43.32 48.64C43.8533 47.6267 44.2133 46.4933 44.4 45.24C44.5867 43.96 44.68 42.6933 44.68 41.44C44.68 41.3067 44.6667 41.1733 44.64 41.04C44.64 40.88 44.6533 40.7333 44.68 40.6H44.28C43.6133 42.2267 42.64 43.4667 41.36 44.32C40.1067 45.1467 38.48 45.56 36.48 45.56C35.12 45.56 33.8533 45.3467 32.68 44.92C31.5333 44.4933 30.5333 43.8933 29.68 43.12C28.8533 42.3467 28.2 41.4267 27.72 40.36C27.24 39.2667 27 38.0667 27 36.76C27 35.3467 27.2533 34.08 27.76 32.96C28.2933 31.8133 29.0133 30.84 29.92 30.04C30.8267 29.24 31.8933 28.6267 33.12 28.2C34.3733 27.7733 35.7333 27.56 37.2 27.56ZM37.04 41.8C38.8267 41.8 40.2933 41.36 41.44 40.48C42.6133 39.5733 43.2 38.2667 43.2 36.56C43.2 35.76 43.04 35.0667 42.72 34.48C42.4267 33.8933 42.0133 33.4 41.48 33C40.9733 32.6 40.36 32.3067 39.64 32.12C38.9467 31.9067 38.1867 31.8 37.36 31.8C36.5067 31.8 35.7067 31.9067 34.96 32.12C34.2133 32.3333 33.56 32.6533 33 33.08C32.4667 33.48 32.04 33.9867 31.72 34.6C31.4 35.2133 31.24 35.9333 31.24 36.76C31.24 37.5333 31.3867 38.24 31.68 38.88C31.9733 39.4933 32.3733 40.0267 32.88 40.48C33.4133 40.9067 34.0267 41.24 34.72 41.48C35.44 41.6933 36.2133 41.8 37.04 41.8Z" fill="white"/>
<g clip-path="url(#clip0_2_79)">
<path d="M191 152.644V142.333C191 128.374 186.383 114.138 177.998 102.253C170.42 91.5104 160.174 83.2738 148.84 78.7296C148.945 78.1667 149.003 77.5892 149.003 77.0029C149.003 74.1446 147.708 71.4933 145.532 69.7404C145.83 66.9638 144.873 64.1725 142.852 62.1542C140.83 60.1329 138.039 59.1763 135.265 59.4738C133.513 57.2979 130.861 56.0029 128.003 56.0029C125.145 56.0029 122.493 57.2979 120.74 59.4738C117.964 59.1763 115.173 60.1329 113.154 62.1542C111.133 64.1754 110.176 66.9638 110.474 69.7404C108.298 71.4933 107.003 74.1446 107.003 77.0029C107.003 77.5892 107.061 78.1667 107.166 78.7296C95.8292 83.2738 85.5858 91.5104 78.0083 102.253C69.6229 114.141 65.0058 128.374 65.0058 142.333V152.644C60.8904 154.449 58.0058 158.559 58.0058 163.333V184.333C58.0058 190.768 63.2383 196 69.6725 196H186.339C192.773 196 198.006 190.768 198.006 184.333V163.333C198.006 158.559 195.121 154.449 191.006 152.644H191ZM83.6667 156.333V191.333H74.3333V156.333H83.6667ZM88.3333 156.333H97.6667V191.333H88.3333V156.333ZM102.333 156.333H111.667V191.333H102.333V156.333ZM116.333 156.333H125.667V191.333H116.333V156.333ZM130.333 156.333H139.667V191.333H130.333V156.333ZM144.333 156.333H153.667V191.333H144.333V156.333ZM158.333 156.333H167.667V191.333H158.333V156.333ZM172.333 156.333H181.667V191.333H172.333V156.333ZM71.1308 129.074L82.5554 133.528C87.8113 135.575 93.4142 135.759 98.7633 134.053L110.057 130.451C114.14 129.15 118.442 129.211 122.496 130.635L131.961 133.954C134.583 134.875 137.29 135.333 139.999 135.333C142.473 135.333 144.949 134.948 147.364 134.178L160.01 130.145C163.537 129.019 167.287 128.917 170.855 129.841L185.712 133.703C186.047 136.033 186.246 138.37 186.31 140.703L172.027 136.99C167.605 135.841 162.959 135.969 158.593 137.363L145.946 141.397C141.863 142.698 137.561 142.637 133.507 141.213L124.042 137.894C119.022 136.133 113.697 136.054 108.639 137.667L97.3458 141.269C93.0292 142.645 88.4996 142.5 84.2529 140.843L70.5154 135.488C70.3696 135.433 70.2238 135.392 70.0779 135.365C70.3229 133.26 70.6758 131.157 71.1338 129.071L71.1308 129.074ZM114.155 72.8729C115.143 72.3479 115.622 71.1958 115.292 70.1254C114.782 68.4658 115.225 66.675 116.45 65.45C117.675 64.225 119.466 63.7817 121.125 64.2921C122.196 64.6217 123.348 64.1433 123.873 63.1546C124.687 61.6204 126.268 60.6667 128 60.6667C129.732 60.6667 131.313 61.6204 132.127 63.1546C132.652 64.1433 133.804 64.6217 134.875 64.2921C136.534 63.7817 138.325 64.225 139.55 65.45C140.775 66.675 141.218 68.4658 140.708 70.1254C140.378 71.1958 140.857 72.3479 141.845 72.8729C143.38 73.6867 144.333 75.2675 144.333 77C144.333 78.7325 143.38 80.3133 141.845 81.1271C140.857 81.6521 140.378 82.8042 140.708 83.8746C141.218 85.5342 140.775 87.325 139.55 88.55C138.325 89.775 136.534 90.2183 134.875 89.7079C133.804 89.3783 132.652 89.8567 132.127 90.8454C131.313 92.3796 129.732 93.3333 128 93.3333C126.268 93.3333 124.687 92.3796 123.873 90.8454C123.459 90.0667 122.657 89.6029 121.811 89.6029C121.583 89.6029 121.353 89.635 121.125 89.705C119.466 90.2154 117.675 89.7721 116.45 88.5471C115.225 87.3221 114.782 85.5313 115.292 83.8717C115.622 82.8013 115.143 81.6492 114.155 81.1242C112.62 80.3104 111.667 78.7296 111.667 76.9971C111.667 75.2646 112.62 73.6838 114.155 72.87V72.8729ZM110.471 84.2625C110.173 87.0392 111.13 89.8304 113.151 91.8488C115.17 93.87 117.961 94.8267 120.738 94.5292C122.49 96.705 125.142 98 128 98C130.858 98 133.51 96.705 135.263 94.5292C138.036 94.8267 140.828 93.87 142.849 91.8488C144.867 89.8275 145.827 87.0392 145.529 84.2625C146.016 83.8717 146.457 83.4313 146.85 82.9558C150.555 84.42 154.139 86.3129 157.537 88.585C157.175 90.1454 156.688 91.6563 156.102 93.1059L152.378 91.245C152.062 91.0904 151.71 91 151.333 91C150.044 91 149 92.0442 149 93.3333C149 94.2463 149.525 95.0367 150.289 95.4188L154.02 97.2854C152.281 100.182 150.082 102.748 147.527 104.895L143.648 101.016C143.225 100.593 142.642 100.333 141.997 100.333C140.708 100.333 139.664 101.378 139.664 102.667C139.664 103.311 139.926 103.895 140.346 104.318L143.671 107.643C139.705 110.034 135.16 111.536 130.327 111.904V107.333C130.327 106.044 129.283 105 127.994 105C126.705 105 125.661 106.044 125.661 107.333V111.904C120.828 111.536 116.287 110.034 112.317 107.643L115.642 104.318C116.065 103.895 116.325 103.311 116.325 102.667C116.325 101.378 115.28 100.333 113.991 100.333C113.347 100.333 112.763 100.596 112.34 101.016L108.461 104.895C105.906 102.748 103.707 100.182 101.969 97.2854L105.699 95.4188C106.463 95.0338 106.988 94.2463 106.988 93.3304C106.988 92.0413 105.944 90.9971 104.655 90.9971C104.279 90.9971 103.926 91.0875 103.611 91.245L99.8862 93.1059C99.2971 91.6533 98.8129 90.1454 98.4513 88.585C101.849 86.31 105.434 84.4171 109.138 82.9558C109.532 83.4313 109.972 83.8688 110.459 84.2625H110.471ZM81.8175 104.942C85.4371 99.8113 89.7042 95.2963 94.4146 91.5483C98.7254 106.304 112.308 116.667 128 116.667C143.692 116.667 157.272 106.301 161.585 91.5454C166.299 95.2934 170.563 99.8083 174.183 104.939C179.266 112.146 182.868 120.269 184.77 128.637L172.027 125.326C167.605 124.177 162.959 124.305 158.593 125.7L145.946 129.733C141.863 131.034 137.561 130.973 133.507 129.55L124.042 126.23C119.022 124.469 113.697 124.39 108.639 126.003L97.3458 129.605C93.0292 130.982 88.4996 130.836 84.2529 129.179L72.3121 124.524C74.3654 117.618 77.5738 110.959 81.8204 104.939L81.8175 104.942ZM69.6667 142.333C69.6667 141.619 69.6813 140.904 69.7075 140.187L82.5554 145.195C87.8113 147.242 93.4142 147.426 98.7633 145.72L110.057 142.118C114.14 140.817 118.442 140.878 122.496 142.301L131.961 145.62C134.583 146.542 137.29 147 139.999 147C142.473 147 144.949 146.615 147.364 145.845L160.01 141.811C163.537 140.685 167.287 140.583 170.855 141.508L185.75 145.378C185.945 145.431 186.144 145.451 186.336 145.451V151.664H69.6667V142.33V142.333ZM62.6667 184.333V163.333C62.6667 159.475 65.8079 156.333 69.6667 156.333V191.333C65.8079 191.333 62.6667 188.192 62.6667 184.333ZM193.333 184.333C193.333 188.192 190.192 191.333 186.333 191.333V156.333C190.192 156.333 193.333 159.475 193.333 163.333V184.333Z" fill="black" fill-opacity="0.08"/>
</g>
<rect x="120.5" y="208.5" width="119" height="29" rx="11.5" fill="#EE425D"/>
<rect x="120.5" y="208.5" width="119" height="29" rx="11.5" stroke="white"/>
<path d="M131.23 219.264V218.211C131.23 218.163 131.251 218.143 131.299 218.143H138.176C138.224 218.143 138.244 218.163 138.244 218.211V219.264C138.244 219.312 138.224 219.332 138.176 219.332H135.476C135.428 219.332 135.407 219.359 135.407 219.407V227.932C135.407 227.979 135.38 228 135.332 228H134.143C134.095 228 134.074 227.979 134.074 227.932V219.387C134.054 219.353 134.033 219.332 134.006 219.332H131.299C131.251 219.332 131.23 219.312 131.23 219.264ZM144.04 223.618L140.732 218.211C140.705 218.163 140.718 218.143 140.78 218.143H142.188C142.236 218.143 142.27 218.163 142.304 218.211L144.697 222.203C144.745 222.265 144.786 222.265 144.833 222.203L147.247 218.211C147.281 218.163 147.329 218.143 147.383 218.143H148.771C148.826 218.143 148.839 218.163 148.812 218.211L145.483 223.618C145.449 223.693 145.442 223.721 145.442 223.755V227.932C145.442 227.979 145.414 228 145.367 228H144.177C144.129 228 144.109 227.979 144.109 227.932V223.755C144.109 223.734 144.088 223.693 144.04 223.618ZM151.58 227.932V218.211C151.58 218.163 151.6 218.143 151.648 218.143H155.599C157.124 218.143 158.457 219.469 158.457 221.137C158.457 222.798 157.124 224.083 155.599 224.083H152.981C152.933 224.083 152.913 224.104 152.913 224.151V227.932C152.913 227.979 152.892 228 152.845 228H151.648C151.6 228 151.58 227.979 151.58 227.932ZM152.913 219.407V222.818C152.913 222.866 152.933 222.887 152.981 222.887H155.429C156.317 222.887 157.124 222.107 157.124 221.137C157.124 220.173 156.317 219.332 155.429 219.332H152.981C152.933 219.332 152.913 219.359 152.913 219.407ZM160.849 223.071C160.849 220.118 162.045 218.006 164.848 218.006C167.651 218.006 168.84 220.118 168.84 223.071C168.84 226.059 167.651 228.137 164.848 228.137C162.038 228.137 160.849 226.059 160.849 223.071ZM162.243 223.071C162.243 225.505 163.036 226.947 164.848 226.947C165.757 226.947 166.413 226.605 166.83 225.915C167.247 225.231 167.452 224.281 167.452 223.071C167.452 220.645 166.789 219.195 164.848 219.195C163.036 219.195 162.243 220.645 162.243 223.071ZM170.631 223.071C170.631 220.118 171.82 218.006 174.773 218.006C177.002 218.006 178.075 219.428 178.499 220.843C178.506 220.891 178.485 220.911 178.424 220.918H177.125C177.077 220.918 177.05 220.891 177.043 220.843C176.612 219.742 175.819 219.195 174.773 219.195C172.811 219.195 172.025 220.788 172.025 223.071C172.025 225.354 172.811 226.947 174.773 226.947C176.175 226.947 177.234 225.86 177.234 223.728C177.234 223.68 177.214 223.659 177.166 223.659H174.842C174.794 223.659 174.773 223.639 174.773 223.591V222.538C174.773 222.49 174.794 222.47 174.842 222.47H178.499C178.547 222.47 178.567 222.49 178.567 222.538V227.932C178.567 227.979 178.547 228 178.499 228H177.473C177.419 228 177.385 227.973 177.378 227.918L177.234 226.934C177.234 226.879 177.145 226.852 177.111 226.906C176.66 227.494 175.785 228.137 174.493 228.137C171.841 228.137 170.631 226.059 170.631 223.071ZM181.629 227.932V218.211C181.629 218.163 181.65 218.143 181.697 218.143H185.649C187.173 218.143 188.506 219.469 188.506 221.137C188.506 221.752 188.349 222.292 188.034 222.764C187.72 223.235 187.323 223.591 186.838 223.816C186.804 223.837 186.79 223.864 186.811 223.912L188.602 227.932C188.622 227.979 188.595 228 188.533 228H187.371C187.337 228 187.262 228.007 187.228 227.932L185.546 224.151C185.526 224.104 185.498 224.083 185.45 224.083H183.03C182.983 224.083 182.962 224.104 182.962 224.151V227.932C182.962 227.979 182.935 228 182.887 228H181.697C181.65 228 181.629 227.979 181.629 227.932ZM182.962 219.407V222.818C182.962 222.866 182.983 222.887 183.03 222.887H185.532C186.394 222.853 187.173 222.101 187.173 221.137C187.173 220.173 186.353 219.332 185.478 219.332H183.03C182.983 219.332 182.962 219.359 182.962 219.407ZM190.714 227.918L194.015 218.211C194.036 218.163 194.063 218.143 194.097 218.143H195.82C195.854 218.143 195.888 218.163 195.909 218.211L199.17 227.918C199.19 227.973 199.163 228 199.094 228H197.782C197.755 228 197.734 227.979 197.714 227.932L197.071 225.929C197.064 225.881 197.03 225.86 196.968 225.86H192.908C192.874 225.86 192.846 225.881 192.826 225.929L192.17 227.932C192.149 227.979 192.129 228 192.094 228H190.782C190.72 228 190.693 227.973 190.714 227.918ZM194.883 219.544L193.229 224.657C193.209 224.712 193.236 224.739 193.304 224.739H196.592C196.654 224.739 196.681 224.712 196.661 224.657L195.027 219.544C194.993 219.455 194.918 219.455 194.883 219.544ZM201.753 227.932V218.211C201.753 218.163 201.774 218.143 201.821 218.143H205.773C207.297 218.143 208.63 219.469 208.63 221.137C208.63 222.798 207.297 224.083 205.773 224.083H203.154C203.107 224.083 203.086 224.104 203.086 224.151V227.932C203.086 227.979 203.066 228 203.018 228H201.821C201.774 228 201.753 227.979 201.753 227.932ZM203.086 219.407V222.818C203.086 222.866 203.107 222.887 203.154 222.887H205.602C206.49 222.887 207.297 222.107 207.297 221.137C207.297 220.173 206.49 219.332 205.602 219.332H203.154C203.107 219.332 203.086 219.359 203.086 219.407ZM211.466 227.932V218.211C211.466 218.163 211.487 218.143 211.535 218.143H212.724C212.772 218.143 212.793 218.163 212.799 218.211V222.258C212.799 222.306 212.82 222.326 212.868 222.333H217.168C217.215 222.333 217.236 222.306 217.236 222.258V218.211C217.236 218.163 217.256 218.143 217.304 218.143H218.494C218.542 218.143 218.562 218.163 218.562 218.211V227.932C218.562 227.979 218.542 228 218.494 228H217.304C217.256 228 217.236 227.979 217.236 227.932V223.591C217.236 223.543 217.215 223.522 217.168 223.522H212.868C212.82 223.522 212.799 223.543 212.799 223.577V227.932C212.799 227.979 212.772 228 212.724 228H211.535C211.487 228 211.466 227.979 211.466 227.932ZM224.317 223.618L221.009 218.211C220.981 218.163 220.995 218.143 221.057 218.143H222.465C222.513 218.143 222.547 218.163 222.581 218.211L224.974 222.203C225.021 222.265 225.062 222.265 225.11 222.203L227.523 218.211C227.558 218.163 227.605 218.143 227.66 218.143H229.048C229.103 218.143 229.116 218.163 229.089 218.211L225.76 223.618C225.726 223.693 225.719 223.721 225.719 223.755V227.932C225.719 227.979 225.691 228 225.644 228H224.454C224.406 228 224.386 227.979 224.386 227.932V223.755C224.386 223.734 224.365 223.693 224.317 223.618Z" fill="white"/>
<path d="M104.733 133.907V120.715C104.733 120.65 104.77 120.622 104.835 120.622H113.704C113.769 120.622 113.797 120.65 113.797 120.715V122.394C113.797 122.459 113.769 122.487 113.704 122.487H106.867C106.802 122.487 106.774 122.515 106.765 122.561V126.151C106.765 126.216 106.802 126.244 106.867 126.244H112.832C112.897 126.244 112.925 126.281 112.925 126.346V127.998C112.925 128.062 112.897 128.09 112.832 128.09H106.867C106.802 128.09 106.774 128.118 106.765 128.183V133.907C106.765 133.972 106.737 134 106.672 134H104.835C104.77 134 104.742 133.972 104.733 133.907ZM114.64 131.152C114.64 129.482 116.023 128.165 118.806 128.165H120.763C121.172 128.165 121.366 127.858 121.366 127.636C121.366 127.051 121.199 126.059 119.149 126.059C118.379 126.059 117.832 126.207 117.507 126.495C117.182 126.782 117.006 127.135 116.997 127.543C116.997 127.608 116.969 127.636 116.904 127.636H115.058C114.993 127.636 114.965 127.608 114.965 127.543C114.965 125.307 116.941 124.194 119.149 124.194C120.467 124.194 121.506 124.481 122.266 125.066C123.027 125.65 123.407 126.541 123.407 127.729V131.625C123.407 131.987 123.658 132.256 124.066 132.256H124.484C124.549 132.256 124.576 132.284 124.576 132.349V133.907C124.576 133.972 124.549 134 124.484 134H123.723C122.656 134 122.118 133.694 121.784 133.109C121.738 133.035 121.682 133.026 121.617 133.091C121.376 133.341 120.986 133.592 120.448 133.824C119.91 134.065 119.233 134.186 118.426 134.186C117.145 134.186 116.199 133.898 115.577 133.332C114.956 132.766 114.64 132.033 114.64 131.152ZM116.681 131.152C116.681 131.681 117.09 132.349 118.426 132.349C120.559 132.349 121.366 131.115 121.366 130.048V129.918C121.366 129.853 121.339 129.825 121.274 129.816H118.862C116.988 129.816 116.681 130.567 116.681 131.152ZM126.116 129.194C126.116 126.198 127.804 124.194 130.782 124.194C133.213 124.194 134.901 125.548 135.272 127.543C135.3 127.608 135.263 127.636 135.17 127.636H133.259C133.194 127.636 133.148 127.608 133.12 127.543C132.758 126.578 132.007 126.021 130.782 126.021C129.094 126.021 128.166 127.367 128.166 129.194C128.166 131.041 129.094 132.386 130.782 132.386C132.072 132.386 132.795 131.838 133.139 130.846C133.167 130.781 133.213 130.753 133.278 130.753H135.198C135.245 130.753 135.319 130.771 135.291 130.846C134.781 133.072 133.222 134.186 130.782 134.186C127.804 134.186 126.116 132.163 126.116 129.194ZM136.617 126.003V124.481C136.617 124.417 136.645 124.389 136.71 124.389H138.324C138.389 124.389 138.417 124.352 138.417 124.287V121.726C138.417 121.661 138.445 121.633 138.51 121.633H140.374C140.439 121.633 140.467 121.661 140.467 121.726V124.287C140.467 124.352 140.504 124.379 140.569 124.389H142.564C142.629 124.389 142.656 124.417 142.656 124.481V126.003C142.656 126.068 142.629 126.096 142.564 126.096H140.569C140.504 126.096 140.476 126.124 140.467 126.188V131.375C140.467 131.857 140.736 132.154 141.33 132.154H142.564C142.629 132.154 142.656 132.191 142.656 132.256V133.907C142.656 133.972 142.629 134 142.564 134H141.079C140.114 134 139.428 133.787 139.029 133.369C138.621 132.952 138.417 132.274 138.417 131.319V126.188C138.417 126.124 138.389 126.096 138.324 126.096H136.71C136.645 126.096 136.617 126.068 136.617 126.003ZM144.418 130.846C144.418 130.781 144.456 130.753 144.52 130.753H146.395C146.469 130.753 146.506 130.781 146.515 130.846C146.515 131.235 146.71 131.579 147.09 131.885C147.471 132.191 148.018 132.349 148.732 132.349C149.614 132.349 150.885 132.163 150.885 131.078C150.885 130.734 150.727 130.493 150.421 130.345C150.105 130.196 149.716 130.094 149.252 130.029C148.779 129.964 148.278 129.909 147.74 129.844C146.664 129.732 145.68 129.389 145.059 128.666C144.752 128.304 144.595 127.784 144.595 127.107C144.595 125.511 146.125 124.194 148.51 124.194C150.894 124.194 152.666 125.307 152.666 127.543C152.666 127.608 152.638 127.636 152.592 127.636H150.708C150.644 127.636 150.616 127.608 150.616 127.543C150.616 127.153 150.449 126.81 150.115 126.504C149.771 126.207 149.243 126.059 148.51 126.059C147.22 126.059 146.626 126.55 146.626 127.107C146.626 127.432 146.784 127.664 147.09 127.793C147.396 127.933 147.786 128.025 148.259 128.09C148.732 128.155 149.233 128.211 149.781 128.276C150.866 128.406 151.85 128.74 152.471 129.482C152.777 129.862 152.935 130.391 152.935 131.078C152.935 133.193 151.209 134.186 148.732 134.186C145.847 134.186 144.418 132.627 144.418 130.846Z" fill="white"/>
<path d="M215 23C214.448 23 214 23.4477 214 24C214 24.5523 214.448 25 215 25L215 23ZM237.707 24.7071C238.098 24.3166 238.098 23.6834 237.707 23.2929L231.343 16.9289C230.953 16.5384 230.319 16.5384 229.929 16.9289C229.538 17.3195 229.538 17.9526 229.929 18.3431L235.586 24L229.929 29.6569C229.538 30.0474 229.538 30.6805 229.929 31.0711C230.319 31.4616 230.953 31.4616 231.343 31.0711L237.707 24.7071ZM215 25L237 25L237 23L215 23L215 25Z" fill="white"/>
<defs>
<clipPath id="clip0_2_79">
<rect width="140" height="140" fill="white" transform="translate(58 56)"/>
</clipPath>
</defs>
</svg>
