<svg width="150" height="180" viewBox="0 0 150 180" fill="none" xmlns="http://www.w3.org/2000/svg">
<g clip-path="url(#clip0_75_17)">
<path d="M127.954 75.7237C119.876 68.8012 111.844 65.28 108.056 63.8737C108.24 60.045 108.863 55.6763 109.47 51.4275C110.224 46.1625 111 40.7175 111 36.0037C111 16.1513 94.8487 0 75 0C55.1512 0 39 16.1512 39 36C39 40.7137 39.7762 46.1588 40.53 51.4238C41.1375 55.6725 41.76 60.0413 41.9437 63.87C38.1562 65.2763 30.1238 68.7975 22.0462 75.72C11.9888 84.345 0 100.065 0 126C0 126.87 0.37875 127.695 1.035 128.265C1.5825 128.741 2.28375 129 3 129C3.1425 129 3.28125 128.989 3.42375 128.97C3.99 128.888 15.6863 127.114 27.0188 117.667C27.0038 118.433 26.9963 119.209 26.9963 120C26.9963 135.679 30.7763 148.305 38.2388 157.616C33.3525 160.091 29.9963 165.161 29.9963 171C29.9963 175.961 34.035 180 38.9963 180H62.9963C67.9575 180 71.9963 175.961 71.9963 171C71.9963 167.494 70.785 164.269 68.7637 161.711C70.725 161.903 72.7988 162 74.9963 162C77.1937 162 79.2712 161.903 81.2288 161.711C79.2075 164.269 77.9963 167.494 77.9963 171C77.9963 175.961 82.035 180 86.9963 180H110.996C115.957 180 119.996 175.961 119.996 171C119.996 165.158 116.64 160.091 111.754 157.616C119.216 148.309 122.996 135.682 122.996 120C122.996 119.209 122.989 118.433 122.974 117.667C134.306 127.114 146.006 128.891 146.569 128.97C146.711 128.989 146.854 129 146.993 129C147.709 129 148.41 128.741 148.958 128.265C149.614 127.695 149.993 126.87 149.993 126C149.993 100.065 138.004 84.345 127.946 75.7237H127.954ZM142.462 111.09C141.757 109.927 141.004 108.724 140.205 107.49C132.289 95.3063 123.821 86.46 115.013 81.1725C113.798 78.66 112.59 76.4812 111.51 74.5425C110.794 73.2562 110.152 72.0975 109.616 71.0362C113.467 72.8137 118.875 75.8063 124.23 80.4375C133.702 88.6237 139.804 98.8988 142.459 111.09H142.462ZM25.7663 80.4375C31.1213 75.81 36.5288 72.8137 40.38 71.0362C39.8438 72.0975 39.2025 73.2562 38.4862 74.5425C37.41 76.4812 36.2025 78.66 34.9837 81.1725C26.1788 86.46 17.7075 95.3063 9.79125 107.49C8.98875 108.724 8.23875 109.927 7.53375 111.09C10.1925 98.895 16.29 88.6237 25.7625 80.4375H25.7663ZM8.63625 121.35C12.5925 113.861 20.4112 100.77 30.855 91.6425C29.3737 96.435 28.1512 102.112 27.5025 108.967C21.0337 115.909 13.6725 119.535 8.63625 121.35ZM63 174H60V171C60 169.342 58.6575 168 57 168C55.3425 168 54 169.342 54 171V174H48V171C48 169.342 46.6575 168 45 168C43.3425 168 42 169.342 42 171V174H39C37.3462 174 36 172.654 36 171C36 166.039 40.0387 162 45 162H57C61.9613 162 66 166.039 66 171C66 172.654 64.6537 174 63 174ZM52.815 148.699C47.5575 143.089 45 133.702 45 120C45 102.375 50.3438 92.415 54.6338 84.4088C57.5138 79.0387 60 74.4 60 69C60 65.3288 59.5312 62.565 58.9875 59.3625C58.1025 54.1388 57 47.6325 57 33C57 24.2512 65.0775 24 66 24C69.3075 24 72 26.6925 72 30C72 31.6575 73.3425 33 75 33C76.6575 33 78 31.6575 78 30C78 26.6925 80.6925 24 84 24C84.9225 24 93 24.2512 93 33C93 47.6325 91.8975 54.135 91.0125 59.3625C90.4688 62.565 90 65.3288 90 69C90 74.4037 92.4863 79.0387 95.3662 84.4088C99.66 92.415 105 102.375 105 120C105 133.702 102.443 143.089 97.185 148.699C92.5163 153.679 85.4662 156 75 156C64.5338 156 57.4837 153.679 52.815 148.699ZM111 174H108V171C108 169.342 106.658 168 105 168C103.342 168 102 169.342 102 171V174H96V171C96 169.342 94.6575 168 93 168C91.3425 168 90 169.342 90 171V174H87C85.3463 174 84 172.654 84 171C84 166.039 88.0387 162 93 162H105C109.961 162 114 166.039 114 171C114 172.654 112.654 174 111 174ZM105.221 156.004C105.146 156.004 105.075 156 105 156H97.95C99.2513 155.051 100.455 153.986 101.565 152.801C107.914 146.029 111 135.3 111 120C111 100.868 105.019 89.7188 100.654 81.5737C98.055 76.725 96 72.8962 96 69C96 65.835 96.4088 63.42 96.9263 60.3638C97.8 55.2038 99 48.1387 99 33C99 22.695 91.2262 18 84 18C80.4187 18 77.2012 19.575 75 22.0725C72.7988 19.5788 69.5813 18 66 18C58.7738 18 51 22.695 51 33C51 48.1387 52.1963 55.2038 53.0737 60.3638C53.5913 63.42 54 65.835 54 69C54 72.8962 51.945 76.725 49.3462 81.5737C44.9812 89.715 39 100.868 39 120C39 135.3 42.0863 146.029 48.435 152.801C49.545 153.986 50.7488 155.051 52.05 156H45C44.925 156 44.8538 156.004 44.7788 156.004C36.9638 147.649 33 135.544 33 120C33 96.7763 39.4575 85.1513 43.7325 77.4563C46.1175 73.1663 48 69.7763 48 66C48 61.2863 47.2238 55.8412 46.47 50.5762C45.7463 45.5175 45 40.2863 45 36C45 19.4587 58.4587 6 75 6C91.5413 6 105 19.4587 105 36C105 40.2863 104.254 45.5175 103.53 50.5762C102.776 55.8412 102 61.2863 102 66C102 69.7763 103.882 73.1663 106.268 77.4563C110.543 85.1513 117 96.7763 117 120C117 135.548 113.036 147.652 105.221 156.004ZM122.501 108.967C121.853 102.112 120.63 96.435 119.149 91.6425C129.6 100.778 137.426 113.884 141.375 121.369C136.35 119.565 129.004 115.95 122.497 108.967H122.501Z" fill="black" fill-opacity="0.08"/>
<path d="M77.9962 39H72.0037C69.2137 39 66.6262 40.26 64.9087 42.4613C63.1912 44.6625 62.595 47.475 63.27 50.1825C64.275 54.195 67.8637 57 72 57H77.9925C82.1287 57 85.7212 54.195 86.7225 50.1825C87.4012 47.475 86.8012 44.6588 85.0837 42.4613C83.3662 40.2638 80.7825 39 77.9887 39H77.9962ZM80.9062 48.7275C80.5725 50.0663 79.3762 51 77.9962 51H72.0037C70.6237 51 69.4275 50.0663 69.0937 48.7275C68.8687 47.8238 69.0675 46.8863 69.6412 46.155C70.215 45.42 71.0775 45 72.0075 45H78C78.93 45 79.7925 45.42 80.3662 46.155C80.94 46.89 81.1387 47.8275 80.9137 48.7275H80.9062Z" fill="black" fill-opacity="0.08"/>
<path d="M84 39C85.6569 39 87 37.6569 87 36C87 34.3431 85.6569 33 84 33C82.3431 33 81 34.3431 81 36C81 37.6569 82.3431 39 84 39Z" fill="black" fill-opacity="0.08"/>
<path d="M66 39C67.6569 39 69 37.6569 69 36C69 34.3431 67.6569 33 66 33C64.3431 33 63 34.3431 63 36C63 37.6569 64.3431 39 66 39Z" fill="black" fill-opacity="0.08"/>
</g>
<defs>
<clipPath id="clip0_75_17">
<rect width="150" height="180" fill="white"/>
</clipPath>
</defs>
</svg>
