<svg width="174" height="174" viewBox="0 0 174 174" fill="none" xmlns="http://www.w3.org/2000/svg">
<g clip-path="url(#clip0_75_54)">
<path d="M171.1 84.1H160.7L167.348 77.4518C167.874 76.9261 168.2 76.2011 168.2 75.4C168.2 73.7978 166.902 72.5 165.3 72.5C164.499 72.5 163.774 72.8263 163.248 73.3519L152.5 84.1H140.404L147.052 77.4518C147.577 76.9261 147.904 76.2011 147.904 75.4C147.904 73.7978 146.606 72.5 145.004 72.5C144.203 72.5 143.478 72.8263 142.952 73.3519L132.204 84.1H119.295L129.833 71.456C130.507 70.6476 130.689 69.5384 130.312 68.5596C129.935 67.5773 129.057 66.8776 128.013 66.729L113.455 64.6483L121.013 57.0901H136.217C136.96 57.0901 137.703 56.8074 138.268 56.2419C139.399 55.1109 139.399 53.273 138.268 52.142C137.703 51.5765 136.96 51.2938 136.217 51.2938H126.813L135.368 42.7388H150.572C151.315 42.7388 152.054 42.456 152.623 41.8905C153.754 40.7595 153.754 38.9216 152.623 37.7906C152.058 37.2251 151.315 36.9424 150.572 36.9424H141.168L148.52 29.5909C149.651 28.4599 149.651 26.622 148.52 25.491C147.389 24.36 145.551 24.36 144.42 25.491L137.068 32.8425V23.4393C137.068 22.6961 136.786 21.953 136.22 21.3875C135.089 20.2565 133.251 20.2565 132.12 21.3875C131.555 21.953 131.272 22.6961 131.272 23.4393V38.6425L122.717 47.1975V37.7943C122.717 37.0511 122.434 36.3116 121.869 35.7425C120.738 34.6115 118.9 34.6115 117.769 35.7425C117.204 36.308 116.921 37.0511 116.921 37.7943V52.9975L109.363 60.5556L107.282 45.9976C107.133 44.9573 106.434 44.08 105.451 43.6994C104.469 43.3224 103.363 43.5036 102.555 44.1779L89.9109 54.7158V41.8071L100.659 31.059C101.185 30.5334 101.511 29.8084 101.511 29.0072C101.511 27.405 100.213 26.1073 98.6109 26.1073C97.8098 26.1073 97.0848 26.4335 96.5591 26.9591L89.9109 33.6074V21.5107L100.659 10.7626C101.185 10.237 101.511 9.512 101.511 8.71088C101.511 7.10863 100.213 5.81088 98.6109 5.81088C97.8098 5.81088 97.0848 6.13713 96.5591 6.66275L89.9109 13.311V2.9C89.9109 1.29775 88.6131 0 87.0109 0C85.4086 0 84.1109 1.29775 84.1109 2.9V13.3001L77.4626 6.65188C76.937 6.12625 76.212 5.8 75.4109 5.8C73.8086 5.8 72.5109 7.09775 72.5109 8.7C72.5109 9.50113 72.8371 10.2261 73.3628 10.7517L84.1109 21.4999V33.5965L77.4626 26.9482C76.937 26.4226 76.212 26.0964 75.4109 26.0964C73.8086 26.0964 72.5109 27.3941 72.5109 28.9964C72.5109 29.7975 72.8371 30.5225 73.3628 31.0481L84.1109 41.7963V54.7049L71.4669 44.167C70.6585 43.4927 69.5493 43.3115 68.5705 43.6885C67.5881 44.0655 66.8885 44.9428 66.7399 45.9868L64.6591 60.5448L57.101 52.9866V37.7834C57.101 37.0403 56.8182 36.2971 56.2528 35.7316C55.1217 34.6006 53.2839 34.6006 52.1529 35.7316C51.5874 36.2971 51.3046 37.0403 51.3046 37.7834V47.1866L42.7496 38.6316V23.4284C42.7496 22.6852 42.4669 21.9458 41.9014 21.3766C40.7704 20.2456 38.9325 20.2456 37.8015 21.3766C37.236 21.9421 36.9533 22.6852 36.9533 23.4284V32.8316L29.6018 25.4801C28.4708 24.3491 26.6329 24.3491 25.5019 25.4801C24.3709 26.6111 24.3709 28.449 25.5019 29.58L32.8534 36.9315H23.4501C22.707 36.9315 21.9639 37.2143 21.3984 37.7798C20.2674 38.9108 20.2674 40.7486 21.3984 41.8796C21.9639 42.4451 22.707 42.7279 23.4501 42.7279H38.6534L47.2084 51.2829H37.8051C37.062 51.2829 36.3225 51.5656 35.7534 52.1311C34.6224 53.2621 34.6224 55.1 35.7534 56.231C36.3189 56.7965 37.062 57.0793 37.8051 57.0793H53.0084L60.5665 64.6374L46.0085 66.7181C44.9681 66.8668 44.0909 67.5664 43.7103 68.5488C43.3333 69.5311 43.5145 70.6367 44.1888 71.4451L54.7266 84.0891H41.818L31.0699 73.341C30.5443 72.8154 29.8193 72.4891 29.0181 72.4891C27.4159 72.4891 26.1181 73.7869 26.1181 75.3891C26.1181 76.1903 26.4444 76.9153 26.97 77.4409L33.6183 84.0891H21.5216L10.7735 73.341C10.2479 72.8154 9.52287 72.4891 8.72175 72.4891C7.1195 72.4891 5.82175 73.7869 5.82175 75.3891C5.82175 76.1903 6.148 76.9153 6.67362 77.4409L13.3219 84.0891H2.9C1.29775 84.0891 0 85.3869 0 86.9891C0 88.5914 1.29775 89.8891 2.9 89.8891H13.3001L6.65188 96.5374C6.12625 97.063 5.8 97.788 5.8 98.5891C5.8 100.191 7.09775 101.489 8.7 101.489C9.50113 101.489 10.2261 101.163 10.7517 100.637L21.4999 89.8891H33.5965L26.9482 96.5374C26.4226 97.063 26.0964 97.788 26.0964 98.5891C26.0964 100.191 27.3941 101.489 28.9964 101.489C29.7975 101.489 30.5225 101.163 31.0481 100.637L41.7963 89.8891H54.7049L44.167 102.533C43.4927 103.342 43.3115 104.451 43.6885 105.43C44.0655 106.412 44.9428 107.112 45.9868 107.26L60.5448 109.341L52.9866 116.899H37.7834C37.0403 116.899 36.2971 117.182 35.7316 117.747C34.6006 118.878 34.6006 120.716 35.7316 121.847C36.2971 122.413 37.0403 122.695 37.7834 122.695H47.1866L38.6316 131.25H23.4284C22.6852 131.25 21.9458 131.533 21.3766 132.099C20.2456 133.23 20.2456 135.068 21.3766 136.199C21.9421 136.764 22.6852 137.047 23.4284 137.047H32.8316L25.4801 144.398C24.3491 145.529 24.3491 147.367 25.4801 148.498C26.6111 149.629 28.449 149.629 29.58 148.498L36.9315 141.147V150.55C36.9315 151.293 37.2143 152.036 37.7798 152.602C38.9108 153.733 40.7486 153.733 41.8796 152.602C42.4451 152.036 42.7279 151.293 42.7279 150.55V135.347L51.2829 126.792V136.195C51.2829 136.938 51.5656 137.678 52.1311 138.247C53.2621 139.378 55.1 139.378 56.231 138.247C56.7965 137.681 57.0793 136.938 57.0793 136.195V120.992L64.6374 113.434L66.7181 127.992C66.8668 129.032 67.5664 129.909 68.5488 130.29C69.5311 130.667 70.6367 130.486 71.4451 129.811L84.0891 119.273V132.182L73.341 142.93C72.8154 143.456 72.4891 144.181 72.4891 144.982C72.4891 146.584 73.7869 147.882 75.3891 147.882C76.1903 147.882 76.9153 147.556 77.4409 147.03L84.0891 140.382V152.478L73.341 163.227C72.8154 163.752 72.4891 164.477 72.4891 165.278C72.4891 166.881 73.7869 168.178 75.3891 168.178C76.1903 168.178 76.9153 167.852 77.4409 167.326L84.0891 160.678V171.078C84.0891 172.681 85.3869 173.978 86.9891 173.978C88.5914 173.978 89.8891 172.681 89.8891 171.078V160.678L96.5374 167.326C97.063 167.852 97.788 168.178 98.5891 168.178C100.191 168.178 101.489 166.881 101.489 165.278C101.489 164.477 101.163 163.752 100.637 163.227L89.8891 152.478V140.382L96.5374 147.03C97.063 147.556 97.788 147.882 98.5891 147.882C100.191 147.882 101.489 146.584 101.489 144.982C101.489 144.181 101.163 143.456 100.637 142.93L89.8891 132.182V119.273L102.533 129.811C103.062 130.254 103.722 130.482 104.389 130.482C104.741 130.482 105.092 130.42 105.43 130.29C106.412 129.913 107.112 129.035 107.26 127.992L109.341 113.434L116.899 120.992V136.195C116.899 136.938 117.182 137.681 117.747 138.247C118.878 139.378 120.716 139.378 121.847 138.247C122.413 137.681 122.695 136.938 122.695 136.195V126.792L131.25 135.347V150.55C131.25 151.293 131.533 152.033 132.099 152.602C133.23 153.733 135.068 153.733 136.199 152.602C136.764 152.036 137.047 151.293 137.047 150.55V141.147L144.398 148.498C145.529 149.629 147.367 149.629 148.498 148.498C149.629 147.367 149.629 145.529 148.498 144.398L141.147 137.047H150.55C151.293 137.047 152.036 136.764 152.602 136.199C153.733 135.068 153.733 133.23 152.602 132.099C152.036 131.533 151.293 131.25 150.55 131.25H135.347L126.792 122.695H136.195C136.938 122.695 137.678 122.413 138.247 121.847C139.378 120.716 139.378 118.878 138.247 117.747C137.681 117.182 136.938 116.899 136.195 116.899H120.992L113.434 109.341L127.992 107.26C129.032 107.112 129.909 106.412 130.29 105.43C130.667 104.447 130.486 103.342 129.811 102.533L119.273 89.8891H132.182L142.93 100.637C143.456 101.163 144.181 101.489 144.982 101.489C146.584 101.489 147.882 100.191 147.882 98.5891C147.882 97.788 147.556 97.063 147.03 96.5374L140.382 89.8891H152.478L163.227 100.637C163.752 101.163 164.477 101.489 165.278 101.489C166.881 101.489 168.178 100.191 168.178 98.5891C168.178 97.788 167.852 97.063 167.326 96.5374L160.678 89.8891H171.078C172.681 89.8891 173.978 88.5914 173.978 86.9891C173.978 85.3869 172.681 84.0891 171.078 84.0891L171.1 84.1ZM89.9 62.2594L102.265 51.9571L104.226 65.6777L93.5939 76.3099L89.9036 73.8485V62.2594H89.9ZM71.7351 51.9535L84.1 62.2558V73.8449L80.4098 76.3063L69.7776 65.6741L71.7387 51.9535H71.7351ZM51.9535 71.7351L65.6741 69.774L75.7371 79.837C75.5196 80.2503 75.3964 80.7143 75.3964 81.1964V84.0964H62.2558L51.9535 71.7315V71.7351ZM65.6741 104.222L51.9535 102.261L62.2558 89.8964H75.3964V92.7964C75.3964 93.2785 75.516 93.7425 75.7371 94.1557L65.6741 104.219V104.222ZM84.1 111.741L71.7351 122.043L69.774 108.322L80.4061 97.6901L84.0964 100.152V111.741H84.1ZM87 95.1164L81.2 91.2485V82.7515L87 78.8836L92.8 82.7515V91.2485L87 95.1164ZM102.265 122.047L89.9 111.744V100.155L93.5902 97.6938L104.222 108.326L102.261 122.047H102.265ZM122.047 102.265L108.326 104.226L98.2629 94.163C98.4804 93.7498 98.6036 93.2858 98.6036 92.8036V89.9036H111.744L122.047 102.269V102.265ZM111.741 84.1H98.6V81.2C98.6 80.7179 98.4804 80.2539 98.2593 79.8406L108.322 69.7776L122.043 71.7387L111.741 84.1036V84.1Z" fill="#DA78AC" fill-opacity="0.2"/>
</g>
<defs>
<clipPath id="clip0_75_54">
<rect width="174" height="174" fill="white"/>
</clipPath>
</defs>
</svg>
