<svg width="186" height="128" viewBox="0 0 186 128" fill="none" xmlns="http://www.w3.org/2000/svg">
<g clip-path="url(#clip0_75_12)">
<path d="M186 12.1905C186 5.46667 180.527 0 173.803 0C169.371 0 165.338 2.41524 163.2 6.17905C162.678 6.12571 162.144 6.09524 161.607 6.09524H137.213C136.676 6.09524 136.146 6.12571 135.62 6.17905C133.482 2.41524 129.449 0 125.016 0C118.293 0 112.82 5.46667 112.82 12.1905C112.82 14.4419 113.433 16.5486 114.504 18.3581C111.848 18.6248 108.982 19.6076 105.734 20.72C100.733 22.4343 95.0658 24.381 88.43 24.381C83.4523 24.381 80.1325 23.2571 76.2905 21.9543C71.2136 20.2362 65.4621 18.2857 54.8891 18.2857C38.1224 18.2857 21.2299 27.8133 16.5342 48.7619H12.2005C5.47709 48.7619 0.0038147 54.2286 0.0038147 60.9524V67.0476C0.0038147 73.7714 5.47709 79.2381 12.2005 79.2381C13.5574 79.2381 14.8876 79.0133 16.1492 78.5829C16.9992 86.7543 18.4514 94.5676 20.5057 101.935C23.3453 112.126 26.6841 119.192 28.9863 123.322C30.5947 126.21 33.6515 128 36.9713 128H68.8772C72.9364 128 76.2371 124.701 76.2371 120.644C76.2371 118.678 75.471 116.83 74.0798 115.44L71.2632 112.625C73.2451 110.183 76.2676 105.924 78.4173 100.446C80.7004 100.24 84.6452 99.6876 89.684 98.2248C91.2925 109.916 94.1091 118.004 96.0416 122.488C97.4823 125.836 100.779 128 104.438 128H135.959C140.018 128 143.319 124.701 143.319 120.644C143.319 118.678 142.553 116.83 141.162 115.44L137.244 111.528C137.373 107.402 138.155 93.9924 142.805 87.0248C144.859 83.9467 148.247 80.5105 151.838 76.8762C158.409 70.221 165.845 62.6857 168.063 54.2133L171.135 51.7562C174.771 48.8495 176.856 44.5105 176.856 39.859V24C182.112 22.6438 186.004 17.8667 186.004 12.1943L186 12.1905ZM12.1967 73.1429C8.835 73.1429 6.09836 70.4076 6.09836 67.0476V60.9524C6.09836 57.5924 8.835 54.8571 12.1967 54.8571H15.5508C15.3526 56.8076 15.2459 58.8343 15.2459 60.9524C15.2459 64.7314 15.3641 68.4457 15.5966 72.099C14.5941 72.7733 13.4164 73.1429 12.1967 73.1429ZM125.016 6.09524C126.796 6.09524 128.447 6.87238 129.583 8.14857C126.049 10.1981 123.412 13.6267 122.409 17.6914C120.347 16.7124 118.918 14.6171 118.918 12.1905C118.918 8.83048 121.655 6.09524 125.016 6.09524ZM147.493 72.5943C143.693 76.4419 140.102 80.08 137.728 83.6457C131.191 93.4438 131.119 111.981 131.119 112.766C131.119 113.55 131.439 114.35 132.01 114.922L136.847 119.756C137.087 119.996 137.217 120.312 137.217 120.648C137.217 121.345 136.649 121.909 135.955 121.909H127.955C128.027 121.497 128.073 121.078 128.073 120.648C128.073 118.682 127.307 116.834 125.916 115.444L122.158 111.688C122.973 106.225 126.305 86.5448 133.851 71.4629C134.057 71.0514 134.175 70.5905 134.175 70.099C134.175 68.4152 132.811 67.0514 131.126 67.0514C129.933 67.0514 128.9 67.7371 128.401 68.7391C119.128 87.2762 116.033 111.371 115.907 112.389C115.789 113.322 116.113 114.255 116.776 114.922L121.613 119.756C121.853 119.996 121.982 120.312 121.982 120.648C121.982 121.345 121.415 121.909 120.721 121.909H104.446C103.226 121.909 102.128 121.192 101.652 120.084C98.9955 113.909 94.5398 100.392 94.5398 79.2419C94.5398 77.5581 93.1753 76.1943 91.4907 76.1943C89.806 76.1943 88.4415 77.5581 88.4415 79.2419C88.4415 83.859 88.6511 88.1333 89.0018 92.0762C81.3598 94.4229 76.2905 94.48 76.2448 94.48C74.9336 94.48 73.7673 95.3181 73.3518 96.5638C70.5847 104.865 64.9933 110.56 64.9399 110.61C63.7507 111.798 63.7507 113.73 64.9399 114.918L69.7767 119.752C70.0168 119.992 70.1464 120.309 70.1464 120.644C70.1464 121.341 69.5785 121.905 68.8848 121.905H60.8845C60.9569 121.493 61.0027 121.074 61.0027 120.644C61.0027 118.678 60.2366 116.83 58.8454 115.44L56.2612 112.857C60.2747 108.758 67.7719 99.1391 70.1159 82.7162C70.135 82.5752 70.1502 82.4305 70.1502 82.2857C70.1502 80.6019 68.7857 79.2381 67.101 79.2381C65.565 79.2381 64.2958 80.3771 64.0862 81.8552C61.2733 101.539 50.1323 110.248 50.0294 110.324C49.3205 110.853 48.8784 111.665 48.8174 112.545C48.7526 113.425 49.0766 114.29 49.7016 114.914L54.5384 119.749C54.7785 119.989 54.9081 120.305 54.9081 120.64C54.9081 121.337 54.3402 121.901 53.6465 121.901H36.9866C35.8812 121.901 34.8636 121.307 34.33 120.354C30.4308 113.356 21.3671 93.5619 21.3671 60.9486C21.3671 49.181 24.9918 39.539 31.8449 33.0705C37.7832 27.4667 45.974 24.3771 54.9081 24.3771C64.4787 24.3771 69.4985 26.08 74.3505 27.7219C78.524 29.1352 82.4613 30.4724 88.4491 30.4724C96.1025 30.4724 102.552 28.259 107.735 26.4838C111.028 25.3524 113.875 24.3771 115.892 24.3771H121.99V39.8514C121.99 44.5067 124.075 48.8419 127.711 51.7486L135.041 57.6076C137.735 59.76 141.116 60.9448 144.565 60.9448H154.304C155.668 60.9448 157.025 60.7543 158.333 60.3962C155.36 64.64 151.285 68.7695 147.519 72.5829L147.493 72.5943ZM170.754 39.8552C170.754 42.6476 169.504 45.2495 167.32 46.9943L159.994 52.8533C158.378 54.1448 156.347 54.8571 154.281 54.8571H144.543C142.473 54.8571 140.445 54.1448 138.829 52.8533L131.504 46.9943C129.323 45.2495 128.069 42.6476 128.069 39.8552V21.3333C128.069 16.2933 132.174 12.1905 137.217 12.1905H161.61C166.653 12.1905 170.758 16.2933 170.758 21.3333V39.8552H170.754ZM176.41 17.6914C175.408 13.6267 172.77 10.1981 169.237 8.14857C170.373 6.86857 172.023 6.09524 173.803 6.09524C177.165 6.09524 179.902 8.83048 179.902 12.1905C179.902 14.6171 178.469 16.7124 176.41 17.6914Z" fill="black" fill-opacity="0.08"/>
<path d="M158.557 30.4762C160.241 30.4762 161.607 29.1117 161.607 27.4286C161.607 25.7454 160.241 24.381 158.557 24.381C156.873 24.381 155.508 25.7454 155.508 27.4286C155.508 29.1117 156.873 30.4762 158.557 30.4762Z" fill="black" fill-opacity="0.08"/>
<path d="M140.262 30.4762C141.946 30.4762 143.311 29.1117 143.311 27.4286C143.311 25.7454 141.946 24.381 140.262 24.381C138.578 24.381 137.213 25.7454 137.213 27.4286C137.213 29.1117 138.578 30.4762 140.262 30.4762Z" fill="black" fill-opacity="0.08"/>
<path d="M156.873 42.9905C154.91 42.0076 152.76 40.3162 152.459 39.5276V36.5714C154.144 36.5714 155.508 35.2076 155.508 33.5238C155.508 31.84 154.144 30.4762 152.459 30.4762H146.361C144.676 30.4762 143.311 31.84 143.311 33.5238C143.311 35.2076 144.676 36.5714 146.361 36.5714V39.5162C146.075 40.2933 143.918 41.9962 141.947 42.9867C140.948 43.4895 140.262 44.5181 140.262 45.7143C140.262 47.3981 141.627 48.7619 143.311 48.7619C143.803 48.7619 144.264 48.6438 144.676 48.4381C145.617 47.9695 147.657 46.8533 149.41 45.261C151.163 46.8571 153.202 47.9695 154.144 48.4419C154.555 48.6438 155.017 48.7619 155.508 48.7619C157.193 48.7619 158.557 47.3981 158.557 45.7143C158.557 44.5219 157.871 43.4895 156.873 42.9905Z" fill="black" fill-opacity="0.08"/>
</g>
<defs>
<clipPath id="clip0_75_12">
<rect width="186" height="128" fill="white"/>
</clipPath>
</defs>
</svg>
