<svg width="184" height="184" viewBox="0 0 184 184" fill="none" xmlns="http://www.w3.org/2000/svg">
<path d="M122.667 30.6666C129.433 30.6666 134.933 25.1658 134.933 18.4C134.933 11.6341 129.433 6.1333 122.667 6.1333C115.901 6.1333 110.4 11.6341 110.4 18.4C110.4 25.1658 115.901 30.6666 122.667 30.6666ZM122.667 12.2666C126.048 12.2666 128.8 15.019 128.8 18.4C128.8 21.781 126.048 24.5333 122.667 24.5333C119.286 24.5333 116.533 21.781 116.533 18.4C116.533 15.019 119.286 12.2666 122.667 12.2666Z" fill="black" fill-opacity="0.08"/>
<path d="M61.3333 153.333C54.5675 153.333 49.0667 158.834 49.0667 165.6C49.0667 172.366 54.5675 177.867 61.3333 177.867C68.0992 177.867 73.6 172.366 73.6 165.6C73.6 158.834 68.0992 153.333 61.3333 153.333ZM61.3333 171.733C57.9523 171.733 55.2 168.981 55.2 165.6C55.2 162.219 57.9523 159.467 61.3333 159.467C64.7143 159.467 67.4667 162.219 67.4667 165.6C67.4667 168.981 64.7143 171.733 61.3333 171.733Z" fill="black" fill-opacity="0.08"/>
<path d="M119.6 73.6C124.672 73.6 128.8 69.4715 128.8 64.4C128.8 59.3285 124.672 55.2 119.6 55.2C114.529 55.2 110.4 59.3285 110.4 64.4C110.4 69.4715 114.529 73.6 119.6 73.6ZM119.6 61.3333C121.291 61.3333 122.667 62.7095 122.667 64.4C122.667 66.0905 121.291 67.4667 119.6 67.4667C117.91 67.4667 116.533 66.0905 116.533 64.4C116.533 62.7095 117.91 61.3333 119.6 61.3333Z" fill="black" fill-opacity="0.08"/>
<path d="M67.4667 107.333C62.3952 107.333 58.2667 111.462 58.2667 116.533C58.2667 121.605 62.3952 125.733 67.4667 125.733C72.5382 125.733 76.6667 121.605 76.6667 116.533C76.6667 111.462 72.5382 107.333 67.4667 107.333ZM67.4667 119.6C65.7762 119.6 64.4 118.224 64.4 116.533C64.4 114.843 65.7762 113.467 67.4667 113.467C69.1572 113.467 70.5333 114.843 70.5333 116.533C70.5333 118.224 69.1572 119.6 67.4667 119.6Z" fill="black" fill-opacity="0.08"/>
<path d="M21.4667 128.8C16.3952 128.8 12.2667 132.929 12.2667 138C12.2667 143.072 16.3952 147.2 21.4667 147.2C26.5382 147.2 30.6667 143.072 30.6667 138C30.6667 132.929 26.5382 128.8 21.4667 128.8ZM21.4667 141.067C19.7762 141.067 18.4 139.691 18.4 138C18.4 136.31 19.7762 134.933 21.4667 134.933C23.1572 134.933 24.5333 136.31 24.5333 138C24.5333 139.691 23.1572 141.067 21.4667 141.067Z" fill="black" fill-opacity="0.08"/>
<path d="M162.533 55.2C167.605 55.2 171.733 51.0715 171.733 46C171.733 40.9285 167.605 36.8 162.533 36.8C157.462 36.8 153.333 40.9285 153.333 46C153.333 51.0715 157.462 55.2 162.533 55.2ZM162.533 42.9333C164.224 42.9333 165.6 44.3095 165.6 46C165.6 47.6905 164.224 49.0667 162.533 49.0667C160.843 49.0667 159.467 47.6905 159.467 46C159.467 44.3095 160.843 42.9333 162.533 42.9333Z" fill="black" fill-opacity="0.08"/>
<path d="M84.6592 88.9947C85.8552 90.1907 87.7987 90.1907 88.9947 88.9947C90.1907 87.7987 90.1907 85.8552 88.9947 84.6592L83.3903 79.0548H88.9985C89.7843 79.0548 90.5663 78.7558 91.1682 78.1578C92.3642 76.9618 92.3642 75.0183 91.1682 73.8223C90.5702 73.2243 89.7843 72.9253 88.9985 72.9253H77.2608L70.403 66.0675L77.4142 64.3157C78.2422 64.1087 78.9475 63.5643 79.3577 62.8168C79.7678 62.0693 79.8483 61.18 79.58 60.3712L77.8588 55.2077H84.6017L92.9008 63.5068C93.4567 64.0627 94.2233 64.4077 95.0705 64.4077C96.7648 64.4077 98.1372 63.0353 98.1372 61.341C98.1372 60.4938 97.7922 59.7272 97.2363 59.1713L93.2727 55.2077H101.204C102.898 55.2077 104.271 53.8353 104.271 52.141C104.271 50.4467 102.898 49.0743 101.204 49.0743H93.2727L97.2363 45.1107C97.7922 44.5548 98.1372 43.7882 98.1372 42.941C98.1372 41.2467 96.7648 39.8743 95.0705 39.8743C94.2233 39.8743 93.4567 40.2193 92.9008 40.7752L84.6017 49.0743H77.8588L79.58 43.9108C79.8483 43.102 79.7717 42.2127 79.3577 41.4652C78.9475 40.7177 78.2422 40.1733 77.4142 39.9663L70.403 38.2145L77.2608 31.3567H88.9985C89.7843 31.3567 90.5702 31.0577 91.1682 30.4597C92.3642 29.2637 92.3642 27.3202 91.1682 26.1242C90.5702 25.5262 89.7843 25.2272 88.9985 25.2272H83.3903L88.9947 19.6228C90.1907 18.4268 90.1907 16.4833 88.9947 15.2873C87.7987 14.0913 85.8552 14.0913 84.6592 15.2873L79.051 20.8955V15.2873C79.051 14.5015 78.752 13.7195 78.154 13.1177C76.958 11.9217 75.0145 11.9217 73.8185 13.1177C73.2205 13.7157 72.9215 14.5015 72.9215 15.2873V27.025L66.0637 33.8828L64.3118 26.8717C64.1048 26.0437 63.5605 25.3383 62.813 24.9282C62.0655 24.518 61.18 24.4375 60.3673 24.7058L55.2038 26.427V19.6842L63.503 11.385C64.0588 10.8292 64.4038 10.0625 64.4038 9.21533C64.4038 7.521 63.0315 6.14867 61.3372 6.14867C60.49 6.14867 59.7233 6.49367 59.1675 7.0495L55.2038 11.0132V3.06667C55.2038 1.37233 53.8315 0 52.1372 0C50.4428 0 49.0705 1.37233 49.0705 3.06667V10.9978L45.1068 7.03417C44.551 6.47833 43.7843 6.13333 42.9372 6.13333C41.2428 6.13333 39.8705 7.50567 39.8705 9.2C39.8705 10.0472 40.2155 10.8138 40.7713 11.3697L49.0705 19.6688V26.4117L43.907 24.6905C43.0982 24.4183 42.2088 24.4988 41.4613 24.9128C40.7138 25.323 40.1695 26.0283 39.9625 26.8563L38.2107 33.8675L31.3528 27.0097V15.272C31.3528 14.4862 31.0538 13.7003 30.4558 13.1023C29.2598 11.9063 27.3163 11.9063 26.1203 13.1023C25.5223 13.7003 25.2233 14.4862 25.2233 15.272V20.8802L19.619 15.2758C18.423 14.0798 16.4795 14.0798 15.2835 15.2758C14.0875 16.4718 14.0875 18.4153 15.2835 19.6113L20.8917 25.2195H15.2835C14.4977 25.2195 13.7157 25.5185 13.1138 26.1165C11.9178 27.3125 11.9178 29.256 13.1138 30.452C13.7118 31.05 14.4977 31.349 15.2835 31.349H27.0212L33.879 38.2068L26.8678 39.9587C26.0398 40.1657 25.3345 40.71 24.9243 41.4575C24.5142 42.205 24.4337 43.0943 24.702 43.9032L26.4232 49.0667H19.6803L11.3812 40.7675C10.8253 40.2117 10.0587 39.8667 9.2115 39.8667C7.51717 39.8667 6.14483 41.239 6.14483 42.9333C6.14483 43.7805 6.48983 44.5472 7.04567 45.103L11.0093 49.0667H3.06667C1.37233 49.0667 0 50.439 0 52.1333C0 53.8277 1.37233 55.2 3.06667 55.2H10.9978L7.03417 59.1637C6.47833 59.7195 6.13333 60.4862 6.13333 61.3333C6.13333 63.0277 7.50567 64.4 9.2 64.4C10.0472 64.4 10.8138 64.055 11.3697 63.4992L19.6688 55.2H26.4117L24.6905 60.3635C24.4222 61.1723 24.4988 62.0617 24.9128 62.8092C25.323 63.5567 26.0283 64.101 26.8563 64.308L33.8675 66.0598L27.0097 72.9177H15.272C14.4862 72.9177 13.7003 73.2167 13.1023 73.8147C11.9063 75.0107 11.9063 76.9542 13.1023 78.1502C13.7003 78.7482 14.4862 79.0472 15.272 79.0472H20.8802L15.272 84.6553C14.076 85.8513 14.076 87.7948 15.272 88.9908C16.468 90.1868 18.4115 90.1868 19.6075 88.9908L25.2118 83.3865V88.9947C25.2118 89.7805 25.5108 90.5625 26.1088 91.1643C27.3048 92.3603 29.2483 92.3603 30.4443 91.1643C31.0423 90.5663 31.3413 89.7805 31.3413 88.9947V77.257L38.1992 70.3992L39.951 77.4103C40.158 78.2383 40.7023 78.9437 41.4498 79.3538C42.1973 79.764 43.0867 79.8445 43.8955 79.5762L49.059 77.855V84.5978L40.7598 92.897C40.204 93.4528 39.859 94.2195 39.859 95.0667C39.859 96.761 41.2313 98.1333 42.9257 98.1333C43.7728 98.1333 44.5395 97.7883 45.0953 97.2325L49.059 93.2688V101.2C49.059 102.894 50.4313 104.267 52.1257 104.267C53.82 104.267 55.1923 102.894 55.1923 101.2V93.2688L59.156 97.2325C59.7118 97.7883 60.4785 98.1333 61.3257 98.1333C63.02 98.1333 64.3923 96.761 64.3923 95.0667C64.3923 94.2195 64.0473 93.4528 63.4915 92.897L55.1923 84.5978V77.855L60.3558 79.5762C60.6702 79.6797 60.9998 79.7333 61.3257 79.7333C61.8355 79.7333 62.3453 79.6068 62.8015 79.3538C63.549 78.9437 64.0933 78.2383 64.3003 77.4103L66.0522 70.3992L72.91 77.257V88.9947C72.91 89.7805 73.209 90.5663 73.807 91.1643C75.003 92.3603 76.9465 92.3603 78.1425 91.1643C78.7405 90.5663 79.0395 89.7805 79.0395 88.9947V83.3865L84.6477 88.9947H84.6592ZM65.3392 61.0037L60.9692 56.6337C61.1992 56.2005 61.3333 55.7098 61.3333 55.2H71.3882L72.7068 59.1598L65.3392 61.0037ZM49.0667 53.3063V50.9642L52.1333 49.4308L55.2 50.9642V53.3063L52.1333 54.8397L49.0667 53.3063ZM72.7107 45.1068L71.392 49.0667H61.3372C61.3372 48.5568 61.203 48.07 60.973 47.633L65.343 43.263L72.7107 45.1068ZM61.0037 38.9275L55.6178 44.3133L55.2 44.1063V32.8785L59.1598 31.5598L61.0037 38.9313V38.9275ZM45.1068 31.556L49.0667 32.8747V44.1025L48.6488 44.3095L43.263 38.9237L45.1068 31.5522V31.556ZM38.9275 43.263L43.2975 47.633C43.0675 48.0662 42.9333 48.5568 42.9333 49.0667H32.8785L31.5598 45.1068L38.9275 43.263ZM31.556 59.1598L32.8747 55.2H42.9295C42.9295 55.7098 43.0637 56.1967 43.2937 56.6337L38.9237 61.0037L31.556 59.1598ZM45.1068 72.7107L43.263 65.3392L48.6488 59.9533L49.0667 60.1603V71.3882L45.1068 72.7068V72.7107ZM59.1598 72.7107L55.2 71.392V60.1642L55.6178 59.9572L61.0037 65.343L59.1598 72.7145V72.7107Z" fill="black" fill-opacity="0.08"/>
<path d="M180.933 128.8H173.002L176.966 124.836C177.522 124.281 177.867 123.514 177.867 122.667C177.867 120.972 176.494 119.6 174.8 119.6C173.953 119.6 173.186 119.945 172.63 120.501L164.331 128.8H157.588L159.31 123.637C159.578 122.828 159.501 121.938 159.087 121.191C158.677 120.443 157.972 119.899 157.144 119.692L150.132 117.94L156.99 111.082H168.728C169.514 111.082 170.3 110.783 170.898 110.185C172.094 108.989 172.094 107.046 170.898 105.85C170.3 105.252 169.514 104.953 168.728 104.953H163.12L168.724 99.3485C169.92 98.1525 169.92 96.209 168.724 95.013C167.528 93.817 165.585 93.817 164.389 95.013L158.78 100.621V95.013C158.78 94.2272 158.481 93.4452 157.883 92.8434C156.688 91.6474 154.744 91.6474 153.548 92.8434C152.95 93.4414 152.651 94.2272 152.651 95.013V106.751L145.793 113.609L144.041 106.597C143.834 105.769 143.29 105.064 142.543 104.654C141.795 104.244 140.906 104.163 140.097 104.432L134.933 106.153V99.4099L143.232 91.1107C143.788 90.5549 144.133 89.7882 144.133 88.941C144.133 87.2467 142.761 85.8744 141.067 85.8744C140.219 85.8744 139.453 86.2194 138.897 86.7752L134.933 90.7389V82.8077C134.933 81.1134 133.561 79.741 131.867 79.741C130.172 79.741 128.8 81.1134 128.8 82.8077V90.7389L124.836 86.7752C124.28 86.2194 123.514 85.8744 122.667 85.8744C120.972 85.8744 119.6 87.2467 119.6 88.941C119.6 89.7882 119.945 90.5549 120.501 91.1107L128.8 99.4099V106.153L123.636 104.432C122.828 104.159 121.938 104.24 121.191 104.654C120.443 105.064 119.899 105.769 119.692 106.597L117.94 113.609L111.082 106.751V95.013C111.082 94.2272 110.783 93.4414 110.185 92.8434C108.989 91.6474 107.046 91.6474 105.85 92.8434C105.252 93.4414 104.953 94.2272 104.953 95.013V100.621L99.3485 95.0169C98.1525 93.8209 96.209 93.8209 95.013 95.0169C93.817 96.2129 93.817 98.1564 95.013 99.3524L100.621 104.961H95.013C94.2272 104.961 93.4452 105.26 92.8433 105.858C91.6473 107.054 91.6473 108.997 92.8433 110.193C93.4413 110.791 94.2272 111.09 95.013 111.09H106.751L113.608 117.948L106.597 119.7C105.769 119.907 105.064 120.451 104.654 121.199C104.244 121.946 104.163 122.835 104.431 123.644L106.153 128.808H99.4098L91.1107 120.509C90.5548 119.953 89.7882 119.608 88.941 119.608C87.2467 119.608 85.8743 120.98 85.8743 122.674C85.8743 123.522 86.2193 124.288 86.7752 124.844L90.7388 128.808H82.8077C81.1133 128.808 79.741 130.18 79.741 131.874C79.741 133.569 81.1133 134.941 82.8077 134.941H90.7388L86.7752 138.905C86.2193 139.461 85.8743 140.227 85.8743 141.074C85.8743 142.769 87.2467 144.141 88.941 144.141C89.7882 144.141 90.5548 143.796 91.1107 143.24L99.4098 134.941H106.153L104.431 140.105C104.163 140.913 104.24 141.803 104.654 142.55C105.064 143.298 105.769 143.842 106.597 144.049L113.608 145.801L106.751 152.659H95.013C94.2272 152.659 93.4413 152.958 92.8433 153.556C91.6473 154.752 91.6473 156.695 92.8433 157.891C93.4413 158.489 94.2272 158.788 95.013 158.788H100.621L95.013 164.396C93.817 165.592 93.817 167.536 95.013 168.732C96.209 169.928 98.1525 169.928 99.3485 168.732L104.953 163.128V168.736C104.953 169.522 105.252 170.304 105.85 170.905C107.046 172.101 108.989 172.101 110.185 170.905C110.783 170.307 111.082 169.522 111.082 168.736V156.998L117.94 150.14L119.692 157.151C119.899 157.979 120.443 158.685 121.191 159.095C121.938 159.505 122.828 159.586 123.636 159.317L128.8 157.596V164.339L120.501 172.638C119.945 173.194 119.6 173.961 119.6 174.808C119.6 176.502 120.972 177.874 122.667 177.874C123.514 177.874 124.28 177.529 124.836 176.974L128.8 173.01V180.941C128.8 182.635 130.172 184.008 131.867 184.008C133.561 184.008 134.933 182.635 134.933 180.941V173.01L138.897 176.974C139.453 177.529 140.219 177.874 141.067 177.874C142.761 177.874 144.133 176.502 144.133 174.808C144.133 173.961 143.788 173.194 143.232 172.638L134.933 164.339V157.596L140.097 159.317C140.411 159.421 140.741 159.474 141.067 159.474C141.576 159.474 142.086 159.348 142.543 159.095C143.29 158.685 143.834 157.979 144.041 157.151L145.793 150.14L152.651 156.998V168.736C152.651 169.522 152.95 170.307 153.548 170.905C154.744 172.101 156.688 172.101 157.883 170.905C158.481 170.307 158.78 169.522 158.78 168.736V163.128L164.389 168.736C165.585 169.932 167.528 169.932 168.724 168.736C169.92 167.54 169.92 165.596 168.724 164.4L163.12 158.796H168.728C169.514 158.796 170.296 158.497 170.898 157.899C172.094 156.703 172.094 154.759 170.898 153.563C170.3 152.965 169.514 152.666 168.728 152.666H156.99L150.132 145.809L157.144 144.057C157.972 143.85 158.677 143.305 159.087 142.558C159.497 141.81 159.578 140.921 159.31 140.112L157.588 134.949H164.331L172.63 143.248C173.186 143.804 173.953 144.149 174.8 144.149C176.494 144.149 177.867 142.776 177.867 141.082C177.867 140.235 177.522 139.468 176.966 138.912L173.002 134.949H180.933C182.628 134.949 184 133.576 184 131.882C184 130.188 182.628 128.815 180.933 128.815V128.8ZM152.444 124.84L151.125 128.8H141.071C141.071 128.29 140.936 127.803 140.706 127.366L145.076 122.996L152.444 124.84ZM128.8 133.04V130.698L131.867 129.164L134.933 130.698V133.04L131.867 134.573L128.8 133.04ZM140.737 118.661L135.351 124.047L134.933 123.84V112.612L138.893 111.293L140.737 118.665V118.661ZM124.84 111.289L128.8 112.608V123.836L128.382 124.043L122.996 118.657L124.84 111.286V111.289ZM118.661 122.996L123.031 127.366C122.801 127.8 122.667 128.29 122.667 128.8H112.612L111.293 124.84L118.661 122.996ZM111.289 138.893L112.608 134.933H122.663C122.663 135.443 122.797 135.93 123.027 136.367L118.657 140.737L111.289 138.893ZM124.84 152.444L122.996 145.073L128.382 139.687L128.8 139.894V151.122L124.84 152.44V152.444ZM138.893 152.444L134.933 151.125V139.898L135.351 139.691L140.737 145.076L138.893 152.448V152.444ZM145.073 140.737L140.702 136.367C140.932 135.934 141.067 135.443 141.067 134.933H151.122L152.44 138.893L145.073 140.737Z" fill="black" fill-opacity="0.08"/>
</svg>
