<svg width="146" height="182" viewBox="0 0 146 182" fill="none" xmlns="http://www.w3.org/2000/svg">
<g clip-path="url(#clip0_75_56)">
<path d="M118.616 60.6667C120.295 60.6667 121.657 59.3086 121.657 57.6333C121.657 55.9581 120.295 54.6 118.616 54.6C116.936 54.6 115.574 55.9581 115.574 57.6333C115.574 59.3086 116.936 60.6667 118.616 60.6667Z" fill="black" fill-opacity="0.08"/>
<path d="M106.45 60.6667C108.13 60.6667 109.491 59.3086 109.491 57.6333C109.491 55.9581 108.13 54.6 106.45 54.6C104.77 54.6 103.409 55.9581 103.409 57.6333C103.409 59.3086 104.77 60.6667 106.45 60.6667Z" fill="black" fill-opacity="0.08"/>
<path d="M145.574 32.65C145.244 31.2888 144.023 30.3333 142.62 30.3333C131.819 30.3333 128.117 39.1338 127.964 39.5054C127.953 39.5319 127.945 39.5585 127.938 39.5812C126.972 38.8305 125.927 38.201 124.82 37.7081C128.732 33.3325 133.827 25.6544 133.827 15.3259V3.03333C133.827 1.35742 132.466 0 130.785 0C129.105 0 127.744 1.35742 127.744 3.03333V10.848C124.953 9.39954 121.661 6.87429 121.661 3.03333C121.661 1.35742 120.3 0 118.62 0C116.939 0 115.578 1.35742 115.578 3.03333C115.578 11.6139 123.543 15.8492 127.645 17.4644C127.432 19.8721 126.877 22.0978 126.121 24.115C124.315 23.8496 121.661 23.1367 121.661 21.2371C121.661 19.5612 120.3 18.2038 118.62 18.2038C116.939 18.2038 115.578 19.5612 115.578 21.2371C115.578 26.28 119.483 28.7181 123.265 29.7305C121.087 33.0823 118.692 35.38 117.517 36.4038H107.556C106.386 35.38 103.987 33.0861 101.808 29.7305C105.591 28.7181 109.495 26.2762 109.495 21.2371C109.495 19.5612 108.134 18.2038 106.454 18.2038C104.774 18.2038 103.413 19.5612 103.413 21.2371C103.413 23.1367 100.759 23.8496 98.953 24.115C98.1965 22.0978 97.6414 19.8721 97.4285 17.4644C98.7059 16.9601 100.356 16.2094 102.01 15.1553C106.906 12.0348 109.495 7.84496 109.495 3.03713C109.495 1.36121 108.134 0.00379167 106.454 0.00379167C104.774 0.00379167 103.413 1.36121 103.413 3.03713C103.413 6.88188 100.12 9.40333 97.3297 10.8518V3.03333C97.3297 1.35742 95.9686 0 94.2882 0C92.6078 0 91.2468 1.35742 91.2468 3.03333V15.3297C91.2468 25.6582 96.3412 33.3363 100.253 37.7119C99.1431 38.2048 98.0976 38.8343 97.1358 39.585C97.1244 39.5585 97.1206 39.5319 97.1092 39.5092C96.9571 39.1338 93.2542 30.3371 82.4533 30.3371C81.0504 30.3371 79.83 31.2926 79.4993 32.6538C79.3244 33.3743 77.8911 39.8125 81.5294 44.4307C83.0045 46.3038 85.9053 48.5371 91.3343 48.5371H91.5586C91.0795 50.8842 91.1594 53.3412 91.8475 55.7375L93.9537 63.0858C92.0794 65.2091 87.1257 69.7705 79.0887 69.7705C72.428 69.7705 69.5386 69.1827 66.193 68.504C62.1099 67.6737 57.4793 66.7371 45.633 66.7371C32.5738 66.7371 23.5826 72.9858 18.2335 80.9255C17.7127 70.1269 8.64919 65.0081 3.79051 63.7948C2.88188 63.5673 1.92003 63.772 1.18249 64.3484C0.444939 64.9247 0.0115356 65.8044 0.0115356 66.7409V84.9409C0.0115356 92.2664 5.2466 98.3938 12.1811 99.8043C12.1811 99.9066 12.1811 100.009 12.1811 100.108C12.1811 111.46 15.5228 118.391 18.2069 123.965C19.9367 127.559 21.3053 130.395 21.3053 133.474C21.3053 135.067 21.0582 136.109 20.6514 137.838C19.701 141.858 18.2639 147.936 18.2639 166.841V178.974C18.2639 180.65 19.625 182.008 21.3053 182.008H36.5125C37.4477 182.008 38.3335 181.579 38.9114 180.84C39.4893 180.104 39.6908 179.145 39.4665 178.239L36.4593 166.242C36.2502 164.824 34.1402 149.236 41.7095 141.687C43.1428 140.258 44.348 138.984 45.4163 137.85C41.7666 154.116 44.7624 164.774 45.6406 167.368V178.974C45.6406 180.65 47.0016 182.008 48.682 182.008H63.8892C64.8244 182.008 65.7102 181.579 66.2881 180.84C66.866 180.104 67.0675 179.145 66.8431 178.239L63.8017 166.105C63.7675 165.976 63.7257 165.851 63.6763 165.73C63.623 165.59 58.5134 152.012 66.0258 130.437C73.6674 130.407 80.195 130.221 85.8331 129.865L88.3727 137.467C90.8362 144.842 89.9428 151.265 89.0798 157.479C88.654 160.539 88.2168 163.701 88.2168 166.841V178.974C88.2168 180.65 89.5778 182.008 91.2582 182.008H118.631C119.566 182.008 120.452 181.579 121.03 180.84C121.608 180.104 121.809 179.145 121.585 178.239L118.635 166.469V145.611C118.635 137.524 120.46 126.623 121.988 118.899L121.832 118.869C125.984 114.364 127.759 108.263 127.759 100.111V74.9082L133.249 55.7413C133.937 53.345 134.017 50.888 133.538 48.5409H133.762C139.191 48.5409 142.088 46.3076 143.567 44.4345C147.205 39.8163 145.772 33.378 145.597 32.6576L145.574 32.65ZM91.243 42.4667C88.8973 42.4515 87.2435 41.8562 86.3159 40.6922C85.4605 39.6153 85.1868 38.0797 85.1601 36.7185C88.8555 37.6361 90.6575 40.2827 91.243 41.3443V42.4667ZM12.1658 93.5139C8.62638 92.2626 6.08299 88.888 6.08299 84.9333V71.3554C8.8697 73.0578 12.1658 76.2618 12.1658 81.9V93.5139ZM24.3316 175.933V169.867H31.0797L32.6005 175.933H24.3316ZM53.4837 131.48C55.0538 130.953 56.9623 130.665 59.5627 130.528C54.4873 146.309 55.6051 157.968 56.8368 163.8H50.9251C49.8377 159.428 48.0205 147.829 53.4837 131.48ZM51.7044 175.933V169.867H58.4526L59.9733 175.933H51.7044ZM92.0642 129.36C95.5999 129.015 98.8314 128.572 101.774 128.018C101.04 133.33 100.367 139.78 100.367 145.6V163.8H94.4251C94.5772 162.025 94.8281 160.198 95.0904 158.306C96.0066 151.724 97.0407 144.262 94.1286 135.541L92.0642 129.36ZM94.2844 175.933V169.867H101.033L102.553 175.933H94.2844ZM108.826 175.933L107.306 169.867H113.202L114.723 175.933H108.826ZM112.533 145.6V163.8H106.45V145.6C106.45 139.238 107.313 131.98 108.134 126.52C110.636 125.789 112.868 124.935 114.844 123.95C113.628 130.972 112.537 139.078 112.537 145.6H112.533ZM121.657 100.1C121.657 114.307 116.616 121.455 87.9697 123.627C81.4154 124.124 73.5305 124.367 63.8701 124.367C50.4422 124.367 47.5263 126.733 41.0708 133.577C40.0063 134.703 38.8012 135.981 37.3907 137.391C29.7757 144.986 29.6198 157.658 30.0685 163.804H24.3506C24.4912 147.993 25.7268 142.756 26.5594 139.226C26.9966 137.368 27.3768 135.768 27.3768 133.47C27.3768 129.011 25.5786 125.28 23.6777 121.333C21.1343 116.055 18.2525 110.076 18.2525 100.104C18.2525 88.7667 26.7457 72.8038 45.6254 72.8038C56.8559 72.8038 60.9846 73.6418 64.9727 74.4494C68.4893 75.1622 71.8083 75.8371 79.0811 75.8371C86.8633 75.8371 92.433 72.5725 95.8356 69.6908L98.3105 78.3358C99.4245 82.2223 103.032 84.9371 107.085 84.9371H117.985C119.277 84.9371 120.524 84.6603 121.661 84.156V100.104L121.657 100.1ZM120.908 76.6675C120.536 77.9642 119.334 78.8667 117.985 78.8667H115.578V72.8C117.259 72.8 118.62 71.4426 118.62 69.7667C118.62 68.0908 117.259 66.7333 115.578 66.7333H109.495C107.815 66.7333 106.454 68.0908 106.454 69.7667C106.454 71.4426 107.815 72.8 109.495 72.8V78.8667H107.089C105.739 78.8667 104.534 77.9605 104.165 76.6675L97.6908 54.0692C96.8963 51.2975 97.4399 48.3893 99.1811 46.0877C100.922 43.7862 103.576 42.4667 106.465 42.4667H118.616C121.505 42.4667 124.159 43.7862 125.9 46.0877C127.641 48.3893 128.181 51.2975 127.39 54.0692L120.916 76.6713L120.908 76.6675ZM138.75 40.6922C137.822 41.8562 136.165 42.4515 133.823 42.4667V41.3481C134.424 40.2675 136.226 37.6323 139.906 36.7185C139.879 38.0797 139.606 39.6153 138.75 40.6922Z" fill="black" fill-opacity="0.08"/>
</g>
<defs>
<clipPath id="clip0_75_56">
<rect width="146" height="182" fill="white"/>
</clipPath>
</defs>
</svg>
