<svg width="140" height="140" viewBox="0 0 140 140" fill="none" xmlns="http://www.w3.org/2000/svg">
<g clip-path="url(#clip0_75_52)">
<path d="M133 96.6438V86.3334C133 72.3742 128.383 58.1379 119.998 46.2525C112.42 35.5104 102.174 27.2738 90.8396 22.7296C90.9446 22.1667 91.0029 21.5892 91.0029 21.0029C91.0029 18.1446 89.7079 15.4933 87.5321 13.7404C87.8296 10.9638 86.8729 8.17251 84.8517 6.15418C82.8304 4.13293 80.0392 3.17626 77.2654 3.47376C75.5125 1.29793 72.8612 0.00292969 70.0029 0.00292969C67.1446 0.00292969 64.4933 1.29793 62.7404 3.47376C59.9637 3.17626 57.1725 4.13293 55.1542 6.15418C53.1329 8.17543 52.1763 10.9638 52.4738 13.7404C50.2979 15.4933 49.0029 18.1446 49.0029 21.0029C49.0029 21.5892 49.0613 22.1667 49.1663 22.7296C37.8292 27.2738 27.5858 35.5104 20.0083 46.2525C11.6229 58.1409 7.00584 72.3742 7.00584 86.3334V96.6438C2.89042 98.4492 0.00583649 102.559 0.00583649 107.333V128.333C0.00583649 134.768 5.23834 140 11.6725 140H128.339C134.773 140 140.006 134.768 140.006 128.333V107.333C140.006 102.559 137.121 98.4492 133.006 96.6438H133ZM25.6667 100.333V135.333H16.3333V100.333H25.6667ZM30.3333 100.333H39.6667V135.333H30.3333V100.333ZM44.3333 100.333H53.6667V135.333H44.3333V100.333ZM58.3333 100.333H67.6667V135.333H58.3333V100.333ZM72.3333 100.333H81.6667V135.333H72.3333V100.333ZM86.3333 100.333H95.6667V135.333H86.3333V100.333ZM100.333 100.333H109.667V135.333H100.333V100.333ZM114.333 100.333H123.667V135.333H114.333V100.333ZM13.1308 73.0742L24.5554 77.5279C29.8113 79.5754 35.4142 79.7592 40.7633 78.0529L52.0567 74.4509C56.14 73.15 60.4421 73.2113 64.4963 74.6346L73.9608 77.9538C76.5829 78.8754 79.2896 79.3334 81.9992 79.3334C84.4725 79.3334 86.9488 78.9483 89.3638 78.1784L102.01 74.1446C105.537 73.0188 109.287 72.9167 112.855 73.8413L127.712 77.7029C128.047 80.0333 128.246 82.3696 128.31 84.7029L114.027 80.99C109.605 79.8408 104.959 79.9692 100.593 81.3633L87.9463 85.3971C83.8629 86.6979 79.5608 86.6367 75.5067 85.2133L66.0421 81.8942C61.0225 80.1325 55.6967 80.0538 50.6392 81.6667L39.3458 85.2688C35.0292 86.6454 30.4996 86.4996 26.2529 84.8429L12.5154 79.4879C12.3696 79.4325 12.2238 79.3917 12.0779 79.3654C12.3229 77.2596 12.6758 75.1567 13.1338 73.0713L13.1308 73.0742ZM56.1546 16.8729C57.1433 16.3479 57.6217 15.1958 57.2921 14.1254C56.7817 12.4658 57.225 10.675 58.45 9.45002C59.675 8.22501 61.4658 7.78168 63.1254 8.2921C64.1958 8.62168 65.3479 8.14335 65.8729 7.1546C66.6867 5.62043 68.2675 4.66668 70 4.66668C71.7325 4.66668 73.3133 5.62043 74.1271 7.1546C74.6521 8.14335 75.8042 8.62168 76.8746 8.2921C78.5342 7.78168 80.325 8.22501 81.55 9.45002C82.775 10.675 83.2183 12.4658 82.7079 14.1254C82.3783 15.1958 82.8567 16.3479 83.8454 16.8729C85.3796 17.6867 86.3333 19.2675 86.3333 21C86.3333 22.7325 85.3796 24.3133 83.8454 25.1271C82.8567 25.6521 82.3783 26.8042 82.7079 27.8746C83.2183 29.5342 82.775 31.325 81.55 32.55C80.325 33.775 78.5342 34.2183 76.8746 33.7079C75.8042 33.3783 74.6521 33.8567 74.1271 34.8454C73.3133 36.3796 71.7325 37.3333 70 37.3333C68.2675 37.3333 66.6867 36.3796 65.8729 34.8454C65.4587 34.0667 64.6567 33.6029 63.8108 33.6029C63.5833 33.6029 63.3529 33.635 63.1254 33.705C61.4658 34.2154 59.675 33.7721 58.45 32.5471C57.225 31.3221 56.7817 29.5313 57.2921 27.8717C57.6217 26.8013 57.1433 25.6492 56.1546 25.1242C54.6204 24.3104 53.6667 22.7296 53.6667 20.9971C53.6667 19.2646 54.6204 17.6838 56.1546 16.87V16.8729ZM52.4708 28.2625C52.1733 31.0392 53.13 33.8304 55.1512 35.8488C57.1696 37.87 59.9608 38.8267 62.7375 38.5292C64.4904 40.705 67.1417 42 70 42C72.8583 42 75.5096 40.705 77.2625 38.5292C80.0363 38.8267 82.8275 37.87 84.8488 35.8488C86.8671 33.8275 87.8267 31.0392 87.5292 28.2625C88.0163 27.8717 88.4567 27.4313 88.8504 26.9558C92.5546 28.42 96.1392 30.3129 99.5371 32.585C99.1754 34.1454 98.6883 35.6563 98.1021 37.1059L94.3775 35.245C94.0625 35.0904 93.7096 35 93.3333 35C92.0442 35 91 36.0442 91 37.3333C91 38.2463 91.525 39.0367 92.2892 39.4188L96.0196 41.2854C94.2812 44.1817 92.0821 46.7484 89.5271 48.895L85.6479 45.0159C85.225 44.5929 84.6417 44.3334 83.9971 44.3334C82.7079 44.3334 81.6637 45.3775 81.6637 46.6667C81.6637 47.3113 81.9262 47.8946 82.3463 48.3175L85.6713 51.6425C81.7046 54.0342 77.1604 55.5363 72.3275 55.9038V51.3334C72.3275 50.0442 71.2833 49 69.9942 49C68.705 49 67.6608 50.0442 67.6608 51.3334V55.9038C62.8279 55.5363 58.2867 54.0342 54.3171 51.6425L57.6421 48.3175C58.065 47.8946 58.3246 47.3113 58.3246 46.6667C58.3246 45.3775 57.2804 44.3334 55.9912 44.3334C55.3467 44.3334 54.7633 44.5958 54.3404 45.0159L50.4613 48.895C47.9062 46.7484 45.7071 44.1817 43.9688 41.2854L47.6992 39.4188C48.4633 39.0338 48.9883 38.2463 48.9883 37.3304C48.9883 36.0413 47.9442 34.9971 46.655 34.9971C46.2788 34.9971 45.9258 35.0875 45.6108 35.245L41.8862 37.1059C41.2971 35.6533 40.8129 34.1454 40.4513 32.585C43.8492 30.31 47.4338 28.4171 51.1379 26.9558C51.5317 27.4313 51.9721 27.8688 52.4592 28.2625H52.4708ZM23.8175 48.9417C27.4371 43.8113 31.7042 39.2963 36.4146 35.5483C40.7254 50.3038 54.3083 60.6667 70 60.6667C85.6917 60.6667 99.2717 50.3008 103.585 35.5454C108.299 39.2934 112.563 43.8083 116.183 48.9388C121.266 56.1459 124.868 64.2688 126.77 72.6367L114.027 69.3263C109.605 68.1771 104.959 68.3054 100.593 69.6996L87.9463 73.7334C83.8629 75.0342 79.5608 74.9729 75.5067 73.5496L66.0421 70.2304C61.0225 68.4688 55.6967 68.39 50.6392 70.0029L39.3458 73.605C35.0292 74.9817 30.4996 74.8359 26.2529 73.1792L14.3121 68.5242C16.3654 61.6175 19.5738 54.9588 23.8204 48.9388L23.8175 48.9417ZM11.6667 86.3334C11.6667 85.6188 11.6813 84.9042 11.7075 84.1867L24.5554 89.1946C29.8113 91.2421 35.4142 91.4258 40.7633 89.7196L52.0567 86.1175C56.14 84.8167 60.4421 84.8779 64.4963 86.3013L73.9608 89.6204C76.5829 90.5421 79.2896 91 81.9992 91C84.4725 91 86.9488 90.615 89.3638 89.845L102.01 85.8113C105.537 84.6854 109.287 84.5834 112.855 85.5079L127.75 89.3783C127.945 89.4308 128.144 89.4513 128.336 89.4513V95.6638H11.6667V86.3304V86.3334ZM4.66667 128.333V107.333C4.66667 103.475 7.80792 100.333 11.6667 100.333V135.333C7.80792 135.333 4.66667 132.192 4.66667 128.333ZM135.333 128.333C135.333 132.192 132.192 135.333 128.333 135.333V100.333C132.192 100.333 135.333 103.475 135.333 107.333V128.333Z" fill="black" fill-opacity="0.08"/>
</g>
<defs>
<clipPath id="clip0_75_52">
<rect width="140" height="140" fill="white"/>
</clipPath>
</defs>
</svg>
