<svg width="136" height="114" viewBox="0 0 136 114" fill="none" xmlns="http://www.w3.org/2000/svg">
<g clip-path="url(#clip0_75_10)">
<path d="M136 79.8C136 76.2346 133.92 73.0939 130.891 71.6034C131.268 70.5888 131.467 69.5058 131.467 68.4C131.467 64.1592 128.574 60.5824 124.667 59.5678V59.28C124.667 54.2497 120.598 50.16 115.6 50.16C114.829 50.16 114.067 50.2598 113.333 50.4507V45.6C113.333 20.4573 92.9957 0 68 0C43.0043 0 22.6667 20.4573 22.6667 45.6V50.4507C21.9328 50.2598 21.1707 50.16 20.4 50.16C15.3992 50.16 11.3333 54.2497 11.3333 59.28V59.5678C7.42617 60.5824 4.53333 64.1563 4.53333 68.4C4.53333 69.5058 4.73167 70.5888 5.1085 71.6034C2.07967 73.0939 0 76.2346 0 79.8C0 83.3653 2.07967 86.5061 5.1085 87.9966C4.73167 89.0112 4.53333 90.0942 4.53333 91.2C4.53333 95.4408 7.42617 99.0175 11.3333 100.032V100.32C11.3333 105.35 15.3992 109.44 20.4 109.44C21.4965 109.44 22.5703 109.241 23.5762 108.861C25.0495 111.9 28.152 114 31.7333 114C36.7342 114 40.8 109.91 40.8 104.88V102.372C45.968 101.312 49.8667 96.7062 49.8667 91.2V68.4C49.8667 62.8938 45.968 58.2882 40.8 57.228V45.6C40.8 30.5149 53.0032 18.24 68 18.24C82.9968 18.24 95.2 30.5149 95.2 45.6V57.228C90.032 58.2882 86.1333 62.8938 86.1333 68.4V91.2C86.1333 96.7062 90.032 101.312 95.2 102.372V104.88C95.2 109.91 99.2687 114 104.267 114C107.848 114 110.951 111.902 112.424 108.861C113.43 109.241 114.506 109.44 115.6 109.44C120.598 109.44 124.667 105.35 124.667 100.32V100.032C128.574 99.0175 131.467 95.4436 131.467 91.2C131.467 90.0942 131.268 89.0112 130.891 87.9966C133.92 86.5061 136 83.3653 136 79.8ZM24.9333 79.8C24.9333 73.0341 29.8435 67.4025 36.2667 66.3138V93.2862C29.8435 92.1975 24.9333 86.5659 24.9333 79.8ZM45.3333 68.4V91.2C45.3333 94.1725 43.4378 96.7062 40.8 97.6467V61.9504C43.4378 62.8909 45.3333 65.4246 45.3333 68.3971V68.4ZM36.2667 61.7082C35.2863 61.8307 34.3315 62.0331 33.4078 62.3067C33.3852 62.281 33.3625 62.2525 33.337 62.2269L31.0703 59.9469C30.1863 59.0577 28.7498 59.0577 27.8658 59.9469C26.9818 60.8361 26.9818 62.281 27.8658 63.1702L28.9878 64.2989C27.3757 65.3077 25.9307 66.5646 24.7095 68.0153L21.4172 66.3594C21.1112 66.2084 20.7683 66.12 20.4057 66.12C19.1533 66.12 18.139 67.1403 18.139 68.4C18.139 69.292 18.649 70.0644 19.3942 70.4377L22.219 71.8599C21.3747 73.6098 20.8052 75.5164 20.5558 77.52H18.1418C16.8895 77.52 15.8752 78.5403 15.8752 79.8C15.8752 81.0597 16.8895 82.08 18.1418 82.08H20.5558C20.8052 84.0835 21.3747 85.9902 22.219 87.7401L19.3942 89.1594C18.6518 89.5356 18.139 90.3051 18.139 91.2C18.139 92.4597 19.1533 93.48 20.4057 93.48C20.7712 93.48 21.114 93.3916 21.4172 93.2377L24.7095 91.5819C25.9335 93.0325 27.3757 94.2894 28.9878 95.2983L27.8658 96.4269C26.9818 97.3161 26.9818 98.761 27.8658 99.6502C28.3078 100.095 28.8887 100.317 29.4695 100.317C30.0503 100.317 30.6283 100.095 31.0732 99.6502L33.3398 97.3702C33.3653 97.3446 33.388 97.3161 33.4107 97.2905C34.3343 97.564 35.292 97.7664 36.2695 97.8889V104.877C36.2695 107.391 34.2352 109.437 31.7362 109.437C29.2372 109.437 27.2028 107.391 27.2028 104.877C27.2028 103.617 26.1885 102.597 24.9362 102.597C23.9162 102.597 23.0548 103.275 22.7687 104.205C22.0603 104.641 21.2443 104.877 20.4028 104.877C17.9038 104.877 15.8695 102.831 15.8695 100.317V98.0371C15.8695 96.7774 14.8552 95.7571 13.6028 95.7571C11.1038 95.7571 9.0695 93.7108 9.0695 91.1971C9.0695 90.0657 9.48317 88.9827 10.2368 88.1419C10.8148 87.495 10.9792 86.5744 10.6562 85.7679C10.3332 84.9613 9.58517 84.4084 8.721 84.3429C6.37217 84.1662 4.53333 82.1712 4.53333 79.8C4.53333 77.4288 6.37217 75.4338 8.721 75.2571C9.58233 75.1916 10.3332 74.6386 10.6562 73.8321C10.9792 73.0256 10.8148 72.1021 10.2368 71.458C9.48317 70.6173 9.0695 69.5314 9.0695 68.4028C9.0695 65.8891 11.1038 63.8428 13.6028 63.8428C14.8552 63.8428 15.8695 62.8225 15.8695 61.5628V59.2828C15.8695 56.7691 17.9038 54.7228 20.4028 54.7228C21.2443 54.7228 22.0632 54.9565 22.7687 55.3954C23.0548 56.3274 23.9162 57.0028 24.9362 57.0028C26.1885 57.0028 27.2028 55.9825 27.2028 54.7228C27.2028 52.2091 29.2372 50.1628 31.7362 50.1628C34.2352 50.1628 36.2695 52.2091 36.2695 54.7228V61.711L36.2667 61.7082ZM68 13.68C50.5013 13.68 36.2667 27.9984 36.2667 45.6V46.8255C34.9322 46.0475 33.3852 45.6 31.7333 45.6C30.0815 45.6 28.5345 46.0503 27.2 46.8312V45.6C27.2 22.971 45.5033 4.56 68 4.56C90.4967 4.56 108.8 22.971 108.8 45.6V46.8312C107.465 46.0532 105.919 45.6 104.267 45.6C102.615 45.6 101.068 46.0474 99.7333 46.8284V45.6C99.7333 27.9984 85.4987 13.68 68 13.68ZM111.067 79.8C111.067 86.5659 106.157 92.1975 99.7333 93.2862V66.3138C106.157 67.4025 111.067 73.0341 111.067 79.8ZM90.6667 91.2V68.4C90.6667 65.4275 92.5622 62.8938 95.2 61.9533V97.6496C92.5622 96.7091 90.6667 94.1754 90.6667 91.2029V91.2ZM127.279 84.3429C126.418 84.4084 125.667 84.9613 125.344 85.7679C125.021 86.5744 125.185 87.4978 125.763 88.1419C126.517 88.9827 126.93 90.0685 126.93 91.1971C126.93 93.7108 124.896 95.7571 122.397 95.7571C121.145 95.7571 120.13 96.7774 120.13 98.0371V100.317C120.13 102.831 118.096 104.877 115.597 104.877C114.756 104.877 113.937 104.643 113.231 104.205C112.945 103.273 112.084 102.597 111.064 102.597C109.811 102.597 108.797 103.617 108.797 104.877C108.797 107.391 106.763 109.437 104.264 109.437C101.765 109.437 99.7305 107.391 99.7305 104.877V97.8889C100.711 97.7664 101.666 97.564 102.589 97.2905C102.612 97.3161 102.635 97.3446 102.66 97.3702L104.927 99.6502C105.369 100.095 105.95 100.317 106.53 100.317C107.111 100.317 107.689 100.095 108.134 99.6502C109.018 98.761 109.018 97.3161 108.134 96.4269L107.012 95.2983C108.624 94.2894 110.069 93.0325 111.291 91.5819L114.583 93.2377C114.889 93.3888 115.232 93.4771 115.597 93.4771C116.849 93.4771 117.864 92.4568 117.864 91.1971C117.864 90.3051 117.354 89.5327 116.612 89.1594L113.787 87.7373C114.631 85.9874 115.201 84.0807 115.45 82.0771H117.864C119.116 82.0771 120.13 81.0568 120.13 79.7971C120.13 78.5374 119.116 77.5171 117.864 77.5171H115.45C115.201 75.5136 114.631 73.6069 113.787 71.857L116.612 70.4377C117.354 70.0615 117.864 69.2921 117.864 68.3971C117.864 67.1375 116.849 66.1171 115.597 66.1171C115.232 66.1171 114.889 66.2055 114.583 66.3594L111.291 68.0153C110.066 66.5646 108.624 65.3077 107.012 64.2989L108.134 63.1702C109.018 62.281 109.018 60.8361 108.134 59.9469C107.25 59.0577 105.814 59.0577 104.93 59.9469L102.663 62.2269C102.637 62.2525 102.615 62.281 102.592 62.3067C101.668 62.0331 100.711 61.8307 99.7333 61.7082V54.72C99.7333 52.2063 101.768 50.16 104.267 50.16C106.766 50.16 108.8 52.2063 108.8 54.72C108.8 55.9797 109.814 57 111.067 57C112.087 57 112.948 56.3217 113.234 55.3926C113.942 54.9566 114.758 54.72 115.6 54.72C118.099 54.72 120.133 56.7663 120.133 59.28V61.56C120.133 62.8197 121.148 63.84 122.4 63.84C124.899 63.84 126.933 65.8863 126.933 68.4C126.933 69.5314 126.52 70.6144 125.766 71.4552C125.188 72.1021 125.024 73.0227 125.347 73.8292C125.67 74.6358 126.418 75.1887 127.282 75.2542C129.631 75.4309 131.469 77.4259 131.469 79.7971C131.469 82.1683 129.631 84.1633 127.282 84.34L127.279 84.3429Z" fill="#DA78AC" fill-opacity="0.2"/>
</g>
<defs>
<clipPath id="clip0_75_10">
<rect width="136" height="114" fill="white"/>
</clipPath>
</defs>
</svg>
