<svg width="102" height="134" viewBox="0 0 102 134" fill="none" xmlns="http://www.w3.org/2000/svg">
<g clip-path="url(#clip0_45_37)">
<path d="M84.2609 107.2C94.0423 107.2 102 99.1851 102 89.3333C102 79.4815 94.0423 71.4667 84.2609 71.4667H81.8578C83.6566 64.9705 86.0015 61.6875 86.0348 61.64C86.5392 60.9644 86.6196 60.0571 86.2427 59.3006C85.8657 58.544 85.1007 58.0667 84.2581 58.0667H82.0407V51.3667C82.0407 47.6733 79.0555 44.6667 75.3885 44.6667H66.519C63.4562 44.6667 60.8702 46.7632 60.1024 49.6079C59.3429 49.3036 58.517 49.1333 57.6494 49.1333H48.7798C47.9151 49.1333 47.0863 49.3036 46.3268 49.6079C45.5563 46.766 42.973 44.6667 39.9103 44.6667H31.0407C27.9779 44.6667 25.3919 46.7632 24.6241 49.6079C23.8647 49.3036 23.0387 49.1333 22.1711 49.1333H13.3016C9.63456 49.1333 6.6494 52.14 6.6494 55.8333V58.0667H4.43201C3.59494 58.0667 2.83272 58.544 2.45576 59.2978C2.0788 60.0515 2.15641 60.956 2.65255 61.6344C2.71353 61.7182 8.86679 70.3193 8.86679 87.382C8.86679 103.417 15.6686 114.98 19.8789 120.603H2.21739C1.44962 120.603 0.734509 121.005 0.329835 121.661C-0.0748393 122.32 -0.110872 123.14 0.232824 123.833C3.34549 130.106 9.60407 134 16.5667 134H72.1262C79.0888 134 85.3474 130.103 88.4601 123.833C88.8037 123.14 88.7677 122.32 88.363 121.661C87.9584 121.002 87.246 120.603 86.4755 120.603H68.8112C71.0036 117.677 73.8946 113.141 76.1646 107.203H84.2553L84.2609 107.2ZM84.2609 75.9333C91.5977 75.9333 97.5652 81.9438 97.5652 89.3333C97.5652 96.7229 91.5977 102.733 84.2609 102.733H77.6641C78.0744 101.307 78.443 99.8188 78.7534 98.2667H84.2609C89.1502 98.2667 93.1304 94.2606 93.1304 89.3333C93.1304 84.406 89.1502 80.4 84.2609 80.4H80.1892C80.3583 78.8115 80.5772 77.3208 80.8322 75.9333H84.2609ZM79.8261 87.3792C79.8261 86.5193 79.8455 85.6846 79.876 84.8667H84.2609C86.7056 84.8667 88.6957 86.8711 88.6957 89.3333C88.6957 91.7956 86.7056 93.8 84.2609 93.8H79.4547C79.693 91.7481 79.8261 89.6069 79.8261 87.3792ZM64.3044 51.3667C64.3044 50.1355 65.2994 49.1333 66.5217 49.1333H75.3913C76.6136 49.1333 77.6087 50.1355 77.6087 51.3667V58.0667H64.3044V51.3667ZM46.5652 69.2333C42.8982 69.2333 39.913 72.24 39.913 75.9333C39.913 77.1645 38.918 78.1667 37.6957 78.1667C36.4733 78.1667 35.4783 77.1645 35.4783 75.9333V69.2333C35.4783 67.9994 34.486 67 33.2609 67H24.3913C21.5004 67 19.0363 65.1324 18.1216 62.5333H70.5768C69.6621 65.1324 67.198 67 64.3071 67H59.8723C58.6472 67 57.6549 67.9994 57.6549 69.2333V82.6333C57.6549 83.8645 56.6599 84.8667 55.4376 84.8667C54.2152 84.8667 53.2202 83.8645 53.2202 82.6333V75.9333C53.2202 72.24 50.235 69.2333 46.568 69.2333H46.5652ZM48.7826 53.6H57.6522C58.8745 53.6 59.8696 54.6022 59.8696 55.8333V58.0667H46.5652V55.8333C46.5652 54.6022 47.5603 53.6 48.7826 53.6ZM28.8261 51.3667C28.8261 50.1355 29.8211 49.1333 31.0435 49.1333H39.913C41.1354 49.1333 42.1304 50.1355 42.1304 51.3667V58.0667H28.8261V51.3667ZM11.087 55.8333C11.087 54.6022 12.082 53.6 13.3043 53.6H22.1739C23.3962 53.6 24.3913 54.6022 24.3913 55.8333V58.0667H11.087V55.8333ZM8.26532 62.5333H13.5261C14.5572 67.6253 19.0363 71.4667 24.3913 71.4667H31.0435V75.9333C31.0435 79.6267 34.0286 82.6333 37.6957 82.6333C41.3627 82.6333 44.3478 79.6267 44.3478 75.9333C44.3478 74.7022 45.3429 73.7 46.5652 73.7C47.7876 73.7 48.7826 74.7022 48.7826 75.9333V82.6333C48.7826 86.3267 51.7678 89.3333 55.4348 89.3333C59.1018 89.3333 62.087 86.3267 62.087 82.6333V71.4667H64.3044C69.6593 71.4667 74.1385 67.6253 75.1696 62.5333H80.4303C78.3321 66.8548 75.3913 75.1042 75.3913 87.3792C75.3913 93.1328 74.4101 98.2862 72.991 102.733H15.7047C14.2855 98.2862 13.3043 93.1328 13.3043 87.3792C13.3043 75.1042 10.3635 66.8548 8.26532 62.5333ZM17.3594 107.2H71.3363C70.6516 108.819 69.9254 110.307 69.1937 111.667H19.5047C18.773 110.307 18.0468 108.819 17.3622 107.2H17.3594ZM72.1262 129.533H16.5695C12.628 129.533 8.9832 127.883 6.41103 125.067H82.2874C79.7152 127.883 76.0704 129.533 72.129 129.533H72.1262ZM25.6303 120.6C24.9262 119.807 23.6596 118.294 22.2016 116.133H66.494C65.0361 118.294 63.7694 119.81 63.0654 120.6H25.6303Z" fill="black" fill-opacity="0.08"/>
<path d="M44.9022 26.0574C44.9022 28.2182 44.0762 29.2064 42.9315 30.5715C41.5872 32.1768 39.9131 34.1728 39.9131 37.9667C39.9131 39.2006 40.9053 40.2 42.1304 40.2C43.3556 40.2 44.3478 39.2006 44.3478 37.9667C44.3478 35.8059 45.1738 34.8177 46.3185 33.4525C47.6628 31.8473 49.337 29.8513 49.337 26.0574C49.337 22.2635 47.4688 20.1893 45.9665 18.573C44.6583 17.1687 43.7935 16.2391 43.7935 14.1454C43.7935 12.0516 44.6195 10.9964 45.7642 9.62846C47.1085 8.02325 48.7826 6.02721 48.7826 2.23333C48.7826 0.999417 47.7903 0 46.5652 0C45.3401 0 44.3478 0.999417 44.3478 2.23333C44.3478 4.39408 43.5219 5.38233 42.3771 6.75025C41.0328 8.35546 39.3587 10.3515 39.3587 14.1454C39.3587 17.9392 41.2269 20.0135 42.7291 21.6298C44.0374 23.034 44.9022 23.9637 44.9022 26.0574Z" fill="black" fill-opacity="0.08"/>
<path d="M59.8696 37.9667C59.8696 39.2006 60.8619 40.2 62.087 40.2C63.3121 40.2 64.3044 39.2006 64.3044 37.9667C64.3044 36.6155 64.831 36.0516 65.7845 35.027C66.9153 33.8127 68.462 32.1488 68.462 29.0333C68.462 25.9178 67.0234 24.3043 65.9729 23.0955C65.1054 22.096 64.5815 21.493 64.5815 20.1C64.5815 18.707 65.1082 18.1849 66.0616 17.1604C67.1925 15.946 68.7391 14.2822 68.7391 11.1667C68.7391 9.93275 67.7469 8.93333 66.5217 8.93333C65.2966 8.93333 64.3044 9.93275 64.3044 11.1667C64.3044 12.5178 63.7777 13.0818 62.8242 14.1063C61.6934 15.3207 60.1467 16.9845 60.1467 20.1C60.1467 23.2155 61.5853 24.8291 62.6358 26.0379C63.5033 27.0373 64.0272 27.6403 64.0272 29.0333C64.0272 30.4264 63.5005 30.9484 62.5471 31.973C61.4162 33.1873 59.8696 34.8512 59.8696 37.9667Z" fill="black" fill-opacity="0.08"/>
<path d="M19.9565 37.9667C19.9565 39.2006 20.9488 40.2 22.1739 40.2C23.399 40.2 24.3913 39.2006 24.3913 37.9667C24.3913 36.6155 24.918 36.0516 25.8714 35.027C27.0023 33.8127 28.5489 32.1488 28.5489 29.0333C28.5489 25.9178 27.1104 24.3043 26.0599 23.0955C25.1924 22.096 24.6685 21.493 24.6685 20.1C24.6685 18.707 25.1951 18.1849 26.1486 17.1604C27.2795 15.946 28.8261 14.2822 28.8261 11.1667C28.8261 9.93275 27.8338 8.93333 26.6087 8.93333C25.3836 8.93333 24.3913 9.93275 24.3913 11.1667C24.3913 12.5178 23.8647 13.0818 22.9112 14.1063C21.7803 15.3207 20.2337 16.9845 20.2337 20.1C20.2337 23.2155 21.6723 24.8291 22.7227 26.0379C23.5903 27.0373 24.1142 27.6403 24.1142 29.0333C24.1142 30.4264 23.5875 30.9484 22.634 31.973C21.5032 33.1873 19.9565 34.8512 19.9565 37.9667Z" fill="black" fill-opacity="0.08"/>
</g>
<defs>
<clipPath id="clip0_45_37">
<rect width="102" height="134" fill="white"/>
</clipPath>
</defs>
</svg>
