<svg width="143" height="166" viewBox="0 0 143 166" fill="none" xmlns="http://www.w3.org/2000/svg">
<g clip-path="url(#clip0_75_60)">
<path d="M71.5 77.4634C66.9524 77.4634 63.2504 81.1879 63.2504 85.7631C63.2504 90.3383 66.9524 94.0627 71.5 94.0627C76.0476 94.0627 79.7496 90.3383 79.7496 85.7631C79.7496 81.1879 76.0476 77.4634 71.5 77.4634ZM71.5 88.5296C69.9841 88.5296 68.7501 87.2882 68.7501 85.7631C68.7501 84.238 69.9841 82.9965 71.5 82.9965C73.0159 82.9965 74.2499 84.238 74.2499 85.7631C74.2499 87.2882 73.0159 88.5296 71.5 88.5296Z" fill="black" fill-opacity="0.08"/>
<path d="M71.5 99.5958C66.9524 99.5958 63.2504 103.32 63.2504 107.895C63.2504 112.471 66.9524 116.195 71.5 116.195C76.0476 116.195 79.7496 112.471 79.7496 107.895C79.7496 103.32 76.0476 99.5958 71.5 99.5958ZM71.5 110.662C69.9841 110.662 68.7501 109.421 68.7501 107.895C68.7501 106.37 69.9841 105.129 71.5 105.129C73.0159 105.129 74.2499 106.37 74.2499 107.895C74.2499 109.421 73.0159 110.662 71.5 110.662Z" fill="black" fill-opacity="0.08"/>
<path d="M60.5005 33.1986C62.0192 33.1986 63.2504 31.96 63.2504 30.4321C63.2504 28.9042 62.0192 27.6655 60.5005 27.6655C58.9818 27.6655 57.7507 28.9042 57.7507 30.4321C57.7507 31.96 58.9818 33.1986 60.5005 33.1986Z" fill="black" fill-opacity="0.08"/>
<path d="M82.4995 33.1986C84.0182 33.1986 85.2493 31.96 85.2493 30.4321C85.2493 28.9042 84.0182 27.6655 82.4995 27.6655C80.9808 27.6655 79.7496 28.9042 79.7496 30.4321C79.7496 31.96 80.9808 33.1986 82.4995 33.1986Z" fill="black" fill-opacity="0.08"/>
<path d="M58.0428 42.7363C58.0428 42.7363 58.06 42.7709 58.0772 42.802C58.0807 42.8124 58.0875 42.8193 58.091 42.8297C58.5516 43.6873 62.1539 49.7979 71.5 49.7979C80.8461 49.7979 84.4519 43.6873 84.909 42.8297C84.9125 42.8193 84.9194 42.8124 84.9228 42.802C84.94 42.7709 84.9503 42.7467 84.9572 42.7363C85.1428 42.3628 85.2493 41.9444 85.2493 41.4983C85.2493 39.9698 84.0188 38.7317 82.4995 38.7317C81.4236 38.7317 80.4921 39.3542 80.0418 40.2602L80.059 40.2222C79.9696 40.3882 77.8213 44.2614 71.5 44.2614C65.1787 44.2614 63.0304 40.3847 62.941 40.2222L62.9582 40.2568C62.5079 39.3507 61.5764 38.7283 60.5005 38.7283C58.9812 38.7283 57.7507 39.9663 57.7507 41.4948C57.7507 41.9409 57.8572 42.3594 58.0428 42.7329V42.7363Z" fill="black" fill-opacity="0.08"/>
<path d="M142.447 59.4013C141.323 55.1132 138.607 51.5236 134.799 49.293C130.99 47.0625 126.546 46.4539 122.287 47.5847C122.256 47.5916 122.225 47.602 122.194 47.6124L95.8503 55.5973C101.35 49.5351 104.499 41.5605 104.499 33.2021C104.499 14.8944 89.6975 0 71.5003 0C53.303 0 38.5018 14.8944 38.5018 33.1986C38.5018 41.5571 41.6504 49.5316 47.1502 55.5938L20.8064 47.6089C20.7755 47.5985 20.7446 47.5916 20.7136 47.5812C16.4513 46.4504 12.0069 47.0556 8.20174 49.2896C4.39317 51.5201 1.67768 55.1132 0.553669 59.3979C-0.57034 63.686 0.0311941 68.1575 2.25171 71.9857C4.46879 75.8173 8.03675 78.5493 12.299 79.6801L32.3559 85.0023C35.9754 85.9637 38.5018 89.2628 38.5018 93.0288V106.07C38.5018 108.674 37.9244 111.295 36.8347 113.653L23.6526 142.156C21.738 146.14 21.4733 150.635 22.9135 154.816C24.3572 159.008 27.3339 162.379 31.2972 164.316C33.5796 165.429 36.027 165.993 38.4915 165.993C40.3099 165.993 42.1351 165.689 43.9019 165.07C48.0267 163.631 51.3575 160.681 53.2893 156.746L65.4437 136.277C66.5471 134.42 68.3173 133.161 70.3041 132.819C73.1674 132.324 75.9722 133.621 77.4572 136.118L89.7044 156.746C92.5746 162.583 98.4318 165.983 104.519 165.979C106.936 165.979 109.387 165.443 111.7 164.312C115.663 162.376 118.643 159.001 120.084 154.813C121.524 150.632 121.259 146.136 119.345 142.152L106.162 113.65C105.073 111.291 104.495 108.667 104.495 106.066V93.0253C104.495 89.2593 107.022 85.9602 110.641 84.9988L130.698 79.6767C134.96 78.5459 138.528 75.8139 140.745 71.9822C142.962 68.1505 143.567 63.6791 142.443 59.3944L142.447 59.4013ZM87.9995 63.6307C87.9995 65.1557 86.7655 66.3972 85.2496 66.3972C82.8263 66.3972 77.244 64.9033 74.9548 63.6307C77.244 62.3581 82.8263 60.8641 85.2496 60.8641C86.7655 60.8641 87.9995 62.1056 87.9995 63.6307ZM71.5003 5.5331C86.6623 5.5331 98.9989 17.9445 98.9989 33.1986C98.9989 42.0896 94.7229 50.4619 87.5492 55.663C86.8205 55.4486 86.0471 55.331 85.2496 55.331C83.2525 55.331 79.4439 56.0849 76.3847 57.0878C74.8035 57.6065 72.9714 58.3051 71.5003 59.2941C70.0256 58.3051 68.197 57.6065 66.6158 57.0878C63.5566 56.0849 59.748 55.331 57.7509 55.331C56.9535 55.331 56.1835 55.4486 55.4513 55.663C48.2776 50.4654 44.0016 42.0931 44.0016 33.1986C44.0016 17.9445 56.3382 5.5331 71.5003 5.5331ZM57.7509 60.8641C60.1742 60.8641 65.7565 62.3581 68.0457 63.6307C65.7565 64.9033 60.1742 66.3972 57.7509 66.3972C56.2351 66.3972 55.001 65.1557 55.001 63.6307C55.001 62.1056 56.2351 60.8641 57.7509 60.8641ZM7.00211 69.2053C5.52406 66.6497 5.12189 63.6722 5.87123 60.8123C6.62057 57.9558 8.43204 55.5593 10.9688 54.0723C13.4952 52.5921 16.441 52.1841 19.2665 52.9241L28.7089 55.7875C28.5783 57.3437 29.0217 58.5299 29.3482 59.3909C29.6748 60.259 29.7366 60.4595 29.5407 61.0232C29.3414 61.5834 29.166 61.7045 28.372 62.1713C27.2927 62.8042 25.6634 63.7586 24.7834 66.252C23.9035 68.7453 24.5738 70.5194 25.0172 71.6952C25.3437 72.5632 25.4056 72.7638 25.2097 73.3274C25.0137 73.8877 24.8384 74.0053 24.041 74.4721C23.3432 74.8802 22.4151 75.4266 21.6073 76.4364L13.7049 74.3372C10.8657 73.5834 8.4836 71.7609 7.00555 69.2087L7.00211 69.2053ZM48.5114 154.014C48.4701 154.083 48.4323 154.152 48.3979 154.225C47.1158 156.884 44.8781 158.88 42.1007 159.848C39.3234 160.816 36.3398 160.636 33.6965 159.346C31.0531 158.057 29.0698 155.805 28.1073 153.015C27.1449 150.22 27.3236 147.219 28.6058 144.559C28.6126 144.545 28.6195 144.532 28.6264 144.518L32.1153 136.972C33.7686 137.608 35.1573 137.408 36.1438 137.262C37.0547 137.128 37.2678 137.11 37.7697 137.428C38.2715 137.743 38.3472 137.944 38.629 138.826C39.0071 140.022 39.5812 141.831 41.812 143.231C44.0428 144.635 45.9093 144.359 47.1433 144.179C48.0542 144.047 48.2673 144.027 48.7692 144.345C49.271 144.66 49.3466 144.857 49.6285 145.742C49.9138 146.645 50.3125 147.9 51.4503 149.062L48.5079 154.017L48.5114 154.014ZM114.391 144.556C115.673 147.215 115.852 150.217 114.89 153.011C113.927 155.805 111.944 158.053 109.301 159.343C106.657 160.633 103.674 160.813 100.896 159.844C98.119 158.876 95.8847 156.881 94.5991 154.221C94.5648 154.149 94.527 154.08 94.4857 154.01L90.7287 147.685C91.9524 147.851 93.6676 147.952 95.6819 146.683C97.9127 145.279 98.4868 143.473 98.8649 142.277C99.1467 141.395 99.2224 141.194 99.7242 140.88C100.226 140.565 100.436 140.582 101.35 140.714C102.584 140.894 104.451 141.167 106.681 139.766C108.912 138.366 109.486 136.557 109.864 135.36C109.906 135.229 109.943 135.118 109.978 135.015L114.367 144.507C114.367 144.507 114.381 144.535 114.388 144.549L114.391 144.556ZM109.242 79.6559C103.213 81.2571 98.9989 86.7556 98.9989 93.0322V106.073C98.9989 109.476 99.7517 112.906 101.182 115.991L107.441 129.526C105.52 130.889 104.987 132.556 104.629 133.683C104.347 134.565 104.272 134.766 103.77 135.08C103.268 135.395 103.058 135.378 102.144 135.246C100.91 135.066 99.0402 134.79 96.8128 136.194C94.582 137.598 94.0079 139.403 93.6298 140.6C93.3514 141.481 93.2723 141.682 92.7705 141.997C92.2686 142.311 92.059 142.294 91.1481 142.163C90.2475 142.031 89.0066 141.851 87.5389 142.308L82.1835 133.292C79.5264 128.818 74.5011 126.494 69.3829 127.375C65.8115 127.991 62.656 130.204 60.7276 133.452L54.7158 143.577C54.3205 142.412 53.6364 140.88 51.6909 139.656C49.4601 138.251 47.5936 138.528 46.3596 138.708C45.4487 138.843 45.2356 138.86 44.7337 138.542C44.2319 138.227 44.1563 138.027 43.8744 137.145C43.4963 135.948 42.9223 134.14 40.6914 132.736C38.4606 131.332 36.5941 131.605 35.3601 131.788C34.958 131.847 34.6933 131.882 34.4802 131.875L41.8257 115.991C43.2522 112.906 44.0085 109.476 44.0085 106.073V93.0322C44.0085 86.759 39.7977 81.2571 33.7652 79.6559L28.3342 78.2139C29.1042 77.5637 29.881 76.6335 30.4 75.1672C31.2766 72.6739 30.6097 70.8998 30.1663 69.724C29.8398 68.856 29.7779 68.6554 29.9738 68.0917C30.1697 67.5315 30.3485 67.4139 31.1425 66.9471C32.2218 66.3142 33.8511 65.3598 34.7311 62.8664C35.5801 60.4595 34.9855 58.7235 34.5455 57.5512L49.6457 62.1298C49.5563 62.6174 49.5082 63.1189 49.5082 63.6307C49.5082 68.2059 53.2102 71.9303 57.7578 71.9303C59.7549 71.9303 63.5635 71.1765 66.6227 70.1736C68.2039 69.6548 70.036 68.9563 71.5071 67.9673C72.9818 68.9563 74.8104 69.6548 76.3916 70.1736C79.4508 71.1765 83.2594 71.9303 85.2565 71.9303C89.8041 71.9303 93.5061 68.2059 93.5061 63.6307C93.5061 63.1189 93.458 62.6174 93.3686 62.1298L106.747 58.0734C107.647 59.5881 108.847 60.297 109.703 60.7984C110.5 61.2653 110.676 61.3829 110.871 61.9431C111.071 62.5033 111.006 62.7073 110.679 63.5754C110.236 64.7477 109.565 66.5252 110.445 69.0185C111.325 71.5119 112.955 72.4664 114.034 73.0992C114.831 73.5661 115.007 73.6836 115.203 74.2439C115.398 74.8041 115.337 75.0081 115.01 75.8761C114.773 76.5055 114.474 77.3044 114.378 78.2969L109.242 79.6594V79.6559ZM129.299 74.3338L120.548 76.6577C120.85 75.5718 121.005 74.1643 120.383 72.3972C119.503 69.9038 117.873 68.9494 116.794 68.3165C115.997 67.8497 115.821 67.7321 115.625 67.1719C115.426 66.6116 115.491 66.4076 115.818 65.5396C116.261 64.3638 116.932 62.5898 116.052 60.0964C115.264 57.8659 113.879 56.8665 112.824 56.2302L123.731 52.9241C126.559 52.1841 129.502 52.5921 132.028 54.0723C134.568 55.5593 136.377 57.9523 137.126 60.8123C138.673 66.7119 135.16 72.7776 129.296 74.3338H129.299Z" fill="black" fill-opacity="0.08"/>
</g>
<defs>
<clipPath id="clip0_75_60">
<rect width="143" height="166" fill="white"/>
</clipPath>
</defs>
</svg>
