<svg width="186" height="136" viewBox="0 0 186 136" fill="none" xmlns="http://www.w3.org/2000/svg">
<g clip-path="url(#clip0_75_26)">
<path d="M176.7 117.455H170.5V108.904C172.403 107.204 173.6 104.739 173.6 102V77.2727C173.6 64.1595 169.237 56.2314 165.734 49.8602C163.199 45.2548 161.2 41.6191 161.2 37.0909V15.4545C161.2 13.7468 159.813 12.3636 158.1 12.3636H120.9C119.187 12.3636 117.8 13.7468 117.8 15.4545V27.8182C117.8 29.8968 117.8 31.79 117.653 33.6832C116.882 33.3741 116.114 33.1075 115.394 32.8718C113.681 32.3155 111.759 31.8286 109.984 31.477C108.953 29.0082 108.5 26.9295 108.5 24.7273V3.09091C108.5 1.38318 107.113 0 105.4 0H68.2C66.4873 0 65.1 1.38318 65.1 3.09091V15.4545C65.1 17.5409 65.1 19.4341 64.9527 21.335C60.6554 19.5964 55.0366 18.5455 52.7 18.5455C47.5734 18.5455 43.4 22.7066 43.4 27.8182C43.4 32.9298 47.5734 37.0909 52.7 37.0909C54.281 37.0909 57.3151 36.6273 60.4384 35.7966C58.7334 39.1 56.4045 42.9752 53.2192 47.7391C44.5625 60.69 21.9092 69.1398 12.5705 72.1689C6.90525 74.008 3.1 79.2432 3.1 85.197C3.1 86.843 3.3945 88.4193 3.92925 89.8836C1.42988 92.2173 0 95.4859 0 98.9052V111.269C0 118.088 5.56063 123.632 12.4 123.632H52.7C52.7 130.452 58.2606 135.996 65.1 135.996H176.7C181.827 135.996 186 131.835 186 126.723C186 121.612 181.827 117.451 176.7 117.451V117.455ZM151.9 114.364C151.9 116.068 150.509 117.455 148.8 117.455H132.765C133.11 116.489 133.3 115.445 133.3 114.364C133.3 109.252 129.127 105.091 124 105.091H118.327C119.737 104.345 121.152 103.569 122.586 102.78C127.15 100.277 131.796 97.7346 136.691 95.8298C138.264 95.9766 139.5 97.3018 139.5 98.9052V101.996C139.5 107.108 143.673 111.269 148.8 111.269C150.509 111.269 151.9 112.656 151.9 114.36V114.364ZM83.7 114.364C83.7 116.068 82.3089 117.455 80.6 117.455H74.4C72.6911 117.455 71.3 116.068 71.3 114.364C71.3 112.66 72.6911 111.273 74.4 111.273H80.6C82.3089 111.273 83.7 112.66 83.7 114.364ZM69.5485 105.091C65.8479 105.091 62.7673 102.417 62.1279 98.9091H96.1C96.5185 98.9091 106.454 98.8318 116.42 92.2095C125.275 86.3252 140.306 80.3636 151.9 80.3636C158.894 80.3636 164.067 79.4132 167.4 78.513V83.103C167.307 83.2536 167.059 83.5743 166.454 83.9723C165.009 84.9343 161.196 86.5455 151.9 86.5455C139.345 86.5455 128.855 92.2945 119.602 97.3636C112.352 101.335 105.505 105.091 99.2 105.091H69.5485ZM31 102C31 103.704 29.6089 105.091 27.9 105.091H21.7C19.9911 105.091 18.6 103.704 18.6 102C18.6 100.296 19.9911 98.9091 21.7 98.9091H27.9C29.6089 98.9091 31 100.296 31 102ZM16.8485 92.7273C13.1479 92.7273 10.0672 90.0536 9.42787 86.5455H43.4C43.8185 86.5455 53.754 86.4682 63.7205 79.8459C72.3811 74.0891 86.9473 68.2666 98.4327 68.0155C87.9082 76.5232 72.5477 82.1757 65.2744 84.5364C62.4844 85.4405 60.1477 87.1714 58.4931 89.4045C54.7382 91.178 50.561 92.7311 46.5039 92.7311H16.8485V92.7273ZM105.4 111.273H124C125.709 111.273 127.1 112.66 127.1 114.364C127.1 116.068 125.709 117.455 124 117.455H105.4C103.691 117.455 102.3 116.068 102.3 114.364C102.3 112.66 103.691 111.273 105.4 111.273ZM148.8 105.091C147.091 105.091 145.7 103.704 145.7 102V98.9091C145.7 96.9309 145.076 95.0996 144.014 93.5927C146.556 93.0441 149.18 92.7273 151.9 92.7273C158.549 92.7273 163.738 91.9507 167.4 90.4245V102C167.4 103.704 166.009 105.091 164.3 105.091H148.8ZM124 18.5455H155V37.0909C155 43.207 157.573 47.882 160.297 52.8352C163.103 57.9314 166.218 63.5993 167.133 72.1496C164.544 72.9725 159.449 74.1818 151.9 74.1818C138.477 74.1818 122.314 80.8582 112.979 87.0632C104.637 92.6075 96.1736 92.7234 96.1 92.7273H63.7554C64.6389 91.6764 65.813 90.8611 67.1886 90.413C79.5499 86.3986 101.692 77.5702 111.077 63.5336C116.285 55.7484 119.389 49.9839 121.245 45.2509C122.841 46.24 124.744 46.9548 126.403 47.4918C129.851 48.6123 134.145 49.4545 136.396 49.4545C141.523 49.4545 145.696 45.2934 145.696 40.1818C145.696 35.0702 141.523 30.9091 136.396 30.9091C134.145 30.9091 129.851 31.7514 126.403 32.8718C125.593 33.1345 124.725 33.4398 123.864 33.7952C123.996 31.8248 123.996 29.8814 123.996 27.8182V18.5455H124ZM124.794 40.1818C127.375 38.76 133.668 37.0909 136.4 37.0909C138.109 37.0909 139.5 38.478 139.5 40.1818C139.5 41.8857 138.109 43.2727 136.4 43.2727C133.668 43.2727 127.375 41.6036 124.794 40.1818ZM116.541 39.9423C116.486 40.1239 116.432 40.3093 116.374 40.4986C113.514 41.8393 107.93 43.2727 105.4 43.2727C103.691 43.2727 102.3 41.8857 102.3 40.1818C102.3 38.478 103.691 37.0909 105.4 37.0909C107.981 37.0909 113.735 38.5784 116.541 39.9423ZM52.7 30.9091C50.9911 30.9091 49.6 29.522 49.6 27.8182C49.6 26.1143 50.9911 24.7273 52.7 24.7273C54.7382 24.7273 60.667 26.01 63.8329 27.598C63.7825 27.768 63.7321 27.9418 63.6779 28.1157C60.4539 29.6843 54.715 30.9091 52.7 30.9091ZM14.4925 78.0493C26.8538 74.035 48.9955 65.2066 58.3807 51.17C63.5887 43.3848 66.6926 37.6202 68.5487 32.8873C70.1452 33.8764 72.0479 34.5911 73.7064 35.1282C77.1551 36.2486 81.4486 37.0909 83.7 37.0909C88.8266 37.0909 93 32.9298 93 27.8182C93 22.7066 88.8266 18.5455 83.7 18.5455C81.4486 18.5455 77.1551 19.3877 73.7064 20.5082C72.8965 20.7709 72.0285 21.0761 71.1683 21.4316C71.3 19.4611 71.3 17.5177 71.3 15.4545V6.18182H102.3V24.7273C102.3 26.887 102.61 28.9657 103.28 31.1564C99.1729 32.1145 96.1 35.7966 96.1 40.1818C96.1 45.2934 100.273 49.4545 105.4 49.4545C107.179 49.4545 110.236 48.9252 113.142 48.1525C111.437 51.4559 109.108 55.335 105.919 60.1027C105.586 60.6011 105.226 61.0918 104.85 61.5786C103.032 61.737 101.137 61.8182 99.1961 61.8182C85.7731 61.8182 69.6105 68.4945 60.2756 74.6995C51.9328 80.2439 43.4697 80.3598 43.3961 80.3636H11.0554C11.9389 79.3127 13.113 78.4975 14.4886 78.0493H14.4925ZM72.0944 27.8182C74.6751 26.3964 80.9681 24.7273 83.7 24.7273C85.4089 24.7273 86.8 26.1143 86.8 27.8182C86.8 29.522 85.4089 30.9091 83.7 30.9091C80.9681 30.9091 74.6751 29.24 72.0944 27.8182ZM12.4 117.455C8.98225 117.455 6.2 114.68 6.2 111.273V98.9091C6.2 97.5607 6.6495 96.2586 7.45162 95.1923C9.04037 96.6759 10.9779 97.7925 13.1324 98.3952C12.6596 99.5041 12.4 100.721 12.4 102C12.4 107.112 16.5734 111.273 21.7 111.273H27.9C33.0266 111.273 37.2 107.112 37.2 102C37.2 100.918 37.0101 99.875 36.6652 98.9091H43.9309C43.586 99.875 43.3961 100.918 43.3961 102C43.3961 107.112 47.5695 111.273 52.6961 111.273V117.455H12.4ZM54.3624 105.091H52.7C50.9911 105.091 49.6 103.704 49.6 102C49.6 100.296 50.9911 98.9091 52.7 98.9091H55.8659C55.9782 100.072 56.2379 101.193 56.6254 102.251C55.7264 103.09 54.9669 104.048 54.3624 105.091ZM176.7 129.818H65.1C61.6822 129.818 58.9 127.044 58.9 123.636V111.273C58.9 109.924 59.3495 108.622 60.1516 107.556C61.7404 109.04 63.6779 110.156 65.8324 110.759C65.3596 111.868 65.1 113.085 65.1 114.364C65.1 119.475 69.2734 123.636 74.4 123.636H80.6C85.7266 123.636 89.9 119.475 89.9 114.364C89.9 113.282 89.7101 112.239 89.3652 111.273H96.6309C96.286 112.239 96.0961 113.282 96.0961 114.364C96.0961 119.475 100.269 123.636 105.396 123.636H148.796C153.923 123.636 158.096 119.475 158.096 114.364C158.096 113.282 157.906 112.239 157.561 111.273H164.296V120.545C164.296 122.253 165.683 123.636 167.396 123.636H176.696C178.405 123.636 179.796 125.023 179.796 126.727C179.796 128.431 178.405 129.818 176.696 129.818H176.7Z" fill="#DA78AC" fill-opacity="0.2"/>
</g>
<defs>
<clipPath id="clip0_75_26">
<rect width="186" height="136" fill="white"/>
</clipPath>
</defs>
</svg>
