<svg width="128" height="128" viewBox="0 0 128 128" fill="none" xmlns="http://www.w3.org/2000/svg">
<g clip-path="url(#clip0_75_67)">
<path d="M124.04 94.8907C121.813 93.2853 119.539 93.7627 118.925 93.936L94.288 99.6213C93.3787 99.8293 92.4507 99.432 91.9733 98.632L72.8907 66.5227L105.611 11.5227C107.011 9.12533 107.019 6.256 105.637 3.84533C104.256 1.43467 101.771 0 98.9947 0C96.2187 0 93.744 1.456 92.3867 3.78667L64 51.5573L35.6213 3.8C34.2533 1.456 31.7173 0 29.0027 0C26.288 0 23.7413 1.43733 22.36 3.84533C20.9786 6.25333 20.9867 9.12267 22.3946 11.536L55.1066 66.52L36.024 98.6293C35.5466 99.4293 34.6187 99.8267 33.7093 99.6187L9.07198 93.9333C8.45865 93.76 6.18398 93.2827 3.95731 94.888C1.33065 96.7813 -0.00268555 100.744 -0.00268555 106.664C-0.00268555 117.208 6.13598 117.331 6.39732 117.331H34.1306C38.3333 117.331 42.472 114.92 46.4373 110.163C49.0346 107.048 50.6613 103.96 50.936 103.427L64 81.4667L77.064 103.424C77.6827 104.637 84.392 117.328 93.8667 117.328H121.6C121.861 117.328 128 117.205 128 106.661C128 100.741 126.667 96.7787 124.04 94.8853V94.8907ZM110.933 100.157V113.067H106.667V101.144L110.933 100.16V100.157ZM74.6693 77.864L69.24 81.936L38.744 30.6747L44.1973 26.584L74.6693 77.8613V77.864ZM96.064 5.952C96.6693 4.912 97.7947 4.26667 98.9973 4.26667C100.2 4.26667 101.328 4.904 101.941 5.97067C102.555 7.03733 102.549 8.30933 101.941 9.35733L91.4533 26.9893L85.9973 22.8987L96.0667 5.95467L96.064 5.952ZM83.8027 26.584L89.256 30.6747L70.4133 62.3467L66.4827 55.7307L83.8027 26.584ZM26.0587 5.97067C26.672 4.904 27.7733 4.26667 29.0027 4.26667C30.232 4.26667 31.328 4.912 31.944 5.96533L42.0053 22.896L36.5493 26.9867L26.0693 9.37067C25.448 8.30667 25.4453 7.03733 26.0587 5.97067ZM21.3333 101.144V113.067H17.0666V100.157L21.3333 101.141V101.144ZM6.39998 113.067C6.39998 113.067 6.41065 113.067 6.43198 113.067C6.44265 113.067 6.45598 113.067 6.47198 113.067H6.39998ZM4.26665 106.667C4.26665 100.675 5.75998 98.8827 6.40265 98.3893C7.05865 97.888 7.72265 97.9973 7.88265 98.032C7.95731 98.0613 7.95731 98.056 8.05332 98.0773L12.8 99.1733V113.067H6.49598C6.25598 113.011 4.26665 112.363 4.26665 106.667ZM47.232 101.309C47.2053 101.352 47.1813 101.4 47.1573 101.445C45.5333 104.677 40.0293 113.067 34.1306 113.067H25.5973V102.128L32.7493 103.779C35.4747 104.408 38.2613 103.216 39.6906 100.813L51.136 81.5547L56.5653 85.6267L47.2346 101.312L47.232 101.309ZM58.76 81.936L53.3307 77.864L57.5893 70.696L61.5173 77.2987L58.76 81.936ZM84.888 107.493C82.3947 104.52 80.856 101.475 80.84 101.445C80.816 101.4 80.792 101.355 80.7653 101.309L71.4347 85.624L76.864 81.552L88.3093 100.811C89.736 103.213 92.5253 104.405 95.2507 103.776L102.403 102.125V113.064H93.8693C90.3093 113.064 87.0213 110.035 84.8907 107.491L84.888 107.493ZM121.528 113.067C121.573 113.064 121.6 113.067 121.6 113.067H121.528ZM121.512 113.067H115.2V99.1733L119.947 98.0773C120.043 98.056 120.043 98.0613 120.117 98.032C120.277 97.9973 120.941 97.8853 121.597 98.3893C122.24 98.8827 123.733 100.675 123.733 106.667C123.733 111.429 122.299 112.928 121.512 113.067Z" fill="black" fill-opacity="0.08"/>
<path d="M72.5334 110.933H55.4667C50.7627 110.933 46.9333 114.763 46.9333 119.467C46.9333 124.171 50.7627 128 55.4667 128H72.5334C77.2374 128 81.0667 124.171 81.0667 119.467C81.0667 114.763 77.2374 110.933 72.5334 110.933ZM72.5334 123.733H55.4667C53.1147 123.733 51.2 121.819 51.2 119.467C51.2 117.115 53.1147 115.2 55.4667 115.2H72.5334C74.8854 115.2 76.8 117.115 76.8 119.467C76.8 121.819 74.8854 123.733 72.5334 123.733Z" fill="black" fill-opacity="0.08"/>
</g>
<defs>
<clipPath id="clip0_75_67">
<rect width="128" height="128" fill="white"/>
</clipPath>
</defs>
</svg>
