<svg width="138" height="138" viewBox="0 0 138 138" fill="none" xmlns="http://www.w3.org/2000/svg">
<g clip-path="url(#clip0_45_42)">
<path d="M137.96 116.53L127.414 25.7169C126.738 20.1652 123.308 15.4416 118.24 13.0755L90.6735 0.215625C90.3773 0.0805 90.0496 0 89.7017 0H80.5015C79.2307 0 78.2014 1.02925 78.2014 2.3C78.2014 6.66712 74.0729 10.2235 69.0013 10.2235C63.9296 10.2235 59.8011 6.67 59.8011 2.3C59.8011 1.02925 58.7718 0 57.501 0H48.3008C47.9529 0 47.6252 0.0805 47.329 0.2185L19.7658 13.0813C14.7 15.4445 11.27 20.171 10.5915 25.7341L0.0400619 116.544C-0.175568 118.49 0.451195 120.445 1.75935 121.903C3.0675 123.363 4.93916 124.2 6.89995 124.2H27.6004V131.1C27.6004 134.904 30.6968 138 34.5005 138H103.502C107.306 138 110.402 134.904 110.402 131.1V124.2H131.103C133.06 124.2 134.935 123.363 136.243 121.903C137.551 120.442 138.178 118.49 137.96 116.53ZM87.2148 4.6C86.7864 7.21625 85.6306 9.63125 83.9401 11.684L80.8982 8.64225C81.6975 7.41175 82.2725 6.049 82.5687 4.6H87.2148ZM77.7328 11.9859L80.5619 14.8149C77.9628 16.6577 74.7801 17.8911 71.3013 18.2706V14.6452C73.7163 14.2772 75.9158 13.3371 77.7357 11.9859H77.7328ZM66.7012 14.6452V18.2706C63.2195 17.8883 60.0397 16.6549 57.4406 14.8149L60.2697 11.9859C62.0867 13.3371 64.289 14.2772 66.7041 14.6452H66.7012ZM55.4338 4.6C55.7328 6.049 56.305 7.41462 57.1043 8.64225L54.0624 11.684C52.3719 9.62838 51.2161 7.21625 50.7877 4.6H55.4338ZM15.1571 26.2775C15.6401 22.3129 18.0897 18.9376 21.7094 17.2471L46.3285 5.75863C48.1628 15.5308 57.6304 23 69.0013 23C80.3721 23 89.8397 15.5308 91.674 5.75863L116.293 17.2471C119.913 18.9376 122.362 22.3129 122.845 26.2631L132.083 105.8H111.541C112.121 96.8357 112.702 86.3765 112.702 80.5C112.702 69.0287 110.485 44.528 110.393 43.493C110.287 42.32 109.304 41.4 108.105 41.4C106.834 41.4 105.805 42.4292 105.805 43.7C105.805 43.769 105.811 43.8409 105.816 43.907C105.816 43.907 105.816 43.9214 105.816 43.9329C105.816 43.9329 105.816 43.9329 105.816 43.9358C105.903 44.896 108.105 69.4025 108.105 80.5C108.105 90.0105 106.492 112.576 105.972 119.6H32.0337C31.5133 112.576 29.9004 90.0105 29.9004 80.5C29.9004 69.4025 32.1027 44.896 32.189 43.9358C32.189 43.9358 32.189 43.9357 32.189 43.9329C32.189 43.9214 32.189 43.9128 32.189 43.907C32.1947 43.838 32.2005 43.769 32.2005 43.7C32.2005 42.4292 31.1712 41.4 29.9004 41.4C28.7015 41.4 27.7154 42.32 27.6119 43.493C27.517 44.5309 25.3032 69.0287 25.3032 80.5C25.3032 86.3765 25.884 96.8357 26.4647 105.8H5.91956L15.1571 26.2775ZM111.236 110.4H115.002V119.6H110.58C110.736 117.495 110.974 114.227 111.233 110.4H111.236ZM119.602 110.4H124.202V119.6H119.602V110.4ZM52.9009 124.2V133.4H43.7007V124.2H52.9009ZM57.501 124.2H66.7012V133.4H57.501V124.2ZM71.3013 124.2H80.5015V133.4H71.3013V124.2ZM85.1016 124.2H94.3018V133.4H85.1016V124.2ZM18.4002 110.4V119.6H13.8001V110.4H18.4002ZM23.0003 110.4H26.7666C27.0254 114.227 27.264 117.495 27.4193 119.6H22.9974V110.4H23.0003ZM5.18642 118.835C4.74366 118.341 4.53953 117.708 4.61141 117.061L5.3848 110.4H9.19713V119.6H6.89708C6.23582 119.6 5.6263 119.327 5.18354 118.835H5.18642ZM32.2005 131.1V124.2H39.1006V133.4H34.5005C33.2326 133.4 32.2005 132.368 32.2005 131.1ZM105.802 131.1C105.802 132.368 104.77 133.4 103.502 133.4H98.9019V124.2H105.802V131.1ZM132.813 118.835C132.37 119.33 131.764 119.6 131.1 119.6H128.8V110.4H132.612L133.385 117.047C133.457 117.705 133.256 118.341 132.813 118.832V118.835Z" fill="black" fill-opacity="0.08"/>
<path d="M69.0015 101.2C86.7578 101.2 101.202 86.756 101.202 69C101.202 51.244 86.7578 36.8 69.0015 36.8C51.2451 36.8 36.8008 51.244 36.8008 69C36.8008 86.756 51.2451 101.2 69.0015 101.2ZM69.0015 52.9C77.8796 52.9 85.1018 60.122 85.1018 69C85.1018 77.878 77.8796 85.1 69.0015 85.1C60.1233 85.1 52.9011 77.878 52.9011 69C52.9011 60.122 60.1233 52.9 69.0015 52.9ZM55.9889 85.2639C56.0234 85.2294 56.0522 85.1949 56.0838 85.1604C56.932 85.8389 57.8347 86.4541 58.7864 86.9946C58.7662 87.0349 58.7432 87.0751 58.726 87.1182H58.7202L56.0378 93.3627C54.3041 92.437 52.6797 91.3301 51.1876 90.068L55.9889 85.2667V85.2639ZM62.8891 89.0617C62.9121 89.0186 62.9351 88.9755 62.9552 88.9295C62.9725 88.8892 62.984 88.849 63.0012 88.8087C64.1944 89.171 65.4364 89.4269 66.71 89.5677C66.71 89.6109 66.7043 89.654 66.7043 89.6971V96.4994C64.4732 96.3154 62.3169 95.864 60.2641 95.1769L62.892 89.0589L62.8891 89.0617ZM71.3015 89.7C71.3015 89.6569 71.2986 89.6137 71.2958 89.5706C72.394 89.4499 73.4664 89.24 74.5043 88.9525C74.5187 88.9927 74.5302 89.0359 74.5474 89.0761H74.5417L77.066 95.3982C75.2202 95.9646 73.291 96.3384 71.3044 96.5051V89.7029L71.3015 89.7ZM78.8658 87.5092C78.8514 87.4632 78.837 87.4144 78.8169 87.3684C78.7997 87.3281 78.7795 87.2879 78.7623 87.2476C79.8807 86.6467 80.933 85.9453 81.9162 85.1575C81.9479 85.192 81.9766 85.2294 82.0111 85.261L86.8125 90.0622C85.142 91.4767 83.3049 92.6957 81.3326 93.6847L78.8658 87.5064V87.5092ZM85.2657 82.0094C85.2312 81.9749 85.1967 81.9461 85.1622 81.9145C85.9729 80.9025 86.6917 79.81 87.3041 78.6542C87.3443 78.6744 87.3846 78.6945 87.4277 78.7089C87.4478 78.7175 87.468 78.7232 87.4881 78.729L93.7586 81.1929C92.7581 83.2169 91.5161 85.1 90.0699 86.8077L85.2685 82.0065L85.2657 82.0094ZM89.1096 74.428C89.0694 74.4165 89.0291 74.4021 88.986 74.3906C89.2563 73.3872 89.4546 72.3522 89.5725 71.2942C89.6156 71.2942 89.6588 71.3 89.7019 71.3H96.5043C96.3433 73.2349 95.9839 75.1151 95.4434 76.9178L89.1096 74.428ZM89.7019 66.7C89.6588 66.7 89.6156 66.7029 89.5725 66.7058C89.4259 65.3919 89.1614 64.1154 88.7819 62.8878C88.8221 62.8734 88.8624 62.859 88.8997 62.8418C88.9371 62.8245 88.9745 62.8044 89.0119 62.7871L95.1357 60.1163C95.8488 62.2093 96.3174 64.4144 96.5043 66.7H89.7019ZM87.0568 58.6212V58.627C87.0166 58.6442 86.9763 58.6673 86.9361 58.6874C86.4099 57.7731 85.8148 56.9049 85.1593 56.0855C85.1938 56.0539 85.2312 56.0251 85.2628 55.9906L90.0641 51.1894C91.2947 52.6413 92.3757 54.2196 93.29 55.9044L87.0568 58.6212ZM82.0111 52.7361C81.9766 52.7706 81.9479 52.8051 81.9162 52.8396C81.0681 52.1611 80.1653 51.5459 79.2137 51.0054C79.2338 50.9651 79.2568 50.9249 79.274 50.8818H79.2798L81.9622 44.6373C83.6959 45.563 85.3203 46.6699 86.8125 47.932L82.0111 52.7333V52.7361ZM75.1138 48.9354C75.0908 48.9785 75.0678 49.0216 75.0477 49.0676C75.0305 49.1079 75.019 49.1481 75.0017 49.1884C73.8086 48.8261 72.5665 48.5703 71.2929 48.4294C71.2929 48.3863 71.2986 48.3431 71.2986 48.3V41.4978C73.5297 41.6818 75.686 42.1331 77.7388 42.8203L75.111 48.9383L75.1138 48.9354ZM66.7014 48.3C66.7014 48.3431 66.7043 48.3863 66.7072 48.4294C65.6089 48.5501 64.5365 48.76 63.4986 49.0475C63.4842 49.0073 63.4727 48.9641 63.4555 48.9239H63.4612L60.9369 42.6018C62.7827 42.0354 64.7119 41.6616 66.6985 41.4949V48.2971L66.7014 48.3ZM59.1342 50.4908C59.1486 50.5367 59.163 50.5856 59.1831 50.6316C59.2004 50.6719 59.2205 50.7121 59.2377 50.7524C58.1194 51.3533 57.0671 52.0548 56.0838 52.8425C56.0522 52.808 56.0234 52.7706 55.9889 52.739L51.1876 47.9378C52.858 46.5233 54.6952 45.3043 56.6674 44.3153L59.1342 50.4936V50.4908ZM52.7372 55.9906C52.7717 56.0251 52.8062 56.0539 52.8407 56.0855C52.03 57.0975 51.3112 58.19 50.6988 59.3457C50.6586 59.3256 50.6183 59.3055 50.5752 59.2911C50.5551 59.2825 50.5349 59.2768 50.5148 59.271L44.2443 56.8071C45.2448 54.7831 46.4869 52.9 47.933 51.1923L52.7344 55.9935L52.7372 55.9906ZM48.8933 63.572C48.9335 63.5835 48.9738 63.5979 49.0169 63.6094C48.7467 64.6127 48.5483 65.6478 48.4304 66.7058C48.3873 66.7058 48.3441 66.7 48.301 66.7H41.4986C41.6596 64.7651 42.019 62.8849 42.5595 61.0823L48.8933 63.572ZM48.301 71.3C48.3441 71.3 48.3873 71.2971 48.4304 71.2942C48.577 72.6081 48.8415 73.8846 49.221 75.1123C49.1808 75.1266 49.1405 75.141 49.1032 75.1583C49.0658 75.1755 49.0284 75.1956 48.991 75.2129L42.8672 77.8837C42.1541 75.7907 41.6855 73.5856 41.4958 71.3H48.2981H48.301ZM50.9432 79.3787V79.373C50.9835 79.3557 51.0237 79.3327 51.064 79.3126C51.5901 80.2269 52.1852 81.0951 52.8407 81.9145C52.8062 81.9461 52.7689 81.9749 52.7372 82.0094L47.9359 86.8106C46.7054 85.3587 45.6243 83.7804 44.7101 82.0956L50.9432 79.3787Z" fill="black" fill-opacity="0.08"/>
</g>
<defs>
<clipPath id="clip0_45_42">
<rect width="138" height="138" fill="white"/>
</clipPath>
</defs>
</svg>
