<svg width="144" height="144" viewBox="0 0 144 144" fill="none" xmlns="http://www.w3.org/2000/svg">
<g clip-path="url(#clip0_75_42)">
<path d="M81.6 52.8C82.9255 52.8 84 51.7255 84 50.4C84 49.0745 82.9255 48 81.6 48C80.2745 48 79.2 49.0745 79.2 50.4C79.2 51.7255 80.2745 52.8 81.6 52.8Z" fill="black" fill-opacity="0.08"/>
<path d="M62.4 52.8C63.7255 52.8 64.8 51.7255 64.8 50.4C64.8 49.0745 63.7255 48 62.4 48C61.0745 48 60 49.0745 60 50.4C60 51.7255 61.0745 52.8 62.4 52.8Z" fill="black" fill-opacity="0.08"/>
<path d="M60 100.8C56.031 100.8 52.8 104.031 52.8 108C52.8 111.969 56.031 115.2 60 115.2C63.969 115.2 67.2 111.969 67.2 108C67.2 104.031 63.969 100.8 60 100.8ZM60 110.4C58.677 110.4 57.6 109.323 57.6 108C57.6 106.677 58.677 105.6 60 105.6C61.323 105.6 62.4 106.677 62.4 108C62.4 109.323 61.323 110.4 60 110.4Z" fill="black" fill-opacity="0.08"/>
<path d="M60 120C56.031 120 52.8 123.231 52.8 127.2C52.8 131.169 56.031 134.4 60 134.4C63.969 134.4 67.2 131.169 67.2 127.2C67.2 123.231 63.969 120 60 120ZM60 129.6C58.677 129.6 57.6 128.523 57.6 127.2C57.6 125.877 58.677 124.8 60 124.8C61.323 124.8 62.4 125.877 62.4 127.2C62.4 128.523 61.323 129.6 60 129.6Z" fill="black" fill-opacity="0.08"/>
<path d="M141.231 131.709C139.098 128.76 135.906 127.2 132 127.2C129.492 127.2 127.278 127.848 125.451 129.09C122.664 126.966 119.13 125.622 114.903 125.079C115.098 123.405 115.2 121.71 115.2 120.003C115.2 111.771 112.839 103.734 108.471 96.8492L116.418 90.8912C116.454 90.9122 116.49 90.9302 116.529 90.9482L126.129 95.7512C126.453 95.9102 126.816 96.0032 127.203 96.0032C128.529 96.0032 129.603 94.9292 129.603 93.6032C129.603 92.6642 129.063 91.8512 128.277 91.4582L120.711 87.6722L125.856 83.8142L134.985 81.5312C136.029 81.2672 136.803 80.3282 136.803 79.2032C136.803 77.8772 135.729 76.8032 134.403 76.8032C134.202 76.8032 134.007 76.8302 133.821 76.8782L127.203 78.5312V72.0062C127.203 70.6802 126.129 69.6062 124.803 69.6062C123.477 69.6062 122.403 70.6802 122.403 72.0062V80.4062L107.418 91.6442C107.793 90.7742 108.003 89.8142 108.003 88.8062V84.0062C108.003 80.0372 104.772 76.8062 100.803 76.8062H98.2862C101.475 71.8202 103.203 66.0002 103.203 60.0062C103.203 54.0122 101.478 48.1922 98.2862 43.2062H98.4032C102.372 43.2062 105.603 39.9752 105.603 36.0062C105.603 32.0372 102.372 28.8062 98.4032 28.8062H96.0032V12.0062C96.0032 5.38816 90.6212 0.00616455 84.0032 0.00616455H60.0032C53.3852 0.00616455 48.0032 5.38816 48.0032 12.0062V28.8062H45.6032C41.6342 28.8062 38.4032 32.0372 38.4032 36.0062C38.4032 39.9752 41.6342 43.2062 45.6032 43.2062H45.7202C42.5312 48.1922 40.8032 54.0122 40.8032 60.0062C40.8032 66.0002 42.5282 71.8202 45.7202 76.8062H43.2032C39.2342 76.8062 36.0032 80.0372 36.0032 84.0062V88.8062C36.0032 89.8142 36.2132 90.7742 36.5882 91.6442L21.6032 80.4062V72.0062C21.6032 70.6802 20.5292 69.6062 19.2032 69.6062C17.8772 69.6062 16.8032 70.6802 16.8032 72.0062V78.5312L10.1852 76.8782C9.99916 76.8332 9.80416 76.8062 9.60316 76.8062C8.27716 76.8062 7.20316 77.8802 7.20316 79.2062C7.20316 80.3312 7.97716 81.2732 9.02116 81.5312L18.1502 83.8172L23.2952 87.6752L15.7292 91.4582C14.9432 91.8542 14.4032 92.6642 14.4032 93.6062C14.4032 94.9322 15.4772 96.0062 16.8032 96.0062C17.1902 96.0062 17.5532 95.9132 17.8772 95.7512L27.4772 90.9542C27.5132 90.9332 27.5522 90.9152 27.5882 90.8942L35.5652 96.8762C31.2902 103.593 28.9232 111.399 28.8092 119.385C28.7822 121.305 28.8812 123.207 29.1002 125.085C24.8762 125.628 21.3422 126.972 18.5552 129.096C16.7252 127.854 14.5142 127.206 12.0062 127.206C8.10316 127.206 4.91116 128.766 2.77516 131.715C0.963164 134.22 0.00616455 137.64 0.00616455 141.606C0.00616455 142.932 1.08016 144.006 2.40616 144.006H141.606C142.932 144.006 144.006 142.932 144.006 141.606C144.006 137.64 143.049 134.217 141.237 131.715L141.231 131.709ZM114.081 129.813C117.351 130.206 120.06 131.151 122.166 132.636C121.083 134.466 120.393 136.692 120.129 139.2H110.406C111.009 138.396 111.519 137.511 111.918 136.551C112.83 134.358 113.55 132.108 114.081 129.813ZM103.2 84.0002V88.8002C103.2 90.1232 102.123 91.2002 100.8 91.2002H96.0002V81.6002H100.8C102.123 81.6002 103.2 82.6772 103.2 84.0002ZM81.6002 81.6002H91.2002V108C91.2002 109.323 90.1232 110.4 88.8002 110.4H84.0002C82.6772 110.4 81.6002 109.323 81.6002 108V81.6002ZM60.0002 4.80016H84.0002C87.9692 4.80016 91.2002 8.03117 91.2002 12.0002V19.2002H52.8002V12.0002C52.8002 8.03117 56.0312 4.80016 60.0002 4.80016ZM52.8002 24.0002H91.2002V28.8002H52.8002V24.0002ZM43.2002 36.0002C43.2002 34.6772 44.2772 33.6002 45.6002 33.6002H98.4002C99.7232 33.6002 100.8 34.6772 100.8 36.0002C100.8 37.3232 99.7232 38.4002 98.4002 38.4002H45.6002C44.2772 38.4002 43.2002 37.3232 43.2002 36.0002ZM45.6002 60.0002C45.6002 53.8502 47.7422 47.9222 51.6422 43.2002H92.3612C96.2612 47.9222 98.4002 53.8442 98.4002 60.0002C98.4002 66.1562 96.2582 72.0782 92.3582 76.8002H51.6392C47.7392 72.0782 45.6002 66.1562 45.6002 60.0002ZM40.8002 84.0002C40.8002 82.6772 41.8772 81.6002 43.2002 81.6002H76.8002V91.2002H43.2002C41.8772 91.2002 40.8002 90.1232 40.8002 88.8002V84.0002ZM32.1212 136.641C32.5082 137.568 33.0062 138.423 33.5912 139.2H23.8742C23.6072 136.692 22.9202 134.466 21.8372 132.636C23.9432 131.151 26.6522 130.206 29.9222 129.813C30.4622 132.138 31.1942 134.418 32.1242 136.641H32.1212ZM4.94716 139.2C5.79016 132.756 10.0562 132 12.0002 132C13.9442 132 18.2102 132.756 19.0532 139.2H4.94716ZM100.809 139.2H43.1912C40.2782 139.2 37.6712 137.469 36.5522 134.79C34.5212 129.93 33.5312 124.767 33.6062 119.445C33.7262 110.904 36.7532 102.591 42.1442 95.9222C42.4892 95.9732 42.8432 96.0002 43.2032 96.0002H76.8032V108C76.8032 111.969 80.0342 115.2 84.0032 115.2H88.8032C92.7722 115.2 96.0032 111.969 96.0032 108V96.0002H100.803C101.181 96.0002 101.55 95.9702 101.913 95.9132C107.394 102.714 110.403 111.234 110.403 120C110.403 125.097 109.422 130.044 107.487 134.709C106.356 137.436 103.737 139.2 100.815 139.2H100.809ZM124.947 139.2C125.79 132.756 130.056 132 132 132C133.944 132 138.21 132.756 139.053 139.2H124.947Z" fill="black" fill-opacity="0.08"/>
<path d="M129.6 33.6C134.892 33.6 139.2 29.295 139.2 24C139.2 18.705 134.892 14.4 129.6 14.4C124.308 14.4 120 18.705 120 24C120 29.295 124.308 33.6 129.6 33.6ZM129.6 19.2C132.246 19.2 134.4 21.354 134.4 24C134.4 26.646 132.246 28.8 129.6 28.8C126.954 28.8 124.8 26.646 124.8 24C124.8 21.354 126.954 19.2 129.6 19.2Z" fill="black" fill-opacity="0.08"/>
<path d="M117.6 60C121.569 60 124.8 56.769 124.8 52.8C124.8 48.831 121.569 45.6 117.6 45.6C113.631 45.6 110.4 48.831 110.4 52.8C110.4 56.769 113.631 60 117.6 60ZM117.6 50.4C118.923 50.4 120 51.477 120 52.8C120 54.123 118.923 55.2 117.6 55.2C116.277 55.2 115.2 54.123 115.2 52.8C115.2 51.477 116.277 50.4 117.6 50.4Z" fill="black" fill-opacity="0.08"/>
<path d="M21.6 40.8C25.569 40.8 28.8 37.569 28.8 33.6C28.8 29.631 25.569 26.4 21.6 26.4C17.631 26.4 14.4 29.631 14.4 33.6C14.4 37.569 17.631 40.8 21.6 40.8ZM21.6 31.2C22.923 31.2 24 32.277 24 33.6C24 34.923 22.923 36 21.6 36C20.277 36 19.2 34.923 19.2 33.6C19.2 32.277 20.277 31.2 21.6 31.2Z" fill="black" fill-opacity="0.08"/>
<path d="M72 72C71.781 72 71.415 72 55.323 70.278C52.518 69.978 50.4 67.623 50.4 64.8C50.4 61.977 52.515 59.622 55.323 59.322C71.415 57.6 71.781 57.6 72 57.6C75.969 57.6 79.2 60.831 79.2 64.8C79.2 68.769 75.969 72 72 72ZM72.054 62.4C71.259 62.46 65.235 63.087 55.833 64.095C55.473 64.134 55.2 64.437 55.2 64.8C55.2 65.163 55.473 65.466 55.833 65.505C65.235 66.51 71.259 67.14 72.054 67.2C73.353 67.17 74.4 66.105 74.4 64.8C74.4 63.495 73.353 62.43 72.054 62.4Z" fill="black" fill-opacity="0.08"/>
</g>
<defs>
<clipPath id="clip0_75_42">
<rect width="144" height="144" fill="white"/>
</clipPath>
</defs>
</svg>
