<svg width="160" height="122" viewBox="0 0 160 122" fill="none" xmlns="http://www.w3.org/2000/svg">
<g clip-path="url(#clip0_75_72)">
<path d="M159.22 74.3171L153.39 68.5187C156.19 64.7328 161.113 55.9242 158.033 43.6679C157.793 42.7164 157.05 41.9771 156.093 41.7384C143.77 38.6752 134.91 43.5717 131.107 46.3565L125.277 40.5582C124.237 39.5239 122.547 39.5239 121.507 40.5582C114.46 47.5666 112.74 55.8148 112.58 61.6861L112.08 61.1888C111.58 60.6915 110.9 60.413 110.193 60.413C109.487 60.413 108.807 60.6915 108.307 61.1888C102.693 66.7683 101.683 74.8574 101.657 79.7772C101.547 79.7607 101.44 79.7507 101.33 79.7341C101.33 79.6778 101.333 79.6214 101.333 79.5617C101.333 73.3623 98.6467 67.7761 94.3667 63.8907C97.5333 60.2837 101.333 54.5418 101.333 47.7357C101.333 46.2703 100.14 45.0835 98.6667 45.0835H97.96C102.02 40.8201 106.667 33.7753 106.667 23.8661C106.667 22.4008 105.473 21.2139 104 21.2139H95.7567C95.0467 16.566 92.2633 6.8756 81.37 0.374456C80.5267 -0.129457 79.47 -0.129457 78.6267 0.374456C67.7333 6.8756 64.9533 16.566 64.24 21.2139H55.9967C54.5233 21.2139 53.33 22.4008 53.33 23.8661C53.33 33.7753 57.9767 40.8201 62.0367 45.0835H61.33C59.8567 45.0835 58.6633 46.2703 58.6633 47.7357C58.6633 54.5418 62.46 60.2837 65.63 63.8907C61.3533 67.7728 58.6633 73.359 58.6633 79.5617C58.6633 79.6181 58.6667 79.6745 58.6667 79.7341C58.5567 79.7474 58.4467 79.7607 58.34 79.7772C58.31 74.8574 57.3 66.7683 51.69 61.1888C51.19 60.6915 50.51 60.413 49.8033 60.413C49.0967 60.413 48.4167 60.6915 47.9167 61.1888L47.4167 61.6861C47.2567 55.8182 45.5333 47.5666 38.49 40.5582C37.45 39.5239 35.76 39.5239 34.72 40.5582L28.8933 46.3565C25.0867 43.5717 16.23 38.6718 3.90667 41.7384C2.95 41.9771 2.20667 42.7164 1.96667 43.6679C-1.11333 55.9242 3.81 64.7361 6.61 68.5187L0.78 74.3171C-0.26 75.3514 -0.26 77.0322 0.78 78.0666C7.82667 85.0749 16.12 86.7856 22.0233 86.9447L21.5233 87.442C21.0233 87.9393 20.7433 88.6156 20.7433 89.3184C20.7433 90.0213 21.0233 90.6976 21.5233 91.1948C27.1367 96.7777 35.2667 97.7822 40.2133 97.8087C40.0767 98.7801 40 99.7746 40 100.782C40 112.482 49.57 122 61.3333 122C69.3567 122 76.36 117.567 80 111.04C83.64 117.567 90.6433 122 98.6667 122C110.43 122 120 112.482 120 100.782C120 99.7713 119.923 98.7801 119.787 97.8087C124.733 97.7789 132.867 96.7777 138.477 91.1948C138.977 90.6976 139.257 90.0213 139.257 89.3184C139.257 88.6156 138.977 87.9393 138.477 87.442L137.977 86.9447C143.877 86.7856 152.173 85.0716 159.22 78.0666C160.26 77.0322 160.26 75.3514 159.22 74.3171ZM64.2633 50.3911H69.3333C70.5333 50.3911 71.5833 49.5955 71.9033 48.4484C72.2233 47.298 71.7333 46.078 70.7067 45.4647C70.5933 45.3984 60.1467 39.0166 58.81 26.5216H66.67C68.1333 26.5216 69.3233 25.3347 69.3367 23.8793C69.34 23.4152 69.5567 12.8695 80.0033 5.79815C90.45 12.8695 90.6667 23.4152 90.67 23.8694C90.67 25.3347 91.8633 26.5216 93.3367 26.5216H101.197C99.89 38.9172 89.75 45.1896 89.2967 45.4647C88.27 46.078 87.78 47.298 88.1 48.4484C88.42 49.5955 89.47 50.3911 90.67 50.3911H95.74C94.8967 54.691 92.1933 58.3974 89.9833 60.8208C87.75 59.6406 85.2833 58.8449 82.67 58.5201V23.8694C82.67 22.4041 81.4767 21.2172 80.0033 21.2172C78.53 21.2172 77.3367 22.4041 77.3367 23.8694V58.5201C74.7233 58.8449 72.2567 59.6406 70.0233 60.8208C67.8133 58.3974 65.11 54.691 64.2667 50.3911H64.2633ZM80 63.652C88.8233 63.652 96 70.7897 96 79.5651C96 88.3404 88.8233 95.4781 80 95.4781C71.1767 95.4781 64 88.3404 64 79.5651C64 70.7897 71.1767 63.652 80 63.652ZM36.9033 92.3088C34.12 92.0004 30.4433 91.1882 27.3667 89.1328L30.95 85.5689C31.7967 84.7268 31.97 83.4306 31.3867 82.3929C30.8 81.3553 29.5867 80.8348 28.4267 81.1166C27.9033 81.2426 16.2733 83.9411 6.53667 76.094L12.0967 70.5642C13.13 69.5332 13.13 67.859 12.1033 66.8214C11.7767 66.4898 4.43333 58.8814 6.79 46.5322C19.2033 44.1884 26.8567 51.4918 27.18 51.8101C28.22 52.8444 29.91 52.8444 30.95 51.8101L36.51 46.2803C44.4 55.964 41.69 67.5308 41.5633 68.0447C41.2733 69.2017 41.7933 70.4084 42.8367 70.9952C43.88 71.582 45.19 71.4063 46.0367 70.5609L49.6233 66.9938C52.8533 71.7544 53.1 78.0533 52.98 81.2558C51.2833 81.9752 49.7033 82.9134 48.2633 84.0273L20.5533 56.4679C20.07 55.9872 19.4033 55.6922 18.6667 55.6922C17.1933 55.6922 16 56.879 16 58.3443C16 59.077 16.3 59.7401 16.78 60.2208L44.49 87.7802C43.37 89.2123 42.4267 90.7871 41.7033 92.4745C40.4767 92.5209 38.7967 92.5143 36.9033 92.3054V92.3088ZM61.3333 116.695C52.51 116.695 45.3333 109.558 45.3333 100.782C45.3333 92.6668 51.4733 85.9568 59.3767 84.9921C61.5733 93.2403 68.6467 99.526 77.33 100.61C77.33 100.666 77.33 100.726 77.33 100.782C77.33 109.558 70.1533 116.695 61.33 116.695H61.3333ZM98.6667 116.695C89.8433 116.695 82.6667 109.558 82.6667 100.782C82.6667 100.726 82.6667 100.666 82.6667 100.61C91.35 99.526 98.4233 93.2403 100.62 84.9921C108.523 85.9568 114.663 92.6668 114.663 100.782C114.663 109.558 107.487 116.695 98.6633 116.695H98.6667ZM131.58 81.1199C130.417 80.8282 129.203 81.3486 128.613 82.3863C128.023 83.424 128.2 84.7268 129.05 85.5689L132.637 89.1361C127.85 92.3485 121.513 92.5939 118.297 92.4745C117.573 90.7871 116.63 89.2157 115.51 87.7835L143.22 60.2241C143.703 59.7434 144 59.0803 144 58.3477C144 56.8823 142.807 55.6955 141.333 55.6955C140.597 55.6955 139.93 55.9939 139.447 56.4712L111.737 84.0307C110.297 82.9167 108.713 81.9785 107.017 81.2591C106.97 80.0391 106.977 78.3683 107.187 76.4852C107.497 73.717 108.313 70.0603 110.38 67.0004L113.963 70.5642C114.81 71.4063 116.113 71.5787 117.157 70.9985C118.2 70.4151 118.723 69.2116 118.44 68.0546C118.313 67.5341 115.603 55.9673 123.49 46.2836L129.05 51.8134C130.087 52.8411 131.77 52.8411 132.813 51.82C133.147 51.4951 140.793 44.1884 153.213 46.5355C155.57 58.8814 148.227 66.4931 147.907 66.8147C146.867 67.8491 146.867 69.5299 147.907 70.5642L153.467 76.094C143.73 83.9411 132.1 81.2459 131.583 81.1199H131.58Z" fill="black" fill-opacity="0.08"/>
</g>
<defs>
<clipPath id="clip0_75_72">
<rect width="160" height="122" fill="white"/>
</clipPath>
</defs>
</svg>
