<svg width="128" height="128" viewBox="0 0 128 128" fill="none" xmlns="http://www.w3.org/2000/svg">
<g clip-path="url(#clip0_75_70)">
<path d="M128 10.6667C128 7.13867 125.128 4.26667 121.6 4.26667H115.197C113.197 1.608 110.032 0 106.667 0C103.301 0 100.136 1.608 98.136 4.26667H98.1307C96.1307 1.608 92.9653 0 89.6 0C86.2347 0 83.0693 1.608 81.0693 4.26667H81.064C79.064 1.608 75.8987 0 72.5333 0C69.168 0 66.0027 1.608 64.0027 4.26667H63.9973C61.9973 1.608 58.832 0 55.4667 0C52.1013 0 48.936 1.608 46.936 4.26667H46.9307C44.9307 1.608 41.7653 0 38.4 0C35.0347 0 31.8693 1.608 29.8693 4.26667H29.864C27.864 1.608 24.6987 0 21.3333 0C17.968 0 14.8027 1.608 12.8027 4.26667H6.4C2.872 4.26667 0 7.13867 0 10.6667C0 12.304 0.618667 13.8 1.63467 14.9333C0.618667 16.0667 0 17.5627 0 19.2V32C0 33.1787 0.954667 34.1333 2.13333 34.1333H6.4C8.13067 34.1333 9.536 33.8587 10.6667 33.4107V110.933H6.4C2.872 110.933 0 113.805 0 117.333V121.6C0 125.128 2.872 128 6.4 128H121.6C125.128 128 128 125.128 128 121.6V117.333C128 113.805 125.128 110.933 121.6 110.933H117.333V33.4107C118.464 33.8587 119.869 34.1333 121.6 34.1333H125.867C127.045 34.1333 128 33.1787 128 32V19.2C128 17.5627 127.381 16.0667 126.365 14.9333C127.381 13.8 128 12.304 128 10.6667ZM6.4 8.53333H13.944C14.7067 8.53333 15.408 8.128 15.7893 7.46933C16.9333 5.49333 19.056 4.26667 21.3307 4.26667C23.6053 4.26667 25.7307 5.49333 26.872 7.46933C27.2533 8.128 27.9573 8.53333 28.7173 8.53333H31.0053C31.768 8.53333 32.4693 8.128 32.8507 7.46933C33.9947 5.49333 36.1173 4.26667 38.392 4.26667C40.6667 4.26667 42.792 5.49333 43.9333 7.46933C44.3147 8.128 45.0187 8.53333 45.7787 8.53333H48.0667C48.8293 8.53333 49.5307 8.128 49.912 7.46933C51.056 5.49333 53.1787 4.26667 55.4533 4.26667C57.728 4.26667 59.8533 5.49333 60.9947 7.46933C61.376 8.128 62.08 8.53333 62.84 8.53333H65.128C65.8907 8.53333 66.592 8.128 66.9733 7.46933C68.1173 5.49333 70.24 4.26667 72.5147 4.26667C74.7893 4.26667 76.9147 5.49333 78.056 7.46933C78.4373 8.128 79.1413 8.53333 79.9013 8.53333H82.1893C82.952 8.53333 83.6533 8.128 84.0347 7.46933C85.1787 5.49333 87.3013 4.26667 89.576 4.26667C91.8507 4.26667 93.976 5.49333 95.1173 7.46933C95.4987 8.128 96.2027 8.53333 96.9627 8.53333H99.2507C100.013 8.53333 100.715 8.128 101.096 7.46933C102.24 5.49333 104.363 4.26667 106.637 4.26667C108.912 4.26667 111.037 5.49333 112.179 7.46933C112.56 8.128 113.264 8.53333 114.024 8.53333H121.568C122.744 8.53333 123.701 9.49067 123.701 10.6667C123.701 11.8427 122.744 12.8 121.568 12.8H6.4C5.224 12.8 4.26667 11.8427 4.26667 10.6667C4.26667 9.49067 5.224 8.53333 6.4 8.53333ZM25.6 32.1387C26.9147 33.28 28.952 34.1333 32 34.1333C35.048 34.1333 37.0853 33.28 38.4 32.1387C39.7147 33.28 41.752 34.1333 44.8 34.1333C47.848 34.1333 49.8853 33.28 51.2 32.1387C52.5147 33.28 54.552 34.1333 57.6 34.1333C60.648 34.1333 62.6853 33.28 64 32.1387C65.3147 33.28 67.352 34.1333 70.4 34.1333C73.448 34.1333 75.4853 33.28 76.8 32.1387C78.1147 33.28 80.152 34.1333 83.2 34.1333C86.248 34.1333 88.2853 33.28 89.6 32.1387C90.9147 33.28 92.952 34.1333 96 34.1333C99.048 34.1333 101.085 33.28 102.4 32.1387C103.715 33.28 105.752 34.1333 108.8 34.1333C110.531 34.1333 111.936 33.8587 113.067 33.4107V38.4H14.9333V33.4107C16.064 33.8587 17.4693 34.1333 19.2 34.1333C22.248 34.1333 24.2853 33.28 25.6 32.1387ZM23.4667 27.6827C23.4667 27.6987 23.4667 27.7147 23.4667 27.7333C23.4667 27.7333 23.4667 27.7173 23.4667 27.6827ZM27.7333 27.6827C27.7333 27.7147 27.7333 27.7333 27.7333 27.7333C27.7333 27.7173 27.7333 27.7013 27.7333 27.6827ZM36.2667 27.6827C36.2667 27.6987 36.2667 27.7147 36.2667 27.7333C36.2667 27.7333 36.2667 27.7173 36.2667 27.6827ZM40.5333 27.6827C40.5333 27.7147 40.5333 27.7333 40.5333 27.7333C40.5333 27.7173 40.5333 27.7013 40.5333 27.6827ZM49.0667 27.6827C49.0667 27.6987 49.0667 27.7147 49.0667 27.7333C49.0667 27.7333 49.0667 27.7173 49.0667 27.6827ZM53.3333 27.6827C53.3333 27.7147 53.3333 27.7333 53.3333 27.7333C53.3333 27.7173 53.3333 27.7013 53.3333 27.6827ZM61.8667 27.6827C61.8667 27.6987 61.8667 27.7147 61.8667 27.7333C61.8667 27.7333 61.8667 27.7173 61.8667 27.6827ZM66.1333 27.6827C66.1333 27.7147 66.1333 27.7333 66.1333 27.7333C66.1333 27.7173 66.1333 27.7013 66.1333 27.6827ZM74.6667 27.6827C74.6667 27.6987 74.6667 27.7147 74.6667 27.7333C74.6667 27.7333 74.6667 27.7173 74.6667 27.6827ZM78.9333 27.6827C78.9333 27.7147 78.9333 27.7333 78.9333 27.7333C78.9333 27.7173 78.9333 27.7013 78.9333 27.6827ZM87.4667 27.6827C87.4667 27.6987 87.4667 27.7147 87.4667 27.7333C87.4667 27.7333 87.4667 27.7173 87.4667 27.6827ZM91.7333 27.6827C91.7333 27.7147 91.7333 27.7333 91.7333 27.7333C91.7333 27.7173 91.7333 27.7013 91.7333 27.6827ZM100.267 27.6827C100.267 27.6987 100.267 27.7147 100.267 27.7333C100.267 27.7333 100.267 27.7173 100.267 27.6827ZM104.533 27.6827C104.533 27.7147 104.533 27.7333 104.533 27.7333C104.533 27.7173 104.533 27.7013 104.533 27.6827ZM113.067 102.4H102.4V93.8667H113.067V102.4ZM51.2 110.933C51.2 101.056 54.712 96.216 64 84.4987C73.288 96.216 76.8 101.056 76.8 110.933H51.2ZM66.088 80.264L65.672 79.7413C65.2667 79.232 64.6533 78.9333 64 78.9333C63.3467 78.9333 62.7333 79.2293 62.328 79.7413L61.912 80.264C51.3173 93.6107 46.9333 99.136 46.9333 110.933H41.4853C39.464 107.144 38.4 102.747 38.4 98.1333C38.4 88.5173 41.408 81.9653 43.4293 78.648C46.1733 82.248 50.2107 83.544 50.424 83.6107C51.072 83.8107 51.776 83.6933 52.3227 83.2907C52.8693 82.888 53.192 82.2507 53.192 81.5733C53.192 66.8053 61.3973 61.32 64 59.952C66.6133 61.3253 74.8107 66.8133 74.8107 81.5733C74.8107 82.2507 75.1333 82.8907 75.68 83.2907C76.2267 83.6933 76.9307 83.8107 77.5787 83.6107C77.792 83.544 81.8293 82.248 84.5733 78.648C86.5973 81.968 89.6027 88.5173 89.6027 98.1333C89.6027 102.747 88.536 107.144 86.5173 110.933H81.0693C81.0693 99.136 76.6853 93.6107 66.0907 80.264H66.088ZM85.8987 73.2107C85.3893 72.6667 84.6347 72.4267 83.9067 72.576C83.1787 72.728 82.5787 73.248 82.3307 73.9493C81.6293 75.912 80.2187 77.2773 78.9387 78.1653C78.224 69.6613 74.9013 64.2133 72.064 61.04C68.5253 57.0827 64.92 55.6667 64.768 55.608C64.2747 55.4187 63.728 55.4187 63.2373 55.608C63.0853 55.6667 59.48 57.0827 55.9413 61.04C53.104 64.2133 49.784 69.6587 49.0667 78.1627C47.784 77.272 46.3733 75.9067 45.672 73.9493C45.4213 73.248 44.824 72.728 44.096 72.576C43.368 72.4267 42.6133 72.664 42.104 73.2107C41.7787 73.56 34.136 81.936 34.136 98.1333C34.136 102.659 35.0347 107.019 36.752 110.933H29.8693V76.8C29.8693 57.9787 45.1813 42.6667 64.0027 42.6667C82.824 42.6667 98.136 57.9787 98.136 76.8V110.933H91.2533C92.9707 107.019 93.8693 102.659 93.8693 98.1333C93.8693 81.936 86.224 73.56 85.9013 73.2107H85.8987ZM14.9333 42.6667H46.4213C42.2453 44.8267 38.5147 47.7307 35.4053 51.2H14.9333V42.6667ZM14.9333 55.4667H32.088C30.288 58.152 28.8187 61.0747 27.7333 64.1787V64H14.9333V55.4667ZM14.9333 68.2667H26.5573C25.9307 71.0133 25.6 73.8667 25.6 76.8H14.9333V68.2667ZM14.9333 81.0667H25.6V89.6H14.9333V81.0667ZM14.9333 93.8667H25.6V102.4H14.9333V93.8667ZM113.067 89.6H102.4V81.0667H113.067V89.6ZM113.067 76.8H102.4C102.4 73.8667 102.069 71.0133 101.443 68.2667H113.067V76.8ZM113.067 64H100.267V64.1787C99.184 61.0747 97.7147 58.152 95.912 55.4667H113.067V64ZM113.067 51.2H92.5947C89.4853 47.7307 85.7547 44.8267 81.5787 42.6667H113.067V51.2ZM113.067 27.7333C113.067 27.7333 113.067 27.7173 113.067 27.6827C113.067 27.6987 113.067 27.7147 113.067 27.7333ZM14.9333 27.7333C14.9333 27.7173 14.9333 27.7013 14.9333 27.6827C14.9333 27.7147 14.9333 27.7333 14.9333 27.7333ZM10.6667 27.7333C10.6667 27.7333 10.6667 27.7173 10.6667 27.6827C10.6667 27.6987 10.6667 27.7147 10.6667 27.7333ZM14.9333 106.667H25.6V110.933H14.9333V106.667ZM123.733 117.333V121.6C123.733 122.776 122.776 123.733 121.6 123.733H6.4C5.224 123.733 4.26667 122.776 4.26667 121.6V117.333C4.26667 116.157 5.224 115.2 6.4 115.2H121.6C122.776 115.2 123.733 116.157 123.733 117.333ZM102.4 110.933V106.667H113.067V110.933H102.4ZM117.333 27.7333C117.333 27.7173 117.333 27.7013 117.333 27.6827C117.333 27.7147 117.333 27.7333 117.333 27.7333ZM123.733 29.8667H121.6C117.704 29.8667 117.36 28.0667 117.333 27.68C117.307 26.5253 116.36 25.6 115.2 25.6C114.04 25.6 113.096 26.528 113.067 27.68C113.037 28.0667 112.696 29.8667 108.8 29.8667C104.904 29.8667 104.56 28.0667 104.533 27.68C104.507 26.5253 103.56 25.6 102.4 25.6C101.24 25.6 100.296 26.528 100.267 27.68C100.237 28.0667 99.896 29.8667 96 29.8667C92.104 29.8667 91.76 28.0667 91.7333 27.68C91.7067 26.5253 90.76 25.6 89.6 25.6C88.44 25.6 87.496 26.528 87.4667 27.68C87.4373 28.0667 87.096 29.8667 83.2 29.8667C79.304 29.8667 78.96 28.0667 78.9333 27.68C78.9067 26.5253 77.96 25.6 76.8 25.6C75.64 25.6 74.696 26.528 74.6667 27.68C74.6373 28.0667 74.296 29.8667 70.4 29.8667C66.504 29.8667 66.16 28.0667 66.1333 27.68C66.1067 26.5253 65.16 25.6 64 25.6C62.84 25.6 61.896 26.528 61.8667 27.68C61.8373 28.0667 61.4933 29.8667 57.6 29.8667C53.7067 29.8667 53.36 28.0667 53.3333 27.68C53.3067 26.5253 52.36 25.6 51.2 25.6C50.04 25.6 49.096 26.528 49.0667 27.68C49.0373 28.0667 48.6933 29.8667 44.8 29.8667C40.9067 29.8667 40.56 28.0667 40.5333 27.68C40.5067 26.5253 39.56 25.6 38.4 25.6C37.24 25.6 36.296 26.528 36.2667 27.68C36.2373 28.0667 35.8933 29.8667 32 29.8667C28.1067 29.8667 27.76 28.0667 27.7333 27.68C27.7067 26.5253 26.76 25.6 25.6 25.6C24.44 25.6 23.496 26.528 23.4667 27.68C23.4373 28.0667 23.0933 29.8667 19.2 29.8667C15.3067 29.8667 14.96 28.0667 14.9333 27.68C14.9067 26.5253 13.96 25.6 12.8 25.6C11.64 25.6 10.696 26.528 10.6667 27.68C10.6373 28.0667 10.2933 29.8667 6.4 29.8667H4.26667V19.2C4.26667 18.024 5.224 17.0667 6.4 17.0667H121.6C122.776 17.0667 123.733 18.024 123.733 19.2V29.8667Z" fill="#DA78AC" fill-opacity="0.2"/>
</g>
<defs>
<clipPath id="clip0_75_70">
<rect width="128" height="128" fill="white"/>
</clipPath>
</defs>
</svg>
