<svg width="130" height="140" viewBox="0 0 130 140" fill="none" xmlns="http://www.w3.org/2000/svg">
<g clip-path="url(#clip0_75_28)">
<path d="M123.036 4.66667H116.071C116.071 2.09417 113.988 0 111.429 0H106.786C104.226 0 102.143 2.09417 102.143 4.66667V18.6667C102.143 21.2392 104.226 23.3333 106.786 23.3333V116.909C102.639 117.784 99.2613 120.96 98.2022 125.224L97.5696 127.767C97.3955 128.465 97.5522 129.202 97.9933 129.768C98.4343 130.334 99.1075 130.667 99.8243 130.667H106.789V137.667C106.789 138.956 107.827 140 109.11 140C110.393 140 111.431 138.956 111.431 137.667V130.667H118.396C119.11 130.667 119.786 130.337 120.227 129.768C120.668 129.2 120.822 128.465 120.65 127.767L120.018 125.224C118.956 120.96 115.581 117.784 111.434 116.909V23.3333C113.994 23.3333 116.077 21.2392 116.077 18.6667H123.041C126.881 18.6667 130.006 15.5254 130.006 11.6667C130.006 7.80792 126.881 4.66667 123.041 4.66667H123.036ZM115.41 126H102.804C103.655 123.235 106.197 121.333 109.107 121.333C112.018 121.333 114.557 123.235 115.41 126ZM111.429 18.6667H106.786V4.66667H111.429V18.6667ZM123.036 14H116.071V9.33333H123.036C124.315 9.33333 125.357 10.3804 125.357 11.6667C125.357 12.9529 124.315 14 123.036 14Z" fill="#DA78AC" fill-opacity="0.2"/>
<path d="M31.7978 125.224C30.7357 120.96 27.3609 117.784 23.2143 116.909V23.3333C25.7737 23.3333 27.8571 21.2392 27.8571 18.6667V4.66667C27.8571 2.09417 25.7737 0 23.2143 0H18.5714C16.0121 0 13.9286 2.09417 13.9286 4.66667H6.96429C3.12522 4.66667 0 7.80792 0 11.6667C0 15.5254 3.12522 18.6667 6.96429 18.6667H13.9286C13.9286 21.2392 16.0121 23.3333 18.5714 23.3333V116.909C14.4248 117.784 11.0471 120.96 9.98795 125.224L9.35536 127.767C9.18125 128.465 9.33795 129.202 9.77902 129.768C10.2201 130.334 10.8933 130.667 11.61 130.667H18.5743V137.667C18.5743 138.956 19.6132 140 20.8958 140C22.1784 140 23.2172 138.956 23.2172 137.667V130.667H30.1815C30.8953 130.667 31.5714 130.337 32.0125 129.768C32.4536 129.2 32.6074 128.465 32.4362 127.767L31.8036 125.224H31.7978ZM13.9286 14H6.96429C5.6846 14 4.64286 12.9529 4.64286 11.6667C4.64286 10.3804 5.6846 9.33333 6.96429 9.33333H13.9286V14ZM18.5714 4.66667H23.2143V18.6667H18.5714V4.66667ZM14.5902 126C15.4404 123.235 17.9824 121.333 20.8929 121.333C23.8034 121.333 26.3424 123.235 27.1955 126H14.5902Z" fill="#DA78AC" fill-opacity="0.2"/>
<path d="M99.7025 87.9287C99.4123 87.0537 96.7078 79.4296 90.646 79.3363C90.5764 76.4662 90.5357 73.3775 90.5357 70C90.5357 63.8429 90.6692 58.5142 90.8723 53.6579C92.7469 53.5646 95.3469 52.6633 97.6886 49.1283C99.006 47.1421 99.6735 45.1558 99.6996 45.0712C99.7779 44.8379 99.8185 44.59 99.8185 44.3333C99.8185 43.0442 98.7797 42 97.4971 42C96.4728 42 95.6081 42.6679 95.2976 43.5896C94.8623 44.8817 93.2257 48.3758 91.0958 48.9242C91.3018 45.0742 91.5397 41.475 91.7748 37.9283C92.329 29.5925 92.8543 21.7204 92.8543 11.6667C92.8543 5.2325 87.6485 0 81.2471 0C74.8458 0 69.64 5.2325 69.64 11.6667C69.64 21.7175 70.1652 29.5925 70.7194 37.9283C70.9545 41.4779 71.1953 45.0742 71.3985 48.9242C69.2686 48.3758 67.6319 44.8817 67.1967 43.5896C66.8891 42.665 66.0215 42 64.9971 42C63.9728 42 63.1081 42.6679 62.7976 43.5896C62.3623 44.8817 60.7257 48.3758 58.5958 48.9242C58.8018 45.0742 59.0398 41.475 59.2748 37.9283C59.829 29.5925 60.3543 21.7204 60.3543 11.6667C60.3543 5.2325 55.1485 0 48.7471 0C42.3458 0 37.14 5.2325 37.14 11.6667C37.14 21.7175 37.6652 29.5925 38.2194 37.9283C38.4545 41.4779 38.6953 45.0742 38.8985 48.9242C36.7685 48.3758 35.1319 44.8817 34.6996 43.5954C34.392 42.6679 33.5244 42 32.4971 42C31.2145 42 30.1757 43.0442 30.1757 44.3333C30.1757 44.59 30.2192 44.8379 30.2947 45.0712C30.3237 45.1558 30.9882 47.1421 32.3056 49.1283C34.6502 52.6633 37.2502 53.5675 39.1219 53.6579C39.325 58.5142 39.4585 63.8429 39.4585 70C39.4585 73.3804 39.4179 76.4692 39.3482 79.3363C33.2893 79.4296 30.5819 87.0537 30.2918 87.9287C30.2134 88.1621 30.1728 88.41 30.1728 88.6667C30.1728 89.9558 31.2116 91 32.4942 91C33.5185 91 34.3891 90.3321 34.6967 89.4046C35.0623 88.3021 36.8614 84.2946 39.2031 84.0175C38.9623 90.3467 38.5851 95.6317 38.2165 100.809C37.6623 108.593 37.1371 115.943 37.1371 126.003V128.336C37.1371 134.77 42.3429 140.003 48.7442 140.003C55.1456 140.003 60.3514 134.77 60.3514 128.336V126.003C60.3514 115.946 59.8261 108.593 59.2719 100.809C58.9034 95.6317 58.5261 90.3467 58.2853 84.0175C60.5632 84.2858 62.3362 88.0571 62.7918 89.4046C63.0993 90.3321 63.967 91 64.9942 91C66.0215 91 66.8891 90.3321 67.1967 89.4046C67.5623 88.3021 69.3614 84.2946 71.7031 84.0175C71.4623 90.3467 71.0851 95.6317 70.7165 100.809C70.1623 108.593 69.6371 115.943 69.6371 126.003V128.336C69.6371 134.77 74.8429 140.003 81.2442 140.003C87.6456 140.003 92.8514 134.77 92.8514 128.336V126.003C92.8514 115.946 92.3261 108.593 91.7719 100.809C91.4034 95.6317 91.0261 90.3467 90.7853 84.0175C93.0632 84.2858 94.8362 88.0571 95.2918 89.4104C95.5993 90.335 96.467 91 97.4913 91C98.7739 91 99.8127 89.9558 99.8127 88.6667C99.8127 88.41 99.7692 88.1621 99.6938 87.9287H99.7025ZM87.1465 101.141C87.2712 102.894 87.396 104.627 87.5121 106.371L75.2346 102.845C75.2752 102.279 75.3159 101.71 75.3565 101.141C75.7337 95.865 76.1168 90.4779 76.3576 84H86.1453C86.3862 90.4779 86.7721 95.865 87.1465 101.141ZM85.8929 70H76.6072C76.6072 67.5412 76.5868 65.2167 76.5491 63H85.9538C85.9161 65.2167 85.8958 67.5412 85.8958 70H85.8929ZM86.0612 58.3333H76.4418C76.3953 56.7233 76.3402 55.1746 76.2764 53.6667H86.2266C86.1656 55.1746 86.1076 56.7233 86.0612 58.3333ZM87.5759 23.2429C87.7036 23.2779 87.8342 23.3042 87.9706 23.3187C87.8429 26.425 87.6746 29.4 87.4889 32.3633L74.7935 28.7175C74.6252 25.7337 74.486 22.6829 74.396 19.4571L87.5759 23.2429ZM87.1784 37.1292C87.1668 37.2925 87.1581 37.4529 87.1465 37.6162C86.9027 41.2854 86.656 45.0042 86.4442 49H76.0558C75.8469 45.0042 75.5973 41.2854 75.3536 37.6162C75.2665 36.2892 75.1766 34.9738 75.0924 33.6583L87.1784 37.1292ZM74.9241 116.757C74.7703 116.716 74.6136 116.687 74.4482 116.675C74.5614 113.482 74.721 110.512 74.9096 107.607L87.8139 111.312C87.9706 114.22 88.0953 117.253 88.1621 120.557L74.927 116.757H74.9241ZM76.4998 79.3333C76.5346 77.84 76.5636 76.2883 76.581 74.6667H85.919C85.9364 76.2883 85.9654 77.84 86.0002 79.3333H76.4969H76.4998ZM81.25 4.66667C85.0891 4.66667 88.2143 7.80792 88.2143 11.6667C88.2143 14.0729 88.1824 16.3537 88.1301 18.55L74.3031 14.5804C74.2944 13.6267 74.2857 12.6612 74.2857 11.6696C74.2857 7.81083 77.411 4.66958 81.25 4.66958V4.66667ZM42.1891 111.312L55.0933 107.607C55.279 110.512 55.4415 113.485 55.5547 116.675C55.3922 116.687 55.2326 116.713 55.0788 116.757L41.8438 120.557C41.9105 117.253 42.0353 114.22 42.192 111.312H42.1891ZM54.6465 101.141C54.6871 101.71 54.7277 102.279 54.7683 102.845L42.4909 106.371C42.6069 104.627 42.7288 102.894 42.8565 101.141C43.2337 95.865 43.6168 90.4779 43.8576 84H53.6453C53.8862 90.4779 54.2721 95.865 54.6465 101.141ZM43.9998 79.3333C44.0346 77.84 44.0636 76.2883 44.081 74.6667H53.419C53.4364 76.2883 53.4654 77.84 53.5002 79.3333H43.9969H43.9998ZM54.6465 37.6162C54.4027 41.2854 54.156 45.0042 53.9442 49H43.5558C43.3469 45.0042 43.0973 41.2854 42.8536 37.6162C42.842 37.4529 42.8333 37.2925 42.8217 37.1292L54.9076 33.6583C54.8235 34.9738 54.7364 36.2892 54.6465 37.6162ZM53.3929 70H44.1072C44.1072 67.5412 44.0869 65.2167 44.0491 63H53.4538C53.4161 65.2167 53.3958 67.5412 53.3958 70H53.3929ZM53.5612 58.3333H43.9418C43.8953 56.7233 43.8402 55.1746 43.7764 53.6667H53.7266C53.6656 55.1746 53.6076 56.7233 53.5612 58.3333ZM55.2065 28.7204L42.5112 32.3662C42.3255 29.4029 42.1572 26.4279 42.0295 23.3217C42.1659 23.3071 42.2964 23.2808 42.4241 23.2429L55.604 19.46C55.5141 22.6858 55.3748 25.7367 55.2065 28.7204ZM48.75 4.66667C52.5891 4.66667 55.7143 7.80792 55.7143 11.6667C55.7143 12.6583 55.7085 13.6237 55.6969 14.5775L41.8699 18.5471C41.8148 16.3508 41.7857 14.0729 41.7857 11.6637C41.7857 7.805 44.911 4.66375 48.75 4.66375V4.66667ZM55.7143 128.333C55.7143 132.192 52.5891 135.333 48.75 135.333C44.911 135.333 41.7857 132.192 41.7857 128.333V126C41.7857 125.805 41.7857 125.618 41.7857 125.425L55.6737 121.438C55.6969 122.902 55.7143 124.413 55.7143 126V128.333ZM65 83.5683C63.5317 81.4596 61.2915 79.3858 58.146 79.3392C58.0764 76.4692 58.0357 73.3804 58.0357 70.0029C58.0357 63.8458 58.1692 58.5171 58.3723 53.6608C60.1947 53.5704 62.7047 52.7129 65 49.4083C67.2924 52.71 69.8025 53.5704 71.6277 53.6608C71.8308 58.5171 71.9643 63.8458 71.9643 70.0029C71.9643 73.3833 71.9237 76.4721 71.854 79.3392C68.7085 79.3887 66.4683 81.4596 65 83.5683ZM88.2143 128.333C88.2143 132.192 85.0891 135.333 81.25 135.333C77.411 135.333 74.2857 132.192 74.2857 128.333V126C74.2857 124.413 74.3002 122.902 74.3264 121.438L88.2143 125.425C88.2143 125.618 88.2143 125.805 88.2143 126V128.333Z" fill="#DA78AC" fill-opacity="0.2"/>
</g>
<defs>
<clipPath id="clip0_75_28">
<rect width="130" height="140" fill="white"/>
</clipPath>
</defs>
</svg>
