<svg width="123" height="127" viewBox="0 0 123 127" fill="none" xmlns="http://www.w3.org/2000/svg">
<g id="Snowflake 1">
<path id="Vector" d="M120.423 57.2969C121.852 57.2969 123.002 56.1169 123.002 54.6504C123.002 53.1838 121.852 52.0039 120.423 52.0039H98.587L89.8438 60.9783L84.6563 60.9466L81.2548 60.93L85.7896 55.9086C85.8004 55.8975 85.8107 55.887 85.8204 55.877C85.8513 55.8453 85.8821 55.797 85.913 55.7653C85.9292 55.7336 85.96 55.702 85.9747 55.6853C86.0055 55.6536 86.0217 55.6053 86.0526 55.557C86.0672 55.5253 86.0997 55.4936 86.1143 55.462C86.1451 55.4137 86.1614 55.382 86.176 55.3337C86.1922 55.302 86.2068 55.2703 86.2231 55.2387C86.2393 55.1903 86.2539 55.1587 86.2702 55.1103C86.2864 55.0787 86.301 55.047 86.3172 54.9987C86.3335 54.9504 86.3481 54.9187 86.3481 54.8704C86.3643 54.8387 86.3789 54.7904 86.3789 54.7587C86.3952 54.7104 86.3952 54.6787 86.4098 54.6304C86.426 54.582 86.426 54.5504 86.4406 54.5021C86.4406 54.4704 86.4569 54.4221 86.4569 54.3904C86.4569 54.3421 86.4731 54.2954 86.4731 54.2471V53.9754C86.4731 53.9271 86.4731 53.8954 86.4569 53.8471C86.4569 53.7988 86.4569 53.7671 86.4406 53.7188C86.4406 53.6704 86.4244 53.6238 86.4098 53.5754C86.4098 53.5438 86.3936 53.4954 86.3789 53.4638C86.3627 53.4155 86.3481 53.3688 86.3481 53.3355C86.3335 53.3038 86.3335 53.2555 86.3172 53.2238C86.301 53.1755 86.2864 53.1438 86.2702 53.0955C86.2539 53.0471 86.2393 53.0155 86.2231 52.9838C86.2068 52.9521 86.1922 52.9038 86.176 52.8722C86.1598 52.8238 86.1289 52.7922 86.1143 52.7438C86.0981 52.7122 86.0672 52.6805 86.0526 52.6488C86.0217 52.6172 86.0055 52.5688 85.9747 52.5372C85.9438 52.5055 85.9276 52.4738 85.8967 52.4422C85.8659 52.4105 85.8496 52.3789 85.8188 52.3472C85.7879 52.3155 85.7571 52.2839 85.71 52.2355C85.6938 52.2189 85.6629 52.1872 85.6483 52.1722L85.6321 52.1555C85.585 52.1239 85.5541 52.0922 85.507 52.0439C85.4762 52.0272 85.46 51.9955 85.4291 51.9805C85.382 51.9489 85.3512 51.9172 85.3041 51.8856C85.2732 51.8689 85.2424 51.8539 85.2262 51.8222C85.1791 51.7906 85.1482 51.7739 85.1028 51.7589C85.0719 51.7422 85.0411 51.7272 85.0102 51.7106C84.9631 51.6939 84.9323 51.6789 84.8852 51.6622C84.8543 51.6456 84.8073 51.6306 84.7764 51.6139C84.7456 51.5972 84.6985 51.5822 84.6514 51.5822C84.6043 51.5656 84.5735 51.5506 84.528 51.5506C84.4971 51.5339 84.4501 51.5339 84.4192 51.5339C84.3721 51.5172 84.3267 51.5172 84.2796 51.5022C84.2487 51.5022 84.2179 51.5022 84.1708 51.4856C84.1237 51.4856 84.062 51.4689 84.0149 51.4689H83.9987L77.2119 51.1973L83.3768 44.9327H111.394C112.823 44.9327 113.973 43.7528 113.973 42.2862C113.973 40.8196 112.823 39.6397 111.394 39.6397H100.912L111.193 29.087C112.203 28.0504 112.203 26.3772 111.193 25.3406C110.183 24.304 108.553 24.304 107.543 25.3406L93.5814 39.623H88.5497L93.8606 34.2184C94.8706 33.1818 94.8852 31.5085 93.8769 30.4719C92.8832 29.4354 91.2369 29.4204 90.227 30.4553L84.8543 35.9233V30.6619L98.7851 16.3629C99.795 15.3263 99.795 13.653 98.7851 12.6164C97.7752 11.5798 96.1451 11.5798 95.1352 12.6164L84.8543 23.1691V12.7281C84.8543 11.2615 83.7048 10.0816 82.276 10.0816C80.8472 10.0816 79.6977 11.2615 79.6977 12.7281V41.1663L76.0007 44.9127L73.6091 47.3842L73.3444 40.5296V40.513C73.3444 40.4646 73.3282 40.4013 73.3282 40.353C73.3282 40.3213 73.3282 40.2896 73.3119 40.258C73.3119 40.2096 73.2957 40.1463 73.2811 40.098C73.2811 40.0663 73.2648 40.0347 73.2648 40.003C73.2486 39.9547 73.234 39.8913 73.2178 39.843C73.2015 39.8113 73.2015 39.7797 73.1869 39.763C73.1707 39.6997 73.1398 39.6514 73.1252 39.588C73.109 39.5714 73.109 39.5397 73.0944 39.5247C73.0635 39.4614 73.0327 39.413 73.0018 39.3497C72.9856 39.333 72.9856 39.318 72.971 39.2864C72.9401 39.238 72.9093 39.1914 72.8784 39.1431C72.8622 39.1264 72.8476 39.0947 72.8313 39.0797C72.8005 39.0314 72.7696 38.9847 72.7226 38.9514C72.7063 38.9347 72.6917 38.9031 72.6609 38.8881C72.65 38.877 72.6446 38.8664 72.6446 38.8564C72.6138 38.8247 72.5829 38.7931 72.5521 38.7614C72.5358 38.7447 72.5212 38.7297 72.4904 38.6981C72.4433 38.6497 72.3978 38.6181 72.3507 38.5698C72.3345 38.5531 72.3199 38.5381 72.3037 38.5214C72.2566 38.4898 72.1949 38.4414 72.1478 38.4098C72.1316 38.3931 72.1169 38.3931 72.1007 38.3781C72.0536 38.3464 71.9919 38.3148 71.9302 38.2831C71.914 38.2664 71.8994 38.2664 71.8685 38.2514C71.8214 38.2198 71.7597 38.2031 71.7127 38.1714C71.6818 38.1548 71.6656 38.1548 71.6347 38.1398C71.5876 38.1231 71.5259 38.1081 71.4789 38.0915C71.448 38.0748 71.4172 38.0748 71.3863 38.0598C71.3392 38.0431 71.2938 38.0431 71.2467 38.0281C71.2158 38.0281 71.1687 38.0115 71.1379 38.0115C71.0908 38.0115 71.0453 37.9948 70.9983 37.9948C70.9674 37.9948 70.9203 37.9948 70.8895 37.9781H70.6248C70.5777 37.9781 70.5323 37.9948 70.4852 37.9948C70.4543 37.9948 70.4073 37.9948 70.3764 38.0115C70.3293 38.0115 70.2839 38.0281 70.2368 38.0431C70.2059 38.0598 70.1588 38.0598 70.128 38.0748C70.0809 38.0915 70.0501 38.1065 70.003 38.1065C69.9559 38.1231 69.925 38.1381 69.8796 38.1381C69.8487 38.1548 69.8016 38.1698 69.7708 38.1864C69.7237 38.2031 69.6929 38.2181 69.6474 38.2348C69.6165 38.2514 69.5857 38.2664 69.5548 38.2831C69.5078 38.2998 69.4769 38.3314 69.4298 38.3464C69.399 38.3631 69.3681 38.3781 69.3373 38.4098C69.2902 38.4414 69.2593 38.4731 69.2123 38.4898C69.1814 38.5064 69.1652 38.5381 69.1343 38.5531C69.0872 38.5848 69.0564 38.6164 69.0109 38.6481L68.9947 38.6647L64.0101 43.3994L64.0572 34.505L72.8167 25.5139V3.1454C72.8167 1.67882 71.6672 0.498901 70.2384 0.498901C68.8096 0.498901 67.6601 1.67882 67.6601 3.1454V23.3741L64.1043 27.0238L64.1352 19.356C64.1352 17.8894 63.0019 16.7095 61.5731 16.6945H61.5568C60.1426 16.6945 58.9785 17.8744 58.9785 19.3243L58.9476 27.0872L55.3286 23.3724V3.1454C55.3286 1.67882 54.179 0.498901 52.7502 0.498901C51.3214 0.498901 50.1719 1.67882 50.1719 3.1454V25.5589L58.9152 34.5334L58.8843 39.858L58.8681 43.3494L53.9761 38.6947L53.9598 38.6781C53.929 38.6464 53.8819 38.6148 53.8364 38.5831C53.8056 38.5664 53.7894 38.5348 53.7585 38.5198C53.7114 38.4881 53.6806 38.4564 53.6335 38.4248C53.6026 38.4081 53.5718 38.3931 53.5556 38.3614C53.5085 38.3298 53.4776 38.3131 53.4305 38.2981C53.3997 38.2814 53.3688 38.2664 53.338 38.2498C53.2909 38.2331 53.2601 38.2181 53.2146 38.2014C53.1838 38.1848 53.1367 38.1698 53.1058 38.1531C53.0587 38.1364 53.0279 38.1214 52.9824 38.1214C52.9353 38.1048 52.9045 38.0898 52.8574 38.0898C52.8265 38.0731 52.7795 38.0731 52.7486 38.0731C52.7015 38.0565 52.6561 38.0565 52.609 38.0415C52.5781 38.0415 52.531 38.0415 52.5002 38.0248C52.4531 38.0248 52.4077 38.0081 52.3443 38.0081H52.0797C52.0488 38.0081 52.0017 38.0081 51.9709 38.0248C51.9238 38.0248 51.8783 38.0415 51.815 38.0415C51.7842 38.0415 51.7533 38.0581 51.7062 38.0581C51.6592 38.0748 51.6137 38.0748 51.5666 38.0898C51.5358 38.1064 51.5049 38.1065 51.4741 38.1214C51.427 38.1381 51.3815 38.1531 51.3344 38.1698C51.3036 38.1864 51.2727 38.1864 51.2565 38.2014C51.2094 38.2181 51.164 38.2498 51.1006 38.2648C51.0698 38.2814 51.0535 38.2964 51.0227 38.2964C50.9756 38.3281 50.9301 38.3448 50.8831 38.3764C50.8522 38.3931 50.836 38.4081 50.8051 38.4248C50.758 38.4564 50.7126 38.4881 50.6655 38.5198C50.6346 38.5364 50.6184 38.5681 50.5876 38.5831C50.5567 38.6148 50.5096 38.6464 50.4788 38.6781C50.4479 38.7097 50.4171 38.7414 50.3862 38.7731C50.3554 38.8047 50.3391 38.8214 50.3083 38.8531L50.2921 38.8697C50.2612 38.9014 50.2304 38.9497 50.1995 38.9814C50.1687 39.0131 50.1524 39.0447 50.1216 39.0764C50.0907 39.1081 50.0745 39.1564 50.0436 39.2047C50.0274 39.2364 49.9966 39.268 49.9819 39.2997C49.9657 39.348 49.9349 39.3797 49.9202 39.428C49.904 39.4597 49.8894 39.4914 49.8732 39.5397C49.8569 39.5714 49.8423 39.6197 49.8261 39.668C49.8098 39.6997 49.7952 39.748 49.779 39.7797C49.7628 39.8113 49.7628 39.8597 49.7481 39.8913C49.7319 39.9397 49.7173 39.9863 49.7173 40.0197C49.7011 40.0513 49.7011 40.083 49.7011 40.1313C49.6848 40.1796 49.6848 40.2263 49.6702 40.2913C49.6702 40.323 49.6702 40.3546 49.654 40.3863C49.654 40.4346 49.6377 40.498 49.6377 40.5463V40.563L49.3731 47.5458L43.2698 41.2179V12.7414C43.2698 11.2749 42.1203 10.0949 40.6915 10.0949C39.2627 10.0949 38.1132 11.2749 38.1132 12.7414V23.1991L27.8323 12.6464C26.8224 11.6098 25.1923 11.6098 24.1824 12.6464C23.1725 13.683 23.1725 15.3563 24.1824 16.3929L38.1132 30.6919V35.8566L32.8477 30.4053C31.8541 29.3687 30.2077 29.3537 29.1978 30.3886C28.1879 31.4252 28.1733 33.0984 29.1816 34.135L34.5087 39.6513H29.3845L15.4537 25.3523C14.4438 24.3157 12.8137 24.3157 11.8038 25.3523C10.7939 26.3889 10.7939 28.0621 11.8038 29.0987L22.0847 39.6513H12.2081C10.7793 39.6513 9.62977 40.8313 9.62977 42.2978C9.62977 43.7644 10.7793 44.9443 12.2081 44.9443H39.6199L43.2698 48.7391L45.6615 51.2256L38.9997 51.4972H38.9688C38.9217 51.4972 38.8763 51.5139 38.8292 51.5139C38.7984 51.5139 38.7513 51.5139 38.7204 51.5306C38.6733 51.5306 38.6279 51.5472 38.5808 51.5622C38.5337 51.5789 38.5029 51.5789 38.4558 51.5939C38.4087 51.6106 38.3778 51.6106 38.347 51.6256C38.2999 51.6422 38.2691 51.6572 38.222 51.6572C38.1911 51.6739 38.1603 51.6889 38.1132 51.7056C38.0661 51.7222 38.0206 51.7372 37.9882 51.7539C37.9573 51.7706 37.9265 51.7856 37.8956 51.8022C37.8485 51.8189 37.8031 51.8506 37.7706 51.8656C37.7397 51.8822 37.7089 51.8972 37.6927 51.9289C37.6456 51.9605 37.6001 51.9922 37.5676 52.0239C37.5368 52.0405 37.5206 52.0722 37.4897 52.0872C37.4426 52.1189 37.4118 52.1505 37.3647 52.1989L37.3484 52.2155C37.3322 52.2322 37.3014 52.2639 37.2868 52.2789C37.2559 52.3105 37.2251 52.3422 37.178 52.3905C37.1471 52.4222 37.1163 52.4538 37.1 52.4855C37.0692 52.5172 37.0529 52.5488 37.0221 52.5805C36.9912 52.6122 36.975 52.6605 36.9442 52.6922C36.9279 52.7238 36.8971 52.7555 36.8825 52.7872C36.8662 52.8188 36.8354 52.8672 36.8208 52.9155C36.8045 52.9471 36.7899 52.9788 36.7737 53.0271C36.7574 53.0588 36.7428 53.1071 36.7266 53.1388C36.7104 53.1871 36.6957 53.2188 36.6795 53.2671C36.6633 53.2988 36.6487 53.3471 36.6487 53.3788C36.6324 53.4271 36.6178 53.4738 36.6178 53.5071C36.6016 53.5388 36.6016 53.5871 36.587 53.6188C36.5707 53.6671 36.5707 53.7138 36.5561 53.7621C36.5561 53.8104 36.5399 53.8421 36.5399 53.8904C36.5399 53.9388 36.5236 53.9704 36.5236 54.0187V54.2737C36.5236 54.3221 36.5236 54.3687 36.5399 54.4171C36.5399 54.4487 36.5399 54.4971 36.5561 54.5287C36.5561 54.577 36.5723 54.6237 36.587 54.657C36.6032 54.7054 36.6032 54.737 36.6178 54.7854C36.634 54.817 36.634 54.8654 36.6487 54.897C36.6649 54.9454 36.6795 54.977 36.6795 55.0253C36.6957 55.057 36.7104 55.1053 36.7266 55.137C36.7428 55.1853 36.7574 55.217 36.7737 55.2653C36.7899 55.297 36.8045 55.3287 36.8208 55.3603C36.837 55.4087 36.8679 55.4403 36.8825 55.4887C36.8987 55.5203 36.9296 55.552 36.9442 55.5836C36.975 55.632 36.9912 55.6636 37.0221 55.712C37.0383 55.7436 37.0692 55.7753 37.0838 55.792C37.1146 55.8236 37.1455 55.872 37.1763 55.9036L37.2072 55.9353L41.8199 61.0516L33.1546 61.0033L24.3951 52.0122H2.57833C1.14953 52.0122 0 53.1921 0 54.6587C0 56.1253 1.14953 57.3052 2.57833 57.3052H22.286L25.8418 60.955L18.3714 60.9233H18.3552C16.9426 60.9233 15.7768 62.1032 15.7768 63.5531C15.7768 65.003 16.9101 66.1996 18.3389 66.2146L25.9018 66.2463L22.2828 69.961H2.57833C1.14953 69.961 0 71.141 0 72.6075C0 74.0741 1.14953 75.254 2.57833 75.254H24.4146L33.1578 66.2796L38.3454 66.3113L41.7469 66.3279L37.2121 71.3493L37.1958 71.366C37.165 71.3976 37.1341 71.4459 37.1033 71.4776C37.0724 71.5093 37.0562 71.5409 37.0253 71.5726C36.9945 71.6043 36.9783 71.6526 36.9474 71.6843C36.9312 71.7159 36.9003 71.7476 36.8857 71.7959C36.8695 71.8276 36.8549 71.8593 36.824 71.9076C36.8078 71.9559 36.7769 71.9876 36.7623 72.0342C36.7461 72.0659 36.7315 72.0976 36.7152 72.1292C36.699 72.1776 36.6844 72.2242 36.6681 72.2576C36.6519 72.2892 36.6519 72.3209 36.6373 72.3692L36.5902 72.5125C36.574 72.5442 36.574 72.5759 36.574 72.6075C36.5577 72.6559 36.5577 72.7025 36.5431 72.7675C36.5431 72.7992 36.5431 72.8309 36.5269 72.8625C36.5269 72.9109 36.5107 72.9742 36.5107 73.0225V73.2608C36.5107 73.3092 36.5107 73.3408 36.5269 73.3892C36.5269 73.4375 36.5431 73.4691 36.5431 73.5175C36.5431 73.5658 36.5594 73.6125 36.574 73.6608C36.574 73.6925 36.5902 73.7408 36.6048 73.7725C36.6211 73.8208 36.6357 73.8675 36.6357 73.8991C36.6519 73.9308 36.6519 73.9791 36.6665 74.0108C36.6828 74.0591 36.6974 74.0908 36.7136 74.1391C36.7298 74.1874 36.7445 74.2191 36.7607 74.2658C36.7769 74.2974 36.7915 74.3291 36.8078 74.3774C36.824 74.4258 36.8549 74.4574 36.8695 74.5041C36.8857 74.5357 36.9166 74.5674 36.9312 74.5991C36.962 74.6307 36.9783 74.6791 37.0091 74.7107C37.04 74.7424 37.0562 74.7741 37.087 74.8057C37.1179 74.8374 37.1341 74.8691 37.165 74.9007C37.1958 74.9324 37.2267 74.9641 37.2575 75.0124C37.2738 75.029 37.3046 75.0607 37.3192 75.0757L37.3355 75.0924C37.3663 75.124 37.3972 75.1557 37.428 75.1724C37.4589 75.204 37.4897 75.2207 37.5206 75.2524C37.5514 75.284 37.5823 75.3007 37.6131 75.3157C37.644 75.3474 37.691 75.364 37.7219 75.3957C37.7527 75.4124 37.7836 75.4274 37.8144 75.459C37.8615 75.4757 37.8924 75.5073 37.9394 75.5223C37.9703 75.539 38.0011 75.554 38.032 75.5707C38.0791 75.5873 38.1099 75.6023 38.157 75.619C38.1879 75.6357 38.2187 75.6507 38.2658 75.6507C38.3129 75.6657 38.3583 75.6823 38.3908 75.699C38.4217 75.7157 38.4688 75.7157 38.4996 75.7307C38.5467 75.7473 38.5922 75.7473 38.6392 75.7623C38.6701 75.7623 38.7009 75.779 38.748 75.779C38.7951 75.779 38.8406 75.7957 38.8877 75.7957H38.9494L45.7361 76.0673L39.5712 82.3319H12.2227C10.7939 82.3319 9.64439 83.5118 9.64439 84.9784C9.64439 86.445 10.7939 87.6249 12.2227 87.6249H22.1155L11.8347 98.1775C10.8248 99.2141 10.8248 100.887 11.8347 101.924C12.3315 102.434 12.9988 102.706 13.6515 102.706C14.3042 102.706 14.9715 102.451 15.4684 101.924L29.3991 87.6249H34.4308L29.1199 93.0295C28.11 94.0661 28.0954 95.7394 29.1036 96.776C30.1135 97.8126 31.7437 97.8276 32.7536 96.7926L38.1278 91.3246V96.586L24.197 110.885C23.1871 111.922 23.1871 113.595 24.197 114.631C24.6938 115.141 25.3612 115.413 26.0139 115.413C26.6666 115.413 27.3339 115.158 27.8307 114.631L38.1116 104.079V114.536C38.1116 116.003 39.2611 117.183 40.6899 117.183C42.1187 117.183 43.2682 116.003 43.2682 114.536V86.0983L46.9652 82.3519L49.1555 80.1354V86.8149C49.1555 86.8466 49.1555 86.8949 49.1717 86.9266C49.1717 86.9749 49.188 87.0216 49.188 87.0699C49.188 87.1183 49.2042 87.1499 49.2042 87.1982C49.2205 87.2466 49.2205 87.2782 49.2351 87.3249C49.2513 87.3732 49.2513 87.4049 49.2659 87.4532C49.2822 87.5016 49.2968 87.5332 49.313 87.5816C49.3292 87.6299 49.3439 87.6616 49.3601 87.7082C49.3763 87.7399 49.3909 87.7882 49.4072 87.8199C49.4234 87.8682 49.438 87.8999 49.4689 87.9315C49.4851 87.9632 49.516 87.9949 49.5306 88.0265C49.5614 88.0749 49.5777 88.1065 49.6085 88.1382C49.6247 88.1699 49.6556 88.2015 49.6702 88.2332C49.7011 88.2648 49.7319 88.3132 49.7628 88.3448C49.7736 88.3559 49.7839 88.3665 49.7936 88.3765C49.8098 88.3932 49.8245 88.4082 49.8407 88.4248C49.8715 88.4732 49.9186 88.5048 49.9495 88.5515C49.9803 88.5832 50.0112 88.5998 50.0274 88.6315C50.0583 88.6632 50.1053 88.6948 50.1362 88.7265C50.167 88.7582 50.1979 88.7748 50.2287 88.8065C50.2758 88.8382 50.3067 88.8548 50.3521 88.8865C50.383 88.9031 50.4138 88.9348 50.4609 88.9498C50.508 88.9815 50.5535 88.9981 50.6005 89.0131C50.6314 89.0298 50.6622 89.0448 50.6931 89.0615C50.7548 89.0931 50.8019 89.1098 50.8636 89.1248C50.8944 89.1415 50.9107 89.1415 50.9415 89.1565C51.0194 89.1881 51.0974 89.2048 51.1753 89.2198H51.2062C51.3766 89.2514 51.5471 89.2831 51.7338 89.2831C51.8118 89.2831 51.9043 89.2831 51.9823 89.2665C52.0131 89.2665 52.044 89.2664 52.0602 89.2498C52.1073 89.2498 52.169 89.2331 52.2161 89.2181C52.2469 89.2181 52.2778 89.2015 52.3086 89.2015C52.3557 89.1848 52.4012 89.1848 52.4482 89.1698C52.4791 89.1531 52.5099 89.1531 52.557 89.1381C52.6041 89.1231 52.635 89.1065 52.682 89.0898C52.7129 89.0731 52.7437 89.0581 52.7746 89.0415C52.8217 89.0248 52.8525 89.0098 52.8996 88.9781C52.9305 88.9615 52.9613 88.9465 52.9922 88.9298C53.023 88.9131 53.0701 88.8815 53.1009 88.8665C53.1318 88.8498 53.1626 88.8181 53.1935 88.8031C53.2243 88.7715 53.2552 88.7548 53.286 88.7232C53.3169 88.6915 53.3477 88.6748 53.3786 88.6432C53.3894 88.632 53.3997 88.6215 53.4094 88.6115L58.9379 83.6218L58.8908 92.7246L50.1313 101.716V124.129C50.1313 125.596 51.2809 126.776 52.7097 126.776C54.1384 126.776 55.288 125.596 55.288 124.129V103.884L58.8437 100.234L58.8129 107.902C58.8129 109.368 59.9462 110.548 61.375 110.563H61.3912C62.8054 110.563 63.9695 109.383 63.9695 107.934L64.0004 100.171L67.6195 103.885V124.114C67.6195 125.581 68.769 126.761 70.1978 126.761C71.6266 126.761 72.7761 125.581 72.7761 124.114V101.701L64.0783 92.7262L64.1092 87.4016L64.1254 83.9101L69.0174 88.5648L69.0337 88.5815C69.0645 88.6132 69.1116 88.6448 69.1571 88.6765C69.1879 88.6932 69.2041 88.7248 69.235 88.7398C69.2821 88.7715 69.3129 88.8032 69.36 88.8198C69.3909 88.8365 69.4217 88.8681 69.4526 88.8831C69.4996 88.9148 69.5305 88.9315 69.5776 88.9465C69.6084 88.9631 69.6393 88.9781 69.6701 88.9948C69.7172 89.0115 69.7481 89.0265 69.7935 89.0431C69.8244 89.0581 69.8715 89.0748 69.9023 89.0915C69.9332 89.1081 69.9802 89.1231 70.0257 89.1231C70.0728 89.1398 70.1036 89.1548 70.1507 89.1548C70.1816 89.1715 70.2287 89.1715 70.2595 89.1715C70.3066 89.1881 70.3521 89.1881 70.3991 89.2031C70.43 89.2031 70.4608 89.2031 70.5079 89.2198C70.555 89.2198 70.6167 89.2365 70.6638 89.2365H70.9593C71.0064 89.2365 71.0518 89.2365 71.0843 89.2198C71.1152 89.2198 71.1622 89.2031 71.1931 89.2031C71.2402 89.2031 71.2856 89.1865 71.3327 89.1715C71.3636 89.1548 71.4107 89.1548 71.4415 89.1398C71.4886 89.1231 71.5341 89.1081 71.5649 89.1081C71.5958 89.0915 71.6428 89.0765 71.6737 89.0598C71.7208 89.0448 71.7516 89.0281 71.7971 89.0115C71.8279 88.9948 71.875 88.9798 71.9059 88.9631C71.9367 88.9465 71.9838 88.9315 72.0147 88.9148C72.0455 88.8981 72.0926 88.8665 72.1234 88.8515C72.1543 88.8365 72.1851 88.8032 72.216 88.7882C72.2468 88.7565 72.2939 88.7398 72.3248 88.7082C72.3556 88.6765 72.3865 88.6598 72.4173 88.6282C72.4482 88.5965 72.479 88.5798 72.5099 88.5482C72.5407 88.5165 72.5716 88.4848 72.6024 88.4532C72.6186 88.4382 72.6333 88.4215 72.6495 88.4048C72.6592 88.3937 72.6695 88.3832 72.6803 88.3732C72.7112 88.3415 72.742 88.2932 72.7729 88.2615C72.7891 88.2299 72.82 88.1982 72.8346 88.1815C72.8654 88.1499 72.8817 88.1015 72.9125 88.0549C72.9288 88.0232 72.9596 87.9915 72.9742 87.9599C72.9905 87.9115 73.0213 87.8799 73.0359 87.8332C73.0522 87.8015 73.0668 87.7699 73.083 87.7215C73.0992 87.6732 73.1139 87.6416 73.1301 87.5932C73.1463 87.5616 73.1609 87.5132 73.1772 87.4816C73.1934 87.4332 73.208 87.4016 73.208 87.3532C73.2243 87.3049 73.2389 87.2732 73.2389 87.2249C73.2551 87.1933 73.2551 87.1449 73.2697 87.1133C73.286 87.0649 73.286 87.0183 73.3006 86.9849C73.3006 86.9533 73.3006 86.9049 73.3168 86.8733C73.3168 86.825 73.333 86.7783 73.333 86.7299V86.7133L73.5977 79.7304L79.7009 86.0583V114.513C79.7009 115.98 80.8505 117.16 82.2793 117.16C83.7081 117.16 84.8576 115.98 84.8576 114.513V104.055L95.1385 114.608C95.6353 115.118 96.3026 115.39 96.9553 115.39C97.608 115.39 98.2753 115.135 98.7721 114.608C99.782 113.572 99.782 111.898 98.7721 110.862L84.8414 96.5626V91.398L90.1068 96.8493C91.1167 97.8859 92.7468 97.9009 93.7567 96.866C94.7666 95.8294 94.7812 94.1561 93.773 93.1195L88.4767 87.6199H93.6025L107.533 101.919C108.03 102.429 108.697 102.701 109.35 102.701C110.003 102.701 110.67 102.446 111.167 101.919C112.177 100.882 112.177 99.2091 111.167 98.1725L100.886 87.6199H111.368C112.797 87.6199 113.947 86.44 113.947 84.9734C113.947 83.5068 112.797 82.3269 111.368 82.3269H83.3671L79.7172 78.5322L77.3256 76.0456L83.9873 75.774H84.049C84.0961 75.774 84.1416 75.774 84.1887 75.7573C84.2195 75.7573 84.2666 75.7407 84.2974 75.7407C84.3445 75.7407 84.39 75.724 84.4371 75.709C84.4679 75.709 84.515 75.6923 84.5459 75.6773C84.5929 75.6607 84.6384 75.6457 84.6693 75.629C84.7001 75.6123 84.7472 75.6123 84.778 75.5973C84.8251 75.5823 84.856 75.5657 84.9014 75.549C84.9323 75.5323 84.9631 75.5173 84.994 75.5007C85.0411 75.484 85.0719 75.4524 85.119 75.4374C85.1498 75.4207 85.1807 75.4057 85.2115 75.389C85.2424 75.3724 85.2895 75.3407 85.3203 75.309C85.3512 75.2924 85.382 75.2607 85.4129 75.2457C85.4437 75.214 85.4746 75.1974 85.5054 75.1657C85.5363 75.134 85.5671 75.1174 85.598 75.0857L85.6142 75.069C85.6304 75.0524 85.6613 75.0207 85.6759 75.0057C85.7068 74.9741 85.7376 74.9424 85.7685 74.8941C85.7993 74.8624 85.8301 74.8307 85.8464 74.7991C85.8772 74.7674 85.8935 74.7357 85.9243 74.7041C85.9552 74.6724 85.9714 74.6241 86.0023 74.5924C86.0185 74.5607 86.0493 74.5291 86.064 74.4974C86.0802 74.4491 86.111 74.4174 86.1257 74.3708C86.1419 74.3391 86.1565 74.3074 86.1727 74.2591C86.189 74.2274 86.2036 74.1791 86.2198 74.1474C86.2361 74.0991 86.2507 74.0674 86.2669 74.0208C86.2831 73.9891 86.2978 73.9408 86.2978 73.9091C86.314 73.8608 86.3286 73.8141 86.3286 73.7808C86.3432 73.7491 86.3432 73.7008 86.3595 73.6691C86.3757 73.6208 86.3757 73.5741 86.3903 73.5258C86.3903 73.4775 86.4065 73.4458 86.4065 73.3991C86.4065 73.3525 86.4228 73.3192 86.4228 73.2708V73.0158C86.4228 72.9675 86.4065 72.9042 86.4065 72.8559C86.4065 72.8242 86.4065 72.7925 86.3903 72.7609C86.3903 72.7125 86.3741 72.6659 86.3595 72.6175C86.3595 72.5859 86.3432 72.5542 86.3432 72.5059C86.3286 72.4576 86.3124 72.4109 86.2961 72.3625C86.2799 72.3309 86.2799 72.2992 86.2653 72.2509C86.2491 72.2026 86.2344 72.1559 86.2036 72.1076C86.1874 72.0759 86.1727 72.0442 86.1565 72.0126C86.1403 71.9642 86.1094 71.9176 86.0948 71.8859C86.0786 71.8543 86.0639 71.8226 86.0477 71.7909C86.0169 71.7426 86.0006 71.7109 85.9698 71.6626C85.9535 71.6309 85.9227 71.5993 85.9081 71.5676C85.8772 71.5359 85.8464 71.4876 85.8155 71.4559C85.7847 71.4243 85.7685 71.3926 85.7376 71.361C85.7376 71.361 85.7214 71.3443 85.7214 71.3293L81.1086 66.213L89.774 66.2613L98.5335 75.2524H120.37C121.799 75.2524 122.948 74.0724 122.948 72.6059C122.948 71.1393 121.799 69.9594 120.37 69.9594H100.708L97.1517 66.3096L104.622 66.3413H104.638C106.051 66.3413 107.217 65.1614 107.217 63.7114C107.217 62.2615 106.083 61.065 104.655 61.05L97.0917 61.0183L100.711 57.3035H120.418L120.423 57.2969ZM68.7836 71.101L68.4264 80.762L61.5471 74.2258L54.3106 80.762V71.101L44.8058 70.7193L51.2045 63.6248L44.8058 56.5303L54.2164 56.1636L54.5736 46.5042L61.4854 53.0721L68.3972 46.5042L68.7544 56.1636L78.165 56.5303L71.7662 63.6248L78.165 70.7193L68.7852 71.101H68.7836Z" fill="white" fill-opacity="0.45"/>
</g>
</svg>
