<svg width="255" height="252" viewBox="0 0 255 252" fill="none" xmlns="http://www.w3.org/2000/svg">
<rect x="0.5" y="0.5" width="254" height="251" rx="19.5" fill="white" fill-opacity="0.25"/>
<rect x="0.5" y="0.5" width="254" height="251" rx="19.5" stroke="white"/>
<path d="M184.041 107.239C183.104 101.344 176.943 97.254 170.306 98.1143C158.019 99.7127 142.908 108.656 141.912 109.25C140.594 108.357 139.004 107.832 137.294 107.832H116.85C115.141 107.832 113.553 108.356 112.233 109.25C111.237 108.654 96.1243 99.7127 83.8384 98.1143C77.1993 97.2541 71.041 101.344 70.1038 107.237C69.9654 108.103 69.9654 143.444 70.1038 144.305C70.9554 149.672 76.1366 153.545 82.0685 153.545C82.652 153.545 83.2442 153.509 83.8379 153.43C87.3257 152.976 91.0361 151.92 94.5938 150.641C91.6673 155.339 87.8555 160.946 86.4101 163.054C85.8326 163.897 85.8369 164.982 86.4204 165.82C87.0039 166.659 88.0248 167.039 89.0191 166.793L100.889 163.825L103.482 175.169C103.663 175.967 104.23 176.618 104.998 176.911C105.282 177.021 105.58 177.074 105.874 177.074C106.372 177.074 106.862 176.922 107.277 176.629C118.759 168.521 123.987 149.481 125.344 143.713H129.207C130.564 149.482 135.793 168.523 147.273 176.629C147.689 176.923 148.18 177.076 148.677 177.076C148.972 177.076 149.269 177.023 149.554 176.914C150.321 176.621 150.888 175.969 151.072 175.169L153.665 163.825L165.533 166.791C166.529 167.043 167.548 166.661 168.134 165.82C168.717 164.982 168.721 163.896 168.144 163.052C166.719 160.973 162.988 155.488 160.077 150.832C163.472 152.026 166.991 152.999 170.305 153.43C170.901 153.509 171.491 153.546 172.075 153.546C178.004 153.546 183.187 149.673 184.037 144.308C184.175 143.442 184.175 108.101 184.037 107.239L184.041 107.239ZM116.85 111.957H137.294C139.569 111.957 141.419 113.808 141.419 116.082V135.462C141.419 137.737 139.569 139.587 137.294 139.587H116.85C114.576 139.587 112.725 137.737 112.725 135.462V121.668V121.666V116.083C112.725 113.808 114.576 111.958 116.85 111.958V111.957ZM83.306 149.34C78.8634 149.915 74.765 147.368 74.1958 143.817C74.1111 142.299 74.1111 109.247 74.1773 107.886C74.7651 104.174 78.8613 101.622 83.306 102.206C93.5051 103.532 106.446 110.681 109.491 112.43C108.939 113.536 108.6 114.767 108.6 116.085V118.525L97.2604 113.649C96.2128 113.196 94.9998 113.684 94.5503 114.728C94.1009 115.774 94.5856 116.988 95.631 117.438L108.6 123.013V128.532L95.631 134.107C94.5851 134.556 94.1005 135.771 94.5503 136.817C94.8863 137.596 95.6478 138.065 96.4456 138.065C96.7181 138.065 96.9943 138.011 97.2603 137.895L108.6 133.022V135.462C108.6 136.779 108.941 138.009 109.491 139.117C106.445 140.865 93.5051 148.012 83.3059 149.341L83.306 149.34ZM106.906 171.646L104.524 161.226C104.378 160.591 103.976 160.032 103.419 159.691C102.862 159.349 102.181 159.246 101.554 159.405L92.2958 161.721C95.0535 157.616 98.9224 151.707 100.857 148.116C107.006 145.381 111.69 142.615 112.23 142.294C113.548 143.187 115.138 143.711 116.848 143.711H121.089C119.622 149.511 115.247 164.121 106.906 171.645L106.906 171.646ZM162.254 161.721L152.998 159.406C152.363 159.241 151.686 159.351 151.131 159.691C150.574 160.031 150.172 160.59 150.026 161.23L147.643 171.645C139.303 164.123 134.931 149.51 133.461 143.711H137.291C139.001 143.711 140.589 143.187 141.909 142.294C142.466 142.626 147.406 145.548 153.82 148.36C155.796 151.971 159.558 157.709 162.253 161.72L162.254 161.721ZM179.965 143.659C179.377 147.369 175.279 149.921 170.836 149.339C160.637 148.013 147.697 140.864 144.651 139.115C145.204 138.009 145.542 136.778 145.542 135.46V133.02L156.882 137.894C157.148 138.007 157.424 138.063 157.697 138.063C158.497 138.063 159.256 137.595 159.592 136.815C160.042 135.769 159.557 134.554 158.511 134.105L145.542 128.53V123.011L158.511 117.436C159.557 116.987 160.042 115.771 159.592 114.726C159.14 113.678 157.927 113.192 156.882 113.647L145.542 118.523V116.083C145.542 114.765 145.202 113.536 144.651 112.428C147.697 110.68 160.637 103.533 170.836 102.204C175.279 101.627 179.377 104.176 179.947 107.728C180.031 109.246 180.031 142.297 179.965 143.658L179.965 143.659Z" fill="#DA78AC"/>
<rect x="113" y="1" width="30" height="81" fill="#DA78AC"/>
<rect x="113" y="192" width="30" height="59" fill="#DA78AC"/>
<rect x="55" y="112" width="30" height="54" transform="rotate(90 55 112)" fill="#DA78AC"/>
<rect x="254" y="112" width="30" height="54" transform="rotate(90 254 112)" fill="#DA78AC"/>
</svg>
